M48
;GenerationSoftware,Autodesk,EAGLE,9.6.2*%
;CreationDate,2024-11-06T01:47:00Z*%
FMAT,2
ICI,OFF
METRIC,TZ,000.000
T11C0.350
T10C0.500
T9C0.800
T8C1.000
T7C1.200
T6C1.700
T5C2.973
T4C3.000
T3C3.200
T2C4.000
T1C4.100
%
G90
M71
T1
X158496Y13208
X98933Y13208
X138430Y13081
X79248Y13208
X118745Y13208
T2
X158496Y13208
X138430Y13081
X98933Y13208
X118745Y13208
X79248Y13208
T3
X165100Y2032
X165100Y93853
X73279Y93853
X73279Y2032
T4
X154686Y15748
X95123Y15748
X161036Y18288
X81788Y18288
X75438Y15748
X134620Y15621
X121285Y18288
X140970Y18161
X101473Y18288
X114935Y15748
T5
X123145Y45850
X144145Y83854
X114345Y45850
X102190Y45723
X93390Y45723
X156300Y83830
X165100Y83830
X81362Y45723
X72562Y45723
X135345Y83854
X165944Y45723
X157144Y45723
X72480Y83799
X81280Y83799
X93435Y83775
X144100Y45723
X135300Y45723
X102235Y83775
X114390Y83878
X123190Y83878
T6
X123825Y13208
X84328Y13208
X113665Y13208
X163576Y13208
X153416Y13208
X163576Y13208
X123825Y13208
X133350Y13081
X74168Y13208
X133350Y13081
X143510Y13081
X153416Y13208
X143510Y13081
X74168Y13208
X104013Y13208
X93853Y13208
X104013Y13208
X93853Y13208
X84328Y13208
X113665Y13208
T7
X139700Y38723
X137200Y38723
X164044Y38723
X79462Y38723
X95290Y38723
X97790Y38723
X100290Y38723
X76962Y38723
X116245Y38850
X118745Y38850
X121245Y38850
X74380Y76799
X76880Y76799
X79380Y76799
X160700Y76830
X163200Y76830
X95335Y76775
X158200Y76830
X100335Y76775
X74462Y38723
X161544Y38723
X116290Y76878
X118790Y76878
X121290Y76878
X159044Y38723
X142200Y38723
X137245Y76854
X139745Y76854
X142245Y76854
X97835Y76775
T8
X73787Y61316
X73787Y63856
X73787Y66396
X73787Y58776
T9
X99606Y70256
X97066Y70256
X100876Y61366
X100876Y58826
X100876Y63906
X100876Y66446
X145326Y55016
X142786Y55016
X140246Y55016
X137706Y55016
X135166Y55016
X132626Y55016
X130086Y55016
X127546Y55016
X125006Y55016
X122466Y55016
X119926Y55016
X117386Y55016
X114846Y55016
X112306Y55016
X109766Y55016
X107226Y55016
X104686Y55016
X102146Y55016
X99606Y55016
X97066Y55016
X145326Y70256
X142786Y70256
X140246Y70256
X137706Y70256
X135166Y70256
X132626Y70256
X130086Y70256
X127546Y70256
X125006Y70256
X122466Y70256
X119926Y70256
X117386Y70256
X114846Y70256
X112306Y70256
X109766Y70256
X107226Y70256
X104686Y70256
X102146Y70256
T10
X163513Y92265
X71692Y444
X73279Y4255
X73279Y-190
X75502Y2032
X71057Y2032
X71692Y3619
X74867Y3619
X74867Y444
X165100Y4255
X165100Y-190
X162878Y2032
X167323Y2032
X166688Y3619
X163513Y3619
X163513Y444
X166688Y444
X73279Y96075
X73279Y91630
X75502Y93853
X71057Y93853
X71692Y95440
X74867Y95440
X74867Y92265
X71692Y92265
X165100Y96075
X165100Y91630
X167323Y93853
X162878Y93853
X163513Y95440
X166688Y95440
X166688Y92265
T11
X107823Y5969
X85852Y5842
X91821Y5842
X89789Y22860
X94742Y9017
X114808Y9017
X133731Y8890
X153924Y8763
X85471Y21082
X105410Y21082
X158521Y71955
X164846Y20828
X74930Y8890
X90678Y10795
X83820Y27813
X89281Y7620
X87376Y7620
X89281Y9144
X87249Y9144
X124917Y60782
X124993Y59055
X144780Y21082
X71628Y17780
X86233Y25146
X159537Y72689
X139573Y42037
X157302Y71857
X118745Y42037
X85852Y41910
X117399Y67691
X87452Y54864
X86868Y42799
X84943Y41910
X84303Y54889
X149098Y55499
X151003Y37338
X128143Y6223
X149352Y5842
X124968Y20828
M30