M48
;GenerationSoftware,Autodesk,EAGLE,9.6.2*%
;CreationDate,2024-11-04T07:18:00Z*%
FMAT,2
ICI,OFF
METRIC,TZ,000.000
T11C0.350
T10C0.500
T9C0.800
T8C1.000
T7C1.200
T6C1.700
T5C2.973
T4C3.000
T3C3.200
T2C4.000
T1C4.100
%
G90
M71
T1
X49530Y8890
X89281Y8890
X29718Y8890
X69215Y8763
X10033Y8890
T2
X49530Y8890
X89281Y8890
X29718Y8890
X69215Y8763
X10033Y8890
T3
X95885Y-2286
X95885Y89535
X4064Y89535
X4064Y-2286
T4
X32258Y13970
X12573Y13970
X85471Y11430
X91821Y13970
X6223Y11430
X45720Y11430
X65405Y11303
X25908Y11430
X71755Y13843
X52070Y13970
T5
X66130Y79536
X32975Y41405
X24175Y41405
X87085Y79512
X95885Y79512
X12147Y41405
X3347Y41405
X45130Y41532
X96729Y41405
X87929Y41405
X3265Y79481
X12065Y79481
X74930Y79536
X74885Y41405
X66085Y41405
X24220Y79457
X33020Y79457
X45175Y79560
X53930Y41532
X53975Y79560
T6
X54610Y8890
X4953Y8890
X84201Y8890
X34798Y8890
X24638Y8890
X94361Y8890
X94361Y8890
X64135Y8763
X74295Y8763
X15113Y8890
X4953Y8890
X64135Y8763
X84201Y8890
X74295Y8763
X44450Y8890
X54610Y8890
X34798Y8890
X44450Y8890
X24638Y8890
X15113Y8890
T7
X72985Y34405
X70485Y34405
X67985Y34405
X52030Y34532
X7747Y34405
X10247Y34405
X26075Y34405
X94829Y34405
X28575Y34405
X31075Y34405
X47030Y34532
X49530Y34532
X5165Y72481
X7665Y72481
X10165Y72481
X26120Y72457
X28620Y72457
X88985Y72512
X91485Y72512
X93985Y72512
X47075Y72560
X49575Y72560
X52075Y72560
X5247Y34405
X92329Y34405
X68030Y72536
X70530Y72536
X73030Y72536
X89829Y34405
X31120Y72457
T8
X4572Y62103
X4572Y57023
X4572Y54483
X4572Y59563
T9
X76264Y66421
X72454Y57531
X72454Y54991
X72454Y60071
X72454Y62611
X28003Y51181
X30543Y51181
X33084Y51181
X35624Y51181
X38164Y51181
X40704Y51181
X43244Y51181
X45783Y51181
X48323Y51181
X50863Y51181
X53403Y51181
X55943Y51181
X58483Y51181
X61023Y51181
X63563Y51181
X66104Y51181
X68644Y51181
X71184Y51181
X73724Y51181
X76264Y51181
X28003Y66421
X30543Y66421
X33084Y66421
X35624Y66421
X38164Y66421
X40704Y66421
X43244Y66421
X45783Y66421
X48323Y66421
X50863Y66421
X53403Y66421
X55943Y66421
X58483Y66421
X61023Y66421
X63563Y66421
X66104Y66421
X68644Y66421
X71184Y66421
X73724Y66421
T10
X94297Y87947
X4064Y-63
X4064Y-4509
X6286Y-2286
X1841Y-2286
X2477Y-698
X5651Y-698
X5651Y-3873
X2477Y-3873
X95885Y-63
X95885Y-4509
X93662Y-2286
X98107Y-2286
X97472Y-698
X94297Y-698
X94297Y-3873
X97472Y-3873
X4064Y91757
X4064Y87313
X6286Y89535
X1841Y89535
X2477Y91122
X5651Y91122
X5651Y87947
X2477Y87947
X95885Y91757
X95885Y87313
X98107Y89535
X93662Y89535
X94297Y91122
X97472Y91122
X97472Y87947
T11
X22606Y1524
X95631Y16510
X75565Y16764
X14605Y23495
X25527Y4699
X45593Y4699
X64516Y4572
X84709Y4445
X16256Y16764
X58801Y20701
X21463Y6477
X5715Y4572
X20574Y18542
X20066Y3302
X18161Y3302
X20066Y4826
X18034Y4826
X61595Y21209
X61595Y19304
X59182Y19558
X55753Y16510
X59944Y22987
X60452Y25019
X2413Y13462
X17018Y20828
X58039Y21463
X60960Y27686
X70358Y37719
X49530Y37719
X81788Y33020
X16637Y37592
X17653Y38481
X15728Y37592
X58928Y1905
X80137Y1524
X38608Y1651
X16637Y1524
X36195Y16764
M30