G04 EAGLE Gerber RS-274X export*
G75*
%MOMM*%
%FSLAX34Y34*%
%LPD*%
%INBottom Copper*%
%IPPOS*%
%AMOC8*
5,1,8,0,0,1.08239X$1,22.5*%
G01*
%ADD10C,1.800000*%
%ADD11C,4.460000*%
%ADD12C,1.308000*%
%ADD13R,2.700000X2.000000*%
%ADD14C,1.508000*%
%ADD15R,1.800000X0.820000*%
%ADD16C,6.000000*%
%ADD17C,1.008000*%
%ADD18C,0.406400*%
%ADD19C,0.756400*%
%ADD20C,0.254000*%


D10*
X51650Y724810D03*
X76650Y724810D03*
X101650Y724810D03*
D11*
X32650Y794810D03*
X120650Y794810D03*
D10*
X261200Y724570D03*
X286200Y724570D03*
X311200Y724570D03*
D11*
X242200Y794570D03*
X330200Y794570D03*
D10*
X470750Y725600D03*
X495750Y725600D03*
X520750Y725600D03*
D11*
X451750Y795600D03*
X539750Y795600D03*
D10*
X680300Y725360D03*
X705300Y725360D03*
X730300Y725360D03*
D11*
X661300Y795360D03*
X749300Y795360D03*
D10*
X889850Y725120D03*
X914850Y725120D03*
X939850Y725120D03*
D11*
X870850Y795120D03*
X958850Y795120D03*
D12*
X280035Y518350D02*
X280035Y505270D01*
X305435Y505270D02*
X305435Y518350D01*
X330835Y518350D02*
X330835Y505270D01*
X356235Y505270D02*
X356235Y518350D01*
X381635Y518350D02*
X381635Y505270D01*
X407035Y505270D02*
X407035Y518350D01*
X432435Y518350D02*
X432435Y505270D01*
X457835Y505270D02*
X457835Y518350D01*
X483235Y518350D02*
X483235Y505270D01*
X508635Y505270D02*
X508635Y518350D01*
X534035Y518350D02*
X534035Y505270D01*
X559435Y505270D02*
X559435Y518350D01*
X584835Y518350D02*
X584835Y505270D01*
X610235Y505270D02*
X610235Y518350D01*
X635635Y518350D02*
X635635Y505270D01*
X661035Y505270D02*
X661035Y518350D01*
X686435Y518350D02*
X686435Y505270D01*
X711835Y505270D02*
X711835Y518350D01*
X737235Y518350D02*
X737235Y505270D01*
X762635Y505270D02*
X762635Y518350D01*
X280035Y657670D02*
X280035Y670750D01*
X305435Y670750D02*
X305435Y657670D01*
X330835Y657670D02*
X330835Y670750D01*
X356235Y670750D02*
X356235Y657670D01*
X381635Y657670D02*
X381635Y670750D01*
X407035Y670750D02*
X407035Y657670D01*
X432435Y657670D02*
X432435Y670750D01*
X457835Y670750D02*
X457835Y657670D01*
X483235Y657670D02*
X483235Y670750D01*
X508635Y670750D02*
X508635Y657670D01*
X534035Y657670D02*
X534035Y670750D01*
X559435Y670750D02*
X559435Y657670D01*
X584835Y657670D02*
X584835Y670750D01*
X610235Y670750D02*
X610235Y657670D01*
X635635Y657670D02*
X635635Y670750D01*
X661035Y670750D02*
X661035Y657670D01*
X686435Y657670D02*
X686435Y670750D01*
X711835Y670750D02*
X711835Y657670D01*
X737235Y657670D02*
X737235Y670750D01*
X762635Y670750D02*
X762635Y657670D01*
X731075Y575310D02*
X717995Y575310D01*
X717995Y549910D02*
X731075Y549910D01*
X731075Y600710D02*
X717995Y600710D01*
X717995Y626110D02*
X731075Y626110D01*
D10*
X52470Y344050D03*
X77470Y344050D03*
X102470Y344050D03*
D11*
X33470Y414050D03*
X121470Y414050D03*
D10*
X260750Y344050D03*
X285750Y344050D03*
X310750Y344050D03*
D11*
X241750Y414050D03*
X329750Y414050D03*
D10*
X470300Y345320D03*
X495300Y345320D03*
X520300Y345320D03*
D11*
X451300Y415320D03*
X539300Y415320D03*
D10*
X679850Y344050D03*
X704850Y344050D03*
X729850Y344050D03*
D11*
X660850Y414050D03*
X748850Y414050D03*
D10*
X898290Y344050D03*
X923290Y344050D03*
X948290Y344050D03*
D11*
X879290Y414050D03*
X967290Y414050D03*
D13*
X24080Y114300D03*
X163880Y139700D03*
X220930Y114300D03*
X360730Y139700D03*
X419050Y114300D03*
X558850Y139700D03*
X615900Y113030D03*
X755700Y138430D03*
X816560Y114300D03*
X956360Y139700D03*
D14*
X53260Y544830D02*
X38180Y544830D01*
X38180Y570230D02*
X53260Y570230D01*
X53260Y595630D02*
X38180Y595630D01*
X38180Y621030D02*
X53260Y621030D01*
D15*
X125330Y32900D03*
X125330Y48380D03*
X75330Y48380D03*
X75330Y32900D03*
X323450Y30360D03*
X323450Y45840D03*
X273450Y45840D03*
X273450Y30360D03*
X520300Y31630D03*
X520300Y47110D03*
X470300Y47110D03*
X470300Y31630D03*
X717150Y30360D03*
X717150Y45840D03*
X667150Y45840D03*
X667150Y30360D03*
X919080Y31630D03*
X919080Y47110D03*
X869080Y47110D03*
X869080Y31630D03*
D16*
X40640Y-22860D03*
D17*
X40640Y-635D03*
X40640Y-45085D03*
X62865Y-22860D03*
X18415Y-22860D03*
X24765Y-6985D03*
X56515Y-6985D03*
X56515Y-38735D03*
X24765Y-38735D03*
D16*
X958850Y-22860D03*
D17*
X958850Y-635D03*
X958850Y-45085D03*
X936625Y-22860D03*
X981075Y-22860D03*
X974725Y-6985D03*
X942975Y-6985D03*
X942975Y-38735D03*
X974725Y-38735D03*
D16*
X40640Y895350D03*
D17*
X40640Y917575D03*
X40640Y873125D03*
X62865Y895350D03*
X18415Y895350D03*
X24765Y911225D03*
X56515Y911225D03*
X56515Y879475D03*
X24765Y879475D03*
D16*
X958850Y895350D03*
D17*
X958850Y917575D03*
X958850Y873125D03*
X981075Y895350D03*
X936625Y895350D03*
X942975Y911225D03*
X974725Y911225D03*
X974725Y879475D03*
X942975Y879475D03*
D18*
X75330Y48380D02*
X58540Y48380D01*
X57150Y46990D01*
X57150Y45720D01*
D19*
X57150Y45720D03*
X255270Y46990D03*
D18*
X266185Y46990D01*
X267335Y45840D02*
X273450Y45840D01*
X267335Y45840D02*
X266185Y46990D01*
D19*
X455930Y46990D03*
D18*
X456050Y47110D01*
X470300Y47110D01*
D19*
X645160Y45720D03*
D18*
X645280Y45840D01*
X667150Y45840D01*
D19*
X847090Y44450D03*
D18*
X849750Y47110D01*
X869080Y47110D01*
X163880Y139700D02*
X162560Y141020D01*
X162560Y167640D01*
D19*
X162560Y167640D03*
X361950Y167640D03*
D18*
X361950Y140920D01*
X360730Y139700D01*
D19*
X557530Y165100D03*
D18*
X558850Y163780D01*
X558850Y139700D01*
D19*
X755650Y167640D03*
D18*
X755700Y167590D01*
X755700Y139700D01*
X755700Y138430D01*
D19*
X956310Y165100D03*
D18*
X956360Y165050D01*
X956360Y139700D01*
X847090Y44450D02*
X795020Y44450D01*
X786130Y53340D02*
X786130Y134620D01*
X783590Y137160D01*
X758240Y137160D02*
X755700Y139700D01*
X786130Y53340D02*
X795020Y44450D01*
X783590Y137160D02*
X758240Y137160D01*
X645160Y45720D02*
X600710Y45720D01*
X586740Y59690D02*
X586740Y132080D01*
X579120Y139700D01*
X586740Y59690D02*
X600710Y45720D01*
X579120Y139700D02*
X558850Y139700D01*
X455930Y46990D02*
X403860Y46990D01*
X387350Y139700D02*
X367030Y139700D01*
X393700Y57150D02*
X403860Y46990D01*
X393700Y57150D02*
X393700Y133350D01*
X387350Y139700D01*
D20*
X387959Y50666D02*
X390786Y47839D01*
X387959Y50666D02*
X335244Y50666D01*
X335244Y51097D01*
X333607Y52734D01*
X328549Y52734D01*
X328549Y57010D01*
X326712Y61444D01*
X323318Y64838D01*
X319751Y66316D01*
X322730Y69295D01*
X326934Y76575D01*
X328733Y83288D01*
X331084Y77611D01*
X336691Y72004D01*
X344016Y68970D01*
X351944Y68970D01*
X359269Y72004D01*
X364876Y77611D01*
X367910Y84936D01*
X367910Y92864D01*
X364876Y100189D01*
X359269Y105796D01*
X351944Y108830D01*
X344016Y108830D01*
X336691Y105796D01*
X331084Y100189D01*
X328733Y94512D01*
X326934Y101225D01*
X322730Y108505D01*
X317550Y113685D01*
X319100Y113270D01*
X326060Y113270D01*
X332782Y115071D01*
X338808Y118551D01*
X343729Y123472D01*
X345396Y126359D01*
X345759Y126150D01*
X346728Y125890D01*
X359460Y125890D01*
X359460Y138430D01*
X362000Y138430D01*
X362000Y125890D01*
X374732Y125890D01*
X375701Y126150D01*
X376569Y126651D01*
X377279Y127361D01*
X377780Y128229D01*
X378040Y129198D01*
X378040Y138430D01*
X362000Y138430D01*
X362000Y140970D01*
X378040Y140970D01*
X378040Y150202D01*
X377780Y151171D01*
X377279Y152039D01*
X376569Y152749D01*
X375701Y153250D01*
X374732Y153510D01*
X362000Y153510D01*
X362000Y140970D01*
X359460Y140970D01*
X359460Y153510D01*
X346728Y153510D01*
X345759Y153250D01*
X345396Y153041D01*
X343729Y155928D01*
X338808Y160849D01*
X332782Y164329D01*
X326060Y166130D01*
X319100Y166130D01*
X312378Y164329D01*
X306352Y160849D01*
X301431Y155928D01*
X297951Y149902D01*
X296150Y143180D01*
X296150Y136220D01*
X297951Y129498D01*
X301431Y123472D01*
X305057Y119846D01*
X301384Y120830D01*
X292976Y120830D01*
X285248Y118759D01*
X283709Y124502D01*
X280229Y130528D01*
X275308Y135449D01*
X269282Y138929D01*
X262560Y140730D01*
X255600Y140730D01*
X248878Y138929D01*
X242852Y135449D01*
X237931Y130528D01*
X235816Y126865D01*
X235587Y127094D01*
X225756Y127094D01*
X225756Y185911D01*
X238219Y198374D01*
X585860Y198374D01*
X585649Y197866D01*
X434881Y197866D01*
X417051Y180036D01*
X417051Y180036D01*
X414224Y177209D01*
X414224Y127094D01*
X404393Y127094D01*
X402756Y125457D01*
X402756Y103143D01*
X404393Y101506D01*
X428921Y101506D01*
X427604Y100189D01*
X424570Y92864D01*
X424570Y84936D01*
X427604Y77611D01*
X433211Y72004D01*
X440536Y68970D01*
X448464Y68970D01*
X455789Y72004D01*
X461396Y77611D01*
X463747Y83288D01*
X465546Y76575D01*
X469750Y69295D01*
X472128Y66916D01*
X470178Y66108D01*
X466784Y62714D01*
X464947Y58280D01*
X464947Y55020D01*
X460798Y55020D01*
X459829Y54760D01*
X458961Y54259D01*
X458251Y53549D01*
X457750Y52681D01*
X457490Y51712D01*
X457490Y47890D01*
X464947Y47890D01*
X464947Y46330D01*
X457490Y46330D01*
X457490Y42508D01*
X457750Y41539D01*
X458251Y40671D01*
X458961Y39961D01*
X459829Y39460D01*
X460798Y39200D01*
X464947Y39200D01*
X464947Y38524D01*
X460143Y38524D01*
X458506Y36887D01*
X458506Y36456D01*
X402169Y36456D01*
X390786Y47839D01*
X390786Y47839D01*
X323121Y-254D02*
X207739Y-254D01*
X205486Y1999D01*
X205486Y28546D01*
X206235Y29295D01*
X207236Y31712D01*
X207236Y34328D01*
X206235Y36745D01*
X204385Y38595D01*
X201968Y39596D01*
X199352Y39596D01*
X196935Y38595D01*
X196596Y38256D01*
X196596Y43024D01*
X196935Y42685D01*
X199352Y41684D01*
X201968Y41684D01*
X204385Y42685D01*
X205134Y43434D01*
X239301Y43434D01*
X254374Y28361D01*
X257201Y25534D01*
X261656Y25534D01*
X261656Y25103D01*
X263293Y23466D01*
X268097Y23466D01*
X268097Y19952D01*
X269934Y15518D01*
X273328Y12124D01*
X277762Y10287D01*
X318884Y10287D01*
X323318Y12124D01*
X324485Y13291D01*
X324485Y1110D01*
X324104Y729D01*
X323121Y-254D01*
X334137Y348D02*
X334739Y-254D01*
X334137Y348D02*
X334137Y23996D01*
X335244Y25103D01*
X335244Y35617D01*
X333607Y37254D01*
X328549Y37254D01*
X328549Y38946D01*
X333607Y38946D01*
X335244Y40583D01*
X335244Y41014D01*
X383961Y41014D01*
X398171Y26804D01*
X458506Y26804D01*
X458506Y26373D01*
X460143Y24736D01*
X464947Y24736D01*
X464947Y21222D01*
X466784Y16788D01*
X470178Y13394D01*
X474612Y11557D01*
X515734Y11557D01*
X520168Y13394D01*
X521335Y14561D01*
X521335Y6190D01*
X514891Y-254D01*
X334739Y-254D01*
X857286Y26373D02*
X857286Y26804D01*
X857286Y26373D02*
X858923Y24736D01*
X863727Y24736D01*
X863727Y21222D01*
X865564Y16788D01*
X868958Y13394D01*
X873392Y11557D01*
X914514Y11557D01*
X918948Y13394D01*
X920115Y14561D01*
X920115Y7460D01*
X912401Y-254D01*
X730979Y-254D01*
X728345Y2380D01*
X728345Y2380D01*
X727837Y2888D01*
X727837Y23996D01*
X728944Y25103D01*
X728944Y27309D01*
X729996Y28361D01*
X729996Y32359D01*
X728944Y33411D01*
X728944Y35617D01*
X727307Y37254D01*
X722249Y37254D01*
X722249Y38946D01*
X727307Y38946D01*
X728944Y40583D01*
X728944Y41014D01*
X773851Y41014D01*
X788061Y26804D01*
X792059Y26804D01*
X857286Y26804D01*
X715551Y-254D02*
X537431Y-254D01*
X530987Y6190D01*
X530987Y25266D01*
X532094Y26373D01*
X532094Y36887D01*
X530457Y38524D01*
X525399Y38524D01*
X525399Y40216D01*
X530457Y40216D01*
X532094Y41853D01*
X532094Y42284D01*
X584621Y42284D01*
X598544Y28361D01*
X601371Y25534D01*
X655356Y25534D01*
X655356Y25103D01*
X656993Y23466D01*
X661797Y23466D01*
X661797Y19952D01*
X663634Y15518D01*
X667028Y12124D01*
X671462Y10287D01*
X712584Y10287D01*
X717018Y12124D01*
X718185Y13291D01*
X718185Y2380D01*
X715551Y-254D01*
X186944Y3269D02*
X182151Y-1524D01*
X80739Y-1524D01*
X74041Y5174D01*
X74041Y15831D01*
X75208Y14664D01*
X79642Y12827D01*
X120764Y12827D01*
X125198Y14664D01*
X128592Y18058D01*
X130429Y22492D01*
X130429Y26006D01*
X135487Y26006D01*
X137124Y27643D01*
X137124Y28074D01*
X177256Y28074D01*
X177885Y27445D01*
X180302Y26444D01*
X182918Y26444D01*
X185335Y27445D01*
X186944Y29054D01*
X186944Y3269D01*
X717700Y107235D02*
X721904Y99955D01*
X717700Y107235D02*
X712520Y112415D01*
X714070Y112000D01*
X721030Y112000D01*
X727752Y113801D01*
X733778Y117281D01*
X738699Y122202D01*
X740366Y125089D01*
X740729Y124880D01*
X741698Y124620D01*
X754430Y124620D01*
X754430Y137160D01*
X756970Y137160D01*
X756970Y124620D01*
X769702Y124620D01*
X770671Y124880D01*
X771539Y125381D01*
X772249Y126091D01*
X772750Y126959D01*
X773010Y127928D01*
X773010Y137160D01*
X756970Y137160D01*
X756970Y139700D01*
X773010Y139700D01*
X773010Y148932D01*
X772750Y149901D01*
X772249Y150769D01*
X771539Y151479D01*
X770671Y151980D01*
X769702Y152240D01*
X756970Y152240D01*
X756970Y139700D01*
X754430Y139700D01*
X754430Y152240D01*
X741698Y152240D01*
X740729Y151980D01*
X740366Y151771D01*
X738699Y154658D01*
X733778Y159579D01*
X727752Y163059D01*
X721030Y164860D01*
X714070Y164860D01*
X707348Y163059D01*
X701322Y159579D01*
X696401Y154658D01*
X692921Y148632D01*
X691120Y141910D01*
X691120Y134950D01*
X692921Y128228D01*
X696401Y122202D01*
X700027Y118576D01*
X696354Y119560D01*
X687946Y119560D01*
X680218Y117489D01*
X678679Y123232D01*
X675199Y129258D01*
X670278Y134179D01*
X664252Y137659D01*
X657530Y139460D01*
X650570Y139460D01*
X643848Y137659D01*
X637822Y134179D01*
X632901Y129258D01*
X630786Y125595D01*
X630557Y125824D01*
X620726Y125824D01*
X620726Y188516D01*
X621525Y189315D01*
X622526Y191732D01*
X622526Y194348D01*
X621525Y196765D01*
X619675Y198615D01*
X617258Y199616D01*
X614642Y199616D01*
X612225Y198615D01*
X610375Y196765D01*
X609374Y194348D01*
X609374Y191732D01*
X610375Y189315D01*
X611074Y188616D01*
X611074Y125824D01*
X601243Y125824D01*
X599606Y124187D01*
X599606Y101873D01*
X601243Y100236D01*
X625771Y100236D01*
X624454Y98919D01*
X621420Y91594D01*
X621420Y83666D01*
X624454Y76341D01*
X630061Y70734D01*
X637386Y67700D01*
X645314Y67700D01*
X652639Y70734D01*
X658246Y76341D01*
X660597Y82018D01*
X662396Y75305D01*
X666600Y68025D01*
X668978Y65646D01*
X667028Y64838D01*
X663634Y61444D01*
X661797Y57010D01*
X661797Y53750D01*
X657648Y53750D01*
X656679Y53490D01*
X655811Y52989D01*
X655101Y52279D01*
X654600Y51411D01*
X654340Y50442D01*
X654340Y46620D01*
X661797Y46620D01*
X661797Y45060D01*
X654340Y45060D01*
X654340Y41238D01*
X654600Y40269D01*
X655101Y39401D01*
X655811Y38691D01*
X656679Y38190D01*
X657648Y37930D01*
X661797Y37930D01*
X661797Y37254D01*
X656993Y37254D01*
X655356Y35617D01*
X655356Y35186D01*
X605369Y35186D01*
X588619Y51936D01*
X532094Y51936D01*
X532094Y52367D01*
X530457Y54004D01*
X525399Y54004D01*
X525399Y58280D01*
X523562Y62714D01*
X520168Y66108D01*
X518397Y66842D01*
X520850Y69295D01*
X525054Y76575D01*
X526853Y83288D01*
X529204Y77611D01*
X534811Y72004D01*
X542136Y68970D01*
X550064Y68970D01*
X557389Y72004D01*
X562996Y77611D01*
X566030Y84936D01*
X566030Y92864D01*
X562996Y100189D01*
X557389Y105796D01*
X550064Y108830D01*
X542136Y108830D01*
X534811Y105796D01*
X529204Y100189D01*
X526853Y94512D01*
X525054Y101225D01*
X520850Y108505D01*
X515670Y113685D01*
X517220Y113270D01*
X524180Y113270D01*
X530902Y115071D01*
X536928Y118551D01*
X541849Y123472D01*
X543516Y126359D01*
X543879Y126150D01*
X544848Y125890D01*
X557580Y125890D01*
X557580Y138430D01*
X560120Y138430D01*
X560120Y125890D01*
X572852Y125890D01*
X573821Y126150D01*
X574689Y126651D01*
X575399Y127361D01*
X575900Y128229D01*
X576160Y129198D01*
X576160Y138430D01*
X560120Y138430D01*
X560120Y140970D01*
X576160Y140970D01*
X576160Y150202D01*
X575900Y151171D01*
X575399Y152039D01*
X574689Y152749D01*
X573821Y153250D01*
X572852Y153510D01*
X560120Y153510D01*
X560120Y140970D01*
X557580Y140970D01*
X557580Y153510D01*
X544848Y153510D01*
X543879Y153250D01*
X543516Y153041D01*
X541849Y155928D01*
X536928Y160849D01*
X530902Y164329D01*
X524180Y166130D01*
X517220Y166130D01*
X510498Y164329D01*
X504472Y160849D01*
X499551Y155928D01*
X496071Y149902D01*
X494270Y143180D01*
X494270Y136220D01*
X496071Y129498D01*
X499551Y123472D01*
X503177Y119846D01*
X499504Y120830D01*
X491096Y120830D01*
X483368Y118759D01*
X481829Y124502D01*
X478349Y130528D01*
X473428Y135449D01*
X467402Y138929D01*
X460680Y140730D01*
X453720Y140730D01*
X446998Y138929D01*
X440972Y135449D01*
X436051Y130528D01*
X433936Y126865D01*
X433707Y127094D01*
X423876Y127094D01*
X423876Y173211D01*
X438879Y188214D01*
X591279Y188214D01*
X592069Y189004D01*
X593128Y189004D01*
X595545Y190005D01*
X597395Y191855D01*
X598396Y194272D01*
X598396Y196888D01*
X597395Y199305D01*
X595545Y201155D01*
X593128Y202156D01*
X592456Y202156D01*
X593585Y203285D01*
X594392Y205233D01*
X597154Y202471D01*
X599981Y199644D01*
X803181Y199644D01*
X811734Y191091D01*
X811734Y127094D01*
X801903Y127094D01*
X800266Y125457D01*
X800266Y103143D01*
X801903Y101506D01*
X826431Y101506D01*
X825114Y100189D01*
X822080Y92864D01*
X822080Y84936D01*
X825114Y77611D01*
X830721Y72004D01*
X838046Y68970D01*
X845974Y68970D01*
X853299Y72004D01*
X858906Y77611D01*
X861257Y83288D01*
X863056Y76575D01*
X867260Y69295D01*
X870010Y66544D01*
X868958Y66108D01*
X865564Y62714D01*
X863727Y58280D01*
X863727Y55020D01*
X859578Y55020D01*
X858609Y54760D01*
X857741Y54259D01*
X857031Y53549D01*
X856530Y52681D01*
X856270Y51712D01*
X856270Y47890D01*
X863727Y47890D01*
X863727Y46330D01*
X856270Y46330D01*
X856270Y42508D01*
X856530Y41539D01*
X857031Y40671D01*
X857741Y39961D01*
X858609Y39460D01*
X859578Y39200D01*
X863727Y39200D01*
X863727Y38524D01*
X858923Y38524D01*
X857286Y36887D01*
X857286Y36456D01*
X792059Y36456D01*
X777849Y50666D01*
X728944Y50666D01*
X728944Y51097D01*
X727307Y52734D01*
X722249Y52734D01*
X722249Y57010D01*
X720412Y61444D01*
X717018Y64838D01*
X715247Y65572D01*
X717700Y68025D01*
X721904Y75305D01*
X723703Y82018D01*
X726054Y76341D01*
X731661Y70734D01*
X738986Y67700D01*
X746914Y67700D01*
X754239Y70734D01*
X759846Y76341D01*
X762880Y83666D01*
X762880Y91594D01*
X759846Y98919D01*
X754239Y104526D01*
X746914Y107560D01*
X738986Y107560D01*
X731661Y104526D01*
X726054Y98919D01*
X723703Y93242D01*
X721904Y99955D01*
X221206Y66078D02*
X221206Y63462D01*
X221206Y66078D02*
X220205Y68495D01*
X218355Y70345D01*
X216298Y71197D01*
X202946Y84549D01*
X202946Y135161D01*
X207739Y139954D01*
X210566Y142781D01*
X210566Y180946D01*
X211315Y181695D01*
X212316Y184112D01*
X212316Y186728D01*
X211315Y189145D01*
X209465Y190995D01*
X207048Y191996D01*
X204432Y191996D01*
X202015Y190995D01*
X200165Y189145D01*
X199164Y186728D01*
X199164Y184112D01*
X200165Y181695D01*
X200914Y180946D01*
X200914Y146779D01*
X196596Y142461D01*
X196596Y179799D01*
X193769Y182626D01*
X193769Y182626D01*
X183609Y192786D01*
X165829Y192786D01*
X162108Y196507D01*
X162108Y358117D01*
X165354Y354871D01*
X168181Y352044D01*
X224249Y352044D01*
X234409Y362204D01*
X278671Y362204D01*
X280924Y359951D01*
X280924Y354817D01*
X279069Y354048D01*
X275752Y350731D01*
X273956Y346396D01*
X273956Y341704D01*
X275752Y337369D01*
X279069Y334052D01*
X283404Y332256D01*
X288096Y332256D01*
X292431Y334052D01*
X295748Y337369D01*
X297544Y341704D01*
X297544Y346396D01*
X295748Y350731D01*
X292431Y354048D01*
X290576Y354817D01*
X290576Y363949D01*
X287749Y366776D01*
X282669Y371856D01*
X230411Y371856D01*
X220251Y361696D01*
X172179Y361696D01*
X171196Y362679D01*
X171196Y371446D01*
X171945Y372195D01*
X172946Y374612D01*
X172946Y377228D01*
X172330Y378714D01*
X174063Y378714D01*
X175222Y378234D01*
X177838Y378234D01*
X180255Y379235D01*
X182105Y381085D01*
X183106Y383502D01*
X183106Y386118D01*
X182105Y388535D01*
X180255Y390385D01*
X177838Y391386D01*
X175222Y391386D01*
X172805Y390385D01*
X170955Y388535D01*
X170885Y388366D01*
X79281Y388366D01*
X72644Y381729D01*
X72644Y354817D01*
X70789Y354048D01*
X67472Y350731D01*
X65676Y346396D01*
X65676Y341704D01*
X67472Y337369D01*
X70789Y334052D01*
X75124Y332256D01*
X79816Y332256D01*
X84151Y334052D01*
X87468Y337369D01*
X89264Y341704D01*
X89264Y346396D01*
X87468Y350731D01*
X84151Y354048D01*
X82296Y354817D01*
X82296Y377731D01*
X83279Y378714D01*
X151322Y378714D01*
X150706Y377228D01*
X150706Y374612D01*
X151707Y372195D01*
X152456Y371446D01*
X152456Y236668D01*
X151625Y238675D01*
X149775Y240525D01*
X147358Y241526D01*
X144742Y241526D01*
X142325Y240525D01*
X141576Y239776D01*
X47719Y239776D01*
X35306Y252189D01*
X35306Y347251D01*
X69596Y381541D01*
X69596Y459199D01*
X66769Y462026D01*
X50546Y478249D01*
X50546Y534496D01*
X55316Y534496D01*
X59114Y536069D01*
X62021Y538976D01*
X62446Y540004D01*
X226601Y540004D01*
X240284Y526321D01*
X240284Y483141D01*
X246634Y476791D01*
X246634Y476791D01*
X249461Y473964D01*
X543019Y473964D01*
X545846Y476791D01*
X545846Y476791D01*
X548099Y479044D01*
X550926Y481871D01*
X550926Y501422D01*
X551522Y499983D01*
X554148Y497357D01*
X557578Y495936D01*
X561292Y495936D01*
X564722Y497357D01*
X567348Y499983D01*
X568769Y503413D01*
X568769Y520207D01*
X567348Y523637D01*
X564722Y526263D01*
X561292Y527684D01*
X557578Y527684D01*
X554148Y526263D01*
X551522Y523637D01*
X550926Y522198D01*
X550926Y539021D01*
X554449Y542544D01*
X696501Y542544D01*
X707585Y531460D01*
X707443Y526634D01*
X706548Y526263D01*
X703922Y523637D01*
X702501Y520207D01*
X702501Y503413D01*
X703922Y499983D01*
X706548Y497357D01*
X709978Y495936D01*
X713692Y495936D01*
X717122Y497357D01*
X719748Y499983D01*
X721169Y503413D01*
X721169Y520207D01*
X719748Y523637D01*
X717122Y526263D01*
X717089Y526277D01*
X717238Y531343D01*
X717296Y531401D01*
X717296Y533329D01*
X717353Y535256D01*
X717296Y535316D01*
X717296Y535399D01*
X715933Y536762D01*
X714610Y538165D01*
X714527Y538168D01*
X700499Y552196D01*
X550451Y552196D01*
X547624Y549369D01*
X541274Y543019D01*
X541274Y524311D01*
X539322Y526263D01*
X535892Y527684D01*
X532178Y527684D01*
X528748Y526263D01*
X526122Y523637D01*
X524701Y520207D01*
X524701Y503413D01*
X526122Y499983D01*
X528748Y497357D01*
X532178Y495936D01*
X535892Y495936D01*
X539322Y497357D01*
X541274Y499309D01*
X541274Y485869D01*
X539021Y483616D01*
X253459Y483616D01*
X249936Y487139D01*
X249936Y530319D01*
X230599Y549656D01*
X62446Y549656D01*
X62021Y550684D01*
X59114Y553591D01*
X55316Y555164D01*
X36124Y555164D01*
X32326Y553591D01*
X29419Y550684D01*
X27846Y546886D01*
X27846Y542774D01*
X29419Y538976D01*
X32326Y536069D01*
X36124Y534496D01*
X40894Y534496D01*
X40894Y474251D01*
X59944Y455201D01*
X59944Y385539D01*
X28481Y354076D01*
X25654Y351249D01*
X25654Y248191D01*
X40894Y232951D01*
X43721Y230124D01*
X141576Y230124D01*
X142325Y229375D01*
X144742Y228374D01*
X147358Y228374D01*
X149775Y229375D01*
X151625Y231225D01*
X152456Y233232D01*
X152456Y192509D01*
X161831Y183134D01*
X179611Y183134D01*
X186944Y175801D01*
X186944Y36986D01*
X185335Y38595D01*
X182918Y39596D01*
X180302Y39596D01*
X177885Y38595D01*
X177016Y37726D01*
X137124Y37726D01*
X137124Y38157D01*
X135487Y39794D01*
X130429Y39794D01*
X130429Y41486D01*
X135487Y41486D01*
X137124Y43123D01*
X137124Y43554D01*
X175746Y43554D01*
X176615Y42685D01*
X179032Y41684D01*
X181648Y41684D01*
X184065Y42685D01*
X185915Y44535D01*
X186916Y46952D01*
X186916Y49568D01*
X185915Y51985D01*
X184065Y53835D01*
X181648Y54836D01*
X179032Y54836D01*
X176615Y53835D01*
X175986Y53206D01*
X137124Y53206D01*
X137124Y53637D01*
X135487Y55274D01*
X130429Y55274D01*
X130429Y59550D01*
X128592Y63984D01*
X125198Y67378D01*
X124326Y67740D01*
X125880Y69295D01*
X130084Y76575D01*
X131883Y83288D01*
X134234Y77611D01*
X139841Y72004D01*
X147166Y68970D01*
X155094Y68970D01*
X162419Y72004D01*
X168026Y77611D01*
X171060Y84936D01*
X171060Y92864D01*
X168026Y100189D01*
X162419Y105796D01*
X155094Y108830D01*
X147166Y108830D01*
X139841Y105796D01*
X134234Y100189D01*
X131883Y94512D01*
X130084Y101225D01*
X125880Y108505D01*
X120700Y113685D01*
X122250Y113270D01*
X129210Y113270D01*
X135932Y115071D01*
X141958Y118551D01*
X146879Y123472D01*
X148546Y126359D01*
X148909Y126150D01*
X149878Y125890D01*
X162610Y125890D01*
X162610Y138430D01*
X165150Y138430D01*
X165150Y125890D01*
X177882Y125890D01*
X178851Y126150D01*
X179719Y126651D01*
X180429Y127361D01*
X180930Y128229D01*
X181190Y129198D01*
X181190Y138430D01*
X165150Y138430D01*
X165150Y140970D01*
X181190Y140970D01*
X181190Y150202D01*
X180930Y151171D01*
X180429Y152039D01*
X179719Y152749D01*
X178851Y153250D01*
X177882Y153510D01*
X165150Y153510D01*
X165150Y140970D01*
X162610Y140970D01*
X162610Y153510D01*
X149878Y153510D01*
X148909Y153250D01*
X148546Y153041D01*
X146879Y155928D01*
X141958Y160849D01*
X135932Y164329D01*
X129210Y166130D01*
X122250Y166130D01*
X115528Y164329D01*
X109502Y160849D01*
X104581Y155928D01*
X101101Y149902D01*
X99300Y143180D01*
X99300Y136220D01*
X101101Y129498D01*
X104581Y123472D01*
X108207Y119846D01*
X104534Y120830D01*
X96126Y120830D01*
X88398Y118759D01*
X86859Y124502D01*
X83379Y130528D01*
X78458Y135449D01*
X72432Y138929D01*
X65710Y140730D01*
X58750Y140730D01*
X52028Y138929D01*
X46002Y135449D01*
X41081Y130528D01*
X38966Y126865D01*
X38737Y127094D01*
X28956Y127094D01*
X28956Y130146D01*
X29705Y130895D01*
X30706Y133312D01*
X30706Y135928D01*
X29705Y138345D01*
X27855Y140195D01*
X25438Y141196D01*
X22822Y141196D01*
X20405Y140195D01*
X18555Y138345D01*
X17554Y135928D01*
X17554Y133312D01*
X18555Y130895D01*
X19304Y130146D01*
X19304Y127094D01*
X11430Y127094D01*
X11430Y401686D01*
X12196Y399835D01*
X19255Y392776D01*
X28478Y388956D01*
X38462Y388956D01*
X47685Y392776D01*
X54744Y399835D01*
X58564Y409058D01*
X58564Y419042D01*
X54744Y428265D01*
X47685Y435324D01*
X38462Y439144D01*
X28478Y439144D01*
X19255Y435324D01*
X12196Y428265D01*
X11430Y426414D01*
X11430Y780542D01*
X18435Y773536D01*
X27658Y769716D01*
X37642Y769716D01*
X46865Y773536D01*
X53924Y780595D01*
X57744Y789818D01*
X57744Y799802D01*
X53924Y809025D01*
X46865Y816084D01*
X37642Y819904D01*
X27658Y819904D01*
X18435Y816084D01*
X11430Y809078D01*
X11430Y880355D01*
X14398Y875214D01*
X20504Y869108D01*
X27982Y864791D01*
X36323Y862556D01*
X44957Y862556D01*
X53298Y864791D01*
X60776Y869108D01*
X66882Y875214D01*
X71199Y882692D01*
X73434Y891033D01*
X73434Y899667D01*
X71199Y908008D01*
X66882Y915486D01*
X60776Y921592D01*
X55635Y924560D01*
X943855Y924560D01*
X938714Y921592D01*
X932608Y915486D01*
X928291Y908008D01*
X926056Y899667D01*
X926056Y891033D01*
X928291Y882692D01*
X932608Y875214D01*
X938714Y869108D01*
X946192Y864791D01*
X954533Y862556D01*
X963167Y862556D01*
X971508Y864791D01*
X978986Y869108D01*
X985092Y875214D01*
X988060Y880355D01*
X988060Y428768D01*
X981505Y435324D01*
X972282Y439144D01*
X962298Y439144D01*
X953075Y435324D01*
X946016Y428265D01*
X942196Y419042D01*
X942196Y409058D01*
X946016Y399835D01*
X953075Y392776D01*
X962298Y388956D01*
X972282Y388956D01*
X981505Y392776D01*
X988060Y399332D01*
X988060Y-7865D01*
X985092Y-2724D01*
X978986Y3382D01*
X971508Y7699D01*
X963167Y9934D01*
X954533Y9934D01*
X946192Y7699D01*
X938714Y3382D01*
X932608Y-2724D01*
X928291Y-10202D01*
X926056Y-18543D01*
X926056Y-27177D01*
X928291Y-35518D01*
X932608Y-42996D01*
X938714Y-49102D01*
X943855Y-52070D01*
X55635Y-52070D01*
X60776Y-49102D01*
X66882Y-42996D01*
X71199Y-35518D01*
X73434Y-27177D01*
X73434Y-18543D01*
X71199Y-10202D01*
X66882Y-2724D01*
X60776Y3382D01*
X53298Y7699D01*
X44957Y9934D01*
X36323Y9934D01*
X27982Y7699D01*
X20504Y3382D01*
X14398Y-2724D01*
X11430Y-7865D01*
X11430Y101506D01*
X33951Y101506D01*
X32634Y100189D01*
X29600Y92864D01*
X29600Y84936D01*
X32634Y77611D01*
X38241Y72004D01*
X45566Y68970D01*
X53494Y68970D01*
X60819Y72004D01*
X66426Y77611D01*
X68777Y83288D01*
X70576Y76575D01*
X74780Y69295D01*
X76260Y67814D01*
X75208Y67378D01*
X71814Y63984D01*
X69977Y59550D01*
X69977Y56290D01*
X65828Y56290D01*
X64859Y56030D01*
X63991Y55529D01*
X63281Y54819D01*
X62780Y53951D01*
X62520Y52982D01*
X62520Y49160D01*
X69977Y49160D01*
X69977Y47600D01*
X62520Y47600D01*
X62520Y43778D01*
X62780Y42809D01*
X63281Y41941D01*
X63991Y41231D01*
X64859Y40730D01*
X65828Y40470D01*
X69977Y40470D01*
X69977Y39794D01*
X65173Y39794D01*
X63536Y38157D01*
X63536Y27643D01*
X64389Y26790D01*
X64389Y1176D01*
X76741Y-11176D01*
X186149Y-11176D01*
X188976Y-8349D01*
X193769Y-3556D01*
X195834Y-1491D01*
X195834Y-1999D01*
X200914Y-7079D01*
X203741Y-9906D01*
X327119Y-9906D01*
X328930Y-8095D01*
X330741Y-9906D01*
X518889Y-9906D01*
X526161Y-2634D01*
X530606Y-7079D01*
X533433Y-9906D01*
X719549Y-9906D01*
X723265Y-6190D01*
X724154Y-7079D01*
X724154Y-7079D01*
X726981Y-9906D01*
X916399Y-9906D01*
X926940Y635D01*
X929767Y3462D01*
X929767Y25266D01*
X930874Y26373D01*
X930874Y36887D01*
X929237Y38524D01*
X924179Y38524D01*
X924179Y40216D01*
X929237Y40216D01*
X930874Y41853D01*
X930874Y52367D01*
X929237Y54004D01*
X924179Y54004D01*
X924179Y58280D01*
X922342Y62714D01*
X918948Y66108D01*
X916279Y67214D01*
X918360Y69295D01*
X922564Y76575D01*
X924363Y83288D01*
X926714Y77611D01*
X932321Y72004D01*
X939646Y68970D01*
X947574Y68970D01*
X954899Y72004D01*
X960506Y77611D01*
X963540Y84936D01*
X963540Y92864D01*
X960506Y100189D01*
X954899Y105796D01*
X947574Y108830D01*
X939646Y108830D01*
X932321Y105796D01*
X926714Y100189D01*
X924363Y94512D01*
X922564Y101225D01*
X918360Y108505D01*
X913180Y113685D01*
X914730Y113270D01*
X921690Y113270D01*
X928412Y115071D01*
X934438Y118551D01*
X939359Y123472D01*
X941026Y126359D01*
X941389Y126150D01*
X942358Y125890D01*
X955090Y125890D01*
X955090Y138430D01*
X957630Y138430D01*
X957630Y125890D01*
X970362Y125890D01*
X971331Y126150D01*
X972199Y126651D01*
X972909Y127361D01*
X973410Y128229D01*
X973670Y129198D01*
X973670Y138430D01*
X957630Y138430D01*
X957630Y140970D01*
X973670Y140970D01*
X973670Y150202D01*
X973410Y151171D01*
X972909Y152039D01*
X972199Y152749D01*
X971331Y153250D01*
X970362Y153510D01*
X957630Y153510D01*
X957630Y140970D01*
X955090Y140970D01*
X955090Y153510D01*
X942358Y153510D01*
X941389Y153250D01*
X941026Y153041D01*
X939359Y155928D01*
X934438Y160849D01*
X928412Y164329D01*
X921690Y166130D01*
X914730Y166130D01*
X908008Y164329D01*
X901982Y160849D01*
X897061Y155928D01*
X893581Y149902D01*
X891780Y143180D01*
X891780Y136220D01*
X893581Y129498D01*
X897061Y123472D01*
X900687Y119846D01*
X897014Y120830D01*
X888606Y120830D01*
X880878Y118759D01*
X879339Y124502D01*
X875859Y130528D01*
X870938Y135449D01*
X864912Y138929D01*
X858190Y140730D01*
X851230Y140730D01*
X844508Y138929D01*
X838482Y135449D01*
X833561Y130528D01*
X831446Y126865D01*
X831217Y127094D01*
X821386Y127094D01*
X821386Y195089D01*
X807179Y209296D01*
X621910Y209296D01*
X622526Y210782D01*
X622526Y213398D01*
X621525Y215815D01*
X620776Y216564D01*
X620776Y219169D01*
X612869Y227076D01*
X605400Y227076D01*
X606016Y228562D01*
X606016Y231178D01*
X605015Y233595D01*
X603165Y235445D01*
X601472Y236146D01*
X601472Y244335D01*
X603212Y243614D01*
X605828Y243614D01*
X608245Y244615D01*
X610095Y246465D01*
X611096Y248882D01*
X611096Y251498D01*
X610095Y253915D01*
X608245Y255765D01*
X607060Y256256D01*
X607060Y270794D01*
X608292Y270284D01*
X610908Y270284D01*
X613325Y271285D01*
X615175Y273135D01*
X616176Y275552D01*
X616176Y278168D01*
X615175Y280585D01*
X613325Y282435D01*
X612648Y282715D01*
X612648Y461551D01*
X615917Y464820D01*
X674845Y464820D01*
X677672Y467647D01*
X689114Y479089D01*
X689178Y479091D01*
X690522Y480497D01*
X691896Y481871D01*
X691896Y481935D01*
X691940Y481981D01*
X691896Y483926D01*
X691896Y485869D01*
X691851Y485914D01*
X691592Y497303D01*
X691722Y497357D01*
X694348Y499983D01*
X695769Y503413D01*
X695769Y520207D01*
X694348Y523637D01*
X691722Y526263D01*
X688292Y527684D01*
X684578Y527684D01*
X681148Y526263D01*
X678522Y523637D01*
X677101Y520207D01*
X677101Y503413D01*
X678522Y499983D01*
X681148Y497357D01*
X681944Y497027D01*
X682198Y485823D01*
X670847Y474472D01*
X660367Y474472D01*
X663712Y477817D01*
X663773Y477819D01*
X665120Y479225D01*
X666496Y480601D01*
X666496Y480662D01*
X666538Y480706D01*
X666496Y482653D01*
X666496Y484599D01*
X666453Y484642D01*
X666178Y497297D01*
X666322Y497357D01*
X668948Y499983D01*
X670369Y503413D01*
X670369Y520207D01*
X668948Y523637D01*
X666322Y526263D01*
X662892Y527684D01*
X659178Y527684D01*
X655748Y526263D01*
X653122Y523637D01*
X651701Y520207D01*
X651701Y503413D01*
X653122Y499983D01*
X655748Y497357D01*
X656529Y497033D01*
X656800Y484555D01*
X652305Y480060D01*
X639304Y480060D01*
X639722Y480497D01*
X641096Y481871D01*
X641096Y481935D01*
X641140Y481981D01*
X641096Y483925D01*
X641096Y485869D01*
X641051Y485914D01*
X640792Y497303D01*
X640922Y497357D01*
X643548Y499983D01*
X644969Y503413D01*
X644969Y520207D01*
X643548Y523637D01*
X640922Y526263D01*
X637492Y527684D01*
X633778Y527684D01*
X630348Y526263D01*
X627722Y523637D01*
X626301Y520207D01*
X626301Y503413D01*
X627722Y499983D01*
X630348Y497357D01*
X631144Y497027D01*
X631398Y485823D01*
X631223Y485648D01*
X611853Y485648D01*
X612931Y486726D01*
X613019Y486729D01*
X614336Y488131D01*
X615696Y489491D01*
X615696Y489579D01*
X615756Y489643D01*
X615696Y491566D01*
X615696Y493489D01*
X615634Y493551D01*
X615515Y497354D01*
X615522Y497357D01*
X618148Y499983D01*
X619569Y503413D01*
X619569Y520207D01*
X618148Y523637D01*
X615522Y526263D01*
X612092Y527684D01*
X608378Y527684D01*
X604948Y526263D01*
X602322Y523637D01*
X600901Y520207D01*
X600901Y503413D01*
X602322Y499983D01*
X604948Y497357D01*
X605870Y496975D01*
X605981Y493426D01*
X603791Y491236D01*
X593631Y491236D01*
X589714Y487319D01*
X589693Y497179D01*
X590122Y497357D01*
X592748Y499983D01*
X594169Y503413D01*
X594169Y520207D01*
X592748Y523637D01*
X590122Y526263D01*
X586692Y527684D01*
X582978Y527684D01*
X579548Y526263D01*
X576922Y523637D01*
X575501Y520207D01*
X575501Y503413D01*
X576922Y499983D01*
X579548Y497357D01*
X580041Y497153D01*
X580644Y221206D01*
X579082Y221206D01*
X576665Y220205D01*
X574815Y218355D01*
X573814Y215938D01*
X573814Y214879D01*
X573311Y214376D01*
X218981Y214376D01*
X217711Y213106D01*
X174654Y213106D01*
X173905Y213855D01*
X171488Y214856D01*
X168872Y214856D01*
X166455Y213855D01*
X164605Y212005D01*
X163604Y209588D01*
X163604Y206972D01*
X164605Y204555D01*
X166455Y202705D01*
X168872Y201704D01*
X171488Y201704D01*
X173905Y202705D01*
X174654Y203454D01*
X221709Y203454D01*
X222979Y204724D01*
X230919Y204724D01*
X216104Y189909D01*
X216104Y127094D01*
X206273Y127094D01*
X204636Y125457D01*
X204636Y103143D01*
X206273Y101506D01*
X230801Y101506D01*
X229484Y100189D01*
X226450Y92864D01*
X226450Y84936D01*
X229484Y77611D01*
X235091Y72004D01*
X242416Y68970D01*
X250344Y68970D01*
X257669Y72004D01*
X263276Y77611D01*
X265627Y83288D01*
X267426Y76575D01*
X271630Y69295D01*
X275278Y65646D01*
X273328Y64838D01*
X269934Y61444D01*
X268097Y57010D01*
X268097Y53750D01*
X263948Y53750D01*
X262979Y53490D01*
X262111Y52989D01*
X261401Y52279D01*
X260900Y51411D01*
X260640Y50442D01*
X260640Y46620D01*
X268097Y46620D01*
X268097Y45060D01*
X260640Y45060D01*
X260640Y41238D01*
X260900Y40269D01*
X261401Y39401D01*
X262111Y38691D01*
X262979Y38190D01*
X263948Y37930D01*
X268097Y37930D01*
X268097Y37254D01*
X263293Y37254D01*
X261656Y35617D01*
X261656Y35186D01*
X261199Y35186D01*
X243299Y53086D01*
X205134Y53086D01*
X204385Y53835D01*
X201968Y54836D01*
X199352Y54836D01*
X196935Y53835D01*
X196596Y53496D01*
X196596Y77249D01*
X208054Y65791D01*
X208054Y63462D01*
X209055Y61045D01*
X210905Y59195D01*
X213322Y58194D01*
X215938Y58194D01*
X218355Y59195D01*
X220205Y61045D01*
X221206Y63462D01*
X710156Y375882D02*
X710156Y378498D01*
X709155Y380915D01*
X707305Y382765D01*
X704888Y383766D01*
X702272Y383766D01*
X699855Y382765D01*
X698005Y380915D01*
X697004Y378498D01*
X697004Y375882D01*
X698005Y373465D01*
X698754Y372716D01*
X698754Y354291D01*
X698169Y354048D01*
X694852Y350731D01*
X693056Y346396D01*
X693056Y341704D01*
X694852Y337369D01*
X698169Y334052D01*
X702504Y332256D01*
X707196Y332256D01*
X711531Y334052D01*
X714848Y337369D01*
X716644Y341704D01*
X716644Y346396D01*
X714848Y350731D01*
X711531Y354048D01*
X708406Y355343D01*
X708406Y372716D01*
X709155Y373465D01*
X710156Y375882D01*
X904384Y409058D02*
X904384Y419042D01*
X900564Y428265D01*
X893505Y435324D01*
X884282Y439144D01*
X874298Y439144D01*
X865075Y435324D01*
X858016Y428265D01*
X854196Y419042D01*
X854196Y409058D01*
X858016Y399835D01*
X865075Y392776D01*
X874298Y388956D01*
X884282Y388956D01*
X893505Y392776D01*
X900564Y399835D01*
X904384Y409058D01*
X731120Y356819D02*
X731120Y345320D01*
X728580Y345320D01*
X728580Y356819D01*
X726850Y356545D01*
X724933Y355921D01*
X723136Y355006D01*
X721505Y353821D01*
X720079Y352395D01*
X718894Y350764D01*
X717979Y348967D01*
X717355Y347050D01*
X717081Y345320D01*
X728580Y345320D01*
X728580Y342780D01*
X717081Y342780D01*
X717355Y341050D01*
X717979Y339133D01*
X718894Y337336D01*
X720079Y335705D01*
X721505Y334279D01*
X723136Y333094D01*
X724933Y332179D01*
X726850Y331555D01*
X728580Y331281D01*
X728580Y342780D01*
X731120Y342780D01*
X731120Y331281D01*
X732850Y331555D01*
X734767Y332179D01*
X736564Y333094D01*
X738195Y334279D01*
X739621Y335705D01*
X740806Y337336D01*
X741721Y339133D01*
X742345Y341050D01*
X742619Y342780D01*
X731120Y342780D01*
X731120Y345320D01*
X742619Y345320D01*
X742345Y347050D01*
X741721Y348967D01*
X740806Y350764D01*
X739621Y352395D01*
X738195Y353821D01*
X736564Y355006D01*
X734767Y355921D01*
X732850Y356545D01*
X731120Y356819D01*
X691644Y346396D02*
X691644Y341704D01*
X691644Y346396D02*
X689848Y350731D01*
X686531Y354048D01*
X682196Y355844D01*
X677504Y355844D01*
X673169Y354048D01*
X669852Y350731D01*
X668056Y346396D01*
X668056Y341704D01*
X669852Y337369D01*
X673169Y334052D01*
X677504Y332256D01*
X682196Y332256D01*
X686531Y334052D01*
X689848Y337369D01*
X691644Y341704D01*
X564394Y410328D02*
X564394Y420312D01*
X560574Y429535D01*
X553515Y436594D01*
X544292Y440414D01*
X534308Y440414D01*
X525085Y436594D01*
X518026Y429535D01*
X514206Y420312D01*
X514206Y410328D01*
X518026Y401105D01*
X525085Y394046D01*
X534308Y390226D01*
X544292Y390226D01*
X553515Y394046D01*
X560574Y401105D01*
X564394Y410328D01*
X476394Y410328D02*
X476394Y420312D01*
X472574Y429535D01*
X465515Y436594D01*
X456292Y440414D01*
X446308Y440414D01*
X437085Y436594D01*
X430026Y429535D01*
X426206Y420312D01*
X426206Y410328D01*
X430026Y401105D01*
X437085Y394046D01*
X446308Y390226D01*
X456292Y390226D01*
X465515Y394046D01*
X472574Y401105D01*
X476394Y410328D01*
X312020Y356819D02*
X312020Y345320D01*
X309480Y345320D01*
X309480Y356819D01*
X307750Y356545D01*
X305833Y355921D01*
X304036Y355006D01*
X302405Y353821D01*
X300979Y352395D01*
X299794Y350764D01*
X298879Y348967D01*
X298255Y347050D01*
X297981Y345320D01*
X309480Y345320D01*
X309480Y342780D01*
X297981Y342780D01*
X298255Y341050D01*
X298879Y339133D01*
X299794Y337336D01*
X300979Y335705D01*
X302405Y334279D01*
X304036Y333094D01*
X305833Y332179D01*
X307750Y331555D01*
X309480Y331281D01*
X309480Y342780D01*
X312020Y342780D01*
X312020Y331281D01*
X313750Y331555D01*
X315667Y332179D01*
X317464Y333094D01*
X319095Y334279D01*
X320521Y335705D01*
X321706Y337336D01*
X322621Y339133D01*
X323245Y341050D01*
X323519Y342780D01*
X312020Y342780D01*
X312020Y345320D01*
X323519Y345320D01*
X323245Y347050D01*
X322621Y348967D01*
X321706Y350764D01*
X320521Y352395D01*
X319095Y353821D01*
X317464Y355006D01*
X315667Y355921D01*
X313750Y356545D01*
X312020Y356819D01*
X272544Y346396D02*
X272544Y341704D01*
X272544Y346396D02*
X270748Y350731D01*
X267431Y354048D01*
X263096Y355844D01*
X258404Y355844D01*
X254069Y354048D01*
X250752Y350731D01*
X248956Y346396D01*
X248956Y341704D01*
X250752Y337369D01*
X254069Y334052D01*
X258404Y332256D01*
X263096Y332256D01*
X267431Y334052D01*
X270748Y337369D01*
X272544Y341704D01*
X146564Y409058D02*
X146564Y419042D01*
X142744Y428265D01*
X135685Y435324D01*
X126462Y439144D01*
X116478Y439144D01*
X107255Y435324D01*
X100196Y428265D01*
X96376Y419042D01*
X96376Y409058D01*
X100196Y399835D01*
X107255Y392776D01*
X116478Y388956D01*
X126462Y388956D01*
X135685Y392776D01*
X142744Y399835D01*
X146564Y409058D01*
X103740Y356819D02*
X103740Y345320D01*
X101200Y345320D01*
X101200Y356819D01*
X99470Y356545D01*
X97553Y355921D01*
X95756Y355006D01*
X94125Y353821D01*
X92699Y352395D01*
X91514Y350764D01*
X90599Y348967D01*
X89975Y347050D01*
X89701Y345320D01*
X101200Y345320D01*
X101200Y342780D01*
X89701Y342780D01*
X89975Y341050D01*
X90599Y339133D01*
X91514Y337336D01*
X92699Y335705D01*
X94125Y334279D01*
X95756Y333094D01*
X97553Y332179D01*
X99470Y331555D01*
X101200Y331281D01*
X101200Y342780D01*
X103740Y342780D01*
X103740Y331281D01*
X105470Y331555D01*
X107387Y332179D01*
X109184Y333094D01*
X110815Y334279D01*
X112241Y335705D01*
X113426Y337336D01*
X114341Y339133D01*
X114965Y341050D01*
X115239Y342780D01*
X103740Y342780D01*
X103740Y345320D01*
X115239Y345320D01*
X114965Y347050D01*
X114341Y348967D01*
X113426Y350764D01*
X112241Y352395D01*
X110815Y353821D01*
X109184Y355006D01*
X107387Y355921D01*
X105470Y356545D01*
X103740Y356819D01*
X64264Y346396D02*
X64264Y341704D01*
X64264Y346396D02*
X62468Y350731D01*
X59151Y354048D01*
X54816Y355844D01*
X50124Y355844D01*
X45789Y354048D01*
X42472Y350731D01*
X40676Y346396D01*
X40676Y341704D01*
X42472Y337369D01*
X45789Y334052D01*
X50124Y332256D01*
X54816Y332256D01*
X59151Y334052D01*
X62468Y337369D01*
X64264Y341704D01*
X716138Y540576D02*
X732932Y540576D01*
X736362Y541997D01*
X738988Y544623D01*
X740409Y548053D01*
X740409Y551767D01*
X738988Y555197D01*
X736362Y557823D01*
X732932Y559244D01*
X716138Y559244D01*
X712708Y557823D01*
X710082Y555197D01*
X708661Y551767D01*
X708661Y548053D01*
X710082Y544623D01*
X712708Y541997D01*
X716138Y540576D01*
X716138Y565976D02*
X732932Y565976D01*
X736362Y567397D01*
X738988Y570023D01*
X740409Y573453D01*
X740409Y577167D01*
X738988Y580597D01*
X736362Y583223D01*
X732932Y584644D01*
X716138Y584644D01*
X712708Y583223D01*
X710082Y580597D01*
X708661Y577167D01*
X708661Y573453D01*
X710082Y570023D01*
X712708Y567397D01*
X716138Y565976D01*
X753301Y655813D02*
X753301Y672607D01*
X753301Y655813D02*
X754722Y652383D01*
X757348Y649757D01*
X760778Y648336D01*
X764492Y648336D01*
X767922Y649757D01*
X770548Y652383D01*
X771969Y655813D01*
X771969Y672607D01*
X770548Y676037D01*
X767922Y678663D01*
X764492Y680084D01*
X760778Y680084D01*
X757348Y678663D01*
X754722Y676037D01*
X753301Y672607D01*
X727901Y672607D02*
X727901Y655813D01*
X729322Y652383D01*
X731948Y649757D01*
X735378Y648336D01*
X739092Y648336D01*
X742522Y649757D01*
X745148Y652383D01*
X746569Y655813D01*
X746569Y672607D01*
X745148Y676037D01*
X742522Y678663D01*
X739092Y680084D01*
X735378Y680084D01*
X731948Y678663D01*
X729322Y676037D01*
X727901Y672607D01*
X702501Y672607D02*
X702501Y655813D01*
X703922Y652383D01*
X706548Y649757D01*
X709978Y648336D01*
X713692Y648336D01*
X717122Y649757D01*
X719748Y652383D01*
X721169Y655813D01*
X721169Y672607D01*
X719748Y676037D01*
X717122Y678663D01*
X713692Y680084D01*
X709978Y680084D01*
X706548Y678663D01*
X703922Y676037D01*
X702501Y672607D01*
X677101Y672607D02*
X677101Y655813D01*
X678522Y652383D01*
X681148Y649757D01*
X684578Y648336D01*
X688292Y648336D01*
X691722Y649757D01*
X694348Y652383D01*
X695769Y655813D01*
X695769Y672607D01*
X694348Y676037D01*
X691722Y678663D01*
X688292Y680084D01*
X684578Y680084D01*
X681148Y678663D01*
X678522Y676037D01*
X677101Y672607D01*
X600901Y672607D02*
X600901Y655813D01*
X602322Y652383D01*
X604948Y649757D01*
X608378Y648336D01*
X612092Y648336D01*
X615522Y649757D01*
X618148Y652383D01*
X619569Y655813D01*
X619569Y672607D01*
X618148Y676037D01*
X615522Y678663D01*
X615465Y678687D01*
X615641Y685016D01*
X615696Y685071D01*
X615696Y687003D01*
X615750Y688934D01*
X615696Y688991D01*
X615696Y689069D01*
X614330Y690435D01*
X613002Y691839D01*
X612924Y691841D01*
X610616Y694149D01*
X607789Y696976D01*
X503649Y696976D01*
X500576Y700049D01*
X500576Y714833D01*
X502431Y715602D01*
X505748Y718919D01*
X507544Y723254D01*
X507544Y727946D01*
X505748Y732281D01*
X502431Y735598D01*
X498096Y737394D01*
X493404Y737394D01*
X489069Y735598D01*
X485752Y732281D01*
X483956Y727946D01*
X483956Y723254D01*
X485752Y718919D01*
X489069Y715602D01*
X490924Y714833D01*
X490924Y696051D01*
X499651Y687324D01*
X603791Y687324D01*
X605988Y685127D01*
X605819Y679024D01*
X604948Y678663D01*
X602322Y676037D01*
X600901Y672607D01*
X524701Y672607D02*
X524701Y655813D01*
X526122Y652383D01*
X528748Y649757D01*
X532178Y648336D01*
X535892Y648336D01*
X539322Y649757D01*
X541948Y652383D01*
X543369Y655813D01*
X543369Y672607D01*
X541948Y676037D01*
X539322Y678663D01*
X535892Y680084D01*
X532178Y680084D01*
X528748Y678663D01*
X526122Y676037D01*
X524701Y672607D01*
X499301Y672607D02*
X499301Y655813D01*
X500722Y652383D01*
X503348Y649757D01*
X506778Y648336D01*
X510492Y648336D01*
X513922Y649757D01*
X516548Y652383D01*
X517969Y655813D01*
X517969Y672607D01*
X516548Y676037D01*
X513922Y678663D01*
X510492Y680084D01*
X506778Y680084D01*
X503348Y678663D01*
X500722Y676037D01*
X499301Y672607D01*
X473901Y672607D02*
X473901Y655813D01*
X475322Y652383D01*
X477948Y649757D01*
X481378Y648336D01*
X485092Y648336D01*
X488522Y649757D01*
X491148Y652383D01*
X492569Y655813D01*
X492569Y672607D01*
X491148Y676037D01*
X488522Y678663D01*
X485092Y680084D01*
X481378Y680084D01*
X477948Y678663D01*
X475322Y676037D01*
X473901Y672607D01*
X448501Y672607D02*
X448501Y655813D01*
X449922Y652383D01*
X452548Y649757D01*
X455978Y648336D01*
X459692Y648336D01*
X463122Y649757D01*
X465748Y652383D01*
X467169Y655813D01*
X467169Y672607D01*
X465748Y676037D01*
X463122Y678663D01*
X459692Y680084D01*
X455978Y680084D01*
X452548Y678663D01*
X449922Y676037D01*
X448501Y672607D01*
X423101Y672607D02*
X423101Y655813D01*
X424522Y652383D01*
X427148Y649757D01*
X430578Y648336D01*
X434292Y648336D01*
X437722Y649757D01*
X440348Y652383D01*
X441769Y655813D01*
X441769Y672607D01*
X440348Y676037D01*
X437722Y678663D01*
X434292Y680084D01*
X430578Y680084D01*
X427148Y678663D01*
X424522Y676037D01*
X423101Y672607D01*
X397701Y672607D02*
X397701Y655813D01*
X399122Y652383D01*
X401748Y649757D01*
X405178Y648336D01*
X408892Y648336D01*
X412322Y649757D01*
X414948Y652383D01*
X416369Y655813D01*
X416369Y672607D01*
X414948Y676037D01*
X412322Y678663D01*
X408892Y680084D01*
X405178Y680084D01*
X401748Y678663D01*
X399122Y676037D01*
X397701Y672607D01*
X372301Y672607D02*
X372301Y655813D01*
X373722Y652383D01*
X376348Y649757D01*
X379778Y648336D01*
X383492Y648336D01*
X386922Y649757D01*
X389548Y652383D01*
X390969Y655813D01*
X390969Y672607D01*
X389548Y676037D01*
X386922Y678663D01*
X383492Y680084D01*
X379778Y680084D01*
X376348Y678663D01*
X373722Y676037D01*
X372301Y672607D01*
X346901Y672607D02*
X346901Y655813D01*
X348322Y652383D01*
X350948Y649757D01*
X354378Y648336D01*
X358092Y648336D01*
X361522Y649757D01*
X364148Y652383D01*
X365569Y655813D01*
X365569Y672607D01*
X364148Y676037D01*
X361522Y678663D01*
X358092Y680084D01*
X354378Y680084D01*
X350948Y678663D01*
X348322Y676037D01*
X346901Y672607D01*
X321501Y672607D02*
X321501Y655813D01*
X322922Y652383D01*
X325548Y649757D01*
X328978Y648336D01*
X332692Y648336D01*
X336122Y649757D01*
X338748Y652383D01*
X340169Y655813D01*
X340169Y672607D01*
X338748Y676037D01*
X336122Y678663D01*
X332692Y680084D01*
X328978Y680084D01*
X325548Y678663D01*
X322922Y676037D01*
X321501Y672607D01*
X296101Y672607D02*
X296101Y655813D01*
X297522Y652383D01*
X300148Y649757D01*
X303578Y648336D01*
X307292Y648336D01*
X310722Y649757D01*
X313348Y652383D01*
X314769Y655813D01*
X314769Y672607D01*
X313348Y676037D01*
X310722Y678663D01*
X307292Y680084D01*
X303578Y680084D01*
X300148Y678663D01*
X297522Y676037D01*
X296101Y672607D01*
X270701Y672607D02*
X270701Y655813D01*
X272122Y652383D01*
X274748Y649757D01*
X278178Y648336D01*
X281892Y648336D01*
X285322Y649757D01*
X287948Y652383D01*
X289369Y655813D01*
X289369Y672607D01*
X287948Y676037D01*
X285322Y678663D01*
X281892Y680084D01*
X278178Y680084D01*
X274748Y678663D01*
X272122Y676037D01*
X270701Y672607D01*
X941120Y726390D02*
X941120Y737889D01*
X941120Y726390D02*
X938580Y726390D01*
X938580Y737889D01*
X936850Y737615D01*
X934933Y736991D01*
X933136Y736076D01*
X931505Y734891D01*
X930079Y733465D01*
X928894Y731834D01*
X927979Y730037D01*
X927355Y728120D01*
X927081Y726390D01*
X938580Y726390D01*
X938580Y723850D01*
X927081Y723850D01*
X927355Y722120D01*
X927979Y720203D01*
X928894Y718406D01*
X930079Y716775D01*
X931505Y715349D01*
X933136Y714164D01*
X934933Y713249D01*
X936850Y712625D01*
X938580Y712351D01*
X938580Y723850D01*
X941120Y723850D01*
X941120Y712351D01*
X942850Y712625D01*
X944767Y713249D01*
X946564Y714164D01*
X948195Y715349D01*
X949621Y716775D01*
X950806Y718406D01*
X951721Y720203D01*
X952345Y722120D01*
X952619Y723850D01*
X941120Y723850D01*
X941120Y726390D01*
X952619Y726390D01*
X952345Y728120D01*
X951721Y730037D01*
X950806Y731834D01*
X949621Y733465D01*
X948195Y734891D01*
X946564Y736076D01*
X944767Y736991D01*
X942850Y737615D01*
X941120Y737889D01*
X926644Y727466D02*
X926644Y722774D01*
X926644Y727466D02*
X924848Y731801D01*
X921531Y735118D01*
X917196Y736914D01*
X912504Y736914D01*
X908169Y735118D01*
X904852Y731801D01*
X903056Y727466D01*
X903056Y722774D01*
X904852Y718439D01*
X908169Y715122D01*
X910024Y714353D01*
X910024Y626019D01*
X903511Y619506D01*
X737671Y619506D01*
X738988Y620823D01*
X740409Y624253D01*
X740409Y627967D01*
X738988Y631397D01*
X736362Y634023D01*
X733390Y635254D01*
X788129Y635254D01*
X790956Y638081D01*
X793496Y640621D01*
X793496Y744949D01*
X784606Y753839D01*
X781779Y756666D01*
X707931Y756666D01*
X700474Y749209D01*
X700474Y736127D01*
X698619Y735358D01*
X695302Y732041D01*
X693506Y727706D01*
X693506Y723014D01*
X695302Y718679D01*
X698619Y715362D01*
X702954Y713566D01*
X707646Y713566D01*
X711981Y715362D01*
X715298Y718679D01*
X717094Y723014D01*
X717094Y727706D01*
X715298Y732041D01*
X711981Y735358D01*
X710126Y736127D01*
X710126Y745211D01*
X711929Y747014D01*
X777781Y747014D01*
X783844Y740951D01*
X783844Y644906D01*
X699041Y644906D01*
X696214Y642079D01*
X693961Y639826D01*
X598899Y639826D01*
X590225Y648500D01*
X590178Y649813D01*
X592748Y652383D01*
X594169Y655813D01*
X594169Y672607D01*
X592748Y676037D01*
X590122Y678663D01*
X586692Y680084D01*
X582978Y680084D01*
X579548Y678663D01*
X576922Y676037D01*
X575501Y672607D01*
X575501Y655813D01*
X576922Y652383D01*
X579548Y649757D01*
X580537Y649347D01*
X580644Y646343D01*
X580644Y644431D01*
X580715Y644360D01*
X580718Y644260D01*
X582119Y642956D01*
X594901Y630174D01*
X697959Y630174D01*
X703039Y635254D01*
X715680Y635254D01*
X712708Y634023D01*
X710082Y631397D01*
X708661Y627967D01*
X708661Y624253D01*
X710082Y620823D01*
X711399Y619506D01*
X578579Y619506D01*
X564858Y633227D01*
X564541Y649682D01*
X564722Y649757D01*
X567348Y652383D01*
X568769Y655813D01*
X568769Y672607D01*
X567348Y676037D01*
X564722Y678663D01*
X561292Y680084D01*
X557578Y680084D01*
X554148Y678663D01*
X551522Y676037D01*
X550101Y672607D01*
X550101Y655813D01*
X551522Y652383D01*
X554148Y649757D01*
X554892Y649449D01*
X555244Y631143D01*
X555244Y629191D01*
X555282Y629153D01*
X555283Y629099D01*
X556691Y627744D01*
X571754Y612681D01*
X574581Y609854D01*
X715680Y609854D01*
X712708Y608623D01*
X710082Y605997D01*
X708661Y602567D01*
X708661Y598853D01*
X710082Y595423D01*
X712708Y592797D01*
X716138Y591376D01*
X732932Y591376D01*
X736362Y592797D01*
X738988Y595423D01*
X740409Y598853D01*
X740409Y602567D01*
X738988Y605997D01*
X736362Y608623D01*
X733390Y609854D01*
X907509Y609854D01*
X919676Y622021D01*
X919676Y714353D01*
X921531Y715122D01*
X924848Y718439D01*
X926644Y722774D01*
X774394Y790368D02*
X774394Y800352D01*
X770574Y809575D01*
X763515Y816634D01*
X754292Y820454D01*
X744308Y820454D01*
X735085Y816634D01*
X728026Y809575D01*
X724206Y800352D01*
X724206Y790368D01*
X728026Y781145D01*
X735085Y774086D01*
X744308Y770266D01*
X754292Y770266D01*
X763515Y774086D01*
X770574Y781145D01*
X774394Y790368D01*
X686394Y790368D02*
X686394Y800352D01*
X682574Y809575D01*
X675515Y816634D01*
X666292Y820454D01*
X656308Y820454D01*
X647085Y816634D01*
X640026Y809575D01*
X636206Y800352D01*
X636206Y790368D01*
X640026Y781145D01*
X647085Y774086D01*
X656308Y770266D01*
X666292Y770266D01*
X675515Y774086D01*
X682574Y781145D01*
X686394Y790368D01*
X482544Y727946D02*
X482544Y723254D01*
X482544Y727946D02*
X480748Y732281D01*
X477431Y735598D01*
X473096Y737394D01*
X468404Y737394D01*
X464069Y735598D01*
X460752Y732281D01*
X458956Y727946D01*
X458956Y723254D01*
X460752Y718919D01*
X464069Y715602D01*
X468404Y713806D01*
X473096Y713806D01*
X477431Y715602D01*
X480748Y718919D01*
X482544Y723254D01*
X355294Y789578D02*
X355294Y799562D01*
X351474Y808785D01*
X344415Y815844D01*
X335192Y819664D01*
X325208Y819664D01*
X315985Y815844D01*
X308926Y808785D01*
X305106Y799562D01*
X305106Y789578D01*
X308926Y780355D01*
X315985Y773296D01*
X325208Y769476D01*
X335192Y769476D01*
X344415Y773296D01*
X351474Y780355D01*
X355294Y789578D01*
X267294Y789578D02*
X267294Y799562D01*
X263474Y808785D01*
X256415Y815844D01*
X247192Y819664D01*
X237208Y819664D01*
X227985Y815844D01*
X220926Y808785D01*
X217106Y799562D01*
X217106Y789578D01*
X220926Y780355D01*
X227985Y773296D01*
X237208Y769476D01*
X247192Y769476D01*
X256415Y773296D01*
X263474Y780355D01*
X267294Y789578D01*
X63444Y727156D02*
X63444Y722464D01*
X63444Y727156D02*
X61648Y731491D01*
X58331Y734808D01*
X53996Y736604D01*
X49304Y736604D01*
X44969Y734808D01*
X41652Y731491D01*
X39856Y727156D01*
X39856Y722464D01*
X41652Y718129D01*
X44969Y714812D01*
X49304Y713016D01*
X53996Y713016D01*
X58331Y714812D01*
X61648Y718129D01*
X63444Y722464D01*
X102920Y726080D02*
X102920Y737579D01*
X102920Y726080D02*
X100380Y726080D01*
X100380Y737579D01*
X98650Y737305D01*
X96733Y736681D01*
X94936Y735766D01*
X93305Y734581D01*
X91879Y733155D01*
X90694Y731524D01*
X89779Y729727D01*
X89155Y727810D01*
X88881Y726080D01*
X100380Y726080D01*
X100380Y723540D01*
X88881Y723540D01*
X89155Y721810D01*
X89779Y719893D01*
X90694Y718096D01*
X91879Y716465D01*
X93305Y715039D01*
X94936Y713854D01*
X96733Y712939D01*
X98650Y712315D01*
X100380Y712041D01*
X100380Y723540D01*
X102920Y723540D01*
X102920Y712041D01*
X104650Y712315D01*
X106567Y712939D01*
X108364Y713854D01*
X109995Y715039D01*
X111421Y716465D01*
X112606Y718096D01*
X113521Y719893D01*
X114145Y721810D01*
X114419Y723540D01*
X102920Y723540D01*
X102920Y726080D01*
X114419Y726080D01*
X114145Y727810D01*
X113521Y729727D01*
X112606Y731524D01*
X111421Y733155D01*
X109995Y734581D01*
X108364Y735766D01*
X106567Y736681D01*
X104650Y737305D01*
X102920Y737579D01*
X145744Y789818D02*
X145744Y799802D01*
X141924Y809025D01*
X134865Y816084D01*
X125642Y819904D01*
X115658Y819904D01*
X106435Y816084D01*
X99376Y809025D01*
X95556Y799802D01*
X95556Y789818D01*
X99376Y780595D01*
X106435Y773536D01*
X115658Y769716D01*
X125642Y769716D01*
X134865Y773536D01*
X141924Y780595D01*
X145744Y789818D01*
X272994Y726916D02*
X272994Y722224D01*
X272994Y726916D02*
X271198Y731251D01*
X267881Y734568D01*
X263546Y736364D01*
X258854Y736364D01*
X254519Y734568D01*
X251202Y731251D01*
X249406Y726916D01*
X249406Y722224D01*
X251202Y717889D01*
X254519Y714572D01*
X258854Y712776D01*
X263546Y712776D01*
X267881Y714572D01*
X271198Y717889D01*
X272994Y722224D01*
X297994Y722224D02*
X297994Y726916D01*
X296198Y731251D01*
X292881Y734568D01*
X291228Y735253D01*
X294099Y738124D01*
X517936Y738124D01*
X517750Y738095D01*
X515833Y737471D01*
X514036Y736556D01*
X512405Y735371D01*
X510979Y733945D01*
X509794Y732314D01*
X508879Y730517D01*
X508255Y728600D01*
X507981Y726870D01*
X519480Y726870D01*
X519480Y724330D01*
X507981Y724330D01*
X508255Y722600D01*
X508879Y720683D01*
X509794Y718886D01*
X510979Y717255D01*
X512405Y715829D01*
X514036Y714644D01*
X515833Y713729D01*
X517750Y713105D01*
X519480Y712831D01*
X519480Y724330D01*
X522020Y724330D01*
X522020Y712831D01*
X523750Y713105D01*
X525667Y713729D01*
X527464Y714644D01*
X529095Y715829D01*
X530521Y717255D01*
X531706Y718886D01*
X532621Y720683D01*
X533245Y722600D01*
X533519Y724330D01*
X522020Y724330D01*
X522020Y726870D01*
X533519Y726870D01*
X533245Y728600D01*
X532621Y730517D01*
X531706Y732314D01*
X530521Y733945D01*
X529095Y735371D01*
X527464Y736556D01*
X525667Y737471D01*
X523750Y738095D01*
X523564Y738124D01*
X622841Y738124D01*
X631425Y729540D01*
X630947Y678911D01*
X630348Y678663D01*
X627722Y676037D01*
X626301Y672607D01*
X626301Y655813D01*
X627722Y652383D01*
X630348Y649757D01*
X633778Y648336D01*
X637492Y648336D01*
X640922Y649757D01*
X643548Y652383D01*
X644969Y655813D01*
X644969Y672607D01*
X643548Y676037D01*
X640922Y678663D01*
X640599Y678797D01*
X640726Y692299D01*
X646971Y686054D01*
X654591Y686054D01*
X656785Y683860D01*
X656643Y679034D01*
X655748Y678663D01*
X653122Y676037D01*
X651701Y672607D01*
X651701Y655813D01*
X653122Y652383D01*
X655748Y649757D01*
X659178Y648336D01*
X662892Y648336D01*
X666322Y649757D01*
X668948Y652383D01*
X670369Y655813D01*
X670369Y672607D01*
X668948Y676037D01*
X666322Y678663D01*
X666289Y678677D01*
X666438Y683743D01*
X666496Y683801D01*
X666496Y685729D01*
X666553Y687656D01*
X666496Y687716D01*
X666496Y687799D01*
X665133Y689162D01*
X663810Y690565D01*
X663727Y690568D01*
X661416Y692879D01*
X658589Y695706D01*
X650969Y695706D01*
X647446Y699229D01*
X647446Y735072D01*
X644619Y737899D01*
X631981Y750537D01*
X631981Y750537D01*
X629154Y753364D01*
X284259Y753364D01*
X281432Y750537D01*
X278671Y747776D01*
X80551Y747776D01*
X71824Y739049D01*
X71824Y735577D01*
X69969Y734808D01*
X66652Y731491D01*
X64856Y727156D01*
X64856Y722464D01*
X66652Y718129D01*
X69969Y714812D01*
X74304Y713016D01*
X78996Y713016D01*
X83331Y714812D01*
X86648Y718129D01*
X88444Y722464D01*
X88444Y727156D01*
X86648Y731491D01*
X83331Y734808D01*
X81848Y735423D01*
X84549Y738124D01*
X281374Y738124D01*
X281374Y735337D01*
X279519Y734568D01*
X276202Y731251D01*
X274406Y726916D01*
X274406Y722224D01*
X276202Y717889D01*
X279519Y714572D01*
X283854Y712776D01*
X288546Y712776D01*
X292881Y714572D01*
X296198Y717889D01*
X297994Y722224D01*
X312470Y725840D02*
X312470Y737339D01*
X312470Y725840D02*
X309930Y725840D01*
X309930Y737339D01*
X308200Y737065D01*
X306283Y736441D01*
X304486Y735526D01*
X302855Y734341D01*
X301429Y732915D01*
X300244Y731284D01*
X299329Y729487D01*
X298705Y727570D01*
X298431Y725840D01*
X309930Y725840D01*
X309930Y723300D01*
X298431Y723300D01*
X298705Y721570D01*
X299329Y719653D01*
X300244Y717856D01*
X301429Y716225D01*
X302855Y714799D01*
X304486Y713614D01*
X306283Y712699D01*
X308200Y712075D01*
X309930Y711801D01*
X309930Y723300D01*
X312470Y723300D01*
X312470Y711801D01*
X314200Y712075D01*
X316117Y712699D01*
X317914Y713614D01*
X319545Y714799D01*
X320971Y716225D01*
X322156Y717856D01*
X323071Y719653D01*
X323695Y721570D01*
X323969Y723300D01*
X312470Y723300D01*
X312470Y725840D01*
X323969Y725840D01*
X323695Y727570D01*
X323071Y729487D01*
X322156Y731284D01*
X320971Y732915D01*
X319545Y734341D01*
X317914Y735526D01*
X316117Y736441D01*
X314200Y737065D01*
X312470Y737339D01*
X476844Y790608D02*
X476844Y800592D01*
X473024Y809815D01*
X465965Y816874D01*
X456742Y820694D01*
X446758Y820694D01*
X437535Y816874D01*
X430476Y809815D01*
X426656Y800592D01*
X426656Y790608D01*
X430476Y781385D01*
X437535Y774326D01*
X446758Y770506D01*
X456742Y770506D01*
X465965Y774326D01*
X473024Y781385D01*
X476844Y790608D01*
X564844Y790608D02*
X564844Y800592D01*
X561024Y809815D01*
X553965Y816874D01*
X544742Y820694D01*
X534758Y820694D01*
X525535Y816874D01*
X518476Y809815D01*
X514656Y800592D01*
X514656Y790608D01*
X518476Y781385D01*
X525535Y774326D01*
X534758Y770506D01*
X544742Y770506D01*
X553965Y774326D01*
X561024Y781385D01*
X564844Y790608D01*
X692094Y727706D02*
X692094Y723014D01*
X692094Y727706D02*
X690298Y732041D01*
X686981Y735358D01*
X682646Y737154D01*
X677954Y737154D01*
X673619Y735358D01*
X670302Y732041D01*
X668506Y727706D01*
X668506Y723014D01*
X670302Y718679D01*
X673619Y715362D01*
X677954Y713566D01*
X682646Y713566D01*
X686981Y715362D01*
X690298Y718679D01*
X692094Y723014D01*
X731570Y726630D02*
X731570Y738129D01*
X731570Y726630D02*
X729030Y726630D01*
X729030Y738129D01*
X727300Y737855D01*
X725383Y737231D01*
X723586Y736316D01*
X721955Y735131D01*
X720529Y733705D01*
X719344Y732074D01*
X718429Y730277D01*
X717805Y728360D01*
X717531Y726630D01*
X729030Y726630D01*
X729030Y724090D01*
X717531Y724090D01*
X717805Y722360D01*
X718429Y720443D01*
X719344Y718646D01*
X720529Y717015D01*
X721955Y715589D01*
X723586Y714404D01*
X725383Y713489D01*
X727300Y712865D01*
X729030Y712591D01*
X729030Y724090D01*
X731570Y724090D01*
X731570Y712591D01*
X733300Y712865D01*
X735217Y713489D01*
X737014Y714404D01*
X738645Y715589D01*
X740071Y717015D01*
X741256Y718646D01*
X742171Y720443D01*
X742795Y722360D01*
X743069Y724090D01*
X731570Y724090D01*
X731570Y726630D01*
X743069Y726630D01*
X742795Y728360D01*
X742171Y730277D01*
X741256Y732074D01*
X740071Y733705D01*
X738645Y735131D01*
X737014Y736316D01*
X735217Y737231D01*
X733300Y737855D01*
X731570Y738129D01*
X895944Y790128D02*
X895944Y800112D01*
X892124Y809335D01*
X885065Y816394D01*
X875842Y820214D01*
X865858Y820214D01*
X856635Y816394D01*
X849576Y809335D01*
X845756Y800112D01*
X845756Y790128D01*
X849576Y780905D01*
X856635Y773846D01*
X865858Y770026D01*
X875842Y770026D01*
X885065Y773846D01*
X892124Y780905D01*
X895944Y790128D01*
X983944Y790128D02*
X983944Y800112D01*
X980124Y809335D01*
X973065Y816394D01*
X963842Y820214D01*
X953858Y820214D01*
X944635Y816394D01*
X937576Y809335D01*
X933756Y800112D01*
X933756Y790128D01*
X937576Y780905D01*
X944635Y773846D01*
X953858Y770026D01*
X963842Y770026D01*
X973065Y773846D01*
X980124Y780905D01*
X983944Y790128D01*
X270701Y520207D02*
X270701Y503413D01*
X272122Y499983D01*
X274748Y497357D01*
X278178Y495936D01*
X281892Y495936D01*
X285322Y497357D01*
X287948Y499983D01*
X289369Y503413D01*
X289369Y520207D01*
X287948Y523637D01*
X285322Y526263D01*
X281892Y527684D01*
X278178Y527684D01*
X274748Y526263D01*
X272122Y523637D01*
X270701Y520207D01*
X296101Y520207D02*
X296101Y503413D01*
X297522Y499983D01*
X300148Y497357D01*
X303578Y495936D01*
X307292Y495936D01*
X310722Y497357D01*
X313348Y499983D01*
X314769Y503413D01*
X314769Y520207D01*
X313348Y523637D01*
X310722Y526263D01*
X307292Y527684D01*
X303578Y527684D01*
X300148Y526263D01*
X297522Y523637D01*
X296101Y520207D01*
X321501Y520207D02*
X321501Y503413D01*
X322922Y499983D01*
X325548Y497357D01*
X328978Y495936D01*
X332692Y495936D01*
X336122Y497357D01*
X338748Y499983D01*
X340169Y503413D01*
X340169Y520207D01*
X338748Y523637D01*
X336122Y526263D01*
X332692Y527684D01*
X328978Y527684D01*
X325548Y526263D01*
X322922Y523637D01*
X321501Y520207D01*
X346901Y520207D02*
X346901Y503413D01*
X348322Y499983D01*
X350948Y497357D01*
X354378Y495936D01*
X358092Y495936D01*
X361522Y497357D01*
X364148Y499983D01*
X365569Y503413D01*
X365569Y520207D01*
X364148Y523637D01*
X361522Y526263D01*
X358092Y527684D01*
X354378Y527684D01*
X350948Y526263D01*
X348322Y523637D01*
X346901Y520207D01*
X372301Y520207D02*
X372301Y503413D01*
X373722Y499983D01*
X376348Y497357D01*
X379778Y495936D01*
X383492Y495936D01*
X386922Y497357D01*
X389548Y499983D01*
X390969Y503413D01*
X390969Y520207D01*
X389548Y523637D01*
X386922Y526263D01*
X383492Y527684D01*
X379778Y527684D01*
X376348Y526263D01*
X373722Y523637D01*
X372301Y520207D01*
X397701Y520207D02*
X397701Y503413D01*
X399122Y499983D01*
X401748Y497357D01*
X405178Y495936D01*
X408892Y495936D01*
X412322Y497357D01*
X414948Y499983D01*
X416369Y503413D01*
X416369Y520207D01*
X414948Y523637D01*
X412322Y526263D01*
X408892Y527684D01*
X405178Y527684D01*
X401748Y526263D01*
X399122Y523637D01*
X397701Y520207D01*
X423101Y520207D02*
X423101Y503413D01*
X424522Y499983D01*
X427148Y497357D01*
X430578Y495936D01*
X434292Y495936D01*
X437722Y497357D01*
X440348Y499983D01*
X441769Y503413D01*
X441769Y520207D01*
X440348Y523637D01*
X437722Y526263D01*
X434292Y527684D01*
X430578Y527684D01*
X427148Y526263D01*
X424522Y523637D01*
X423101Y520207D01*
X499301Y520207D02*
X499301Y503413D01*
X500722Y499983D01*
X503348Y497357D01*
X506778Y495936D01*
X510492Y495936D01*
X513922Y497357D01*
X516548Y499983D01*
X517969Y503413D01*
X517969Y520207D01*
X516548Y523637D01*
X513922Y526263D01*
X510492Y527684D01*
X506778Y527684D01*
X503348Y526263D01*
X500722Y523637D01*
X499301Y520207D01*
X737965Y528700D02*
X738050Y528700D01*
X737965Y528700D02*
X737965Y512540D01*
X736505Y512540D01*
X736505Y528700D01*
X736420Y528700D01*
X734811Y528445D01*
X733262Y527942D01*
X731810Y527202D01*
X730492Y526245D01*
X729340Y525093D01*
X728383Y523775D01*
X727643Y522323D01*
X727140Y520774D01*
X726885Y519165D01*
X726885Y512540D01*
X736505Y512540D01*
X736505Y511080D01*
X726885Y511080D01*
X726885Y504455D01*
X727140Y502846D01*
X727643Y501297D01*
X728383Y499845D01*
X729340Y498527D01*
X730492Y497375D01*
X731810Y496418D01*
X733262Y495678D01*
X734811Y495175D01*
X736420Y494920D01*
X736505Y494920D01*
X736505Y511080D01*
X737965Y511080D01*
X737965Y494920D01*
X738050Y494920D01*
X739659Y495175D01*
X741208Y495678D01*
X742660Y496418D01*
X743978Y497375D01*
X745130Y498527D01*
X746087Y499845D01*
X746827Y501297D01*
X747330Y502846D01*
X747585Y504455D01*
X747585Y511080D01*
X737965Y511080D01*
X737965Y512540D01*
X747585Y512540D01*
X747585Y519165D01*
X747330Y520774D01*
X746827Y522323D01*
X746087Y523775D01*
X745130Y525093D01*
X743978Y526245D01*
X742660Y527202D01*
X741208Y527942D01*
X739659Y528445D01*
X738050Y528700D01*
X266844Y419042D02*
X266844Y409058D01*
X266844Y419042D02*
X263024Y428265D01*
X255965Y435324D01*
X246742Y439144D01*
X236758Y439144D01*
X227535Y435324D01*
X220476Y428265D01*
X216656Y419042D01*
X216656Y409058D01*
X220476Y399835D01*
X227535Y392776D01*
X236758Y388956D01*
X246742Y388956D01*
X255965Y392776D01*
X263024Y399835D01*
X266844Y409058D01*
X354844Y409058D02*
X354844Y419042D01*
X351024Y428265D01*
X343965Y435324D01*
X334742Y439144D01*
X324758Y439144D01*
X315535Y435324D01*
X308476Y428265D01*
X304656Y419042D01*
X304656Y409058D01*
X308476Y399835D01*
X315535Y392776D01*
X324758Y388956D01*
X334742Y388956D01*
X343965Y392776D01*
X351024Y399835D01*
X354844Y409058D01*
X482094Y347666D02*
X482094Y342974D01*
X482094Y347666D02*
X480298Y352001D01*
X476981Y355318D01*
X472646Y357114D01*
X467954Y357114D01*
X463619Y355318D01*
X460302Y352001D01*
X458506Y347666D01*
X458506Y342974D01*
X460302Y338639D01*
X463619Y335322D01*
X467954Y333526D01*
X472646Y333526D01*
X476981Y335322D01*
X480298Y338639D01*
X482094Y342974D01*
X521570Y346590D02*
X521570Y358089D01*
X521570Y346590D02*
X519030Y346590D01*
X519030Y358089D01*
X517300Y357815D01*
X515383Y357191D01*
X513586Y356276D01*
X511955Y355091D01*
X510529Y353665D01*
X509344Y352034D01*
X508429Y350237D01*
X507805Y348320D01*
X507531Y346590D01*
X519030Y346590D01*
X519030Y344050D01*
X507531Y344050D01*
X507805Y342320D01*
X508429Y340403D01*
X509344Y338606D01*
X510529Y336975D01*
X511955Y335549D01*
X513586Y334364D01*
X515383Y333449D01*
X517300Y332825D01*
X519030Y332551D01*
X519030Y344050D01*
X521570Y344050D01*
X521570Y332551D01*
X523300Y332825D01*
X525217Y333449D01*
X527014Y334364D01*
X528645Y335549D01*
X530071Y336975D01*
X531256Y338606D01*
X532171Y340403D01*
X532795Y342320D01*
X533069Y344050D01*
X521570Y344050D01*
X521570Y346590D01*
X533069Y346590D01*
X532795Y348320D01*
X532171Y350237D01*
X531256Y352034D01*
X530071Y353665D01*
X528645Y355091D01*
X527014Y356276D01*
X525217Y357191D01*
X523300Y357815D01*
X521570Y358089D01*
X685944Y409058D02*
X685944Y419042D01*
X682124Y428265D01*
X675065Y435324D01*
X665842Y439144D01*
X655858Y439144D01*
X646635Y435324D01*
X639576Y428265D01*
X635756Y419042D01*
X635756Y409058D01*
X639576Y399835D01*
X646635Y392776D01*
X655858Y388956D01*
X665842Y388956D01*
X675065Y392776D01*
X682124Y399835D01*
X685944Y409058D01*
X773944Y409058D02*
X773944Y419042D01*
X770124Y428265D01*
X763065Y435324D01*
X753842Y439144D01*
X743858Y439144D01*
X734635Y435324D01*
X727576Y428265D01*
X723756Y419042D01*
X723756Y409058D01*
X727576Y399835D01*
X734635Y392776D01*
X743858Y388956D01*
X753842Y388956D01*
X763065Y392776D01*
X770124Y399835D01*
X773944Y409058D01*
X910084Y346396D02*
X910084Y341704D01*
X910084Y346396D02*
X908288Y350731D01*
X904971Y354048D01*
X900636Y355844D01*
X895944Y355844D01*
X891609Y354048D01*
X888292Y350731D01*
X886496Y346396D01*
X886496Y341704D01*
X888292Y337369D01*
X891609Y334052D01*
X895944Y332256D01*
X900636Y332256D01*
X904971Y334052D01*
X908288Y337369D01*
X910084Y341704D01*
X935084Y341704D02*
X935084Y346396D01*
X933288Y350731D01*
X929971Y354048D01*
X925636Y355844D01*
X920944Y355844D01*
X916609Y354048D01*
X913292Y350731D01*
X911496Y346396D01*
X911496Y341704D01*
X913292Y337369D01*
X916609Y334052D01*
X920944Y332256D01*
X925636Y332256D01*
X929971Y334052D01*
X933288Y337369D01*
X935084Y341704D01*
X949560Y345320D02*
X949560Y356819D01*
X949560Y345320D02*
X947020Y345320D01*
X947020Y356819D01*
X945290Y356545D01*
X943373Y355921D01*
X941576Y355006D01*
X939945Y353821D01*
X938519Y352395D01*
X937334Y350764D01*
X936419Y348967D01*
X935795Y347050D01*
X935521Y345320D01*
X947020Y345320D01*
X947020Y342780D01*
X935521Y342780D01*
X935795Y341050D01*
X936419Y339133D01*
X937334Y337336D01*
X938519Y335705D01*
X939945Y334279D01*
X941576Y333094D01*
X943373Y332179D01*
X945290Y331555D01*
X947020Y331281D01*
X947020Y342780D01*
X949560Y342780D01*
X949560Y331281D01*
X951290Y331555D01*
X953207Y332179D01*
X955004Y333094D01*
X956635Y334279D01*
X958061Y335705D01*
X959246Y337336D01*
X960161Y339133D01*
X960785Y341050D01*
X961059Y342780D01*
X949560Y342780D01*
X949560Y345320D01*
X961059Y345320D01*
X960785Y347050D01*
X960161Y348967D01*
X959246Y350764D01*
X958061Y352395D01*
X956635Y353821D01*
X955004Y355006D01*
X953207Y355921D01*
X951290Y356545D01*
X949560Y356819D01*
X55316Y585296D02*
X36124Y585296D01*
X55316Y585296D02*
X59114Y586869D01*
X62021Y589776D01*
X62446Y590804D01*
X75979Y590804D01*
X61640Y576465D01*
X59114Y578991D01*
X55316Y580564D01*
X36124Y580564D01*
X32326Y578991D01*
X29419Y576084D01*
X27846Y572286D01*
X27846Y568174D01*
X29419Y564376D01*
X32326Y561469D01*
X36124Y559896D01*
X55316Y559896D01*
X59114Y561469D01*
X62021Y564376D01*
X62446Y565404D01*
X64229Y565404D01*
X83279Y584454D01*
X452661Y584454D01*
X453627Y583488D01*
X453136Y526506D01*
X452548Y526263D01*
X449922Y523637D01*
X448501Y520207D01*
X448501Y503413D01*
X449922Y499983D01*
X452548Y497357D01*
X455978Y495936D01*
X459692Y495936D01*
X463122Y497357D01*
X465748Y499983D01*
X467169Y503413D01*
X467169Y520207D01*
X465748Y523637D01*
X463122Y526263D01*
X462787Y526402D01*
X463279Y583454D01*
X463296Y583471D01*
X463296Y585448D01*
X463313Y587427D01*
X463296Y587445D01*
X463296Y587469D01*
X461898Y588867D01*
X460511Y590279D01*
X460486Y590279D01*
X459961Y590804D01*
X471711Y590804D01*
X479027Y583488D01*
X478536Y526506D01*
X477948Y526263D01*
X475322Y523637D01*
X473901Y520207D01*
X473901Y503413D01*
X475322Y499983D01*
X477948Y497357D01*
X481378Y495936D01*
X485092Y495936D01*
X488522Y497357D01*
X491148Y499983D01*
X492569Y503413D01*
X492569Y520207D01*
X491148Y523637D01*
X488522Y526263D01*
X488187Y526402D01*
X488679Y583454D01*
X488696Y583471D01*
X488696Y585448D01*
X488713Y587427D01*
X488696Y587445D01*
X488696Y587469D01*
X487298Y588867D01*
X485911Y590279D01*
X485886Y590279D01*
X475709Y600456D01*
X62446Y600456D01*
X62021Y601484D01*
X59114Y604391D01*
X55316Y605964D01*
X36124Y605964D01*
X32326Y604391D01*
X29419Y601484D01*
X27846Y597686D01*
X27846Y593574D01*
X29419Y589776D01*
X32326Y586869D01*
X36124Y585296D01*
X26883Y622260D02*
X27109Y623688D01*
X26883Y622260D02*
X44490Y622260D01*
X44490Y619800D01*
X26883Y619800D01*
X27109Y618372D01*
X27662Y616673D01*
X28473Y615081D01*
X29523Y613636D01*
X30786Y612373D01*
X32231Y611323D01*
X33823Y610512D01*
X35522Y609959D01*
X37287Y609680D01*
X44490Y609680D01*
X44490Y619800D01*
X46950Y619800D01*
X46950Y609680D01*
X54153Y609680D01*
X55918Y609959D01*
X57617Y610512D01*
X59209Y611323D01*
X60654Y612373D01*
X61917Y613636D01*
X62967Y615081D01*
X63778Y616673D01*
X64331Y618372D01*
X64557Y619800D01*
X46950Y619800D01*
X46950Y622260D01*
X64557Y622260D01*
X64331Y623688D01*
X63778Y625387D01*
X62967Y626979D01*
X61917Y628424D01*
X60654Y629687D01*
X59209Y630737D01*
X57617Y631548D01*
X55918Y632101D01*
X54153Y632380D01*
X46950Y632380D01*
X46950Y622260D01*
X44490Y622260D01*
X44490Y632380D01*
X37287Y632380D01*
X35522Y632101D01*
X33823Y631548D01*
X32231Y630737D01*
X30786Y629687D01*
X29523Y628424D01*
X28473Y626979D01*
X27662Y625387D01*
X27109Y623688D01*
X968469Y542544D02*
X971296Y545371D01*
X971296Y737329D01*
X954499Y754126D01*
X897161Y754126D01*
X888271Y745236D01*
X885444Y742409D01*
X885444Y736061D01*
X883169Y735118D01*
X879852Y731801D01*
X878056Y727466D01*
X878056Y722774D01*
X879852Y718439D01*
X883169Y715122D01*
X887504Y713326D01*
X892196Y713326D01*
X896531Y715122D01*
X899848Y718439D01*
X901644Y722774D01*
X901644Y727466D01*
X899848Y731801D01*
X896531Y735118D01*
X895096Y735713D01*
X895096Y738411D01*
X901159Y744474D01*
X950501Y744474D01*
X961644Y733331D01*
X961644Y549369D01*
X927641Y515366D01*
X833661Y515366D01*
X830834Y512539D01*
X817880Y499585D01*
X800829Y516636D01*
X771969Y516636D01*
X771969Y520207D01*
X770548Y523637D01*
X767922Y526263D01*
X764492Y527684D01*
X760778Y527684D01*
X757348Y526263D01*
X754722Y523637D01*
X753301Y520207D01*
X753301Y503413D01*
X754722Y499983D01*
X757348Y497357D01*
X760778Y495936D01*
X764492Y495936D01*
X767922Y497357D01*
X770548Y499983D01*
X771969Y503413D01*
X771969Y506984D01*
X796831Y506984D01*
X813054Y490761D01*
X813054Y334674D01*
X812305Y333925D01*
X811304Y331508D01*
X811304Y328892D01*
X812305Y326475D01*
X814155Y324625D01*
X816572Y323624D01*
X819188Y323624D01*
X821605Y324625D01*
X823455Y326475D01*
X824456Y328892D01*
X824456Y331508D01*
X823455Y333925D01*
X822706Y334674D01*
X822706Y490761D01*
X837659Y505714D01*
X931639Y505714D01*
X934466Y508541D01*
X934466Y508541D01*
X968469Y542544D01*
X968469Y542544D01*
X501876Y378498D02*
X501876Y375882D01*
X501876Y378498D02*
X500875Y380915D01*
X499025Y382765D01*
X496608Y383766D01*
X493992Y383766D01*
X491575Y382765D01*
X489725Y380915D01*
X488724Y378498D01*
X488724Y375882D01*
X489725Y373465D01*
X490474Y372716D01*
X490474Y356087D01*
X488619Y355318D01*
X485302Y352001D01*
X483506Y347666D01*
X483506Y342974D01*
X485302Y338639D01*
X488619Y335322D01*
X492954Y333526D01*
X497646Y333526D01*
X501981Y335322D01*
X505298Y338639D01*
X507094Y342974D01*
X507094Y347666D01*
X505298Y352001D01*
X501981Y355318D01*
X500126Y356087D01*
X500126Y372716D01*
X500875Y373465D01*
X501876Y375882D01*
X937612Y-48000D02*
X61878Y-48000D01*
X67457Y-42000D02*
X932033Y-42000D01*
X928569Y-36000D02*
X70921Y-36000D01*
X72678Y-30000D02*
X926812Y-30000D01*
X926056Y-24000D02*
X73434Y-24000D01*
X73289Y-18000D02*
X926201Y-18000D01*
X927809Y-12000D02*
X71681Y-12000D01*
X12507Y-6000D02*
X11430Y-6000D01*
X68773Y-6000D02*
X71565Y-6000D01*
X191325Y-6000D02*
X199835Y-6000D01*
X522795Y-6000D02*
X529527Y-6000D01*
X920305Y-6000D02*
X930717Y-6000D01*
X986983Y-6000D02*
X988060Y-6000D01*
X17122Y0D02*
X11430Y0D01*
X64158Y0D02*
X65565Y0D01*
X79215Y0D02*
X183675Y0D01*
X207485Y0D02*
X323375Y0D01*
X334485Y0D02*
X515145Y0D01*
X537177Y0D02*
X715805Y0D01*
X730725Y0D02*
X912655Y0D01*
X926305Y0D02*
X935332Y0D01*
X982368Y0D02*
X988060Y0D01*
X25039Y6000D02*
X11430Y6000D01*
X56241Y6000D02*
X64389Y6000D01*
X74041Y6000D02*
X186944Y6000D01*
X205486Y6000D02*
X324485Y6000D01*
X334137Y6000D02*
X521145Y6000D01*
X531177Y6000D02*
X718185Y6000D01*
X727837Y6000D02*
X918655Y6000D01*
X929767Y6000D02*
X943249Y6000D01*
X974451Y6000D02*
X988060Y6000D01*
X64389Y12000D02*
X11430Y12000D01*
X74041Y12000D02*
X186944Y12000D01*
X205486Y12000D02*
X273627Y12000D01*
X323019Y12000D02*
X324485Y12000D01*
X334137Y12000D02*
X473543Y12000D01*
X516803Y12000D02*
X521335Y12000D01*
X530987Y12000D02*
X667327Y12000D01*
X716719Y12000D02*
X718185Y12000D01*
X727837Y12000D02*
X872323Y12000D01*
X915583Y12000D02*
X920115Y12000D01*
X929767Y12000D02*
X988060Y12000D01*
X64389Y18000D02*
X11430Y18000D01*
X128534Y18000D02*
X186944Y18000D01*
X205486Y18000D02*
X268906Y18000D01*
X334137Y18000D02*
X466282Y18000D01*
X530987Y18000D02*
X662606Y18000D01*
X727837Y18000D02*
X865062Y18000D01*
X929767Y18000D02*
X988060Y18000D01*
X64389Y24000D02*
X11430Y24000D01*
X130429Y24000D02*
X186944Y24000D01*
X205486Y24000D02*
X262759Y24000D01*
X334141Y24000D02*
X464947Y24000D01*
X530987Y24000D02*
X656459Y24000D01*
X727841Y24000D02*
X863727Y24000D01*
X929767Y24000D02*
X988060Y24000D01*
X63536Y30000D02*
X11430Y30000D01*
X206527Y30000D02*
X252735Y30000D01*
X335244Y30000D02*
X394975Y30000D01*
X532094Y30000D02*
X596905Y30000D01*
X729996Y30000D02*
X784865Y30000D01*
X930874Y30000D02*
X988060Y30000D01*
X63536Y36000D02*
X11430Y36000D01*
X206543Y36000D02*
X246735Y36000D01*
X260385Y36000D02*
X262039Y36000D01*
X334861Y36000D02*
X388975Y36000D01*
X532094Y36000D02*
X590905Y36000D01*
X604555Y36000D02*
X655739Y36000D01*
X728561Y36000D02*
X778865Y36000D01*
X930874Y36000D02*
X988060Y36000D01*
X63247Y42000D02*
X11430Y42000D01*
X136001Y42000D02*
X178269Y42000D01*
X182411Y42000D02*
X186944Y42000D01*
X196596Y42000D02*
X198589Y42000D01*
X202731Y42000D02*
X240735Y42000D01*
X254385Y42000D02*
X260640Y42000D01*
X396625Y42000D02*
X457626Y42000D01*
X532094Y42000D02*
X584905Y42000D01*
X598555Y42000D02*
X654340Y42000D01*
X786515Y42000D02*
X856406Y42000D01*
X930874Y42000D02*
X988060Y42000D01*
X69977Y48000D02*
X11430Y48000D01*
X186916Y48000D02*
X186944Y48000D01*
X248385Y48000D02*
X260640Y48000D01*
X390625Y48000D02*
X457490Y48000D01*
X592555Y48000D02*
X654340Y48000D01*
X780515Y48000D02*
X856270Y48000D01*
X930874Y48000D02*
X988060Y48000D01*
X62808Y54000D02*
X11430Y54000D01*
X136761Y54000D02*
X177014Y54000D01*
X183666Y54000D02*
X186944Y54000D01*
X196596Y54000D02*
X197334Y54000D01*
X203986Y54000D02*
X268097Y54000D01*
X328549Y54000D02*
X458702Y54000D01*
X530461Y54000D02*
X661797Y54000D01*
X722249Y54000D02*
X857482Y54000D01*
X929241Y54000D02*
X988060Y54000D01*
X70163Y60000D02*
X11430Y60000D01*
X130243Y60000D02*
X186944Y60000D01*
X196596Y60000D02*
X210100Y60000D01*
X219160Y60000D02*
X269336Y60000D01*
X327310Y60000D02*
X465660Y60000D01*
X524686Y60000D02*
X663036Y60000D01*
X721010Y60000D02*
X864440Y60000D01*
X923466Y60000D02*
X988060Y60000D01*
X73830Y66000D02*
X11430Y66000D01*
X126576Y66000D02*
X186944Y66000D01*
X196596Y66000D02*
X207845Y66000D01*
X221206Y66000D02*
X274924Y66000D01*
X320513Y66000D02*
X470070Y66000D01*
X520276Y66000D02*
X668624Y66000D01*
X715676Y66000D02*
X868850Y66000D01*
X919056Y66000D02*
X988060Y66000D01*
X38251Y72000D02*
X11430Y72000D01*
X60809Y72000D02*
X73218Y72000D01*
X127442Y72000D02*
X139851Y72000D01*
X162409Y72000D02*
X186944Y72000D01*
X196596Y72000D02*
X201845Y72000D01*
X215495Y72000D02*
X235101Y72000D01*
X257659Y72000D02*
X270068Y72000D01*
X324292Y72000D02*
X336701Y72000D01*
X359259Y72000D02*
X433221Y72000D01*
X455779Y72000D02*
X468188Y72000D01*
X522412Y72000D02*
X534821Y72000D01*
X557379Y72000D02*
X628795Y72000D01*
X653905Y72000D02*
X664304Y72000D01*
X719996Y72000D02*
X730395Y72000D01*
X755505Y72000D02*
X830731Y72000D01*
X853289Y72000D02*
X865698Y72000D01*
X919922Y72000D02*
X932331Y72000D01*
X954889Y72000D02*
X988060Y72000D01*
X32473Y78000D02*
X11430Y78000D01*
X66587Y78000D02*
X70194Y78000D01*
X130466Y78000D02*
X134073Y78000D01*
X168187Y78000D02*
X186944Y78000D01*
X209495Y78000D02*
X229323Y78000D01*
X263437Y78000D02*
X267044Y78000D01*
X327316Y78000D02*
X330923Y78000D01*
X365037Y78000D02*
X427443Y78000D01*
X461557Y78000D02*
X465164Y78000D01*
X525436Y78000D02*
X529043Y78000D01*
X563157Y78000D02*
X623767Y78000D01*
X658933Y78000D02*
X661674Y78000D01*
X722626Y78000D02*
X725367Y78000D01*
X760533Y78000D02*
X824953Y78000D01*
X859067Y78000D02*
X862674Y78000D01*
X922946Y78000D02*
X926553Y78000D01*
X960667Y78000D02*
X988060Y78000D01*
X29988Y84000D02*
X11430Y84000D01*
X170672Y84000D02*
X186944Y84000D01*
X203495Y84000D02*
X226838Y84000D01*
X367522Y84000D02*
X424958Y84000D01*
X565642Y84000D02*
X621420Y84000D01*
X762880Y84000D02*
X822468Y84000D01*
X963152Y84000D02*
X988060Y84000D01*
X29600Y90000D02*
X11430Y90000D01*
X171060Y90000D02*
X186944Y90000D01*
X202946Y90000D02*
X226450Y90000D01*
X367910Y90000D02*
X424570Y90000D01*
X566030Y90000D02*
X621420Y90000D01*
X762880Y90000D02*
X822080Y90000D01*
X963540Y90000D02*
X988060Y90000D01*
X30899Y96000D02*
X11430Y96000D01*
X131484Y96000D02*
X132499Y96000D01*
X169761Y96000D02*
X186944Y96000D01*
X202946Y96000D02*
X227749Y96000D01*
X328334Y96000D02*
X329349Y96000D01*
X366611Y96000D02*
X425869Y96000D01*
X526454Y96000D02*
X527469Y96000D01*
X564731Y96000D02*
X623245Y96000D01*
X722964Y96000D02*
X724845Y96000D01*
X761055Y96000D02*
X823379Y96000D01*
X923964Y96000D02*
X924979Y96000D01*
X962241Y96000D02*
X988060Y96000D01*
X136045Y102000D02*
X129636Y102000D01*
X166215Y102000D02*
X186944Y102000D01*
X202946Y102000D02*
X205779Y102000D01*
X326486Y102000D02*
X332895Y102000D01*
X363065Y102000D02*
X403899Y102000D01*
X524606Y102000D02*
X531015Y102000D01*
X561185Y102000D02*
X599606Y102000D01*
X720723Y102000D02*
X729135Y102000D01*
X756765Y102000D02*
X801409Y102000D01*
X922116Y102000D02*
X928525Y102000D01*
X958695Y102000D02*
X988060Y102000D01*
X145162Y108000D02*
X126172Y108000D01*
X157098Y108000D02*
X186944Y108000D01*
X202946Y108000D02*
X204636Y108000D01*
X323022Y108000D02*
X342012Y108000D01*
X353948Y108000D02*
X402756Y108000D01*
X521142Y108000D02*
X540132Y108000D01*
X552068Y108000D02*
X599606Y108000D01*
X716936Y108000D02*
X800266Y108000D01*
X918652Y108000D02*
X937642Y108000D01*
X949578Y108000D02*
X988060Y108000D01*
X186944Y114000D02*
X131934Y114000D01*
X202946Y114000D02*
X204636Y114000D01*
X328784Y114000D02*
X402756Y114000D01*
X526904Y114000D02*
X599606Y114000D01*
X728096Y114000D02*
X800266Y114000D01*
X924414Y114000D02*
X988060Y114000D01*
X93029Y120000D02*
X88065Y120000D01*
X107631Y120000D02*
X108052Y120000D01*
X143408Y120000D02*
X186944Y120000D01*
X202946Y120000D02*
X204636Y120000D01*
X284915Y120000D02*
X289879Y120000D01*
X304481Y120000D02*
X304902Y120000D01*
X340258Y120000D02*
X402756Y120000D01*
X483035Y120000D02*
X487999Y120000D01*
X502601Y120000D02*
X503022Y120000D01*
X538378Y120000D02*
X599606Y120000D01*
X679545Y120000D02*
X698602Y120000D01*
X736498Y120000D02*
X800266Y120000D01*
X880545Y120000D02*
X885509Y120000D01*
X900111Y120000D02*
X900532Y120000D01*
X935888Y120000D02*
X988060Y120000D01*
X103121Y126000D02*
X85994Y126000D01*
X148339Y126000D02*
X149468Y126000D01*
X162610Y126000D02*
X165150Y126000D01*
X178292Y126000D02*
X186944Y126000D01*
X202946Y126000D02*
X205179Y126000D01*
X282844Y126000D02*
X299971Y126000D01*
X345189Y126000D02*
X346318Y126000D01*
X359460Y126000D02*
X362000Y126000D01*
X375142Y126000D02*
X403299Y126000D01*
X480964Y126000D02*
X498091Y126000D01*
X543309Y126000D02*
X544438Y126000D01*
X557580Y126000D02*
X560120Y126000D01*
X573262Y126000D02*
X611074Y126000D01*
X620726Y126000D02*
X631020Y126000D01*
X677081Y126000D02*
X694208Y126000D01*
X754430Y126000D02*
X756970Y126000D01*
X772158Y126000D02*
X800809Y126000D01*
X878474Y126000D02*
X895601Y126000D01*
X940819Y126000D02*
X941948Y126000D01*
X955090Y126000D02*
X957630Y126000D01*
X970772Y126000D02*
X988060Y126000D01*
X18097Y132000D02*
X11430Y132000D01*
X30163Y132000D02*
X42552Y132000D01*
X81908Y132000D02*
X100431Y132000D01*
X162610Y132000D02*
X165150Y132000D01*
X181190Y132000D02*
X186944Y132000D01*
X202946Y132000D02*
X216104Y132000D01*
X225756Y132000D02*
X239402Y132000D01*
X278758Y132000D02*
X297281Y132000D01*
X359460Y132000D02*
X362000Y132000D01*
X378040Y132000D02*
X414224Y132000D01*
X423876Y132000D02*
X437522Y132000D01*
X476878Y132000D02*
X495401Y132000D01*
X557580Y132000D02*
X560120Y132000D01*
X576160Y132000D02*
X611074Y132000D01*
X620726Y132000D02*
X635642Y132000D01*
X672458Y132000D02*
X691911Y132000D01*
X754430Y132000D02*
X756970Y132000D01*
X773010Y132000D02*
X811734Y132000D01*
X821386Y132000D02*
X835032Y132000D01*
X874388Y132000D02*
X892911Y132000D01*
X955090Y132000D02*
X957630Y132000D01*
X973670Y132000D02*
X988060Y132000D01*
X18412Y138000D02*
X11430Y138000D01*
X29848Y138000D02*
X50420Y138000D01*
X74040Y138000D02*
X99300Y138000D01*
X162610Y138000D02*
X165150Y138000D01*
X181190Y138000D02*
X186944Y138000D01*
X205785Y138000D02*
X216104Y138000D01*
X225756Y138000D02*
X247270Y138000D01*
X270890Y138000D02*
X296150Y138000D01*
X359460Y138000D02*
X362000Y138000D01*
X378040Y138000D02*
X414224Y138000D01*
X423876Y138000D02*
X445390Y138000D01*
X469010Y138000D02*
X494270Y138000D01*
X557580Y138000D02*
X560120Y138000D01*
X576160Y138000D02*
X611074Y138000D01*
X620726Y138000D02*
X645122Y138000D01*
X662978Y138000D02*
X691120Y138000D01*
X756970Y138000D02*
X811734Y138000D01*
X821386Y138000D02*
X842900Y138000D01*
X866520Y138000D02*
X891780Y138000D01*
X955090Y138000D02*
X957630Y138000D01*
X973670Y138000D02*
X988060Y138000D01*
X99520Y144000D02*
X11430Y144000D01*
X162610Y144000D02*
X165150Y144000D01*
X181190Y144000D02*
X186944Y144000D01*
X196596Y144000D02*
X198135Y144000D01*
X210566Y144000D02*
X216104Y144000D01*
X225756Y144000D02*
X296370Y144000D01*
X359460Y144000D02*
X362000Y144000D01*
X378040Y144000D02*
X414224Y144000D01*
X423876Y144000D02*
X494490Y144000D01*
X557580Y144000D02*
X560120Y144000D01*
X576160Y144000D02*
X611074Y144000D01*
X620726Y144000D02*
X691680Y144000D01*
X754430Y144000D02*
X756970Y144000D01*
X773010Y144000D02*
X811734Y144000D01*
X821386Y144000D02*
X892000Y144000D01*
X955090Y144000D02*
X957630Y144000D01*
X973670Y144000D02*
X988060Y144000D01*
X101158Y150000D02*
X11430Y150000D01*
X162610Y150000D02*
X165150Y150000D01*
X181190Y150000D02*
X186944Y150000D01*
X196596Y150000D02*
X200914Y150000D01*
X210566Y150000D02*
X216104Y150000D01*
X225756Y150000D02*
X298008Y150000D01*
X359460Y150000D02*
X362000Y150000D01*
X378040Y150000D02*
X414224Y150000D01*
X423876Y150000D02*
X496128Y150000D01*
X557580Y150000D02*
X560120Y150000D01*
X576160Y150000D02*
X611074Y150000D01*
X620726Y150000D02*
X693711Y150000D01*
X754430Y150000D02*
X756970Y150000D01*
X772693Y150000D02*
X811734Y150000D01*
X821386Y150000D02*
X893638Y150000D01*
X955090Y150000D02*
X957630Y150000D01*
X973670Y150000D02*
X988060Y150000D01*
X104652Y156000D02*
X11430Y156000D01*
X146808Y156000D02*
X186944Y156000D01*
X196596Y156000D02*
X200914Y156000D01*
X210566Y156000D02*
X216104Y156000D01*
X225756Y156000D02*
X301502Y156000D01*
X343658Y156000D02*
X414224Y156000D01*
X423876Y156000D02*
X499622Y156000D01*
X541778Y156000D02*
X611074Y156000D01*
X620726Y156000D02*
X697742Y156000D01*
X737358Y156000D02*
X811734Y156000D01*
X821386Y156000D02*
X897132Y156000D01*
X939288Y156000D02*
X988060Y156000D01*
X111495Y162000D02*
X11430Y162000D01*
X139965Y162000D02*
X186944Y162000D01*
X196596Y162000D02*
X200914Y162000D01*
X210566Y162000D02*
X216104Y162000D01*
X225756Y162000D02*
X308345Y162000D01*
X336815Y162000D02*
X414224Y162000D01*
X423876Y162000D02*
X506465Y162000D01*
X534935Y162000D02*
X611074Y162000D01*
X620726Y162000D02*
X705514Y162000D01*
X729586Y162000D02*
X811734Y162000D01*
X821386Y162000D02*
X903975Y162000D01*
X932445Y162000D02*
X988060Y162000D01*
X186944Y168000D02*
X11430Y168000D01*
X196596Y168000D02*
X200914Y168000D01*
X210566Y168000D02*
X216104Y168000D01*
X225756Y168000D02*
X414224Y168000D01*
X423876Y168000D02*
X611074Y168000D01*
X620726Y168000D02*
X811734Y168000D01*
X821386Y168000D02*
X988060Y168000D01*
X186944Y174000D02*
X11430Y174000D01*
X196596Y174000D02*
X200914Y174000D01*
X210566Y174000D02*
X216104Y174000D01*
X225756Y174000D02*
X414224Y174000D01*
X424665Y174000D02*
X611074Y174000D01*
X620726Y174000D02*
X811734Y174000D01*
X821386Y174000D02*
X988060Y174000D01*
X182745Y180000D02*
X11430Y180000D01*
X196395Y180000D02*
X200914Y180000D01*
X210566Y180000D02*
X216104Y180000D01*
X225756Y180000D02*
X417015Y180000D01*
X430665Y180000D02*
X611074Y180000D01*
X620726Y180000D02*
X811734Y180000D01*
X821386Y180000D02*
X988060Y180000D01*
X158965Y186000D02*
X11430Y186000D01*
X190395Y186000D02*
X199164Y186000D01*
X212316Y186000D02*
X216104Y186000D01*
X225845Y186000D02*
X423015Y186000D01*
X436665Y186000D02*
X611074Y186000D01*
X620726Y186000D02*
X811734Y186000D01*
X821386Y186000D02*
X988060Y186000D01*
X152965Y192000D02*
X11430Y192000D01*
X184395Y192000D02*
X218195Y192000D01*
X231845Y192000D02*
X429015Y192000D01*
X597455Y192000D02*
X609374Y192000D01*
X622526Y192000D02*
X810825Y192000D01*
X821386Y192000D02*
X988060Y192000D01*
X152456Y198000D02*
X11430Y198000D01*
X162108Y198000D02*
X224195Y198000D01*
X237845Y198000D02*
X585705Y198000D01*
X597935Y198000D02*
X611610Y198000D01*
X620290Y198000D02*
X804825Y198000D01*
X818475Y198000D02*
X988060Y198000D01*
X152456Y204000D02*
X11430Y204000D01*
X162108Y204000D02*
X165160Y204000D01*
X222255Y204000D02*
X230195Y204000D01*
X593881Y204000D02*
X595625Y204000D01*
X812475Y204000D02*
X988060Y204000D01*
X152456Y210000D02*
X11430Y210000D01*
X162108Y210000D02*
X163775Y210000D01*
X622202Y210000D02*
X988060Y210000D01*
X152456Y216000D02*
X11430Y216000D01*
X162108Y216000D02*
X573840Y216000D01*
X621340Y216000D02*
X988060Y216000D01*
X152456Y222000D02*
X11430Y222000D01*
X162108Y222000D02*
X580642Y222000D01*
X617945Y222000D02*
X988060Y222000D01*
X152456Y228000D02*
X11430Y228000D01*
X162108Y228000D02*
X580629Y228000D01*
X605783Y228000D02*
X988060Y228000D01*
X39845Y234000D02*
X11430Y234000D01*
X162108Y234000D02*
X580616Y234000D01*
X604610Y234000D02*
X988060Y234000D01*
X33845Y240000D02*
X11430Y240000D01*
X47495Y240000D02*
X141800Y240000D01*
X150300Y240000D02*
X152456Y240000D01*
X162108Y240000D02*
X580602Y240000D01*
X601472Y240000D02*
X988060Y240000D01*
X27845Y246000D02*
X11430Y246000D01*
X41495Y246000D02*
X152456Y246000D01*
X162108Y246000D02*
X580589Y246000D01*
X609630Y246000D02*
X988060Y246000D01*
X25654Y252000D02*
X11430Y252000D01*
X35495Y252000D02*
X152456Y252000D01*
X162108Y252000D02*
X580576Y252000D01*
X610888Y252000D02*
X988060Y252000D01*
X25654Y258000D02*
X11430Y258000D01*
X35306Y258000D02*
X152456Y258000D01*
X162108Y258000D02*
X580563Y258000D01*
X607060Y258000D02*
X988060Y258000D01*
X25654Y264000D02*
X11430Y264000D01*
X35306Y264000D02*
X152456Y264000D01*
X162108Y264000D02*
X580550Y264000D01*
X607060Y264000D02*
X988060Y264000D01*
X25654Y270000D02*
X11430Y270000D01*
X35306Y270000D02*
X152456Y270000D01*
X162108Y270000D02*
X580537Y270000D01*
X607060Y270000D02*
X988060Y270000D01*
X25654Y276000D02*
X11430Y276000D01*
X35306Y276000D02*
X152456Y276000D01*
X162108Y276000D02*
X580524Y276000D01*
X616176Y276000D02*
X988060Y276000D01*
X25654Y282000D02*
X11430Y282000D01*
X35306Y282000D02*
X152456Y282000D01*
X162108Y282000D02*
X580511Y282000D01*
X613760Y282000D02*
X988060Y282000D01*
X25654Y288000D02*
X11430Y288000D01*
X35306Y288000D02*
X152456Y288000D01*
X162108Y288000D02*
X580498Y288000D01*
X612648Y288000D02*
X988060Y288000D01*
X25654Y294000D02*
X11430Y294000D01*
X35306Y294000D02*
X152456Y294000D01*
X162108Y294000D02*
X580485Y294000D01*
X612648Y294000D02*
X988060Y294000D01*
X25654Y300000D02*
X11430Y300000D01*
X35306Y300000D02*
X152456Y300000D01*
X162108Y300000D02*
X580471Y300000D01*
X612648Y300000D02*
X988060Y300000D01*
X25654Y306000D02*
X11430Y306000D01*
X35306Y306000D02*
X152456Y306000D01*
X162108Y306000D02*
X580458Y306000D01*
X612648Y306000D02*
X988060Y306000D01*
X25654Y312000D02*
X11430Y312000D01*
X35306Y312000D02*
X152456Y312000D01*
X162108Y312000D02*
X580445Y312000D01*
X612648Y312000D02*
X988060Y312000D01*
X25654Y318000D02*
X11430Y318000D01*
X35306Y318000D02*
X152456Y318000D01*
X162108Y318000D02*
X580432Y318000D01*
X612648Y318000D02*
X988060Y318000D01*
X25654Y324000D02*
X11430Y324000D01*
X35306Y324000D02*
X152456Y324000D01*
X162108Y324000D02*
X580419Y324000D01*
X612648Y324000D02*
X815664Y324000D01*
X820096Y324000D02*
X988060Y324000D01*
X25654Y330000D02*
X11430Y330000D01*
X35306Y330000D02*
X152456Y330000D01*
X162108Y330000D02*
X580406Y330000D01*
X612648Y330000D02*
X811304Y330000D01*
X824456Y330000D02*
X988060Y330000D01*
X25654Y336000D02*
X11430Y336000D01*
X35306Y336000D02*
X43841Y336000D01*
X61099Y336000D02*
X68841Y336000D01*
X86099Y336000D02*
X92485Y336000D01*
X101200Y336000D02*
X103740Y336000D01*
X112455Y336000D02*
X152456Y336000D01*
X162108Y336000D02*
X252121Y336000D01*
X269379Y336000D02*
X277121Y336000D01*
X294379Y336000D02*
X300765Y336000D01*
X309480Y336000D02*
X312020Y336000D01*
X320735Y336000D02*
X462941Y336000D01*
X477659Y336000D02*
X487941Y336000D01*
X502659Y336000D02*
X511504Y336000D01*
X519030Y336000D02*
X521570Y336000D01*
X529096Y336000D02*
X580393Y336000D01*
X612648Y336000D02*
X671221Y336000D01*
X688479Y336000D02*
X696221Y336000D01*
X713479Y336000D02*
X719865Y336000D01*
X728580Y336000D02*
X731120Y336000D01*
X739835Y336000D02*
X813054Y336000D01*
X822706Y336000D02*
X889661Y336000D01*
X906919Y336000D02*
X914661Y336000D01*
X931919Y336000D02*
X938305Y336000D01*
X947020Y336000D02*
X949560Y336000D01*
X958275Y336000D02*
X988060Y336000D01*
X25654Y342000D02*
X11430Y342000D01*
X35306Y342000D02*
X40676Y342000D01*
X64264Y342000D02*
X65676Y342000D01*
X89264Y342000D02*
X89825Y342000D01*
X101200Y342000D02*
X103740Y342000D01*
X115115Y342000D02*
X152456Y342000D01*
X162108Y342000D02*
X248956Y342000D01*
X272544Y342000D02*
X273956Y342000D01*
X297544Y342000D02*
X298105Y342000D01*
X309480Y342000D02*
X312020Y342000D01*
X323395Y342000D02*
X458909Y342000D01*
X481691Y342000D02*
X483909Y342000D01*
X506691Y342000D02*
X507910Y342000D01*
X519030Y342000D02*
X521570Y342000D01*
X532690Y342000D02*
X580380Y342000D01*
X612648Y342000D02*
X668056Y342000D01*
X691644Y342000D02*
X693056Y342000D01*
X716644Y342000D02*
X717205Y342000D01*
X728580Y342000D02*
X731120Y342000D01*
X742495Y342000D02*
X813054Y342000D01*
X822706Y342000D02*
X886496Y342000D01*
X910084Y342000D02*
X911496Y342000D01*
X935084Y342000D02*
X935645Y342000D01*
X947020Y342000D02*
X949560Y342000D01*
X960935Y342000D02*
X988060Y342000D01*
X25654Y348000D02*
X11430Y348000D01*
X36055Y348000D02*
X41340Y348000D01*
X63600Y348000D02*
X66340Y348000D01*
X88600Y348000D02*
X90284Y348000D01*
X101200Y348000D02*
X103740Y348000D01*
X114656Y348000D02*
X152456Y348000D01*
X162108Y348000D02*
X249620Y348000D01*
X271880Y348000D02*
X274620Y348000D01*
X296880Y348000D02*
X298564Y348000D01*
X309480Y348000D02*
X312020Y348000D01*
X322936Y348000D02*
X458644Y348000D01*
X481956Y348000D02*
X483644Y348000D01*
X506956Y348000D02*
X507755Y348000D01*
X519030Y348000D02*
X521570Y348000D01*
X532845Y348000D02*
X580367Y348000D01*
X612648Y348000D02*
X668720Y348000D01*
X690980Y348000D02*
X693720Y348000D01*
X715980Y348000D02*
X717664Y348000D01*
X728580Y348000D02*
X731120Y348000D01*
X742036Y348000D02*
X813054Y348000D01*
X822706Y348000D02*
X887160Y348000D01*
X909420Y348000D02*
X912160Y348000D01*
X934420Y348000D02*
X936104Y348000D01*
X947020Y348000D02*
X949560Y348000D01*
X960476Y348000D02*
X988060Y348000D01*
X28405Y354000D02*
X11430Y354000D01*
X42055Y354000D02*
X45741Y354000D01*
X59199Y354000D02*
X70741Y354000D01*
X84199Y354000D02*
X94371Y354000D01*
X101200Y354000D02*
X103740Y354000D01*
X110569Y354000D02*
X152456Y354000D01*
X162108Y354000D02*
X166225Y354000D01*
X226205Y354000D02*
X254021Y354000D01*
X267479Y354000D02*
X279021Y354000D01*
X292479Y354000D02*
X302651Y354000D01*
X309480Y354000D02*
X312020Y354000D01*
X318849Y354000D02*
X462301Y354000D01*
X478299Y354000D02*
X487301Y354000D01*
X503299Y354000D02*
X510864Y354000D01*
X519030Y354000D02*
X521570Y354000D01*
X529736Y354000D02*
X580354Y354000D01*
X612648Y354000D02*
X673121Y354000D01*
X686579Y354000D02*
X698121Y354000D01*
X711579Y354000D02*
X721751Y354000D01*
X728580Y354000D02*
X731120Y354000D01*
X737949Y354000D02*
X813054Y354000D01*
X822706Y354000D02*
X891561Y354000D01*
X905019Y354000D02*
X916561Y354000D01*
X930019Y354000D02*
X940191Y354000D01*
X947020Y354000D02*
X949560Y354000D01*
X956389Y354000D02*
X988060Y354000D01*
X34405Y360000D02*
X11430Y360000D01*
X48055Y360000D02*
X72644Y360000D01*
X82296Y360000D02*
X152456Y360000D01*
X232205Y360000D02*
X280875Y360000D01*
X290576Y360000D02*
X490474Y360000D01*
X500126Y360000D02*
X580340Y360000D01*
X612648Y360000D02*
X698754Y360000D01*
X708406Y360000D02*
X813054Y360000D01*
X822706Y360000D02*
X988060Y360000D01*
X40405Y366000D02*
X11430Y366000D01*
X54055Y366000D02*
X72644Y366000D01*
X82296Y366000D02*
X152456Y366000D01*
X171196Y366000D02*
X224555Y366000D01*
X288525Y366000D02*
X490474Y366000D01*
X500126Y366000D02*
X580327Y366000D01*
X612648Y366000D02*
X698754Y366000D01*
X708406Y366000D02*
X813054Y366000D01*
X822706Y366000D02*
X988060Y366000D01*
X46405Y372000D02*
X11430Y372000D01*
X60055Y372000D02*
X72644Y372000D01*
X82296Y372000D02*
X151902Y372000D01*
X171750Y372000D02*
X490474Y372000D01*
X500126Y372000D02*
X580314Y372000D01*
X612648Y372000D02*
X698754Y372000D01*
X708406Y372000D02*
X813054Y372000D01*
X822706Y372000D02*
X988060Y372000D01*
X52405Y378000D02*
X11430Y378000D01*
X66055Y378000D02*
X72644Y378000D01*
X82565Y378000D02*
X151026Y378000D01*
X172626Y378000D02*
X488724Y378000D01*
X501876Y378000D02*
X580301Y378000D01*
X612648Y378000D02*
X697004Y378000D01*
X710156Y378000D02*
X813054Y378000D01*
X822706Y378000D02*
X988060Y378000D01*
X58405Y384000D02*
X11430Y384000D01*
X69596Y384000D02*
X74915Y384000D01*
X183106Y384000D02*
X580288Y384000D01*
X612648Y384000D02*
X813054Y384000D01*
X822706Y384000D02*
X988060Y384000D01*
X25958Y390000D02*
X11430Y390000D01*
X40982Y390000D02*
X59944Y390000D01*
X69596Y390000D02*
X113958Y390000D01*
X128982Y390000D02*
X172420Y390000D01*
X180640Y390000D02*
X234238Y390000D01*
X249262Y390000D02*
X322238Y390000D01*
X337262Y390000D02*
X580275Y390000D01*
X612648Y390000D02*
X653338Y390000D01*
X668362Y390000D02*
X741338Y390000D01*
X756362Y390000D02*
X813054Y390000D01*
X822706Y390000D02*
X871778Y390000D01*
X886802Y390000D02*
X959778Y390000D01*
X974802Y390000D02*
X988060Y390000D01*
X16032Y396000D02*
X11430Y396000D01*
X50908Y396000D02*
X59944Y396000D01*
X69596Y396000D02*
X104032Y396000D01*
X138908Y396000D02*
X224312Y396000D01*
X259188Y396000D02*
X312312Y396000D01*
X347188Y396000D02*
X435132Y396000D01*
X467468Y396000D02*
X523132Y396000D01*
X555468Y396000D02*
X580262Y396000D01*
X612648Y396000D02*
X643412Y396000D01*
X678288Y396000D02*
X731412Y396000D01*
X766288Y396000D02*
X813054Y396000D01*
X822706Y396000D02*
X861852Y396000D01*
X896728Y396000D02*
X949852Y396000D01*
X984728Y396000D02*
X988060Y396000D01*
X59944Y402000D02*
X55640Y402000D01*
X69596Y402000D02*
X99300Y402000D01*
X143640Y402000D02*
X219580Y402000D01*
X263920Y402000D02*
X307580Y402000D01*
X351920Y402000D02*
X429656Y402000D01*
X472944Y402000D02*
X517656Y402000D01*
X560944Y402000D02*
X580249Y402000D01*
X612648Y402000D02*
X638680Y402000D01*
X683020Y402000D02*
X726680Y402000D01*
X771020Y402000D02*
X813054Y402000D01*
X822706Y402000D02*
X857120Y402000D01*
X901460Y402000D02*
X945120Y402000D01*
X59944Y408000D02*
X58126Y408000D01*
X69596Y408000D02*
X96814Y408000D01*
X146126Y408000D02*
X217094Y408000D01*
X266406Y408000D02*
X305094Y408000D01*
X354406Y408000D02*
X427170Y408000D01*
X475429Y408000D02*
X515170Y408000D01*
X563429Y408000D02*
X580236Y408000D01*
X612648Y408000D02*
X636194Y408000D01*
X685506Y408000D02*
X724194Y408000D01*
X773506Y408000D02*
X813054Y408000D01*
X822706Y408000D02*
X854634Y408000D01*
X903946Y408000D02*
X942634Y408000D01*
X59944Y414000D02*
X58564Y414000D01*
X69596Y414000D02*
X96376Y414000D01*
X146564Y414000D02*
X216656Y414000D01*
X266844Y414000D02*
X304656Y414000D01*
X354844Y414000D02*
X426206Y414000D01*
X476394Y414000D02*
X514206Y414000D01*
X564394Y414000D02*
X580223Y414000D01*
X612648Y414000D02*
X635756Y414000D01*
X685944Y414000D02*
X723756Y414000D01*
X773944Y414000D02*
X813054Y414000D01*
X822706Y414000D02*
X854196Y414000D01*
X904384Y414000D02*
X942196Y414000D01*
X59944Y420000D02*
X58167Y420000D01*
X69596Y420000D02*
X96773Y420000D01*
X146167Y420000D02*
X217053Y420000D01*
X266447Y420000D02*
X305053Y420000D01*
X354447Y420000D02*
X426206Y420000D01*
X476394Y420000D02*
X514206Y420000D01*
X564394Y420000D02*
X580209Y420000D01*
X612648Y420000D02*
X636153Y420000D01*
X685547Y420000D02*
X724153Y420000D01*
X773547Y420000D02*
X813054Y420000D01*
X822706Y420000D02*
X854593Y420000D01*
X903987Y420000D02*
X942593Y420000D01*
X59944Y426000D02*
X55682Y426000D01*
X69596Y426000D02*
X99258Y426000D01*
X143682Y426000D02*
X219538Y426000D01*
X263962Y426000D02*
X307538Y426000D01*
X351962Y426000D02*
X428562Y426000D01*
X474038Y426000D02*
X516562Y426000D01*
X562038Y426000D02*
X580196Y426000D01*
X612648Y426000D02*
X638638Y426000D01*
X683062Y426000D02*
X726638Y426000D01*
X771062Y426000D02*
X813054Y426000D01*
X822706Y426000D02*
X857078Y426000D01*
X901502Y426000D02*
X945078Y426000D01*
X15932Y432000D02*
X11430Y432000D01*
X51008Y432000D02*
X59944Y432000D01*
X69596Y432000D02*
X103932Y432000D01*
X139008Y432000D02*
X224212Y432000D01*
X259288Y432000D02*
X312212Y432000D01*
X347288Y432000D02*
X432492Y432000D01*
X470108Y432000D02*
X520492Y432000D01*
X558108Y432000D02*
X580183Y432000D01*
X612648Y432000D02*
X643312Y432000D01*
X678388Y432000D02*
X731312Y432000D01*
X766388Y432000D02*
X813054Y432000D01*
X822706Y432000D02*
X861752Y432000D01*
X896828Y432000D02*
X949752Y432000D01*
X984828Y432000D02*
X988060Y432000D01*
X25717Y438000D02*
X11430Y438000D01*
X41223Y438000D02*
X59944Y438000D01*
X69596Y438000D02*
X113717Y438000D01*
X129223Y438000D02*
X233997Y438000D01*
X249503Y438000D02*
X321997Y438000D01*
X337503Y438000D02*
X440481Y438000D01*
X462119Y438000D02*
X528481Y438000D01*
X550119Y438000D02*
X580170Y438000D01*
X612648Y438000D02*
X653097Y438000D01*
X668603Y438000D02*
X741097Y438000D01*
X756603Y438000D02*
X813054Y438000D01*
X822706Y438000D02*
X871537Y438000D01*
X887043Y438000D02*
X959537Y438000D01*
X975043Y438000D02*
X988060Y438000D01*
X59944Y444000D02*
X11430Y444000D01*
X69596Y444000D02*
X580157Y444000D01*
X612648Y444000D02*
X813054Y444000D01*
X822706Y444000D02*
X988060Y444000D01*
X59944Y450000D02*
X11430Y450000D01*
X69596Y450000D02*
X580144Y450000D01*
X612648Y450000D02*
X813054Y450000D01*
X822706Y450000D02*
X988060Y450000D01*
X59145Y456000D02*
X11430Y456000D01*
X69596Y456000D02*
X580131Y456000D01*
X612648Y456000D02*
X813054Y456000D01*
X822706Y456000D02*
X988060Y456000D01*
X53145Y462000D02*
X11430Y462000D01*
X66795Y462000D02*
X580118Y462000D01*
X613097Y462000D02*
X813054Y462000D01*
X822706Y462000D02*
X988060Y462000D01*
X47145Y468000D02*
X11430Y468000D01*
X60795Y468000D02*
X580105Y468000D01*
X678025Y468000D02*
X813054Y468000D01*
X822706Y468000D02*
X988060Y468000D01*
X41145Y474000D02*
X11430Y474000D01*
X54795Y474000D02*
X249425Y474000D01*
X543055Y474000D02*
X580092Y474000D01*
X684025Y474000D02*
X813054Y474000D01*
X822706Y474000D02*
X988060Y474000D01*
X40894Y480000D02*
X11430Y480000D01*
X50546Y480000D02*
X243425Y480000D01*
X549055Y480000D02*
X580078Y480000D01*
X665895Y480000D02*
X676375Y480000D01*
X690047Y480000D02*
X813054Y480000D01*
X822706Y480000D02*
X988060Y480000D01*
X40894Y486000D02*
X11430Y486000D01*
X50546Y486000D02*
X240284Y486000D01*
X251075Y486000D02*
X541274Y486000D01*
X550926Y486000D02*
X580065Y486000D01*
X612205Y486000D02*
X631394Y486000D01*
X641049Y486000D02*
X656769Y486000D01*
X666423Y486000D02*
X682194Y486000D01*
X691849Y486000D02*
X813054Y486000D01*
X822706Y486000D02*
X988060Y486000D01*
X40894Y492000D02*
X11430Y492000D01*
X50546Y492000D02*
X240284Y492000D01*
X249936Y492000D02*
X541274Y492000D01*
X550926Y492000D02*
X580052Y492000D01*
X589704Y492000D02*
X604555Y492000D01*
X615696Y492000D02*
X631258Y492000D01*
X640912Y492000D02*
X656639Y492000D01*
X666293Y492000D02*
X682058Y492000D01*
X691712Y492000D02*
X811815Y492000D01*
X823945Y492000D02*
X988060Y492000D01*
X40894Y498000D02*
X11430Y498000D01*
X50546Y498000D02*
X240284Y498000D01*
X249936Y498000D02*
X274105Y498000D01*
X285965Y498000D02*
X299505Y498000D01*
X311365Y498000D02*
X324905Y498000D01*
X336765Y498000D02*
X350305Y498000D01*
X362165Y498000D02*
X375705Y498000D01*
X387565Y498000D02*
X401105Y498000D01*
X412965Y498000D02*
X426505Y498000D01*
X438365Y498000D02*
X451905Y498000D01*
X463765Y498000D02*
X477305Y498000D01*
X489165Y498000D02*
X502705Y498000D01*
X514565Y498000D02*
X528105Y498000D01*
X539965Y498000D02*
X541274Y498000D01*
X550926Y498000D02*
X553505Y498000D01*
X565365Y498000D02*
X578905Y498000D01*
X590765Y498000D02*
X604305Y498000D01*
X616165Y498000D02*
X629705Y498000D01*
X641565Y498000D02*
X655105Y498000D01*
X666965Y498000D02*
X680505Y498000D01*
X692365Y498000D02*
X705905Y498000D01*
X717765Y498000D02*
X729868Y498000D01*
X736505Y498000D02*
X737965Y498000D01*
X744602Y498000D02*
X756705Y498000D01*
X768565Y498000D02*
X805815Y498000D01*
X829945Y498000D02*
X988060Y498000D01*
X40894Y504000D02*
X11430Y504000D01*
X50546Y504000D02*
X240284Y504000D01*
X249936Y504000D02*
X270701Y504000D01*
X289369Y504000D02*
X296101Y504000D01*
X314769Y504000D02*
X321501Y504000D01*
X340169Y504000D02*
X346901Y504000D01*
X365569Y504000D02*
X372301Y504000D01*
X390969Y504000D02*
X397701Y504000D01*
X416369Y504000D02*
X423101Y504000D01*
X441769Y504000D02*
X448501Y504000D01*
X467169Y504000D02*
X473901Y504000D01*
X492569Y504000D02*
X499301Y504000D01*
X517969Y504000D02*
X524701Y504000D01*
X568769Y504000D02*
X575501Y504000D01*
X594169Y504000D02*
X600901Y504000D01*
X619569Y504000D02*
X626301Y504000D01*
X644969Y504000D02*
X651701Y504000D01*
X670369Y504000D02*
X677101Y504000D01*
X695769Y504000D02*
X702501Y504000D01*
X721169Y504000D02*
X726957Y504000D01*
X736505Y504000D02*
X737965Y504000D01*
X747513Y504000D02*
X753301Y504000D01*
X771969Y504000D02*
X799815Y504000D01*
X813465Y504000D02*
X822295Y504000D01*
X835945Y504000D02*
X988060Y504000D01*
X40894Y510000D02*
X11430Y510000D01*
X50546Y510000D02*
X240284Y510000D01*
X249936Y510000D02*
X270701Y510000D01*
X289369Y510000D02*
X296101Y510000D01*
X314769Y510000D02*
X321501Y510000D01*
X340169Y510000D02*
X346901Y510000D01*
X365569Y510000D02*
X372301Y510000D01*
X390969Y510000D02*
X397701Y510000D01*
X416369Y510000D02*
X423101Y510000D01*
X441769Y510000D02*
X448501Y510000D01*
X467169Y510000D02*
X473901Y510000D01*
X492569Y510000D02*
X499301Y510000D01*
X517969Y510000D02*
X524701Y510000D01*
X568769Y510000D02*
X575501Y510000D01*
X594169Y510000D02*
X600901Y510000D01*
X619569Y510000D02*
X626301Y510000D01*
X644969Y510000D02*
X651701Y510000D01*
X670369Y510000D02*
X677101Y510000D01*
X695769Y510000D02*
X702501Y510000D01*
X721169Y510000D02*
X726885Y510000D01*
X736505Y510000D02*
X737965Y510000D01*
X747585Y510000D02*
X753301Y510000D01*
X807465Y510000D02*
X828295Y510000D01*
X935925Y510000D02*
X988060Y510000D01*
X40894Y516000D02*
X11430Y516000D01*
X50546Y516000D02*
X240284Y516000D01*
X249936Y516000D02*
X270701Y516000D01*
X289369Y516000D02*
X296101Y516000D01*
X314769Y516000D02*
X321501Y516000D01*
X340169Y516000D02*
X346901Y516000D01*
X365569Y516000D02*
X372301Y516000D01*
X390969Y516000D02*
X397701Y516000D01*
X416369Y516000D02*
X423101Y516000D01*
X441769Y516000D02*
X448501Y516000D01*
X467169Y516000D02*
X473901Y516000D01*
X492569Y516000D02*
X499301Y516000D01*
X517969Y516000D02*
X524701Y516000D01*
X568769Y516000D02*
X575501Y516000D01*
X594169Y516000D02*
X600901Y516000D01*
X619569Y516000D02*
X626301Y516000D01*
X644969Y516000D02*
X651701Y516000D01*
X670369Y516000D02*
X677101Y516000D01*
X695769Y516000D02*
X702501Y516000D01*
X721169Y516000D02*
X726885Y516000D01*
X736505Y516000D02*
X737965Y516000D01*
X747585Y516000D02*
X753301Y516000D01*
X801465Y516000D02*
X928275Y516000D01*
X941925Y516000D02*
X988060Y516000D01*
X40894Y522000D02*
X11430Y522000D01*
X50546Y522000D02*
X240284Y522000D01*
X249936Y522000D02*
X271444Y522000D01*
X288626Y522000D02*
X296844Y522000D01*
X314026Y522000D02*
X322244Y522000D01*
X339426Y522000D02*
X347644Y522000D01*
X364826Y522000D02*
X373044Y522000D01*
X390226Y522000D02*
X398444Y522000D01*
X415626Y522000D02*
X423844Y522000D01*
X441026Y522000D02*
X449244Y522000D01*
X466426Y522000D02*
X474644Y522000D01*
X491826Y522000D02*
X500044Y522000D01*
X517226Y522000D02*
X525444Y522000D01*
X568026Y522000D02*
X576244Y522000D01*
X593426Y522000D02*
X601644Y522000D01*
X618826Y522000D02*
X627044Y522000D01*
X644226Y522000D02*
X652444Y522000D01*
X669626Y522000D02*
X677844Y522000D01*
X695026Y522000D02*
X703244Y522000D01*
X720426Y522000D02*
X727538Y522000D01*
X736505Y522000D02*
X737965Y522000D01*
X746932Y522000D02*
X754044Y522000D01*
X771226Y522000D02*
X934275Y522000D01*
X947925Y522000D02*
X988060Y522000D01*
X40894Y528000D02*
X11430Y528000D01*
X50546Y528000D02*
X238605Y528000D01*
X249936Y528000D02*
X453148Y528000D01*
X462801Y528000D02*
X478548Y528000D01*
X488201Y528000D02*
X541274Y528000D01*
X550926Y528000D02*
X707483Y528000D01*
X717139Y528000D02*
X733441Y528000D01*
X736505Y528000D02*
X737965Y528000D01*
X741029Y528000D02*
X940275Y528000D01*
X953925Y528000D02*
X988060Y528000D01*
X40894Y534000D02*
X11430Y534000D01*
X50546Y534000D02*
X232605Y534000D01*
X246255Y534000D02*
X453200Y534000D01*
X462852Y534000D02*
X478600Y534000D01*
X488252Y534000D02*
X541274Y534000D01*
X550926Y534000D02*
X705045Y534000D01*
X717316Y534000D02*
X946275Y534000D01*
X959925Y534000D02*
X988060Y534000D01*
X28995Y540000D02*
X11430Y540000D01*
X62445Y540000D02*
X226605Y540000D01*
X240255Y540000D02*
X453252Y540000D01*
X462904Y540000D02*
X478652Y540000D01*
X488304Y540000D02*
X541274Y540000D01*
X551905Y540000D02*
X699045Y540000D01*
X712695Y540000D02*
X952275Y540000D01*
X965925Y540000D02*
X988060Y540000D01*
X27846Y546000D02*
X11430Y546000D01*
X234255Y546000D02*
X453304Y546000D01*
X462956Y546000D02*
X478704Y546000D01*
X488356Y546000D02*
X544255Y546000D01*
X706695Y546000D02*
X709512Y546000D01*
X739558Y546000D02*
X958275Y546000D01*
X971296Y546000D02*
X988060Y546000D01*
X30736Y552000D02*
X11430Y552000D01*
X60704Y552000D02*
X453355Y552000D01*
X463008Y552000D02*
X478755Y552000D01*
X488408Y552000D02*
X550255Y552000D01*
X700695Y552000D02*
X708758Y552000D01*
X740312Y552000D02*
X961644Y552000D01*
X971296Y552000D02*
X988060Y552000D01*
X453407Y558000D02*
X11430Y558000D01*
X463059Y558000D02*
X478807Y558000D01*
X488459Y558000D02*
X713135Y558000D01*
X735935Y558000D02*
X961644Y558000D01*
X971296Y558000D02*
X988060Y558000D01*
X29796Y564000D02*
X11430Y564000D01*
X61644Y564000D02*
X453459Y564000D01*
X463111Y564000D02*
X478859Y564000D01*
X488511Y564000D02*
X961644Y564000D01*
X971296Y564000D02*
X988060Y564000D01*
X27846Y570000D02*
X11430Y570000D01*
X68825Y570000D02*
X453510Y570000D01*
X463163Y570000D02*
X478910Y570000D01*
X488563Y570000D02*
X710105Y570000D01*
X738965Y570000D02*
X961644Y570000D01*
X971296Y570000D02*
X988060Y570000D01*
X29385Y576000D02*
X11430Y576000D01*
X74825Y576000D02*
X453562Y576000D01*
X463215Y576000D02*
X478962Y576000D01*
X488615Y576000D02*
X708661Y576000D01*
X740409Y576000D02*
X961644Y576000D01*
X971296Y576000D02*
X988060Y576000D01*
X67175Y582000D02*
X11430Y582000D01*
X80825Y582000D02*
X453614Y582000D01*
X463266Y582000D02*
X479014Y582000D01*
X488666Y582000D02*
X711485Y582000D01*
X737585Y582000D02*
X961644Y582000D01*
X971296Y582000D02*
X988060Y582000D01*
X31196Y588000D02*
X11430Y588000D01*
X60244Y588000D02*
X73175Y588000D01*
X462765Y588000D02*
X474515Y588000D01*
X488165Y588000D02*
X961644Y588000D01*
X971296Y588000D02*
X988060Y588000D01*
X27846Y594000D02*
X11430Y594000D01*
X482165Y594000D02*
X711505Y594000D01*
X737565Y594000D02*
X961644Y594000D01*
X971296Y594000D02*
X988060Y594000D01*
X28805Y600000D02*
X11430Y600000D01*
X476165Y600000D02*
X708661Y600000D01*
X740409Y600000D02*
X961644Y600000D01*
X971296Y600000D02*
X988060Y600000D01*
X710085Y606000D02*
X11430Y606000D01*
X738985Y606000D02*
X961644Y606000D01*
X971296Y606000D02*
X988060Y606000D01*
X31299Y612000D02*
X11430Y612000D01*
X44490Y612000D02*
X46950Y612000D01*
X60141Y612000D02*
X572435Y612000D01*
X909655Y612000D02*
X961644Y612000D01*
X971296Y612000D02*
X988060Y612000D01*
X27230Y618000D02*
X11430Y618000D01*
X44490Y618000D02*
X46950Y618000D01*
X64210Y618000D02*
X566435Y618000D01*
X915655Y618000D02*
X961644Y618000D01*
X971296Y618000D02*
X988060Y618000D01*
X27211Y624000D02*
X11430Y624000D01*
X44490Y624000D02*
X46950Y624000D01*
X64229Y624000D02*
X560435Y624000D01*
X574085Y624000D02*
X708766Y624000D01*
X740304Y624000D02*
X908005Y624000D01*
X919676Y624000D02*
X961644Y624000D01*
X971296Y624000D02*
X988060Y624000D01*
X31216Y630000D02*
X11430Y630000D01*
X44490Y630000D02*
X46950Y630000D01*
X60224Y630000D02*
X555244Y630000D01*
X568085Y630000D02*
X709503Y630000D01*
X739567Y630000D02*
X910024Y630000D01*
X919676Y630000D02*
X961644Y630000D01*
X971296Y630000D02*
X988060Y630000D01*
X555151Y636000D02*
X11430Y636000D01*
X564804Y636000D02*
X589075Y636000D01*
X788875Y636000D02*
X910024Y636000D01*
X919676Y636000D02*
X961644Y636000D01*
X971296Y636000D02*
X988060Y636000D01*
X555035Y642000D02*
X11430Y642000D01*
X564689Y642000D02*
X583075Y642000D01*
X596725Y642000D02*
X696135Y642000D01*
X793496Y642000D02*
X910024Y642000D01*
X919676Y642000D02*
X961644Y642000D01*
X971296Y642000D02*
X988060Y642000D01*
X554920Y648000D02*
X11430Y648000D01*
X564574Y648000D02*
X580585Y648000D01*
X590725Y648000D02*
X783844Y648000D01*
X793496Y648000D02*
X910024Y648000D01*
X919676Y648000D02*
X961644Y648000D01*
X971296Y648000D02*
X988060Y648000D01*
X271452Y654000D02*
X11430Y654000D01*
X288618Y654000D02*
X296852Y654000D01*
X314018Y654000D02*
X322252Y654000D01*
X339418Y654000D02*
X347652Y654000D01*
X364818Y654000D02*
X373052Y654000D01*
X390218Y654000D02*
X398452Y654000D01*
X415618Y654000D02*
X423852Y654000D01*
X441018Y654000D02*
X449252Y654000D01*
X466418Y654000D02*
X474652Y654000D01*
X491818Y654000D02*
X500052Y654000D01*
X517218Y654000D02*
X525452Y654000D01*
X542618Y654000D02*
X550852Y654000D01*
X568018Y654000D02*
X576252Y654000D01*
X593418Y654000D02*
X601652Y654000D01*
X618818Y654000D02*
X627052Y654000D01*
X644218Y654000D02*
X652452Y654000D01*
X669618Y654000D02*
X677852Y654000D01*
X695018Y654000D02*
X703252Y654000D01*
X720418Y654000D02*
X728652Y654000D01*
X745818Y654000D02*
X754052Y654000D01*
X771218Y654000D02*
X783844Y654000D01*
X793496Y654000D02*
X910024Y654000D01*
X919676Y654000D02*
X961644Y654000D01*
X971296Y654000D02*
X988060Y654000D01*
X270701Y660000D02*
X11430Y660000D01*
X289369Y660000D02*
X296101Y660000D01*
X314769Y660000D02*
X321501Y660000D01*
X340169Y660000D02*
X346901Y660000D01*
X365569Y660000D02*
X372301Y660000D01*
X390969Y660000D02*
X397701Y660000D01*
X416369Y660000D02*
X423101Y660000D01*
X441769Y660000D02*
X448501Y660000D01*
X467169Y660000D02*
X473901Y660000D01*
X492569Y660000D02*
X499301Y660000D01*
X517969Y660000D02*
X524701Y660000D01*
X543369Y660000D02*
X550101Y660000D01*
X568769Y660000D02*
X575501Y660000D01*
X594169Y660000D02*
X600901Y660000D01*
X619569Y660000D02*
X626301Y660000D01*
X644969Y660000D02*
X651701Y660000D01*
X670369Y660000D02*
X677101Y660000D01*
X695769Y660000D02*
X702501Y660000D01*
X721169Y660000D02*
X727901Y660000D01*
X746569Y660000D02*
X753301Y660000D01*
X771969Y660000D02*
X783844Y660000D01*
X793496Y660000D02*
X910024Y660000D01*
X919676Y660000D02*
X961644Y660000D01*
X971296Y660000D02*
X988060Y660000D01*
X270701Y666000D02*
X11430Y666000D01*
X289369Y666000D02*
X296101Y666000D01*
X314769Y666000D02*
X321501Y666000D01*
X340169Y666000D02*
X346901Y666000D01*
X365569Y666000D02*
X372301Y666000D01*
X390969Y666000D02*
X397701Y666000D01*
X416369Y666000D02*
X423101Y666000D01*
X441769Y666000D02*
X448501Y666000D01*
X467169Y666000D02*
X473901Y666000D01*
X492569Y666000D02*
X499301Y666000D01*
X517969Y666000D02*
X524701Y666000D01*
X543369Y666000D02*
X550101Y666000D01*
X568769Y666000D02*
X575501Y666000D01*
X594169Y666000D02*
X600901Y666000D01*
X619569Y666000D02*
X626301Y666000D01*
X644969Y666000D02*
X651701Y666000D01*
X670369Y666000D02*
X677101Y666000D01*
X695769Y666000D02*
X702501Y666000D01*
X721169Y666000D02*
X727901Y666000D01*
X746569Y666000D02*
X753301Y666000D01*
X771969Y666000D02*
X783844Y666000D01*
X793496Y666000D02*
X910024Y666000D01*
X919676Y666000D02*
X961644Y666000D01*
X971296Y666000D02*
X988060Y666000D01*
X270701Y672000D02*
X11430Y672000D01*
X289369Y672000D02*
X296101Y672000D01*
X314769Y672000D02*
X321501Y672000D01*
X340169Y672000D02*
X346901Y672000D01*
X365569Y672000D02*
X372301Y672000D01*
X390969Y672000D02*
X397701Y672000D01*
X416369Y672000D02*
X423101Y672000D01*
X441769Y672000D02*
X448501Y672000D01*
X467169Y672000D02*
X473901Y672000D01*
X492569Y672000D02*
X499301Y672000D01*
X517969Y672000D02*
X524701Y672000D01*
X543369Y672000D02*
X550101Y672000D01*
X568769Y672000D02*
X575501Y672000D01*
X594169Y672000D02*
X600901Y672000D01*
X619569Y672000D02*
X626301Y672000D01*
X644969Y672000D02*
X651701Y672000D01*
X670369Y672000D02*
X677101Y672000D01*
X695769Y672000D02*
X702501Y672000D01*
X721169Y672000D02*
X727901Y672000D01*
X746569Y672000D02*
X753301Y672000D01*
X771969Y672000D02*
X783844Y672000D01*
X793496Y672000D02*
X910024Y672000D01*
X919676Y672000D02*
X961644Y672000D01*
X971296Y672000D02*
X988060Y672000D01*
X274085Y678000D02*
X11430Y678000D01*
X285985Y678000D02*
X299485Y678000D01*
X311385Y678000D02*
X324885Y678000D01*
X336785Y678000D02*
X350285Y678000D01*
X362185Y678000D02*
X375685Y678000D01*
X387585Y678000D02*
X401085Y678000D01*
X412985Y678000D02*
X426485Y678000D01*
X438385Y678000D02*
X451885Y678000D01*
X463785Y678000D02*
X477285Y678000D01*
X489185Y678000D02*
X502685Y678000D01*
X514585Y678000D02*
X528085Y678000D01*
X539985Y678000D02*
X553485Y678000D01*
X565385Y678000D02*
X578885Y678000D01*
X590785Y678000D02*
X604285Y678000D01*
X616185Y678000D02*
X629685Y678000D01*
X641585Y678000D02*
X655085Y678000D01*
X666985Y678000D02*
X680485Y678000D01*
X692385Y678000D02*
X705885Y678000D01*
X717785Y678000D02*
X731285Y678000D01*
X743185Y678000D02*
X756685Y678000D01*
X768585Y678000D02*
X783844Y678000D01*
X793496Y678000D02*
X910024Y678000D01*
X919676Y678000D02*
X961644Y678000D01*
X971296Y678000D02*
X988060Y678000D01*
X605957Y684000D02*
X11430Y684000D01*
X615613Y684000D02*
X630996Y684000D01*
X640648Y684000D02*
X656645Y684000D01*
X666496Y684000D02*
X783844Y684000D01*
X793496Y684000D02*
X910024Y684000D01*
X919676Y684000D02*
X961644Y684000D01*
X971296Y684000D02*
X988060Y684000D01*
X496975Y690000D02*
X11430Y690000D01*
X614765Y690000D02*
X631052Y690000D01*
X640704Y690000D02*
X643025Y690000D01*
X664343Y690000D02*
X783844Y690000D01*
X793496Y690000D02*
X910024Y690000D01*
X919676Y690000D02*
X961644Y690000D01*
X971296Y690000D02*
X988060Y690000D01*
X490975Y696000D02*
X11430Y696000D01*
X608765Y696000D02*
X631109Y696000D01*
X650675Y696000D02*
X783844Y696000D01*
X793496Y696000D02*
X910024Y696000D01*
X919676Y696000D02*
X961644Y696000D01*
X971296Y696000D02*
X988060Y696000D01*
X490924Y702000D02*
X11430Y702000D01*
X500576Y702000D02*
X631165Y702000D01*
X647446Y702000D02*
X783844Y702000D01*
X793496Y702000D02*
X910024Y702000D01*
X919676Y702000D02*
X961644Y702000D01*
X971296Y702000D02*
X988060Y702000D01*
X490924Y708000D02*
X11430Y708000D01*
X500576Y708000D02*
X631222Y708000D01*
X647446Y708000D02*
X783844Y708000D01*
X793496Y708000D02*
X910024Y708000D01*
X919676Y708000D02*
X961644Y708000D01*
X971296Y708000D02*
X988060Y708000D01*
X46928Y714000D02*
X11430Y714000D01*
X56372Y714000D02*
X71928Y714000D01*
X81372Y714000D02*
X94735Y714000D01*
X100380Y714000D02*
X102920Y714000D01*
X108565Y714000D02*
X255899Y714000D01*
X266501Y714000D02*
X280899Y714000D01*
X291501Y714000D02*
X303955Y714000D01*
X309930Y714000D02*
X312470Y714000D01*
X318445Y714000D02*
X467936Y714000D01*
X473564Y714000D02*
X490924Y714000D01*
X500576Y714000D02*
X515300Y714000D01*
X519480Y714000D02*
X522020Y714000D01*
X526200Y714000D02*
X631279Y714000D01*
X647446Y714000D02*
X676906Y714000D01*
X683694Y714000D02*
X701906Y714000D01*
X708694Y714000D02*
X724379Y714000D01*
X729030Y714000D02*
X731570Y714000D01*
X736221Y714000D02*
X783844Y714000D01*
X793496Y714000D02*
X885877Y714000D01*
X893823Y714000D02*
X910024Y714000D01*
X919676Y714000D02*
X933458Y714000D01*
X938580Y714000D02*
X941120Y714000D01*
X946242Y714000D02*
X961644Y714000D01*
X971296Y714000D02*
X988060Y714000D01*
X40877Y720000D02*
X11430Y720000D01*
X62423Y720000D02*
X65877Y720000D01*
X87423Y720000D02*
X89744Y720000D01*
X100380Y720000D02*
X102920Y720000D01*
X113556Y720000D02*
X250327Y720000D01*
X272073Y720000D02*
X275327Y720000D01*
X297073Y720000D02*
X299216Y720000D01*
X309930Y720000D02*
X312470Y720000D01*
X323184Y720000D02*
X460304Y720000D01*
X481196Y720000D02*
X485304Y720000D01*
X506196Y720000D02*
X509226Y720000D01*
X519480Y720000D02*
X522020Y720000D01*
X532274Y720000D02*
X631335Y720000D01*
X647446Y720000D02*
X669754Y720000D01*
X690846Y720000D02*
X694754Y720000D01*
X715846Y720000D02*
X718654Y720000D01*
X729030Y720000D02*
X731570Y720000D01*
X741946Y720000D02*
X783844Y720000D01*
X793496Y720000D02*
X879205Y720000D01*
X900495Y720000D02*
X904205Y720000D01*
X925495Y720000D02*
X928082Y720000D01*
X938580Y720000D02*
X941120Y720000D01*
X951618Y720000D02*
X961644Y720000D01*
X971296Y720000D02*
X988060Y720000D01*
X39856Y726000D02*
X11430Y726000D01*
X63444Y726000D02*
X64856Y726000D01*
X88444Y726000D02*
X100380Y726000D01*
X102920Y726000D02*
X249406Y726000D01*
X272994Y726000D02*
X274406Y726000D01*
X297994Y726000D02*
X298457Y726000D01*
X309930Y726000D02*
X312470Y726000D01*
X323943Y726000D02*
X458956Y726000D01*
X482544Y726000D02*
X483956Y726000D01*
X507544Y726000D02*
X519480Y726000D01*
X522020Y726000D02*
X631392Y726000D01*
X647446Y726000D02*
X668506Y726000D01*
X692094Y726000D02*
X693506Y726000D01*
X717094Y726000D02*
X729030Y726000D01*
X731570Y726000D02*
X783844Y726000D01*
X793496Y726000D02*
X878056Y726000D01*
X901644Y726000D02*
X903056Y726000D01*
X926644Y726000D02*
X938580Y726000D01*
X941120Y726000D02*
X961644Y726000D01*
X971296Y726000D02*
X988060Y726000D01*
X42161Y732000D02*
X11430Y732000D01*
X61139Y732000D02*
X67161Y732000D01*
X86139Y732000D02*
X91040Y732000D01*
X100380Y732000D02*
X102920Y732000D01*
X112260Y732000D02*
X251951Y732000D01*
X270449Y732000D02*
X276951Y732000D01*
X295449Y732000D02*
X300764Y732000D01*
X309930Y732000D02*
X312470Y732000D01*
X321636Y732000D02*
X460635Y732000D01*
X480865Y732000D02*
X485635Y732000D01*
X505865Y732000D02*
X509634Y732000D01*
X531866Y732000D02*
X628965Y732000D01*
X647446Y732000D02*
X670285Y732000D01*
X690315Y732000D02*
X695285Y732000D01*
X715315Y732000D02*
X719306Y732000D01*
X729030Y732000D02*
X731570Y732000D01*
X741294Y732000D02*
X783844Y732000D01*
X793496Y732000D02*
X880051Y732000D01*
X899649Y732000D02*
X905051Y732000D01*
X924649Y732000D02*
X929015Y732000D01*
X938580Y732000D02*
X941120Y732000D01*
X950685Y732000D02*
X961644Y732000D01*
X971296Y732000D02*
X988060Y732000D01*
X71824Y738000D02*
X11430Y738000D01*
X84425Y738000D02*
X281374Y738000D01*
X293975Y738000D02*
X517459Y738000D01*
X524041Y738000D02*
X622965Y738000D01*
X644518Y738000D02*
X700474Y738000D01*
X710126Y738000D02*
X728219Y738000D01*
X729030Y738000D02*
X731570Y738000D01*
X732381Y738000D02*
X783844Y738000D01*
X793496Y738000D02*
X885444Y738000D01*
X895096Y738000D02*
X956975Y738000D01*
X970625Y738000D02*
X988060Y738000D01*
X76775Y744000D02*
X11430Y744000D01*
X638518Y744000D02*
X700474Y744000D01*
X710126Y744000D02*
X780795Y744000D01*
X793496Y744000D02*
X887035Y744000D01*
X900685Y744000D02*
X950975Y744000D01*
X964625Y744000D02*
X988060Y744000D01*
X280895Y750000D02*
X11430Y750000D01*
X632518Y750000D02*
X701265Y750000D01*
X788445Y750000D02*
X893035Y750000D01*
X958625Y750000D02*
X988060Y750000D01*
X707265Y756000D02*
X11430Y756000D01*
X782445Y756000D02*
X988060Y756000D01*
X988060Y762000D02*
X11430Y762000D01*
X11430Y768000D02*
X988060Y768000D01*
X17972Y774000D02*
X11430Y774000D01*
X47328Y774000D02*
X105972Y774000D01*
X135328Y774000D02*
X227282Y774000D01*
X257118Y774000D02*
X315282Y774000D01*
X345118Y774000D02*
X438323Y774000D01*
X465177Y774000D02*
X526323Y774000D01*
X553177Y774000D02*
X647294Y774000D01*
X675306Y774000D02*
X735294Y774000D01*
X763306Y774000D02*
X856482Y774000D01*
X885218Y774000D02*
X944482Y774000D01*
X973218Y774000D02*
X988060Y774000D01*
X11972Y780000D02*
X11430Y780000D01*
X53328Y780000D02*
X99972Y780000D01*
X141328Y780000D02*
X221282Y780000D01*
X263118Y780000D02*
X309282Y780000D01*
X351118Y780000D02*
X431862Y780000D01*
X471638Y780000D02*
X519862Y780000D01*
X559638Y780000D02*
X641172Y780000D01*
X681428Y780000D02*
X729172Y780000D01*
X769428Y780000D02*
X850482Y780000D01*
X891218Y780000D02*
X938482Y780000D01*
X979218Y780000D02*
X988060Y780000D01*
X97138Y786000D02*
X56162Y786000D01*
X144162Y786000D02*
X218588Y786000D01*
X265812Y786000D02*
X306588Y786000D01*
X353812Y786000D02*
X428565Y786000D01*
X474935Y786000D02*
X516565Y786000D01*
X562935Y786000D02*
X638015Y786000D01*
X684584Y786000D02*
X726015Y786000D01*
X772584Y786000D02*
X847466Y786000D01*
X894234Y786000D02*
X935466Y786000D01*
X982234Y786000D02*
X988060Y786000D01*
X95556Y792000D02*
X57744Y792000D01*
X145744Y792000D02*
X217106Y792000D01*
X267294Y792000D02*
X305106Y792000D01*
X355294Y792000D02*
X426656Y792000D01*
X476844Y792000D02*
X514656Y792000D01*
X564844Y792000D02*
X636206Y792000D01*
X686394Y792000D02*
X724206Y792000D01*
X774394Y792000D02*
X845756Y792000D01*
X895944Y792000D02*
X933756Y792000D01*
X983944Y792000D02*
X988060Y792000D01*
X95556Y798000D02*
X57744Y798000D01*
X145744Y798000D02*
X217106Y798000D01*
X267294Y798000D02*
X305106Y798000D01*
X355294Y798000D02*
X426656Y798000D01*
X476844Y798000D02*
X514656Y798000D01*
X564844Y798000D02*
X636206Y798000D01*
X686394Y798000D02*
X724206Y798000D01*
X774394Y798000D02*
X845756Y798000D01*
X895944Y798000D02*
X933756Y798000D01*
X983944Y798000D02*
X988060Y798000D01*
X97295Y804000D02*
X56005Y804000D01*
X144005Y804000D02*
X218945Y804000D01*
X265456Y804000D02*
X306945Y804000D01*
X353456Y804000D02*
X428068Y804000D01*
X475432Y804000D02*
X516068Y804000D01*
X563432Y804000D02*
X637717Y804000D01*
X684883Y804000D02*
X725717Y804000D01*
X772883Y804000D02*
X847367Y804000D01*
X894333Y804000D02*
X935367Y804000D01*
X982333Y804000D02*
X988060Y804000D01*
X12352Y810000D02*
X11430Y810000D01*
X52948Y810000D02*
X100352Y810000D01*
X140948Y810000D02*
X222142Y810000D01*
X262258Y810000D02*
X310142Y810000D01*
X350258Y810000D02*
X430662Y810000D01*
X472838Y810000D02*
X518662Y810000D01*
X560838Y810000D02*
X640452Y810000D01*
X682148Y810000D02*
X728452Y810000D01*
X770148Y810000D02*
X850242Y810000D01*
X891458Y810000D02*
X938242Y810000D01*
X979458Y810000D02*
X988060Y810000D01*
X18352Y816000D02*
X11430Y816000D01*
X46948Y816000D02*
X106352Y816000D01*
X134948Y816000D02*
X228363Y816000D01*
X256037Y816000D02*
X316363Y816000D01*
X344037Y816000D02*
X436662Y816000D01*
X466838Y816000D02*
X524662Y816000D01*
X554838Y816000D02*
X646452Y816000D01*
X676148Y816000D02*
X734452Y816000D01*
X764148Y816000D02*
X856242Y816000D01*
X885458Y816000D02*
X944242Y816000D01*
X973458Y816000D02*
X988060Y816000D01*
X988060Y822000D02*
X11430Y822000D01*
X11430Y828000D02*
X988060Y828000D01*
X988060Y834000D02*
X11430Y834000D01*
X11430Y840000D02*
X988060Y840000D01*
X988060Y846000D02*
X11430Y846000D01*
X11430Y852000D02*
X988060Y852000D01*
X988060Y858000D02*
X11430Y858000D01*
X11430Y864000D02*
X30933Y864000D01*
X50347Y864000D02*
X949143Y864000D01*
X968557Y864000D02*
X988060Y864000D01*
X19612Y870000D02*
X11430Y870000D01*
X61668Y870000D02*
X937822Y870000D01*
X979878Y870000D02*
X988060Y870000D01*
X13944Y876000D02*
X11430Y876000D01*
X67336Y876000D02*
X932154Y876000D01*
X985546Y876000D02*
X988060Y876000D01*
X928690Y882000D02*
X70800Y882000D01*
X72621Y888000D02*
X926869Y888000D01*
X926056Y894000D02*
X73434Y894000D01*
X73345Y900000D02*
X926145Y900000D01*
X927753Y906000D02*
X71737Y906000D01*
X68894Y912000D02*
X930596Y912000D01*
X935122Y918000D02*
X64368Y918000D01*
X56605Y924000D02*
X942885Y924000D01*
X12000Y101506D02*
X12000Y-6878D01*
X12000Y127094D02*
X12000Y400309D01*
X12000Y427791D02*
X12000Y779972D01*
X12000Y809648D02*
X12000Y879368D01*
X18000Y101506D02*
X18000Y878D01*
X18000Y127094D02*
X18000Y132235D01*
X18000Y137005D02*
X18000Y394032D01*
X18000Y434068D02*
X18000Y773972D01*
X18000Y815648D02*
X18000Y871612D01*
X24000Y101506D02*
X24000Y5400D01*
X24000Y141196D02*
X24000Y390811D01*
X24000Y437289D02*
X24000Y771231D01*
X24000Y818389D02*
X24000Y867090D01*
X30000Y83970D02*
X30000Y8240D01*
X30000Y93830D02*
X30000Y101506D01*
X30000Y127094D02*
X30000Y131608D01*
X30000Y137632D02*
X30000Y243845D01*
X30000Y355595D02*
X30000Y388956D01*
X30000Y439144D02*
X30000Y538396D01*
X30000Y551264D02*
X30000Y563796D01*
X30000Y576664D02*
X30000Y589196D01*
X30000Y602064D02*
X30000Y613159D01*
X30000Y619800D02*
X30000Y622260D01*
X30000Y628901D02*
X30000Y769716D01*
X30000Y819904D02*
X30000Y864250D01*
X36000Y74245D02*
X36000Y9848D01*
X36000Y127094D02*
X36000Y237845D01*
X36000Y251495D02*
X36000Y347945D01*
X36000Y361595D02*
X36000Y388956D01*
X36000Y439144D02*
X36000Y534548D01*
X36000Y555112D02*
X36000Y559948D01*
X36000Y580512D02*
X36000Y585348D01*
X36000Y605912D02*
X36000Y609884D01*
X36000Y619800D02*
X36000Y622260D01*
X36000Y632176D02*
X36000Y769716D01*
X36000Y819904D02*
X36000Y862642D01*
X42000Y70447D02*
X42000Y9934D01*
X42000Y131448D02*
X42000Y231845D01*
X42000Y245495D02*
X42000Y338508D01*
X42000Y349592D02*
X42000Y353945D01*
X42000Y367595D02*
X42000Y390422D01*
X42000Y437678D02*
X42000Y473145D01*
X42000Y555164D02*
X42000Y559896D01*
X42000Y580564D02*
X42000Y585296D01*
X42000Y605964D02*
X42000Y609680D01*
X42000Y619800D02*
X42000Y622260D01*
X42000Y632380D02*
X42000Y717781D01*
X42000Y731839D02*
X42000Y771521D01*
X42000Y818099D02*
X42000Y862556D01*
X48000Y68970D02*
X48000Y9119D01*
X48000Y136603D02*
X48000Y230124D01*
X48000Y239776D02*
X48000Y333136D01*
X48000Y354964D02*
X48000Y359945D01*
X48000Y373595D02*
X48000Y393092D01*
X48000Y435008D02*
X48000Y467145D01*
X48000Y555164D02*
X48000Y559896D01*
X48000Y580564D02*
X48000Y585296D01*
X48000Y605964D02*
X48000Y609680D01*
X48000Y619800D02*
X48000Y622260D01*
X48000Y632380D02*
X48000Y713556D01*
X48000Y736064D02*
X48000Y774672D01*
X48000Y814948D02*
X48000Y863371D01*
X54000Y69179D02*
X54000Y7294D01*
X54000Y139457D02*
X54000Y230124D01*
X54000Y239776D02*
X54000Y332256D01*
X54000Y355844D02*
X54000Y365945D01*
X54000Y379595D02*
X54000Y399092D01*
X54000Y429008D02*
X54000Y461145D01*
X54000Y474795D02*
X54000Y534496D01*
X54000Y555164D02*
X54000Y559896D01*
X54000Y580564D02*
X54000Y585296D01*
X54000Y605964D02*
X54000Y609680D01*
X54000Y619800D02*
X54000Y622260D01*
X54000Y632380D02*
X54000Y713018D01*
X54000Y736602D02*
X54000Y780780D01*
X54000Y808840D02*
X54000Y865196D01*
X60000Y-49550D02*
X60000Y-52070D01*
X60000Y3830D02*
X60000Y71665D01*
X60000Y140730D02*
X60000Y230124D01*
X60000Y239776D02*
X60000Y334901D01*
X60000Y353199D02*
X60000Y371945D01*
X60000Y468795D02*
X60000Y536956D01*
X60000Y552704D02*
X60000Y562356D01*
X60000Y578104D02*
X60000Y587756D01*
X60000Y603504D02*
X60000Y611898D01*
X60000Y619800D02*
X60000Y622260D01*
X60000Y630162D02*
X60000Y716481D01*
X60000Y733139D02*
X60000Y868660D01*
X60000Y922040D02*
X60000Y924560D01*
X66000Y-43878D02*
X66000Y-52070D01*
X66000Y-1842D02*
X66000Y-435D01*
X66000Y39794D02*
X66000Y40470D01*
X66000Y47600D02*
X66000Y49160D01*
X66000Y56290D02*
X66000Y77185D01*
X66000Y140652D02*
X66000Y230124D01*
X66000Y239776D02*
X66000Y340922D01*
X66000Y347178D02*
X66000Y377945D01*
X66000Y462795D02*
X66000Y540004D01*
X66000Y549656D02*
X66000Y567175D01*
X66000Y580825D02*
X66000Y590804D01*
X66000Y600456D02*
X66000Y719702D01*
X66000Y729918D02*
X66000Y874332D01*
X66000Y916368D02*
X66000Y924560D01*
X72000Y-32529D02*
X72000Y-52070D01*
X72000Y-13191D02*
X72000Y-6435D01*
X72000Y64170D02*
X72000Y74109D01*
X72000Y139044D02*
X72000Y230124D01*
X72000Y239776D02*
X72000Y333550D01*
X72000Y354550D02*
X72000Y540004D01*
X72000Y549656D02*
X72000Y573175D01*
X72000Y586825D02*
X72000Y590804D01*
X72000Y600456D02*
X72000Y713970D01*
X72000Y739225D02*
X72000Y885681D01*
X72000Y905019D02*
X72000Y924560D01*
X78000Y-11176D02*
X78000Y-52070D01*
X78000Y1215D02*
X78000Y13507D01*
X78000Y135714D02*
X78000Y230124D01*
X78000Y239776D02*
X78000Y332256D01*
X78000Y387085D02*
X78000Y540004D01*
X78000Y549656D02*
X78000Y579175D01*
X78000Y600456D02*
X78000Y713016D01*
X78000Y745225D02*
X78000Y924560D01*
X84000Y-11176D02*
X84000Y-52070D01*
X84000Y-1524D02*
X84000Y12827D01*
X84000Y129453D02*
X84000Y230124D01*
X84000Y239776D02*
X84000Y333989D01*
X84000Y354111D02*
X84000Y378714D01*
X84000Y388366D02*
X84000Y540004D01*
X84000Y549656D02*
X84000Y584454D01*
X84000Y600456D02*
X84000Y715481D01*
X84000Y734139D02*
X84000Y737575D01*
X84000Y747776D02*
X84000Y924560D01*
X90000Y-11176D02*
X90000Y-52070D01*
X90000Y-1524D02*
X90000Y12827D01*
X90000Y119188D02*
X90000Y230124D01*
X90000Y239776D02*
X90000Y340975D01*
X90000Y342780D02*
X90000Y345320D01*
X90000Y347125D02*
X90000Y378714D01*
X90000Y388366D02*
X90000Y540004D01*
X90000Y549656D02*
X90000Y584454D01*
X90000Y600456D02*
X90000Y719458D01*
X90000Y723540D02*
X90000Y726080D01*
X90000Y730162D02*
X90000Y738124D01*
X90000Y747776D02*
X90000Y924560D01*
X96000Y-11176D02*
X96000Y-52070D01*
X96000Y-1524D02*
X96000Y12827D01*
X96000Y120796D02*
X96000Y230124D01*
X96000Y239776D02*
X96000Y332970D01*
X96000Y342780D02*
X96000Y345320D01*
X96000Y355130D02*
X96000Y378714D01*
X96000Y388366D02*
X96000Y540004D01*
X96000Y549656D02*
X96000Y584454D01*
X96000Y600456D02*
X96000Y713312D01*
X96000Y723540D02*
X96000Y726080D01*
X96000Y736308D02*
X96000Y738124D01*
X96000Y747776D02*
X96000Y788747D01*
X96000Y800873D02*
X96000Y924560D01*
X102000Y-11176D02*
X102000Y-52070D01*
X102000Y-1524D02*
X102000Y12827D01*
X102000Y120830D02*
X102000Y127942D01*
X102000Y151458D02*
X102000Y230124D01*
X102000Y239776D02*
X102000Y342780D01*
X102000Y345320D02*
X102000Y378714D01*
X102000Y388366D02*
X102000Y398032D01*
X102000Y430068D02*
X102000Y540004D01*
X102000Y549656D02*
X102000Y584454D01*
X102000Y600456D02*
X102000Y723540D01*
X102000Y726080D02*
X102000Y738124D01*
X102000Y747776D02*
X102000Y777972D01*
X102000Y811648D02*
X102000Y924560D01*
X108000Y-11176D02*
X108000Y-52070D01*
X108000Y-1524D02*
X108000Y12827D01*
X108000Y119901D02*
X108000Y120052D01*
X108000Y159348D02*
X108000Y230124D01*
X108000Y239776D02*
X108000Y332491D01*
X108000Y342780D02*
X108000Y345320D01*
X108000Y355609D02*
X108000Y378714D01*
X108000Y388366D02*
X108000Y392468D01*
X108000Y435632D02*
X108000Y540004D01*
X108000Y549656D02*
X108000Y584454D01*
X108000Y600456D02*
X108000Y713669D01*
X108000Y723540D02*
X108000Y726080D01*
X108000Y735951D02*
X108000Y738124D01*
X108000Y747776D02*
X108000Y772888D01*
X108000Y816732D02*
X108000Y924560D01*
X114000Y-11176D02*
X114000Y-52070D01*
X114000Y-1524D02*
X114000Y12827D01*
X114000Y163446D02*
X114000Y230124D01*
X114000Y239776D02*
X114000Y338462D01*
X114000Y342780D02*
X114000Y345320D01*
X114000Y349637D02*
X114000Y378714D01*
X114000Y388366D02*
X114000Y389983D01*
X114000Y438117D02*
X114000Y540004D01*
X114000Y549656D02*
X114000Y584454D01*
X114000Y600456D02*
X114000Y721365D01*
X114000Y723540D02*
X114000Y726080D01*
X114000Y728255D02*
X114000Y738124D01*
X114000Y747776D02*
X114000Y770403D01*
X114000Y819217D02*
X114000Y924560D01*
X120000Y-11176D02*
X120000Y-52070D01*
X120000Y-1524D02*
X120000Y12827D01*
X120000Y165527D02*
X120000Y230124D01*
X120000Y239776D02*
X120000Y378714D01*
X120000Y388366D02*
X120000Y388956D01*
X120000Y439144D02*
X120000Y540004D01*
X120000Y549656D02*
X120000Y584454D01*
X120000Y600456D02*
X120000Y738124D01*
X120000Y747776D02*
X120000Y769716D01*
X120000Y819904D02*
X120000Y924560D01*
X126000Y-11176D02*
X126000Y-52070D01*
X126000Y-1524D02*
X126000Y15466D01*
X126000Y66576D02*
X126000Y69502D01*
X126000Y108298D02*
X126000Y113270D01*
X126000Y166130D02*
X126000Y230124D01*
X126000Y239776D02*
X126000Y378714D01*
X126000Y388366D02*
X126000Y388956D01*
X126000Y439144D02*
X126000Y540004D01*
X126000Y549656D02*
X126000Y584454D01*
X126000Y600456D02*
X126000Y738124D01*
X126000Y747776D02*
X126000Y769864D01*
X126000Y819755D02*
X126000Y924560D01*
X132000Y-11176D02*
X132000Y-52070D01*
X132000Y-1524D02*
X132000Y26006D01*
X132000Y39794D02*
X132000Y41486D01*
X132000Y55274D02*
X132000Y83004D01*
X132000Y94796D02*
X132000Y114018D01*
X132000Y165382D02*
X132000Y230124D01*
X132000Y239776D02*
X132000Y378714D01*
X132000Y388366D02*
X132000Y391250D01*
X132000Y436850D02*
X132000Y540004D01*
X132000Y549656D02*
X132000Y584454D01*
X132000Y600456D02*
X132000Y738124D01*
X132000Y747776D02*
X132000Y772350D01*
X132000Y817270D02*
X132000Y924560D01*
X138000Y-11176D02*
X138000Y-52070D01*
X138000Y-1524D02*
X138000Y28074D01*
X138000Y37726D02*
X138000Y43554D01*
X138000Y53206D02*
X138000Y73845D01*
X138000Y103955D02*
X138000Y116265D01*
X138000Y163135D02*
X138000Y230124D01*
X138000Y239776D02*
X138000Y378714D01*
X138000Y388366D02*
X138000Y395092D01*
X138000Y433008D02*
X138000Y540004D01*
X138000Y549656D02*
X138000Y584454D01*
X138000Y600456D02*
X138000Y738124D01*
X138000Y747776D02*
X138000Y776672D01*
X138000Y812948D02*
X138000Y924560D01*
X144000Y-11176D02*
X144000Y-52070D01*
X144000Y-1524D02*
X144000Y28074D01*
X144000Y37726D02*
X144000Y43554D01*
X144000Y53206D02*
X144000Y70281D01*
X144000Y107519D02*
X144000Y120592D01*
X144000Y158808D02*
X144000Y228681D01*
X144000Y241219D02*
X144000Y378714D01*
X144000Y388366D02*
X144000Y402869D01*
X144000Y425231D02*
X144000Y540004D01*
X144000Y549656D02*
X144000Y584454D01*
X144000Y600456D02*
X144000Y738124D01*
X144000Y747776D02*
X144000Y785608D01*
X144000Y804012D02*
X144000Y924560D01*
X150000Y-11176D02*
X150000Y-52070D01*
X150000Y-1524D02*
X150000Y28074D01*
X150000Y37726D02*
X150000Y43554D01*
X150000Y53206D02*
X150000Y68970D01*
X150000Y108830D02*
X150000Y125890D01*
X150000Y153510D02*
X150000Y229600D01*
X150000Y240300D02*
X150000Y378714D01*
X150000Y388366D02*
X150000Y540004D01*
X150000Y549656D02*
X150000Y584454D01*
X150000Y600456D02*
X150000Y738124D01*
X150000Y747776D02*
X150000Y924560D01*
X156000Y-11176D02*
X156000Y-52070D01*
X156000Y-1524D02*
X156000Y28074D01*
X156000Y37726D02*
X156000Y43554D01*
X156000Y53206D02*
X156000Y69345D01*
X156000Y108455D02*
X156000Y125890D01*
X156000Y153510D02*
X156000Y188965D01*
X156000Y388366D02*
X156000Y540004D01*
X156000Y549656D02*
X156000Y584454D01*
X156000Y600456D02*
X156000Y738124D01*
X156000Y747776D02*
X156000Y924560D01*
X162000Y-11176D02*
X162000Y-52070D01*
X162000Y-1524D02*
X162000Y28074D01*
X162000Y37726D02*
X162000Y43554D01*
X162000Y53206D02*
X162000Y71830D01*
X162000Y105970D02*
X162000Y125890D01*
X162000Y153510D02*
X162000Y183134D01*
X162000Y388366D02*
X162000Y540004D01*
X162000Y549656D02*
X162000Y584454D01*
X162000Y600456D02*
X162000Y738124D01*
X162000Y747776D02*
X162000Y924560D01*
X168000Y-11176D02*
X168000Y-52070D01*
X168000Y-1524D02*
X168000Y28074D01*
X168000Y37726D02*
X168000Y43554D01*
X168000Y53206D02*
X168000Y77585D01*
X168000Y100215D02*
X168000Y125890D01*
X168000Y138430D02*
X168000Y140970D01*
X168000Y153510D02*
X168000Y183134D01*
X168000Y192786D02*
X168000Y202065D01*
X168000Y214495D02*
X168000Y352225D01*
X168000Y388366D02*
X168000Y540004D01*
X168000Y549656D02*
X168000Y584454D01*
X168000Y600456D02*
X168000Y738124D01*
X168000Y747776D02*
X168000Y924560D01*
X174000Y-11176D02*
X174000Y-52070D01*
X174000Y-1524D02*
X174000Y28074D01*
X174000Y37726D02*
X174000Y43554D01*
X174000Y53206D02*
X174000Y125890D01*
X174000Y138430D02*
X174000Y140970D01*
X174000Y153510D02*
X174000Y183134D01*
X174000Y192786D02*
X174000Y202800D01*
X174000Y213760D02*
X174000Y352044D01*
X174000Y361696D02*
X174000Y378714D01*
X174000Y390880D02*
X174000Y540004D01*
X174000Y549656D02*
X174000Y584454D01*
X174000Y600456D02*
X174000Y738124D01*
X174000Y747776D02*
X174000Y924560D01*
X180000Y-11176D02*
X180000Y-52070D01*
X180000Y-1524D02*
X180000Y26569D01*
X180000Y39471D02*
X180000Y41684D01*
X180000Y54836D02*
X180000Y126932D01*
X180000Y138430D02*
X180000Y140970D01*
X180000Y152468D02*
X180000Y182745D01*
X180000Y192786D02*
X180000Y203454D01*
X180000Y213106D02*
X180000Y352044D01*
X180000Y361696D02*
X180000Y379130D01*
X180000Y390490D02*
X180000Y540004D01*
X180000Y549656D02*
X180000Y584454D01*
X180000Y600456D02*
X180000Y738124D01*
X180000Y747776D02*
X180000Y924560D01*
X186000Y-11176D02*
X186000Y-52070D01*
X186000Y2325D02*
X186000Y28110D01*
X186000Y37930D02*
X186000Y44741D01*
X186000Y51779D02*
X186000Y176745D01*
X186000Y190395D02*
X186000Y203454D01*
X186000Y213106D02*
X186000Y352044D01*
X186000Y361696D02*
X186000Y540004D01*
X186000Y549656D02*
X186000Y584454D01*
X186000Y600456D02*
X186000Y738124D01*
X186000Y747776D02*
X186000Y924560D01*
X192000Y-5325D02*
X192000Y-52070D01*
X192000Y184395D02*
X192000Y203454D01*
X192000Y213106D02*
X192000Y352044D01*
X192000Y361696D02*
X192000Y540004D01*
X192000Y549656D02*
X192000Y584454D01*
X192000Y600456D02*
X192000Y738124D01*
X192000Y747776D02*
X192000Y924560D01*
X198000Y-4165D02*
X198000Y-52070D01*
X198000Y39036D02*
X198000Y42244D01*
X198000Y54276D02*
X198000Y75845D01*
X198000Y143865D02*
X198000Y203454D01*
X198000Y213106D02*
X198000Y352044D01*
X198000Y361696D02*
X198000Y540004D01*
X198000Y549656D02*
X198000Y584454D01*
X198000Y600456D02*
X198000Y738124D01*
X198000Y747776D02*
X198000Y924560D01*
X204000Y-9906D02*
X204000Y-52070D01*
X204000Y38754D02*
X204000Y42526D01*
X204000Y53994D02*
X204000Y69845D01*
X204000Y83495D02*
X204000Y136215D01*
X204000Y191817D02*
X204000Y203454D01*
X204000Y213106D02*
X204000Y352044D01*
X204000Y361696D02*
X204000Y540004D01*
X204000Y549656D02*
X204000Y584454D01*
X204000Y600456D02*
X204000Y738124D01*
X204000Y747776D02*
X204000Y924560D01*
X210000Y-9906D02*
X210000Y-52070D01*
X210000Y-254D02*
X210000Y43434D01*
X210000Y53086D02*
X210000Y60100D01*
X210000Y77495D02*
X210000Y101506D01*
X210000Y127094D02*
X210000Y142215D01*
X210000Y190460D02*
X210000Y203454D01*
X210000Y213106D02*
X210000Y352044D01*
X210000Y361696D02*
X210000Y540004D01*
X210000Y549656D02*
X210000Y584454D01*
X210000Y600456D02*
X210000Y738124D01*
X210000Y747776D02*
X210000Y924560D01*
X216000Y-9906D02*
X216000Y-52070D01*
X216000Y-254D02*
X216000Y43434D01*
X216000Y53086D02*
X216000Y58220D01*
X216000Y71495D02*
X216000Y101506D01*
X216000Y127094D02*
X216000Y203454D01*
X216000Y213106D02*
X216000Y352044D01*
X216000Y361696D02*
X216000Y540004D01*
X216000Y549656D02*
X216000Y584454D01*
X216000Y600456D02*
X216000Y738124D01*
X216000Y747776D02*
X216000Y924560D01*
X222000Y-9906D02*
X222000Y-52070D01*
X222000Y-254D02*
X222000Y43434D01*
X222000Y53086D02*
X222000Y101506D01*
X222000Y195805D02*
X222000Y203745D01*
X222000Y214376D02*
X222000Y352044D01*
X222000Y363445D02*
X222000Y398312D01*
X222000Y429788D02*
X222000Y540004D01*
X222000Y549656D02*
X222000Y584454D01*
X222000Y600456D02*
X222000Y738124D01*
X222000Y747776D02*
X222000Y779282D01*
X222000Y809858D02*
X222000Y924560D01*
X228000Y-9906D02*
X228000Y-52070D01*
X228000Y-254D02*
X228000Y43434D01*
X228000Y53086D02*
X228000Y81194D01*
X228000Y96606D02*
X228000Y101506D01*
X228000Y127094D02*
X228000Y188155D01*
X228000Y201805D02*
X228000Y204724D01*
X228000Y214376D02*
X228000Y355795D01*
X228000Y369445D02*
X228000Y392584D01*
X228000Y435516D02*
X228000Y538605D01*
X228000Y549656D02*
X228000Y584454D01*
X228000Y600456D02*
X228000Y738124D01*
X228000Y747776D02*
X228000Y773290D01*
X228000Y815850D02*
X228000Y924560D01*
X234000Y-9906D02*
X234000Y-52070D01*
X234000Y-254D02*
X234000Y43434D01*
X234000Y53086D02*
X234000Y73095D01*
X234000Y127094D02*
X234000Y194155D01*
X234000Y214376D02*
X234000Y361795D01*
X234000Y371856D02*
X234000Y390099D01*
X234000Y438001D02*
X234000Y532605D01*
X234000Y546255D02*
X234000Y584454D01*
X234000Y600456D02*
X234000Y738124D01*
X234000Y747776D02*
X234000Y770805D01*
X234000Y818335D02*
X234000Y924560D01*
X240000Y-9906D02*
X240000Y-52070D01*
X240000Y-254D02*
X240000Y42735D01*
X240000Y53086D02*
X240000Y69971D01*
X240000Y132598D02*
X240000Y198374D01*
X240000Y214376D02*
X240000Y362204D01*
X240000Y371856D02*
X240000Y388956D01*
X240000Y439144D02*
X240000Y526605D01*
X240000Y540255D02*
X240000Y584454D01*
X240000Y600456D02*
X240000Y738124D01*
X240000Y747776D02*
X240000Y769476D01*
X240000Y819664D02*
X240000Y924560D01*
X246000Y-9906D02*
X246000Y-52070D01*
X246000Y-254D02*
X246000Y36735D01*
X246000Y50385D02*
X246000Y68970D01*
X246000Y137267D02*
X246000Y198374D01*
X246000Y214376D02*
X246000Y362204D01*
X246000Y371856D02*
X246000Y388956D01*
X246000Y439144D02*
X246000Y477425D01*
X246000Y534255D02*
X246000Y584454D01*
X246000Y600456D02*
X246000Y738124D01*
X246000Y747776D02*
X246000Y769476D01*
X246000Y819664D02*
X246000Y924560D01*
X252000Y-9906D02*
X252000Y-52070D01*
X252000Y-254D02*
X252000Y30735D01*
X252000Y44385D02*
X252000Y69656D01*
X252000Y139765D02*
X252000Y198374D01*
X252000Y214376D02*
X252000Y336121D01*
X252000Y351979D02*
X252000Y362204D01*
X252000Y371856D02*
X252000Y391134D01*
X252000Y436966D02*
X252000Y473964D01*
X252000Y485075D02*
X252000Y584454D01*
X252000Y600456D02*
X252000Y717091D01*
X252000Y732049D02*
X252000Y738124D01*
X252000Y747776D02*
X252000Y771468D01*
X252000Y817672D02*
X252000Y924560D01*
X258000Y-9906D02*
X258000Y-52070D01*
X258000Y-254D02*
X258000Y25534D01*
X258000Y38385D02*
X258000Y72335D01*
X258000Y140730D02*
X258000Y198374D01*
X258000Y214376D02*
X258000Y332423D01*
X258000Y355677D02*
X258000Y362204D01*
X258000Y371856D02*
X258000Y394812D01*
X258000Y433288D02*
X258000Y473964D01*
X258000Y483616D02*
X258000Y584454D01*
X258000Y600456D02*
X258000Y713130D01*
X258000Y736010D02*
X258000Y738124D01*
X258000Y747776D02*
X258000Y774882D01*
X258000Y814258D02*
X258000Y924560D01*
X264000Y-9906D02*
X264000Y-52070D01*
X264000Y-254D02*
X264000Y23466D01*
X264000Y37254D02*
X264000Y37930D01*
X264000Y45060D02*
X264000Y46620D01*
X264000Y53750D02*
X264000Y79359D01*
X264000Y140344D02*
X264000Y198374D01*
X264000Y214376D02*
X264000Y332630D01*
X264000Y355470D02*
X264000Y362204D01*
X264000Y371856D02*
X264000Y402193D01*
X264000Y425907D02*
X264000Y473964D01*
X264000Y483616D02*
X264000Y584454D01*
X264000Y600456D02*
X264000Y712964D01*
X264000Y736176D02*
X264000Y738124D01*
X264000Y747776D02*
X264000Y781626D01*
X264000Y807514D02*
X264000Y924560D01*
X270000Y-9906D02*
X270000Y-52070D01*
X270000Y-254D02*
X270000Y15452D01*
X270000Y61510D02*
X270000Y72117D01*
X270000Y138514D02*
X270000Y198374D01*
X270000Y214376D02*
X270000Y336621D01*
X270000Y351479D02*
X270000Y362204D01*
X270000Y371856D02*
X270000Y473964D01*
X270000Y483616D02*
X270000Y584454D01*
X270000Y600456D02*
X270000Y716691D01*
X270000Y732449D02*
X270000Y738124D01*
X270000Y747776D02*
X270000Y924560D01*
X276000Y-9906D02*
X276000Y-52070D01*
X276000Y-254D02*
X276000Y11017D01*
X276000Y134758D02*
X276000Y198374D01*
X276000Y214376D02*
X276000Y337121D01*
X276000Y350979D02*
X276000Y362204D01*
X276000Y371856D02*
X276000Y473964D01*
X276000Y483616D02*
X276000Y496838D01*
X276000Y526782D02*
X276000Y584454D01*
X276000Y600456D02*
X276000Y649238D01*
X276000Y679182D02*
X276000Y718376D01*
X276000Y730764D02*
X276000Y738124D01*
X276000Y747776D02*
X276000Y924560D01*
X282000Y-9906D02*
X282000Y-52070D01*
X282000Y-254D02*
X282000Y10287D01*
X282000Y127461D02*
X282000Y198374D01*
X282000Y214376D02*
X282000Y332838D01*
X282000Y371856D02*
X282000Y473964D01*
X282000Y483616D02*
X282000Y495981D01*
X282000Y527639D02*
X282000Y584454D01*
X282000Y600456D02*
X282000Y648381D01*
X282000Y680039D02*
X282000Y713544D01*
X282000Y751105D02*
X282000Y924560D01*
X288000Y-9906D02*
X288000Y-52070D01*
X288000Y-254D02*
X288000Y10287D01*
X288000Y119497D02*
X288000Y198374D01*
X288000Y214376D02*
X288000Y332256D01*
X288000Y366525D02*
X288000Y473964D01*
X288000Y483616D02*
X288000Y500108D01*
X288000Y523512D02*
X288000Y584454D01*
X288000Y600456D02*
X288000Y652508D01*
X288000Y675912D02*
X288000Y712776D01*
X288000Y753364D02*
X288000Y924560D01*
X294000Y-9906D02*
X294000Y-52070D01*
X294000Y-254D02*
X294000Y10287D01*
X294000Y120830D02*
X294000Y198374D01*
X294000Y214376D02*
X294000Y335621D01*
X294000Y352479D02*
X294000Y473964D01*
X294000Y483616D02*
X294000Y584454D01*
X294000Y600456D02*
X294000Y715691D01*
X294000Y733449D02*
X294000Y738025D01*
X294000Y753364D02*
X294000Y924560D01*
X300000Y-9906D02*
X300000Y-52070D01*
X300000Y-254D02*
X300000Y10287D01*
X300000Y120830D02*
X300000Y125950D01*
X300000Y153450D02*
X300000Y198374D01*
X300000Y214376D02*
X300000Y337052D01*
X300000Y342780D02*
X300000Y345320D01*
X300000Y351048D02*
X300000Y473964D01*
X300000Y483616D02*
X300000Y497505D01*
X300000Y526115D02*
X300000Y584454D01*
X300000Y600456D02*
X300000Y649905D01*
X300000Y678515D02*
X300000Y718335D01*
X300000Y723300D02*
X300000Y725840D01*
X300000Y730805D02*
X300000Y738124D01*
X300000Y753364D02*
X300000Y924560D01*
X306000Y-9906D02*
X306000Y-52070D01*
X306000Y-254D02*
X306000Y10287D01*
X306000Y160498D02*
X306000Y198374D01*
X306000Y214376D02*
X306000Y332124D01*
X306000Y342780D02*
X306000Y345320D01*
X306000Y355976D02*
X306000Y405814D01*
X306000Y422286D02*
X306000Y473964D01*
X306000Y483616D02*
X306000Y495936D01*
X306000Y527684D02*
X306000Y584454D01*
X306000Y600456D02*
X306000Y648336D01*
X306000Y680084D02*
X306000Y712843D01*
X306000Y723300D02*
X306000Y725840D01*
X306000Y736297D02*
X306000Y738124D01*
X306000Y753364D02*
X306000Y787420D01*
X306000Y801720D02*
X306000Y924560D01*
X312000Y-9906D02*
X312000Y-52070D01*
X312000Y-254D02*
X312000Y10287D01*
X312000Y164110D02*
X312000Y198374D01*
X312000Y214376D02*
X312000Y342780D01*
X312000Y345320D02*
X312000Y396312D01*
X312000Y431788D02*
X312000Y473964D01*
X312000Y483616D02*
X312000Y498635D01*
X312000Y524985D02*
X312000Y584454D01*
X312000Y600456D02*
X312000Y651035D01*
X312000Y677385D02*
X312000Y723300D01*
X312000Y725840D02*
X312000Y738124D01*
X312000Y753364D02*
X312000Y777282D01*
X312000Y811858D02*
X312000Y924560D01*
X318000Y-9906D02*
X318000Y-52070D01*
X318000Y-254D02*
X318000Y10287D01*
X318000Y113236D02*
X318000Y113565D01*
X318000Y165835D02*
X318000Y198374D01*
X318000Y214376D02*
X318000Y333483D01*
X318000Y342780D02*
X318000Y345320D01*
X318000Y354617D02*
X318000Y391755D01*
X318000Y436345D02*
X318000Y473964D01*
X318000Y483616D02*
X318000Y584454D01*
X318000Y600456D02*
X318000Y713676D01*
X318000Y723300D02*
X318000Y725840D01*
X318000Y735463D02*
X318000Y738124D01*
X318000Y753364D02*
X318000Y772462D01*
X318000Y816678D02*
X318000Y924560D01*
X324000Y-9906D02*
X324000Y-52070D01*
X324000Y625D02*
X324000Y12806D01*
X324000Y64156D02*
X324000Y71494D01*
X324000Y106306D02*
X324000Y113270D01*
X324000Y166130D02*
X324000Y198374D01*
X324000Y214376D02*
X324000Y389270D01*
X324000Y438830D02*
X324000Y473964D01*
X324000Y483616D02*
X324000Y498905D01*
X324000Y524715D02*
X324000Y584454D01*
X324000Y600456D02*
X324000Y651305D01*
X324000Y677115D02*
X324000Y738124D01*
X324000Y753364D02*
X324000Y769977D01*
X324000Y819163D02*
X324000Y924560D01*
X330000Y-9165D02*
X330000Y-52070D01*
X330000Y37254D02*
X330000Y38946D01*
X330000Y52734D02*
X330000Y80228D01*
X330000Y97572D02*
X330000Y114326D01*
X330000Y165074D02*
X330000Y198374D01*
X330000Y214376D02*
X330000Y388956D01*
X330000Y439144D02*
X330000Y473964D01*
X330000Y483616D02*
X330000Y495936D01*
X330000Y527684D02*
X330000Y584454D01*
X330000Y600456D02*
X330000Y648336D01*
X330000Y680084D02*
X330000Y738124D01*
X330000Y753364D02*
X330000Y769476D01*
X330000Y819664D02*
X330000Y924560D01*
X336000Y-9906D02*
X336000Y-52070D01*
X336000Y-254D02*
X336000Y41014D01*
X336000Y50666D02*
X336000Y72695D01*
X336000Y105105D02*
X336000Y116929D01*
X336000Y162471D02*
X336000Y198374D01*
X336000Y214376D02*
X336000Y389477D01*
X336000Y438623D02*
X336000Y473964D01*
X336000Y483616D02*
X336000Y497306D01*
X336000Y526314D02*
X336000Y584454D01*
X336000Y600456D02*
X336000Y649706D01*
X336000Y678714D02*
X336000Y738124D01*
X336000Y753364D02*
X336000Y769811D01*
X336000Y819329D02*
X336000Y924560D01*
X342000Y-9906D02*
X342000Y-52070D01*
X342000Y-254D02*
X342000Y41014D01*
X342000Y50666D02*
X342000Y69805D01*
X342000Y107995D02*
X342000Y121742D01*
X342000Y157658D02*
X342000Y198374D01*
X342000Y214376D02*
X342000Y391963D01*
X342000Y436137D02*
X342000Y473964D01*
X342000Y483616D02*
X342000Y584454D01*
X342000Y600456D02*
X342000Y738124D01*
X342000Y753364D02*
X342000Y772296D01*
X342000Y816844D02*
X342000Y924560D01*
X348000Y-9906D02*
X348000Y-52070D01*
X348000Y-254D02*
X348000Y41014D01*
X348000Y50666D02*
X348000Y68970D01*
X348000Y108830D02*
X348000Y125890D01*
X348000Y153510D02*
X348000Y198374D01*
X348000Y214376D02*
X348000Y396812D01*
X348000Y431288D02*
X348000Y473964D01*
X348000Y483616D02*
X348000Y500760D01*
X348000Y522860D02*
X348000Y584454D01*
X348000Y600456D02*
X348000Y653160D01*
X348000Y675260D02*
X348000Y738124D01*
X348000Y753364D02*
X348000Y776882D01*
X348000Y812258D02*
X348000Y924560D01*
X354000Y-9906D02*
X354000Y-52070D01*
X354000Y-254D02*
X354000Y41014D01*
X354000Y50666D02*
X354000Y69821D01*
X354000Y107978D02*
X354000Y125890D01*
X354000Y153510D02*
X354000Y198374D01*
X354000Y214376D02*
X354000Y407021D01*
X354000Y421079D02*
X354000Y473964D01*
X354000Y483616D02*
X354000Y496093D01*
X354000Y527527D02*
X354000Y584454D01*
X354000Y600456D02*
X354000Y648493D01*
X354000Y679927D02*
X354000Y738124D01*
X354000Y753364D02*
X354000Y786455D01*
X354000Y802685D02*
X354000Y924560D01*
X360000Y-9906D02*
X360000Y-52070D01*
X360000Y-254D02*
X360000Y41014D01*
X360000Y50666D02*
X360000Y72735D01*
X360000Y105065D02*
X360000Y138430D01*
X360000Y140970D02*
X360000Y198374D01*
X360000Y214376D02*
X360000Y473964D01*
X360000Y483616D02*
X360000Y496726D01*
X360000Y526894D02*
X360000Y584454D01*
X360000Y600456D02*
X360000Y649126D01*
X360000Y679294D02*
X360000Y738124D01*
X360000Y753364D02*
X360000Y924560D01*
X366000Y-9906D02*
X366000Y-52070D01*
X366000Y-254D02*
X366000Y41014D01*
X366000Y50666D02*
X366000Y80325D01*
X366000Y97475D02*
X366000Y125890D01*
X366000Y138430D02*
X366000Y140970D01*
X366000Y153510D02*
X366000Y198374D01*
X366000Y214376D02*
X366000Y473964D01*
X366000Y483616D02*
X366000Y584454D01*
X366000Y600456D02*
X366000Y738124D01*
X366000Y753364D02*
X366000Y924560D01*
X372000Y-9906D02*
X372000Y-52070D01*
X372000Y-254D02*
X372000Y41014D01*
X372000Y50666D02*
X372000Y125890D01*
X372000Y138430D02*
X372000Y140970D01*
X372000Y153510D02*
X372000Y198374D01*
X372000Y214376D02*
X372000Y473964D01*
X372000Y483616D02*
X372000Y584454D01*
X372000Y600456D02*
X372000Y738124D01*
X372000Y753364D02*
X372000Y924560D01*
X378000Y-9906D02*
X378000Y-52070D01*
X378000Y-254D02*
X378000Y41014D01*
X378000Y50666D02*
X378000Y129049D01*
X378000Y138430D02*
X378000Y140970D01*
X378000Y150351D02*
X378000Y198374D01*
X378000Y214376D02*
X378000Y473964D01*
X378000Y483616D02*
X378000Y496673D01*
X378000Y526947D02*
X378000Y584454D01*
X378000Y600456D02*
X378000Y649073D01*
X378000Y679347D02*
X378000Y738124D01*
X378000Y753364D02*
X378000Y924560D01*
X384000Y-9906D02*
X384000Y-52070D01*
X384000Y-254D02*
X384000Y40975D01*
X384000Y50666D02*
X384000Y198374D01*
X384000Y214376D02*
X384000Y473964D01*
X384000Y483616D02*
X384000Y496147D01*
X384000Y527473D02*
X384000Y584454D01*
X384000Y600456D02*
X384000Y648547D01*
X384000Y679873D02*
X384000Y738124D01*
X384000Y753364D02*
X384000Y924560D01*
X390000Y-9906D02*
X390000Y-52070D01*
X390000Y-254D02*
X390000Y34975D01*
X390000Y48625D02*
X390000Y198374D01*
X390000Y214376D02*
X390000Y473964D01*
X390000Y483616D02*
X390000Y501074D01*
X390000Y522546D02*
X390000Y584454D01*
X390000Y600456D02*
X390000Y653474D01*
X390000Y674946D02*
X390000Y738124D01*
X390000Y753364D02*
X390000Y924560D01*
X396000Y-9906D02*
X396000Y-52070D01*
X396000Y-254D02*
X396000Y28975D01*
X396000Y42625D02*
X396000Y198374D01*
X396000Y214376D02*
X396000Y473964D01*
X396000Y483616D02*
X396000Y584454D01*
X396000Y600456D02*
X396000Y738124D01*
X396000Y753364D02*
X396000Y924560D01*
X402000Y-9906D02*
X402000Y-52070D01*
X402000Y-254D02*
X402000Y26804D01*
X402000Y36625D02*
X402000Y198374D01*
X402000Y214376D02*
X402000Y473964D01*
X402000Y483616D02*
X402000Y497253D01*
X402000Y526368D02*
X402000Y584454D01*
X402000Y600456D02*
X402000Y649653D01*
X402000Y678768D02*
X402000Y738124D01*
X402000Y753364D02*
X402000Y924560D01*
X408000Y-9906D02*
X408000Y-52070D01*
X408000Y-254D02*
X408000Y26804D01*
X408000Y36456D02*
X408000Y101506D01*
X408000Y127094D02*
X408000Y198374D01*
X408000Y214376D02*
X408000Y473964D01*
X408000Y483616D02*
X408000Y495936D01*
X408000Y527684D02*
X408000Y584454D01*
X408000Y600456D02*
X408000Y648336D01*
X408000Y680084D02*
X408000Y738124D01*
X408000Y753364D02*
X408000Y924560D01*
X414000Y-9906D02*
X414000Y-52070D01*
X414000Y-254D02*
X414000Y26804D01*
X414000Y36456D02*
X414000Y101506D01*
X414000Y127094D02*
X414000Y198374D01*
X414000Y214376D02*
X414000Y473964D01*
X414000Y483616D02*
X414000Y499035D01*
X414000Y524585D02*
X414000Y584454D01*
X414000Y600456D02*
X414000Y651435D01*
X414000Y676985D02*
X414000Y738124D01*
X414000Y753364D02*
X414000Y924560D01*
X420000Y-9906D02*
X420000Y-52070D01*
X420000Y-254D02*
X420000Y26804D01*
X420000Y36456D02*
X420000Y101506D01*
X420000Y182985D02*
X420000Y198374D01*
X420000Y214376D02*
X420000Y473964D01*
X420000Y483616D02*
X420000Y584454D01*
X420000Y600456D02*
X420000Y738124D01*
X420000Y753364D02*
X420000Y924560D01*
X426000Y-9906D02*
X426000Y-52070D01*
X426000Y-254D02*
X426000Y26804D01*
X426000Y36456D02*
X426000Y81483D01*
X426000Y96317D02*
X426000Y101506D01*
X426000Y127094D02*
X426000Y175335D01*
X426000Y188985D02*
X426000Y198374D01*
X426000Y214376D02*
X426000Y473964D01*
X426000Y483616D02*
X426000Y498505D01*
X426000Y525115D02*
X426000Y584454D01*
X426000Y600456D02*
X426000Y650905D01*
X426000Y677515D02*
X426000Y738124D01*
X426000Y753364D02*
X426000Y924560D01*
X432000Y-9906D02*
X432000Y-52070D01*
X432000Y-254D02*
X432000Y26804D01*
X432000Y36456D02*
X432000Y73215D01*
X432000Y127094D02*
X432000Y181335D01*
X432000Y194985D02*
X432000Y198374D01*
X432000Y214376D02*
X432000Y399132D01*
X432000Y431508D02*
X432000Y473964D01*
X432000Y483616D02*
X432000Y495936D01*
X432000Y527684D02*
X432000Y584454D01*
X432000Y600456D02*
X432000Y648336D01*
X432000Y680084D02*
X432000Y738124D01*
X432000Y753364D02*
X432000Y779862D01*
X432000Y811338D02*
X432000Y924560D01*
X438000Y-9906D02*
X438000Y-52070D01*
X438000Y-254D02*
X438000Y26804D01*
X438000Y36456D02*
X438000Y70020D01*
X438000Y132478D02*
X438000Y187335D01*
X438000Y197866D02*
X438000Y198374D01*
X438000Y214376D02*
X438000Y393668D01*
X438000Y436973D02*
X438000Y473964D01*
X438000Y483616D02*
X438000Y497635D01*
X438000Y525985D02*
X438000Y584454D01*
X438000Y600456D02*
X438000Y650035D01*
X438000Y678385D02*
X438000Y738124D01*
X438000Y753364D02*
X438000Y774134D01*
X438000Y817066D02*
X438000Y924560D01*
X444000Y-9906D02*
X444000Y-52070D01*
X444000Y-254D02*
X444000Y26804D01*
X444000Y36456D02*
X444000Y68970D01*
X444000Y137198D02*
X444000Y188214D01*
X444000Y197866D02*
X444000Y198374D01*
X444000Y214376D02*
X444000Y391182D01*
X444000Y439458D02*
X444000Y473964D01*
X444000Y483616D02*
X444000Y584454D01*
X444000Y600456D02*
X444000Y738124D01*
X444000Y753364D02*
X444000Y771649D01*
X444000Y819551D02*
X444000Y924560D01*
X450000Y-9906D02*
X450000Y-52070D01*
X450000Y-254D02*
X450000Y26804D01*
X450000Y36456D02*
X450000Y69606D01*
X450000Y139733D02*
X450000Y188214D01*
X450000Y197866D02*
X450000Y198374D01*
X450000Y214376D02*
X450000Y390226D01*
X450000Y440414D02*
X450000Y473964D01*
X450000Y483616D02*
X450000Y499905D01*
X450000Y523715D02*
X450000Y584454D01*
X450000Y600456D02*
X450000Y652305D01*
X450000Y676115D02*
X450000Y738124D01*
X450000Y753364D02*
X450000Y770506D01*
X450000Y820694D02*
X450000Y924560D01*
X456000Y-9906D02*
X456000Y-52070D01*
X456000Y-254D02*
X456000Y26804D01*
X456000Y36456D02*
X456000Y72215D01*
X456000Y140730D02*
X456000Y188214D01*
X456000Y197866D02*
X456000Y198374D01*
X456000Y214376D02*
X456000Y390226D01*
X456000Y440414D02*
X456000Y473964D01*
X456000Y483616D02*
X456000Y495936D01*
X456000Y600456D02*
X456000Y648336D01*
X456000Y680084D02*
X456000Y738124D01*
X456000Y753364D02*
X456000Y770506D01*
X456000Y820694D02*
X456000Y924560D01*
X462000Y-9906D02*
X462000Y-52070D01*
X462000Y-254D02*
X462000Y24736D01*
X462000Y38524D02*
X462000Y39200D01*
X462000Y46330D02*
X462000Y47890D01*
X462000Y55020D02*
X462000Y79069D01*
X462000Y140376D02*
X462000Y188214D01*
X462000Y197866D02*
X462000Y198374D01*
X462000Y214376D02*
X462000Y336941D01*
X462000Y353699D02*
X462000Y392591D01*
X462000Y438049D02*
X462000Y473964D01*
X462000Y483616D02*
X462000Y496892D01*
X462000Y588765D02*
X462000Y590804D01*
X462000Y600456D02*
X462000Y649292D01*
X462000Y679128D02*
X462000Y717671D01*
X462000Y733529D02*
X462000Y738124D01*
X462000Y753364D02*
X462000Y772684D01*
X462000Y818516D02*
X462000Y924560D01*
X468000Y-9906D02*
X468000Y-52070D01*
X468000Y-254D02*
X468000Y15572D01*
X468000Y63930D02*
X468000Y72325D01*
X468000Y138583D02*
X468000Y188214D01*
X468000Y197866D02*
X468000Y198374D01*
X468000Y214376D02*
X468000Y333526D01*
X468000Y357114D02*
X468000Y396532D01*
X468000Y434108D02*
X468000Y473964D01*
X468000Y483616D02*
X468000Y590804D01*
X468000Y600456D02*
X468000Y713973D01*
X468000Y737227D02*
X468000Y738124D01*
X468000Y753364D02*
X468000Y776362D01*
X468000Y814838D02*
X468000Y924560D01*
X474000Y-9906D02*
X474000Y-52070D01*
X474000Y-254D02*
X474000Y11811D01*
X474000Y134878D02*
X474000Y188214D01*
X474000Y197866D02*
X474000Y198374D01*
X474000Y214376D02*
X474000Y334087D01*
X474000Y356553D02*
X474000Y404549D01*
X474000Y426091D02*
X474000Y473964D01*
X474000Y483616D02*
X474000Y503174D01*
X474000Y520446D02*
X474000Y588515D01*
X474000Y600456D02*
X474000Y655574D01*
X474000Y672846D02*
X474000Y714180D01*
X474000Y737020D02*
X474000Y738124D01*
X474000Y753364D02*
X474000Y783743D01*
X474000Y807457D02*
X474000Y924560D01*
X480000Y-9906D02*
X480000Y-52070D01*
X480000Y-254D02*
X480000Y11557D01*
X480000Y127669D02*
X480000Y188214D01*
X480000Y197866D02*
X480000Y198374D01*
X480000Y214376D02*
X480000Y338341D01*
X480000Y352299D02*
X480000Y473964D01*
X480000Y483616D02*
X480000Y496507D01*
X480000Y596165D02*
X480000Y648907D01*
X480000Y679513D02*
X480000Y718171D01*
X480000Y733029D02*
X480000Y738124D01*
X480000Y753364D02*
X480000Y924560D01*
X486000Y-9906D02*
X486000Y-52070D01*
X486000Y-254D02*
X486000Y11557D01*
X486000Y119464D02*
X486000Y188214D01*
X486000Y197866D02*
X486000Y198374D01*
X486000Y214376D02*
X486000Y337941D01*
X486000Y352699D02*
X486000Y473964D01*
X486000Y483616D02*
X486000Y496312D01*
X486000Y590188D02*
X486000Y648712D01*
X486000Y679708D02*
X486000Y718671D01*
X486000Y732529D02*
X486000Y738124D01*
X486000Y753364D02*
X486000Y924560D01*
X492000Y-9906D02*
X492000Y-52070D01*
X492000Y-254D02*
X492000Y11557D01*
X492000Y120830D02*
X492000Y188214D01*
X492000Y197866D02*
X492000Y198374D01*
X492000Y214376D02*
X492000Y333921D01*
X492000Y382941D02*
X492000Y473964D01*
X492000Y483616D02*
X492000Y502040D01*
X492000Y521580D02*
X492000Y654440D01*
X492000Y673980D02*
X492000Y694975D01*
X492000Y736812D02*
X492000Y738124D01*
X492000Y753364D02*
X492000Y924560D01*
X498000Y-9906D02*
X498000Y-52070D01*
X498000Y-254D02*
X498000Y11557D01*
X498000Y120830D02*
X498000Y126158D01*
X498000Y153242D02*
X498000Y188214D01*
X498000Y197866D02*
X498000Y198374D01*
X498000Y214376D02*
X498000Y333673D01*
X498000Y383189D02*
X498000Y473964D01*
X498000Y483616D02*
X498000Y688975D01*
X498000Y737394D02*
X498000Y738124D01*
X498000Y753364D02*
X498000Y924560D01*
X504000Y-9906D02*
X504000Y-52070D01*
X504000Y-254D02*
X504000Y11557D01*
X504000Y160378D02*
X504000Y188214D01*
X504000Y197866D02*
X504000Y198374D01*
X504000Y214376D02*
X504000Y337341D01*
X504000Y353299D02*
X504000Y473964D01*
X504000Y483616D02*
X504000Y497087D01*
X504000Y526533D02*
X504000Y649487D01*
X504000Y678933D02*
X504000Y687324D01*
X504000Y696976D02*
X504000Y717171D01*
X504000Y734029D02*
X504000Y738124D01*
X504000Y753364D02*
X504000Y924560D01*
X510000Y-9906D02*
X510000Y-52070D01*
X510000Y-254D02*
X510000Y11557D01*
X510000Y164041D02*
X510000Y188214D01*
X510000Y197866D02*
X510000Y198374D01*
X510000Y214376D02*
X510000Y337703D01*
X510000Y344050D02*
X510000Y346590D01*
X510000Y352937D02*
X510000Y473964D01*
X510000Y483616D02*
X510000Y495936D01*
X510000Y527684D02*
X510000Y648336D01*
X510000Y680084D02*
X510000Y687324D01*
X510000Y696976D02*
X510000Y718602D01*
X510000Y724330D02*
X510000Y726870D01*
X510000Y732598D02*
X510000Y738124D01*
X510000Y753364D02*
X510000Y924560D01*
X516000Y-9906D02*
X516000Y-52070D01*
X516000Y855D02*
X516000Y11667D01*
X516000Y113356D02*
X516000Y113597D01*
X516000Y165803D02*
X516000Y188214D01*
X516000Y197866D02*
X516000Y198374D01*
X516000Y214376D02*
X516000Y333248D01*
X516000Y344050D02*
X516000Y346590D01*
X516000Y357392D02*
X516000Y405997D01*
X516000Y424643D02*
X516000Y473964D01*
X516000Y483616D02*
X516000Y499435D01*
X516000Y524185D02*
X516000Y651835D01*
X516000Y676585D02*
X516000Y687324D01*
X516000Y696976D02*
X516000Y713674D01*
X516000Y724330D02*
X516000Y726870D01*
X516000Y737526D02*
X516000Y738124D01*
X516000Y753364D02*
X516000Y787364D01*
X516000Y803836D02*
X516000Y924560D01*
X522000Y-6795D02*
X522000Y-52070D01*
X522000Y64276D02*
X522000Y71286D01*
X522000Y106514D02*
X522000Y113270D01*
X522000Y166130D02*
X522000Y188214D01*
X522000Y197866D02*
X522000Y198374D01*
X522000Y214376D02*
X522000Y332620D01*
X522000Y344050D02*
X522000Y346590D01*
X522000Y358020D02*
X522000Y397132D01*
X522000Y433508D02*
X522000Y473964D01*
X522000Y483616D02*
X522000Y687324D01*
X522000Y696976D02*
X522000Y724330D01*
X522000Y753364D02*
X522000Y777862D01*
X522000Y813338D02*
X522000Y924560D01*
X528000Y-4473D02*
X528000Y-52070D01*
X528000Y38524D02*
X528000Y40216D01*
X528000Y54004D02*
X528000Y80518D01*
X528000Y97282D02*
X528000Y114294D01*
X528000Y165106D02*
X528000Y188214D01*
X528000Y197866D02*
X528000Y198374D01*
X528000Y214376D02*
X528000Y335080D01*
X528000Y344050D02*
X528000Y346590D01*
X528000Y355560D02*
X528000Y392839D01*
X528000Y437801D02*
X528000Y473964D01*
X528000Y483616D02*
X528000Y498105D01*
X528000Y525515D02*
X528000Y650505D01*
X528000Y677915D02*
X528000Y687324D01*
X528000Y696976D02*
X528000Y715033D01*
X528000Y724330D02*
X528000Y726870D01*
X528000Y736167D02*
X528000Y738124D01*
X528000Y753364D02*
X528000Y773305D01*
X528000Y817895D02*
X528000Y924560D01*
X534000Y-9906D02*
X534000Y-52070D01*
X534000Y3177D02*
X534000Y42284D01*
X534000Y51936D02*
X534000Y72815D01*
X534000Y104985D02*
X534000Y116860D01*
X534000Y162540D02*
X534000Y188214D01*
X534000Y197866D02*
X534000Y198374D01*
X534000Y214376D02*
X534000Y390354D01*
X534000Y440286D02*
X534000Y473964D01*
X534000Y483616D02*
X534000Y495936D01*
X534000Y527684D02*
X534000Y648336D01*
X534000Y680084D02*
X534000Y687324D01*
X534000Y696976D02*
X534000Y738124D01*
X534000Y753364D02*
X534000Y770820D01*
X534000Y820380D02*
X534000Y924560D01*
X540000Y-9906D02*
X540000Y-52070D01*
X540000Y-254D02*
X540000Y42284D01*
X540000Y51936D02*
X540000Y69855D01*
X540000Y107945D02*
X540000Y121622D01*
X540000Y157778D02*
X540000Y188214D01*
X540000Y197866D02*
X540000Y198374D01*
X540000Y214376D02*
X540000Y390226D01*
X540000Y440414D02*
X540000Y473964D01*
X540000Y484595D02*
X540000Y498035D01*
X540000Y525585D02*
X540000Y650435D01*
X540000Y677985D02*
X540000Y687324D01*
X540000Y696976D02*
X540000Y738124D01*
X540000Y753364D02*
X540000Y770506D01*
X540000Y820694D02*
X540000Y924560D01*
X546000Y-9906D02*
X546000Y-52070D01*
X546000Y-254D02*
X546000Y42284D01*
X546000Y51936D02*
X546000Y68970D01*
X546000Y108830D02*
X546000Y125890D01*
X546000Y153510D02*
X546000Y188214D01*
X546000Y197866D02*
X546000Y198374D01*
X546000Y214376D02*
X546000Y390934D01*
X546000Y439706D02*
X546000Y476945D01*
X546000Y547745D02*
X546000Y687324D01*
X546000Y696976D02*
X546000Y738124D01*
X546000Y753364D02*
X546000Y771027D01*
X546000Y820173D02*
X546000Y924560D01*
X552000Y-9906D02*
X552000Y-52070D01*
X552000Y-254D02*
X552000Y42284D01*
X552000Y51936D02*
X552000Y69772D01*
X552000Y108028D02*
X552000Y125890D01*
X552000Y153510D02*
X552000Y188214D01*
X552000Y197866D02*
X552000Y198374D01*
X552000Y214376D02*
X552000Y393419D01*
X552000Y437221D02*
X552000Y499505D01*
X552000Y524115D02*
X552000Y540095D01*
X552000Y552196D02*
X552000Y651905D01*
X552000Y676515D02*
X552000Y687324D01*
X552000Y696976D02*
X552000Y738124D01*
X552000Y753364D02*
X552000Y773513D01*
X552000Y817687D02*
X552000Y924560D01*
X558000Y-9906D02*
X558000Y-52070D01*
X558000Y-254D02*
X558000Y42284D01*
X558000Y51936D02*
X558000Y72615D01*
X558000Y105185D02*
X558000Y138430D01*
X558000Y140970D02*
X558000Y188214D01*
X558000Y197866D02*
X558000Y198374D01*
X558000Y214376D02*
X558000Y398532D01*
X558000Y432108D02*
X558000Y495936D01*
X558000Y527684D02*
X558000Y542544D01*
X558000Y552196D02*
X558000Y626435D01*
X558000Y680084D02*
X558000Y687324D01*
X558000Y696976D02*
X558000Y738124D01*
X558000Y753364D02*
X558000Y778362D01*
X558000Y812838D02*
X558000Y924560D01*
X564000Y-9906D02*
X564000Y-52070D01*
X564000Y-254D02*
X564000Y42284D01*
X564000Y51936D02*
X564000Y80035D01*
X564000Y97765D02*
X564000Y125890D01*
X564000Y138430D02*
X564000Y140970D01*
X564000Y153510D02*
X564000Y188214D01*
X564000Y197866D02*
X564000Y198374D01*
X564000Y214376D02*
X564000Y409377D01*
X564000Y421263D02*
X564000Y497058D01*
X564000Y526562D02*
X564000Y542544D01*
X564000Y552196D02*
X564000Y620435D01*
X564000Y678962D02*
X564000Y687324D01*
X564000Y696976D02*
X564000Y738124D01*
X564000Y753364D02*
X564000Y788571D01*
X564000Y802629D02*
X564000Y924560D01*
X570000Y-9906D02*
X570000Y-52070D01*
X570000Y-254D02*
X570000Y42284D01*
X570000Y51936D02*
X570000Y125890D01*
X570000Y138430D02*
X570000Y140970D01*
X570000Y153510D02*
X570000Y188214D01*
X570000Y197866D02*
X570000Y198374D01*
X570000Y214376D02*
X570000Y542544D01*
X570000Y552196D02*
X570000Y614435D01*
X570000Y628085D02*
X570000Y687324D01*
X570000Y696976D02*
X570000Y738124D01*
X570000Y753364D02*
X570000Y924560D01*
X576000Y-9906D02*
X576000Y-52070D01*
X576000Y-254D02*
X576000Y42284D01*
X576000Y51936D02*
X576000Y128601D01*
X576000Y138430D02*
X576000Y140970D01*
X576000Y150799D02*
X576000Y188214D01*
X576000Y197866D02*
X576000Y198374D01*
X576000Y219540D02*
X576000Y502209D01*
X576000Y521411D02*
X576000Y542544D01*
X576000Y552196D02*
X576000Y609854D01*
X576000Y622085D02*
X576000Y654609D01*
X576000Y673811D02*
X576000Y687324D01*
X576000Y696976D02*
X576000Y738124D01*
X576000Y753364D02*
X576000Y924560D01*
X582000Y-9906D02*
X582000Y-52070D01*
X582000Y-254D02*
X582000Y42284D01*
X582000Y51936D02*
X582000Y188214D01*
X582000Y197866D02*
X582000Y198374D01*
X582000Y527279D02*
X582000Y542544D01*
X582000Y552196D02*
X582000Y609854D01*
X582000Y619506D02*
X582000Y643067D01*
X582000Y679679D02*
X582000Y687324D01*
X582000Y696976D02*
X582000Y738124D01*
X582000Y753364D02*
X582000Y924560D01*
X588000Y-9906D02*
X588000Y-52070D01*
X588000Y-254D02*
X588000Y38905D01*
X588000Y51936D02*
X588000Y188214D01*
X588000Y527142D02*
X588000Y542544D01*
X588000Y552196D02*
X588000Y609854D01*
X588000Y619506D02*
X588000Y637075D01*
X588000Y679542D02*
X588000Y687324D01*
X588000Y696976D02*
X588000Y738124D01*
X588000Y753364D02*
X588000Y924560D01*
X594000Y-9906D02*
X594000Y-52070D01*
X594000Y-254D02*
X594000Y32905D01*
X594000Y46555D02*
X594000Y189365D01*
X594000Y201795D02*
X594000Y204287D01*
X594000Y491236D02*
X594000Y503005D01*
X594000Y520615D02*
X594000Y542544D01*
X594000Y552196D02*
X594000Y609854D01*
X594000Y619506D02*
X594000Y631075D01*
X594000Y644725D02*
X594000Y655405D01*
X594000Y673015D02*
X594000Y687324D01*
X594000Y696976D02*
X594000Y738124D01*
X594000Y753364D02*
X594000Y924560D01*
X600000Y-9906D02*
X600000Y-52070D01*
X600000Y-254D02*
X600000Y26905D01*
X600000Y40555D02*
X600000Y101479D01*
X600000Y124581D02*
X600000Y199644D01*
X600000Y491236D02*
X600000Y542544D01*
X600000Y552196D02*
X600000Y609854D01*
X600000Y619506D02*
X600000Y630174D01*
X600000Y639826D02*
X600000Y687324D01*
X600000Y696976D02*
X600000Y738124D01*
X600000Y753364D02*
X600000Y924560D01*
X606000Y-9906D02*
X606000Y-52070D01*
X606000Y-254D02*
X606000Y25534D01*
X606000Y35186D02*
X606000Y100236D01*
X606000Y125824D02*
X606000Y199644D01*
X606000Y227076D02*
X606000Y228523D01*
X606000Y231217D02*
X606000Y243685D01*
X606000Y526699D02*
X606000Y542544D01*
X606000Y552196D02*
X606000Y609854D01*
X606000Y619506D02*
X606000Y630174D01*
X606000Y639826D02*
X606000Y649321D01*
X606000Y696976D02*
X606000Y738124D01*
X606000Y753364D02*
X606000Y924560D01*
X612000Y-9906D02*
X612000Y-52070D01*
X612000Y-254D02*
X612000Y25534D01*
X612000Y35186D02*
X612000Y100236D01*
X612000Y198390D02*
X612000Y199644D01*
X612000Y227076D02*
X612000Y270736D01*
X612000Y485648D02*
X612000Y485795D01*
X612000Y527684D02*
X612000Y542544D01*
X612000Y552196D02*
X612000Y609854D01*
X612000Y619506D02*
X612000Y630174D01*
X612000Y639826D02*
X612000Y648336D01*
X612000Y692765D02*
X612000Y738124D01*
X612000Y753364D02*
X612000Y924560D01*
X618000Y-9906D02*
X618000Y-52070D01*
X618000Y-254D02*
X618000Y25534D01*
X618000Y35186D02*
X618000Y100236D01*
X618000Y199309D02*
X618000Y199644D01*
X618000Y221945D02*
X618000Y464820D01*
X618000Y485648D02*
X618000Y499835D01*
X618000Y523785D02*
X618000Y542544D01*
X618000Y552196D02*
X618000Y609854D01*
X618000Y619506D02*
X618000Y630174D01*
X618000Y639826D02*
X618000Y652235D01*
X618000Y676185D02*
X618000Y738124D01*
X618000Y753364D02*
X618000Y924560D01*
X624000Y-9906D02*
X624000Y-52070D01*
X624000Y-254D02*
X624000Y25534D01*
X624000Y35186D02*
X624000Y77437D01*
X624000Y97823D02*
X624000Y100236D01*
X624000Y125824D02*
X624000Y199644D01*
X624000Y209296D02*
X624000Y464820D01*
X624000Y485648D02*
X624000Y542544D01*
X624000Y552196D02*
X624000Y609854D01*
X624000Y619506D02*
X624000Y630174D01*
X624000Y639826D02*
X624000Y736965D01*
X624000Y753364D02*
X624000Y924560D01*
X630000Y-9906D02*
X630000Y-52070D01*
X630000Y-254D02*
X630000Y25534D01*
X630000Y35186D02*
X630000Y70795D01*
X630000Y125824D02*
X630000Y199644D01*
X630000Y209296D02*
X630000Y464820D01*
X630000Y485648D02*
X630000Y497705D01*
X630000Y525915D02*
X630000Y542544D01*
X630000Y552196D02*
X630000Y609854D01*
X630000Y619506D02*
X630000Y630174D01*
X630000Y639826D02*
X630000Y650105D01*
X630000Y678315D02*
X630000Y730965D01*
X630000Y752518D02*
X630000Y924560D01*
X636000Y-9906D02*
X636000Y-52070D01*
X636000Y-254D02*
X636000Y25534D01*
X636000Y35186D02*
X636000Y68274D01*
X636000Y132358D02*
X636000Y199644D01*
X636000Y209296D02*
X636000Y408469D01*
X636000Y419631D02*
X636000Y464820D01*
X636000Y527684D02*
X636000Y542544D01*
X636000Y552196D02*
X636000Y609854D01*
X636000Y619506D02*
X636000Y630174D01*
X636000Y639826D02*
X636000Y648336D01*
X636000Y746518D02*
X636000Y924560D01*
X642000Y-9906D02*
X642000Y-52070D01*
X642000Y-254D02*
X642000Y25534D01*
X642000Y35186D02*
X642000Y67700D01*
X642000Y136592D02*
X642000Y199644D01*
X642000Y209296D02*
X642000Y397412D01*
X642000Y430688D02*
X642000Y464820D01*
X642000Y480060D02*
X642000Y498435D01*
X642000Y525185D02*
X642000Y542544D01*
X642000Y552196D02*
X642000Y609854D01*
X642000Y619506D02*
X642000Y630174D01*
X642000Y639826D02*
X642000Y650835D01*
X642000Y677585D02*
X642000Y691025D01*
X642000Y740518D02*
X642000Y779172D01*
X642000Y811548D02*
X642000Y924560D01*
X648000Y-9906D02*
X648000Y-52070D01*
X648000Y-254D02*
X648000Y25534D01*
X648000Y35186D02*
X648000Y68812D01*
X648000Y138771D02*
X648000Y199644D01*
X648000Y209296D02*
X648000Y392211D01*
X648000Y435889D02*
X648000Y464820D01*
X648000Y480060D02*
X648000Y542544D01*
X648000Y552196D02*
X648000Y609854D01*
X648000Y619506D02*
X648000Y630174D01*
X648000Y639826D02*
X648000Y686054D01*
X648000Y698675D02*
X648000Y773708D01*
X648000Y817013D02*
X648000Y924560D01*
X654000Y-9906D02*
X654000Y-52070D01*
X654000Y-254D02*
X654000Y25534D01*
X654000Y35186D02*
X654000Y72095D01*
X654000Y139460D02*
X654000Y199644D01*
X654000Y209296D02*
X654000Y389726D01*
X654000Y438374D02*
X654000Y464820D01*
X654000Y481755D02*
X654000Y499105D01*
X654000Y524515D02*
X654000Y542544D01*
X654000Y552196D02*
X654000Y609854D01*
X654000Y619506D02*
X654000Y630174D01*
X654000Y639826D02*
X654000Y651505D01*
X654000Y676915D02*
X654000Y686054D01*
X654000Y695706D02*
X654000Y771222D01*
X654000Y819498D02*
X654000Y924560D01*
X660000Y-9906D02*
X660000Y-52070D01*
X660000Y-254D02*
X660000Y23466D01*
X660000Y37254D02*
X660000Y37930D01*
X660000Y45060D02*
X660000Y46620D01*
X660000Y53750D02*
X660000Y80576D01*
X660000Y138798D02*
X660000Y199644D01*
X660000Y209296D02*
X660000Y388956D01*
X660000Y439144D02*
X660000Y464820D01*
X660000Y527684D02*
X660000Y542544D01*
X660000Y552196D02*
X660000Y609854D01*
X660000Y619506D02*
X660000Y630174D01*
X660000Y639826D02*
X660000Y648336D01*
X660000Y694295D02*
X660000Y770266D01*
X660000Y820454D02*
X660000Y924560D01*
X666000Y-9906D02*
X666000Y-52070D01*
X666000Y-254D02*
X666000Y13152D01*
X666000Y63810D02*
X666000Y69063D01*
X666000Y136649D02*
X666000Y199644D01*
X666000Y209296D02*
X666000Y389022D01*
X666000Y439078D02*
X666000Y464820D01*
X666000Y474472D02*
X666000Y480105D01*
X666000Y526396D02*
X666000Y542544D01*
X666000Y552196D02*
X666000Y609854D01*
X666000Y619506D02*
X666000Y630174D01*
X666000Y639826D02*
X666000Y649624D01*
X666000Y688295D02*
X666000Y770266D01*
X666000Y820454D02*
X666000Y924560D01*
X672000Y-9906D02*
X672000Y-52070D01*
X672000Y-254D02*
X672000Y10287D01*
X672000Y132458D02*
X672000Y199644D01*
X672000Y209296D02*
X672000Y335221D01*
X672000Y352879D02*
X672000Y391507D01*
X672000Y436593D02*
X672000Y464820D01*
X672000Y475625D02*
X672000Y542544D01*
X672000Y552196D02*
X672000Y609854D01*
X672000Y619506D02*
X672000Y630174D01*
X672000Y639826D02*
X672000Y716981D01*
X672000Y733739D02*
X672000Y772631D01*
X672000Y818089D02*
X672000Y924560D01*
X678000Y-9906D02*
X678000Y-52070D01*
X678000Y-254D02*
X678000Y10287D01*
X678000Y124407D02*
X678000Y199644D01*
X678000Y209296D02*
X678000Y332256D01*
X678000Y355844D02*
X678000Y395712D01*
X678000Y432388D02*
X678000Y467975D01*
X678000Y481625D02*
X678000Y501243D01*
X678000Y522377D02*
X678000Y542544D01*
X678000Y552196D02*
X678000Y609854D01*
X678000Y619506D02*
X678000Y630174D01*
X678000Y639826D02*
X678000Y653643D01*
X678000Y674777D02*
X678000Y713566D01*
X678000Y737154D02*
X678000Y776572D01*
X678000Y814148D02*
X678000Y924560D01*
X684000Y-9906D02*
X684000Y-52070D01*
X684000Y-254D02*
X684000Y10287D01*
X684000Y118503D02*
X684000Y199644D01*
X684000Y209296D02*
X684000Y333003D01*
X684000Y355097D02*
X684000Y404365D01*
X684000Y423735D02*
X684000Y473975D01*
X684000Y527444D02*
X684000Y542544D01*
X684000Y552196D02*
X684000Y609854D01*
X684000Y619506D02*
X684000Y630174D01*
X684000Y639826D02*
X684000Y648576D01*
X684000Y679844D02*
X684000Y714127D01*
X684000Y736593D02*
X684000Y784589D01*
X684000Y806131D02*
X684000Y924560D01*
X690000Y-9906D02*
X690000Y-52070D01*
X690000Y-254D02*
X690000Y10287D01*
X690000Y119560D02*
X690000Y199644D01*
X690000Y209296D02*
X690000Y337735D01*
X690000Y350365D02*
X690000Y479951D01*
X690000Y526976D02*
X690000Y542544D01*
X690000Y552196D02*
X690000Y609854D01*
X690000Y619506D02*
X690000Y630174D01*
X690000Y639826D02*
X690000Y649044D01*
X690000Y679376D02*
X690000Y718381D01*
X690000Y732339D02*
X690000Y924560D01*
X696000Y-9906D02*
X696000Y-52070D01*
X696000Y-254D02*
X696000Y10287D01*
X696000Y119560D02*
X696000Y122896D01*
X696000Y153964D02*
X696000Y199644D01*
X696000Y209296D02*
X696000Y336221D01*
X696000Y351879D02*
X696000Y542544D01*
X696000Y552196D02*
X696000Y609854D01*
X696000Y619506D02*
X696000Y630174D01*
X696000Y641865D02*
X696000Y717981D01*
X696000Y732739D02*
X696000Y924560D01*
X702000Y-9906D02*
X702000Y-52070D01*
X702000Y-254D02*
X702000Y10287D01*
X702000Y159971D02*
X702000Y199644D01*
X702000Y209296D02*
X702000Y332465D01*
X702000Y383653D02*
X702000Y537045D01*
X702000Y550695D02*
X702000Y609854D01*
X702000Y619506D02*
X702000Y634215D01*
X702000Y644906D02*
X702000Y713961D01*
X702000Y750735D02*
X702000Y924560D01*
X708000Y-9906D02*
X708000Y-52070D01*
X708000Y-254D02*
X708000Y10287D01*
X708000Y163233D02*
X708000Y199644D01*
X708000Y209296D02*
X708000Y332589D01*
X708000Y382070D02*
X708000Y496755D01*
X708000Y544695D02*
X708000Y609854D01*
X708000Y619506D02*
X708000Y635254D01*
X708000Y644906D02*
X708000Y649155D01*
X708000Y679265D02*
X708000Y713713D01*
X708000Y756666D02*
X708000Y924560D01*
X714000Y-9906D02*
X714000Y-52070D01*
X714000Y-254D02*
X714000Y10874D01*
X714000Y110936D02*
X714000Y112019D01*
X714000Y164841D02*
X714000Y199644D01*
X714000Y209296D02*
X714000Y336521D01*
X714000Y351579D02*
X714000Y496064D01*
X714000Y538695D02*
X714000Y541462D01*
X714000Y558358D02*
X714000Y566862D01*
X714000Y583758D02*
X714000Y592262D01*
X714000Y609158D02*
X714000Y609854D01*
X714000Y634558D02*
X714000Y635254D01*
X714000Y644906D02*
X714000Y648464D01*
X714000Y679956D02*
X714000Y717381D01*
X714000Y733339D02*
X714000Y747014D01*
X714000Y756666D02*
X714000Y924560D01*
X720000Y-9455D02*
X720000Y-52070D01*
X720000Y61856D02*
X720000Y72008D01*
X720000Y103252D02*
X720000Y112000D01*
X720000Y164860D02*
X720000Y199644D01*
X720000Y209296D02*
X720000Y335814D01*
X720000Y342780D02*
X720000Y345320D01*
X720000Y352286D02*
X720000Y500591D01*
X720000Y523029D02*
X720000Y540576D01*
X720000Y559244D02*
X720000Y565976D01*
X720000Y584644D02*
X720000Y591376D01*
X720000Y644906D02*
X720000Y652991D01*
X720000Y675429D02*
X720000Y717743D01*
X720000Y724090D02*
X720000Y726630D01*
X720000Y732977D02*
X720000Y747014D01*
X720000Y756666D02*
X720000Y924560D01*
X726000Y-8925D02*
X726000Y-52070D01*
X726000Y37254D02*
X726000Y38946D01*
X726000Y52734D02*
X726000Y76471D01*
X726000Y98789D02*
X726000Y113332D01*
X726000Y163528D02*
X726000Y199644D01*
X726000Y209296D02*
X726000Y331832D01*
X726000Y342780D02*
X726000Y345320D01*
X726000Y356268D02*
X726000Y403641D01*
X726000Y424459D02*
X726000Y540576D01*
X726000Y559244D02*
X726000Y565976D01*
X726000Y584644D02*
X726000Y591376D01*
X726000Y644906D02*
X726000Y713288D01*
X726000Y724090D02*
X726000Y726630D01*
X726000Y737432D02*
X726000Y747014D01*
X726000Y756666D02*
X726000Y786037D01*
X726000Y804683D02*
X726000Y924560D01*
X732000Y-9906D02*
X732000Y-52070D01*
X732000Y-254D02*
X732000Y41014D01*
X732000Y50666D02*
X732000Y70594D01*
X732000Y104666D02*
X732000Y116254D01*
X732000Y160606D02*
X732000Y199644D01*
X732000Y209296D02*
X732000Y331421D01*
X732000Y342780D02*
X732000Y345320D01*
X732000Y356679D02*
X732000Y395412D01*
X732000Y432688D02*
X732000Y496321D01*
X732000Y511080D02*
X732000Y512540D01*
X732000Y527299D02*
X732000Y540576D01*
X732000Y559244D02*
X732000Y565976D01*
X732000Y584644D02*
X732000Y591376D01*
X732000Y644906D02*
X732000Y649735D01*
X732000Y678685D02*
X732000Y712660D01*
X732000Y724090D02*
X732000Y726630D01*
X732000Y738060D02*
X732000Y747014D01*
X732000Y756666D02*
X732000Y777172D01*
X732000Y813548D02*
X732000Y924560D01*
X738000Y-9906D02*
X738000Y-52070D01*
X738000Y-254D02*
X738000Y41014D01*
X738000Y50666D02*
X738000Y68108D01*
X738000Y107152D02*
X738000Y121502D01*
X738000Y155358D02*
X738000Y199644D01*
X738000Y209296D02*
X738000Y334137D01*
X738000Y342780D02*
X738000Y345320D01*
X738000Y353963D02*
X738000Y391383D01*
X738000Y436717D02*
X738000Y494920D01*
X738000Y511080D02*
X738000Y512540D01*
X738000Y528700D02*
X738000Y543635D01*
X738000Y556185D02*
X738000Y569035D01*
X738000Y581585D02*
X738000Y594435D01*
X738000Y606985D02*
X738000Y609854D01*
X738000Y619506D02*
X738000Y619835D01*
X738000Y632385D02*
X738000Y635254D01*
X738000Y644906D02*
X738000Y648336D01*
X738000Y680084D02*
X738000Y715120D01*
X738000Y724090D02*
X738000Y726630D01*
X738000Y735600D02*
X738000Y747014D01*
X738000Y756666D02*
X738000Y772879D01*
X738000Y817841D02*
X738000Y924560D01*
X744000Y-9906D02*
X744000Y-52070D01*
X744000Y-254D02*
X744000Y41014D01*
X744000Y50666D02*
X744000Y67700D01*
X744000Y107560D02*
X744000Y124620D01*
X744000Y152240D02*
X744000Y199644D01*
X744000Y209296D02*
X744000Y388956D01*
X744000Y439144D02*
X744000Y497398D01*
X744000Y511080D02*
X744000Y512540D01*
X744000Y526222D02*
X744000Y609854D01*
X744000Y619506D02*
X744000Y635254D01*
X744000Y644906D02*
X744000Y651235D01*
X744000Y677185D02*
X744000Y747014D01*
X744000Y756666D02*
X744000Y770394D01*
X744000Y820326D02*
X744000Y924560D01*
X750000Y-9906D02*
X750000Y-52070D01*
X750000Y-254D02*
X750000Y41014D01*
X750000Y50666D02*
X750000Y68978D01*
X750000Y106282D02*
X750000Y124620D01*
X750000Y152240D02*
X750000Y199644D01*
X750000Y209296D02*
X750000Y388956D01*
X750000Y439144D02*
X750000Y609854D01*
X750000Y619506D02*
X750000Y635254D01*
X750000Y644906D02*
X750000Y747014D01*
X750000Y756666D02*
X750000Y770266D01*
X750000Y820454D02*
X750000Y924560D01*
X756000Y-9906D02*
X756000Y-52070D01*
X756000Y-254D02*
X756000Y41014D01*
X756000Y50666D02*
X756000Y72495D01*
X756000Y102765D02*
X756000Y137160D01*
X756000Y139700D02*
X756000Y199644D01*
X756000Y209296D02*
X756000Y389850D01*
X756000Y438250D02*
X756000Y498705D01*
X756000Y524915D02*
X756000Y609854D01*
X756000Y619506D02*
X756000Y635254D01*
X756000Y644906D02*
X756000Y651105D01*
X756000Y677315D02*
X756000Y747014D01*
X756000Y756666D02*
X756000Y770974D01*
X756000Y819746D02*
X756000Y924560D01*
X762000Y-9906D02*
X762000Y-52070D01*
X762000Y-254D02*
X762000Y41014D01*
X762000Y50666D02*
X762000Y81541D01*
X762000Y93719D02*
X762000Y124620D01*
X762000Y137160D02*
X762000Y139700D01*
X762000Y152240D02*
X762000Y199644D01*
X762000Y209296D02*
X762000Y392335D01*
X762000Y435765D02*
X762000Y495936D01*
X762000Y527684D02*
X762000Y609854D01*
X762000Y619506D02*
X762000Y635254D01*
X762000Y644906D02*
X762000Y648336D01*
X762000Y680084D02*
X762000Y747014D01*
X762000Y756666D02*
X762000Y773459D01*
X762000Y817261D02*
X762000Y924560D01*
X768000Y-9906D02*
X768000Y-52070D01*
X768000Y-254D02*
X768000Y41014D01*
X768000Y50666D02*
X768000Y124620D01*
X768000Y137160D02*
X768000Y139700D01*
X768000Y152240D02*
X768000Y199644D01*
X768000Y209296D02*
X768000Y397712D01*
X768000Y430388D02*
X768000Y497435D01*
X768000Y526185D02*
X768000Y609854D01*
X768000Y619506D02*
X768000Y635254D01*
X768000Y644906D02*
X768000Y649835D01*
X768000Y678585D02*
X768000Y747014D01*
X768000Y756666D02*
X768000Y778572D01*
X768000Y812148D02*
X768000Y924560D01*
X774000Y-9906D02*
X774000Y-52070D01*
X774000Y-254D02*
X774000Y40865D01*
X774000Y50666D02*
X774000Y199644D01*
X774000Y209296D02*
X774000Y506984D01*
X774000Y516636D02*
X774000Y609854D01*
X774000Y619506D02*
X774000Y635254D01*
X774000Y644906D02*
X774000Y747014D01*
X774000Y756666D02*
X774000Y789417D01*
X774000Y801303D02*
X774000Y924560D01*
X780000Y-9906D02*
X780000Y-52070D01*
X780000Y-254D02*
X780000Y34865D01*
X780000Y48515D02*
X780000Y199644D01*
X780000Y209296D02*
X780000Y506984D01*
X780000Y516636D02*
X780000Y609854D01*
X780000Y619506D02*
X780000Y635254D01*
X780000Y644906D02*
X780000Y744795D01*
X780000Y756666D02*
X780000Y924560D01*
X786000Y-9906D02*
X786000Y-52070D01*
X786000Y-254D02*
X786000Y28865D01*
X786000Y42515D02*
X786000Y199644D01*
X786000Y209296D02*
X786000Y506984D01*
X786000Y516636D02*
X786000Y609854D01*
X786000Y619506D02*
X786000Y635254D01*
X786000Y752445D02*
X786000Y924560D01*
X792000Y-9906D02*
X792000Y-52070D01*
X792000Y-254D02*
X792000Y26804D01*
X792000Y36515D02*
X792000Y199644D01*
X792000Y209296D02*
X792000Y506984D01*
X792000Y516636D02*
X792000Y609854D01*
X792000Y619506D02*
X792000Y639125D01*
X792000Y746445D02*
X792000Y924560D01*
X798000Y-9906D02*
X798000Y-52070D01*
X798000Y-254D02*
X798000Y26804D01*
X798000Y36456D02*
X798000Y199644D01*
X798000Y209296D02*
X798000Y505815D01*
X798000Y516636D02*
X798000Y609854D01*
X798000Y619506D02*
X798000Y924560D01*
X804000Y-9906D02*
X804000Y-52070D01*
X804000Y-254D02*
X804000Y26804D01*
X804000Y36456D02*
X804000Y101506D01*
X804000Y127094D02*
X804000Y198825D01*
X804000Y209296D02*
X804000Y499815D01*
X804000Y513465D02*
X804000Y609854D01*
X804000Y619506D02*
X804000Y924560D01*
X810000Y-9906D02*
X810000Y-52070D01*
X810000Y-254D02*
X810000Y26804D01*
X810000Y36456D02*
X810000Y101506D01*
X810000Y127094D02*
X810000Y192825D01*
X810000Y206475D02*
X810000Y493815D01*
X810000Y507465D02*
X810000Y609854D01*
X810000Y619506D02*
X810000Y924560D01*
X816000Y-9906D02*
X816000Y-52070D01*
X816000Y-254D02*
X816000Y26804D01*
X816000Y36456D02*
X816000Y101506D01*
X816000Y200475D02*
X816000Y323861D01*
X816000Y501465D02*
X816000Y609854D01*
X816000Y619506D02*
X816000Y924560D01*
X822000Y-9906D02*
X822000Y-52070D01*
X822000Y-254D02*
X822000Y26804D01*
X822000Y36456D02*
X822000Y101506D01*
X822000Y127094D02*
X822000Y325020D01*
X822000Y503705D02*
X822000Y609854D01*
X822000Y619506D02*
X822000Y924560D01*
X828000Y-9906D02*
X828000Y-52070D01*
X828000Y-254D02*
X828000Y26804D01*
X828000Y36456D02*
X828000Y74725D01*
X828000Y127094D02*
X828000Y496055D01*
X828000Y509705D02*
X828000Y609854D01*
X828000Y619506D02*
X828000Y924560D01*
X834000Y-9906D02*
X834000Y-52070D01*
X834000Y-254D02*
X834000Y26804D01*
X834000Y36456D02*
X834000Y70646D01*
X834000Y130968D02*
X834000Y502055D01*
X834000Y515366D02*
X834000Y609854D01*
X834000Y619506D02*
X834000Y924560D01*
X840000Y-9906D02*
X840000Y-52070D01*
X840000Y-254D02*
X840000Y26804D01*
X840000Y36456D02*
X840000Y68970D01*
X840000Y136326D02*
X840000Y505714D01*
X840000Y515366D02*
X840000Y609854D01*
X840000Y619506D02*
X840000Y924560D01*
X846000Y-9906D02*
X846000Y-52070D01*
X846000Y-254D02*
X846000Y26804D01*
X846000Y36456D02*
X846000Y68981D01*
X846000Y139329D02*
X846000Y505714D01*
X846000Y515366D02*
X846000Y609854D01*
X846000Y619506D02*
X846000Y789539D01*
X846000Y800701D02*
X846000Y924560D01*
X852000Y-9906D02*
X852000Y-52070D01*
X852000Y-254D02*
X852000Y26804D01*
X852000Y36456D02*
X852000Y71466D01*
X852000Y140730D02*
X852000Y505714D01*
X852000Y515366D02*
X852000Y609854D01*
X852000Y619506D02*
X852000Y778482D01*
X852000Y811758D02*
X852000Y924560D01*
X858000Y-9906D02*
X858000Y-52070D01*
X858000Y-254D02*
X858000Y25659D01*
X858000Y37601D02*
X858000Y39812D01*
X858000Y46330D02*
X858000Y47890D01*
X858000Y54409D02*
X858000Y76705D01*
X858000Y140730D02*
X858000Y399875D01*
X858000Y428225D02*
X858000Y505714D01*
X858000Y515366D02*
X858000Y609854D01*
X858000Y619506D02*
X858000Y773281D01*
X858000Y816959D02*
X858000Y924560D01*
X864000Y-9906D02*
X864000Y-52070D01*
X864000Y-254D02*
X864000Y20563D01*
X864000Y58939D02*
X864000Y74940D01*
X864000Y139173D02*
X864000Y393852D01*
X864000Y434248D02*
X864000Y505714D01*
X864000Y515366D02*
X864000Y609854D01*
X864000Y619506D02*
X864000Y770796D01*
X864000Y819444D02*
X864000Y924560D01*
X870000Y-9906D02*
X870000Y-52070D01*
X870000Y-254D02*
X870000Y12962D01*
X870000Y66540D02*
X870000Y66554D01*
X870000Y135991D02*
X870000Y390737D01*
X870000Y437364D02*
X870000Y505714D01*
X870000Y515366D02*
X870000Y609854D01*
X870000Y619506D02*
X870000Y770026D01*
X870000Y820214D02*
X870000Y924560D01*
X876000Y-9906D02*
X876000Y-52070D01*
X876000Y-254D02*
X876000Y11557D01*
X876000Y130285D02*
X876000Y388956D01*
X876000Y439144D02*
X876000Y505714D01*
X876000Y515366D02*
X876000Y609854D01*
X876000Y619506D02*
X876000Y770092D01*
X876000Y820148D02*
X876000Y924560D01*
X882000Y-9906D02*
X882000Y-52070D01*
X882000Y-254D02*
X882000Y11557D01*
X882000Y119060D02*
X882000Y388956D01*
X882000Y439144D02*
X882000Y505714D01*
X882000Y515366D02*
X882000Y609854D01*
X882000Y619506D02*
X882000Y716291D01*
X882000Y733949D02*
X882000Y772577D01*
X882000Y817663D02*
X882000Y924560D01*
X888000Y-9906D02*
X888000Y-52070D01*
X888000Y-254D02*
X888000Y11557D01*
X888000Y120668D02*
X888000Y338073D01*
X888000Y350027D02*
X888000Y390496D01*
X888000Y437604D02*
X888000Y505714D01*
X888000Y515366D02*
X888000Y609854D01*
X888000Y619506D02*
X888000Y713326D01*
X888000Y744965D02*
X888000Y776782D01*
X888000Y813458D02*
X888000Y924560D01*
X894000Y-9906D02*
X894000Y-52070D01*
X894000Y-254D02*
X894000Y11557D01*
X894000Y120830D02*
X894000Y128773D01*
X894000Y150627D02*
X894000Y333061D01*
X894000Y355039D02*
X894000Y393272D01*
X894000Y434828D02*
X894000Y505714D01*
X894000Y515366D02*
X894000Y609854D01*
X894000Y619506D02*
X894000Y714073D01*
X894000Y750965D02*
X894000Y785435D01*
X894000Y804805D02*
X894000Y924560D01*
X900000Y-9906D02*
X900000Y-52070D01*
X900000Y-254D02*
X900000Y11557D01*
X900000Y120030D02*
X900000Y120532D01*
X900000Y158868D02*
X900000Y332256D01*
X900000Y355844D02*
X900000Y399272D01*
X900000Y428828D02*
X900000Y505714D01*
X900000Y515366D02*
X900000Y609854D01*
X900000Y619506D02*
X900000Y718805D01*
X900000Y731435D02*
X900000Y743315D01*
X900000Y754126D02*
X900000Y924560D01*
X906000Y-9906D02*
X906000Y-52070D01*
X906000Y-254D02*
X906000Y11557D01*
X906000Y163169D02*
X906000Y335081D01*
X906000Y353019D02*
X906000Y505714D01*
X906000Y515366D02*
X906000Y609854D01*
X906000Y621995D02*
X906000Y717291D01*
X906000Y732949D02*
X906000Y744474D01*
X906000Y754126D02*
X906000Y924560D01*
X912000Y-9906D02*
X912000Y-52070D01*
X912000Y-254D02*
X912000Y11557D01*
X912000Y165398D02*
X912000Y340487D01*
X912000Y347613D02*
X912000Y505714D01*
X912000Y515366D02*
X912000Y614345D01*
X912000Y736705D02*
X912000Y744474D01*
X912000Y754126D02*
X912000Y924560D01*
X918000Y-8305D02*
X918000Y-52070D01*
X918000Y5345D02*
X918000Y13001D01*
X918000Y66501D02*
X918000Y68934D01*
X918000Y108866D02*
X918000Y113270D01*
X918000Y166130D02*
X918000Y333475D01*
X918000Y354625D02*
X918000Y505714D01*
X918000Y515366D02*
X918000Y620345D01*
X918000Y736581D02*
X918000Y744474D01*
X918000Y754126D02*
X918000Y924560D01*
X924000Y-2305D02*
X924000Y-52070D01*
X924000Y58712D02*
X924000Y81935D01*
X924000Y95865D02*
X924000Y113889D01*
X924000Y165511D02*
X924000Y332256D01*
X924000Y355844D02*
X924000Y505714D01*
X924000Y515366D02*
X924000Y717591D01*
X924000Y732649D02*
X924000Y744474D01*
X924000Y754126D02*
X924000Y924560D01*
X930000Y-38478D02*
X930000Y-52070D01*
X930000Y-7242D02*
X930000Y25499D01*
X930000Y37761D02*
X930000Y40979D01*
X930000Y53241D02*
X930000Y74325D01*
X930000Y103475D02*
X930000Y115988D01*
X930000Y163412D02*
X930000Y334081D01*
X930000Y354019D02*
X930000Y505714D01*
X930000Y517725D02*
X930000Y716884D01*
X930000Y723850D02*
X930000Y726390D01*
X930000Y733356D02*
X930000Y744474D01*
X930000Y754126D02*
X930000Y879732D01*
X930000Y910968D02*
X930000Y924560D01*
X936000Y-46388D02*
X936000Y-52070D01*
X936000Y668D02*
X936000Y70480D01*
X936000Y107320D02*
X936000Y120112D01*
X936000Y159288D02*
X936000Y340421D01*
X936000Y342780D02*
X936000Y345320D01*
X936000Y347679D02*
X936000Y510075D01*
X936000Y523725D02*
X936000Y712902D01*
X936000Y723850D02*
X936000Y726390D01*
X936000Y737338D02*
X936000Y744474D01*
X936000Y754126D02*
X936000Y784711D01*
X936000Y805529D02*
X936000Y871822D01*
X936000Y918878D02*
X936000Y924560D01*
X942000Y-50999D02*
X942000Y-52070D01*
X942000Y5279D02*
X942000Y68970D01*
X942000Y108830D02*
X942000Y125986D01*
X942000Y153414D02*
X942000Y332878D01*
X942000Y342780D02*
X942000Y345320D01*
X942000Y355222D02*
X942000Y516075D01*
X942000Y529725D02*
X942000Y712491D01*
X942000Y723850D02*
X942000Y726390D01*
X942000Y737749D02*
X942000Y744474D01*
X942000Y754126D02*
X942000Y776482D01*
X942000Y813758D02*
X942000Y867211D01*
X942000Y923489D02*
X942000Y924560D01*
X948000Y69146D02*
X948000Y8184D01*
X948000Y108654D02*
X948000Y125890D01*
X948000Y153510D02*
X948000Y342780D01*
X948000Y345320D02*
X948000Y397852D01*
X948000Y430248D02*
X948000Y522075D01*
X948000Y535725D02*
X948000Y715207D01*
X948000Y723850D02*
X948000Y726390D01*
X948000Y735033D02*
X948000Y744474D01*
X948000Y754126D02*
X948000Y772453D01*
X948000Y817787D02*
X948000Y864306D01*
X954000Y71632D02*
X954000Y9791D01*
X954000Y106168D02*
X954000Y125890D01*
X954000Y153510D02*
X954000Y332582D01*
X954000Y342780D02*
X954000Y345320D01*
X954000Y355518D02*
X954000Y392393D01*
X954000Y435707D02*
X954000Y528075D01*
X954000Y541725D02*
X954000Y740975D01*
X954000Y754126D02*
X954000Y770026D01*
X954000Y820214D02*
X954000Y862699D01*
X960000Y77105D02*
X960000Y9934D01*
X960000Y100695D02*
X960000Y125890D01*
X960000Y138430D02*
X960000Y140970D01*
X960000Y153510D02*
X960000Y338816D01*
X960000Y342780D02*
X960000Y345320D01*
X960000Y349284D02*
X960000Y389908D01*
X960000Y438192D02*
X960000Y534075D01*
X960000Y547725D02*
X960000Y734975D01*
X960000Y748625D02*
X960000Y770026D01*
X960000Y820214D02*
X960000Y862556D01*
X966000Y125890D02*
X966000Y9175D01*
X966000Y138430D02*
X966000Y140970D01*
X966000Y153510D02*
X966000Y388956D01*
X966000Y439144D02*
X966000Y540075D01*
X966000Y742625D02*
X966000Y770920D01*
X966000Y819320D02*
X966000Y863315D01*
X972000Y126536D02*
X972000Y7415D01*
X972000Y138430D02*
X972000Y140970D01*
X972000Y152864D02*
X972000Y388956D01*
X972000Y439144D02*
X972000Y773405D01*
X972000Y816835D02*
X972000Y865075D01*
X978000Y391325D02*
X978000Y3951D01*
X978000Y436775D02*
X978000Y778782D01*
X978000Y811458D02*
X978000Y868539D01*
X984000Y395272D02*
X984000Y-1632D01*
X984000Y432828D02*
X984000Y874122D01*
D19*
X226060Y15240D03*
X166370Y15240D03*
X386080Y16510D03*
X801370Y15240D03*
X589280Y19050D03*
D18*
X762635Y511810D02*
X798830Y511810D01*
X817880Y492760D02*
X817880Y330200D01*
D19*
X817880Y330200D03*
D18*
X817880Y492760D02*
X798830Y511810D01*
X817880Y492760D02*
X835660Y510540D01*
X966470Y547370D02*
X966470Y735330D01*
X952500Y749300D01*
X890270Y725540D02*
X889850Y725120D01*
X929640Y510540D02*
X835660Y510540D01*
X929640Y510540D02*
X966470Y547370D01*
X952500Y749300D02*
X899160Y749300D01*
X890270Y740410D01*
X890270Y725540D01*
X661670Y685800D02*
X661035Y664210D01*
X661670Y685800D02*
X656590Y690880D01*
X648970Y690880D01*
X642620Y697230D01*
X642620Y733073D02*
X627155Y748538D01*
X286258Y748538D02*
X280670Y742950D01*
X76650Y737050D02*
X76650Y724810D01*
X642620Y733073D02*
X642620Y697230D01*
X627155Y748538D02*
X286258Y748538D01*
X280670Y742950D02*
X82550Y742950D01*
X76650Y737050D01*
X636270Y731520D02*
X635635Y664210D01*
X286200Y724570D02*
X286200Y737050D01*
X624840Y742950D02*
X636270Y731520D01*
X624840Y742950D02*
X292100Y742950D01*
X286200Y737050D01*
X610870Y687070D02*
X610235Y664210D01*
X495750Y698050D02*
X495750Y725600D01*
X605790Y692150D02*
X610870Y687070D01*
X605790Y692150D02*
X501650Y692150D01*
X495750Y698050D01*
X584835Y664210D02*
X585470Y646430D01*
X596900Y635000D02*
X695960Y635000D01*
X701040Y640080D01*
X786130Y640080D02*
X788670Y642620D01*
X788670Y742950D01*
X705300Y747210D02*
X705300Y725360D01*
X596900Y635000D02*
X585470Y646430D01*
X701040Y640080D02*
X786130Y640080D01*
X788670Y742950D02*
X779780Y751840D01*
X709930Y751840D01*
X705300Y747210D01*
X559435Y664210D02*
X560070Y631190D01*
X914850Y624020D02*
X914850Y725120D01*
X576580Y614680D02*
X560070Y631190D01*
X576580Y614680D02*
X905510Y614680D01*
X914850Y624020D01*
D19*
X157282Y375920D03*
D18*
X157282Y194508D01*
X163830Y187960D02*
X181610Y187960D01*
X191770Y177800D01*
X191770Y1270D02*
X184150Y-6350D01*
X78740Y-6350D01*
X69215Y3175D02*
X69215Y32900D01*
X163830Y187960D02*
X157282Y194508D01*
X191770Y177800D02*
X191770Y1270D01*
X78740Y-6350D02*
X69215Y3175D01*
X69215Y32900D02*
X75330Y32900D01*
D19*
X176530Y384810D03*
D18*
X175260Y383540D01*
X77470Y379730D02*
X77470Y344050D01*
X81280Y383540D02*
X175260Y383540D01*
X81280Y383540D02*
X77470Y379730D01*
D19*
X166370Y375920D03*
D18*
X166370Y360680D01*
X170180Y356870D01*
X222250Y356870D01*
X232410Y367030D02*
X280670Y367030D01*
X285750Y361950D01*
X285750Y344050D01*
X232410Y367030D02*
X222250Y356870D01*
D19*
X495300Y377190D03*
D18*
X495300Y345320D01*
D19*
X703580Y377190D03*
D18*
X703580Y345320D01*
X704850Y344050D01*
X687070Y483870D02*
X686435Y511810D01*
X613918Y469646D02*
X607822Y463550D01*
X607822Y278638D01*
X609600Y276860D01*
D19*
X609600Y276860D03*
X580390Y214630D03*
D18*
X575310Y209550D01*
X219710Y208280D02*
X170180Y208280D01*
D19*
X170180Y208280D03*
X24130Y134620D03*
D18*
X24130Y114350D01*
X24080Y114300D01*
X672846Y469646D02*
X687070Y483870D01*
X672846Y469646D02*
X613918Y469646D01*
X575310Y209550D02*
X220980Y209550D01*
X219710Y208280D01*
X661670Y482600D02*
X661035Y511810D01*
X607568Y475234D02*
X602234Y469900D01*
X602234Y252476D01*
X604520Y250190D01*
D19*
X604520Y250190D03*
X588010Y207010D03*
D18*
X584200Y203200D01*
X220930Y187910D02*
X220930Y114300D01*
X654304Y475234D02*
X661670Y482600D01*
X654304Y475234D02*
X607568Y475234D01*
X584200Y203200D02*
X236220Y203200D01*
X220930Y187910D01*
X636270Y483870D02*
X635635Y511810D01*
X599948Y480822D02*
X596646Y477520D01*
X596646Y232664D02*
X599440Y229870D01*
D19*
X599440Y229870D03*
X591820Y195580D03*
D18*
X589280Y193040D01*
X419050Y175210D02*
X419050Y114300D01*
X633222Y480822D02*
X636270Y483870D01*
X633222Y480822D02*
X599948Y480822D01*
X596646Y477520D02*
X596646Y232664D01*
X589280Y193040D02*
X436880Y193040D01*
X419050Y175210D01*
X615900Y192990D02*
X615900Y113030D01*
X615900Y192990D02*
X615950Y193040D01*
D19*
X615950Y193040D03*
X615950Y212090D03*
D18*
X615950Y217170D01*
X610870Y222250D02*
X595630Y222250D01*
X591058Y226822D01*
X595630Y486410D02*
X605790Y486410D01*
X610870Y491490D01*
X610235Y511810D01*
X610870Y222250D02*
X615950Y217170D01*
X591058Y226822D02*
X591058Y481838D01*
X595630Y486410D01*
X584835Y511810D02*
X585470Y220980D01*
X816560Y193090D02*
X816560Y114300D01*
X601980Y204470D02*
X585470Y220980D01*
X601980Y204470D02*
X805180Y204470D01*
X816560Y193090D01*
X457835Y511810D02*
X458470Y585470D01*
X454660Y589280D01*
X81280Y589280D01*
X62230Y570230D02*
X45720Y570230D01*
X62230Y570230D02*
X81280Y589280D01*
X45720Y595630D02*
X473710Y595630D01*
X483870Y585470D02*
X483235Y511810D01*
X483870Y585470D02*
X473710Y595630D01*
X180220Y48380D02*
X125330Y48380D01*
X180220Y48380D02*
X180340Y48260D01*
D19*
X180340Y48260D03*
X200660Y48260D03*
D18*
X241300Y48260D01*
X259200Y30360D01*
X273450Y30360D01*
X323450Y45840D02*
X385960Y45840D01*
X400170Y31630D02*
X464185Y31630D01*
X464185Y33020D01*
X400170Y31630D02*
X385960Y45840D01*
X465575Y31630D02*
X470300Y31630D01*
X465575Y31630D02*
X464185Y33020D01*
X520300Y47110D02*
X586620Y47110D01*
X603370Y30360D01*
X667150Y30360D01*
X717150Y45840D02*
X775850Y45840D01*
X790060Y31630D02*
X861060Y31630D01*
X862965Y31630D01*
X790060Y31630D02*
X775850Y45840D01*
X862965Y31630D02*
X869080Y31630D01*
X181490Y32900D02*
X125330Y32900D01*
X181490Y32900D02*
X181610Y33020D01*
D19*
X181610Y33020D03*
X200660Y33020D03*
D18*
X200660Y0D01*
X205740Y-5080D01*
X325120Y-5080D01*
X328930Y-1270D01*
X329311Y-889D01*
X329311Y30360D01*
X328930Y-1270D02*
X332740Y-5080D01*
X329311Y30360D02*
X323450Y30360D01*
X525660Y31630D02*
X525780Y31750D01*
X516890Y-5080D02*
X332740Y-5080D01*
X526161Y4191D02*
X526161Y31630D01*
X526161Y4191D02*
X516890Y-5080D01*
X520300Y31630D02*
X525660Y31630D01*
X526161Y4191D02*
X535432Y-5080D01*
X723011Y30360D02*
X725170Y30360D01*
X717550Y-5080D02*
X535432Y-5080D01*
X717550Y-5080D02*
X723011Y381D01*
X723011Y30360D01*
X723011Y381D02*
X723519Y381D01*
X728980Y-5080D01*
X914400Y-5080D01*
X924941Y5461D01*
X924941Y31630D01*
X919080Y31630D01*
X723011Y30360D02*
X717150Y30360D01*
X526161Y31630D02*
X520300Y31630D01*
X228600Y544830D02*
X45720Y544830D01*
X245110Y528320D02*
X245110Y485140D01*
X251460Y478790D01*
X541020Y478790D02*
X546100Y483870D01*
X546100Y541020D01*
X552450Y547370D01*
X712470Y533400D02*
X711835Y511810D01*
X245110Y528320D02*
X228600Y544830D01*
X251460Y478790D02*
X541020Y478790D01*
X552450Y547370D02*
X698500Y547370D01*
X712470Y533400D01*
X45720Y544830D02*
X45720Y476250D01*
X64770Y457200D01*
X64770Y383540D01*
X30480Y349250D01*
X30480Y250190D01*
X45720Y234950D01*
D19*
X146050Y234950D03*
X205740Y185420D03*
D18*
X205740Y144780D02*
X198120Y137160D01*
X198120Y82550D01*
X214630Y66040D02*
X214630Y64770D01*
D19*
X214630Y64770D03*
D18*
X146050Y234950D02*
X45720Y234950D01*
X205740Y185420D02*
X205740Y144780D01*
X198120Y82550D02*
X214630Y66040D01*
M02*
