G04 EAGLE Gerber RS-274X export*
G75*
%MOMM*%
%FSLAX34Y34*%
%LPD*%
%IN*%
%IPPOS*%
%AMOC8*
5,1,8,0,0,1.08239X$1,22.5*%
G01*
%ADD10C,0.254000*%


D10*
X0Y-22860D02*
X155Y-26402D01*
X617Y-29917D01*
X1385Y-33378D01*
X2451Y-36760D01*
X3808Y-40035D01*
X5445Y-43180D01*
X7350Y-46170D01*
X9508Y-48983D01*
X11903Y-51597D01*
X14517Y-53992D01*
X17330Y-56150D01*
X20320Y-58055D01*
X23465Y-59692D01*
X26740Y-61049D01*
X30122Y-62115D01*
X33583Y-62883D01*
X37098Y-63345D01*
X40640Y-63500D01*
X958850Y-63500D01*
X962392Y-63345D01*
X965907Y-62883D01*
X969368Y-62115D01*
X972750Y-61049D01*
X976025Y-59692D01*
X979170Y-58055D01*
X982160Y-56150D01*
X984973Y-53992D01*
X987587Y-51597D01*
X989982Y-48983D01*
X992140Y-46170D01*
X994045Y-43180D01*
X995682Y-40035D01*
X997039Y-36760D01*
X998105Y-33378D01*
X998873Y-29917D01*
X999335Y-26402D01*
X999490Y-22860D01*
X999490Y895350D01*
X999335Y898892D01*
X998873Y902407D01*
X998105Y905868D01*
X997039Y909250D01*
X995682Y912525D01*
X994045Y915670D01*
X992140Y918660D01*
X989982Y921473D01*
X987587Y924087D01*
X984973Y926482D01*
X982160Y928640D01*
X979170Y930545D01*
X976025Y932182D01*
X972750Y933539D01*
X969368Y934605D01*
X965907Y935373D01*
X962392Y935835D01*
X958850Y935990D01*
X40640Y935990D01*
X37098Y935835D01*
X33583Y935373D01*
X30122Y934605D01*
X26740Y933539D01*
X23465Y932182D01*
X20320Y930545D01*
X17330Y928640D01*
X14517Y926482D01*
X11903Y924087D01*
X9508Y921473D01*
X7350Y918660D01*
X5445Y915670D01*
X3808Y912525D01*
X2451Y909250D01*
X1385Y905868D01*
X617Y902407D01*
X155Y898892D01*
X0Y895350D01*
X0Y-22860D01*
X875792Y23622D02*
X912114Y23622D01*
X912114Y55880D01*
X875792Y55880D01*
X875792Y23622D01*
X673862Y22352D02*
X710184Y22352D01*
X710184Y54610D01*
X673862Y54610D01*
X673862Y22352D01*
X477012Y23622D02*
X513334Y23622D01*
X513334Y55880D01*
X477012Y55880D01*
X477012Y23622D01*
X280162Y22352D02*
X316484Y22352D01*
X316484Y54610D01*
X280162Y54610D01*
X280162Y22352D01*
X82042Y24892D02*
X118364Y24892D01*
X118364Y57150D01*
X82042Y57150D01*
X82042Y24892D01*
X58030Y88529D02*
X57965Y87789D01*
X57836Y87059D01*
X57644Y86342D01*
X57390Y85644D01*
X57077Y84971D01*
X56706Y84329D01*
X56280Y83721D01*
X55803Y83152D01*
X55278Y82627D01*
X54709Y82150D01*
X54101Y81724D01*
X53459Y81353D01*
X52786Y81040D01*
X52088Y80786D01*
X51372Y80594D01*
X50641Y80465D01*
X49901Y80400D01*
X49159Y80400D01*
X48419Y80465D01*
X47689Y80594D01*
X46972Y80786D01*
X46274Y81040D01*
X45601Y81353D01*
X44959Y81724D01*
X44351Y82150D01*
X43782Y82627D01*
X43257Y83152D01*
X42780Y83721D01*
X42354Y84329D01*
X41983Y84971D01*
X41670Y85644D01*
X41416Y86342D01*
X41224Y87059D01*
X41095Y87789D01*
X41030Y88529D01*
X41030Y89271D01*
X41095Y90011D01*
X41224Y90742D01*
X41416Y91458D01*
X41670Y92156D01*
X41983Y92829D01*
X42354Y93471D01*
X42780Y94079D01*
X43257Y94648D01*
X43782Y95173D01*
X44351Y95650D01*
X44959Y96076D01*
X45601Y96447D01*
X46274Y96760D01*
X46972Y97014D01*
X47689Y97206D01*
X48419Y97335D01*
X49159Y97400D01*
X49901Y97400D01*
X50641Y97335D01*
X51372Y97206D01*
X52088Y97014D01*
X52786Y96760D01*
X53459Y96447D01*
X54101Y96076D01*
X54709Y95650D01*
X55278Y95173D01*
X55803Y94648D01*
X56280Y94079D01*
X56706Y93471D01*
X57077Y92829D01*
X57390Y92156D01*
X57644Y91458D01*
X57836Y90742D01*
X57965Y90011D01*
X58030Y89271D01*
X58030Y88529D01*
X159630Y88529D02*
X159565Y87789D01*
X159436Y87059D01*
X159244Y86342D01*
X158990Y85644D01*
X158677Y84971D01*
X158306Y84329D01*
X157880Y83721D01*
X157403Y83152D01*
X156878Y82627D01*
X156309Y82150D01*
X155701Y81724D01*
X155059Y81353D01*
X154386Y81040D01*
X153688Y80786D01*
X152972Y80594D01*
X152241Y80465D01*
X151501Y80400D01*
X150759Y80400D01*
X150019Y80465D01*
X149289Y80594D01*
X148572Y80786D01*
X147874Y81040D01*
X147201Y81353D01*
X146559Y81724D01*
X145951Y82150D01*
X145382Y82627D01*
X144857Y83152D01*
X144380Y83721D01*
X143954Y84329D01*
X143583Y84971D01*
X143270Y85644D01*
X143016Y86342D01*
X142824Y87059D01*
X142695Y87789D01*
X142630Y88529D01*
X142630Y89271D01*
X142695Y90011D01*
X142824Y90742D01*
X143016Y91458D01*
X143270Y92156D01*
X143583Y92829D01*
X143954Y93471D01*
X144380Y94079D01*
X144857Y94648D01*
X145382Y95173D01*
X145951Y95650D01*
X146559Y96076D01*
X147201Y96447D01*
X147874Y96760D01*
X148572Y97014D01*
X149289Y97206D01*
X150019Y97335D01*
X150759Y97400D01*
X151501Y97400D01*
X152241Y97335D01*
X152972Y97206D01*
X153688Y97014D01*
X154386Y96760D01*
X155059Y96447D01*
X155701Y96076D01*
X156309Y95650D01*
X156878Y95173D01*
X157403Y94648D01*
X157880Y94079D01*
X158306Y93471D01*
X158677Y92829D01*
X158990Y92156D01*
X159244Y91458D01*
X159436Y90742D01*
X159565Y90011D01*
X159630Y89271D01*
X159630Y88529D01*
X120830Y88281D02*
X120755Y87044D01*
X120606Y85814D01*
X120383Y84595D01*
X120086Y83393D01*
X119718Y82210D01*
X119278Y81051D01*
X118770Y79922D01*
X118194Y78825D01*
X117553Y77764D01*
X116849Y76745D01*
X116085Y75770D01*
X115264Y74842D01*
X114388Y73966D01*
X113460Y73145D01*
X112485Y72381D01*
X111466Y71677D01*
X110405Y71036D01*
X109308Y70460D01*
X108179Y69952D01*
X107020Y69513D01*
X105837Y69144D01*
X104635Y68847D01*
X103416Y68624D01*
X102186Y68475D01*
X100949Y68400D01*
X99711Y68400D01*
X98474Y68475D01*
X97244Y68624D01*
X96025Y68847D01*
X94823Y69144D01*
X93640Y69513D01*
X92481Y69952D01*
X91352Y70460D01*
X90255Y71036D01*
X89194Y71677D01*
X88175Y72381D01*
X87200Y73145D01*
X86272Y73966D01*
X85396Y74842D01*
X84575Y75770D01*
X83811Y76745D01*
X83107Y77764D01*
X82466Y78825D01*
X81890Y79922D01*
X81382Y81051D01*
X80943Y82210D01*
X80574Y83393D01*
X80277Y84595D01*
X80054Y85814D01*
X79905Y87044D01*
X79830Y88281D01*
X79830Y89519D01*
X79905Y90756D01*
X80054Y91986D01*
X80277Y93205D01*
X80574Y94407D01*
X80943Y95590D01*
X81382Y96749D01*
X81890Y97878D01*
X82466Y98975D01*
X83107Y100036D01*
X83811Y101055D01*
X84575Y102030D01*
X85396Y102958D01*
X86272Y103834D01*
X87200Y104655D01*
X88175Y105419D01*
X89194Y106123D01*
X90255Y106764D01*
X91352Y107340D01*
X92481Y107848D01*
X93640Y108288D01*
X94823Y108656D01*
X96025Y108953D01*
X97244Y109176D01*
X98474Y109325D01*
X99711Y109400D01*
X100949Y109400D01*
X102186Y109325D01*
X103416Y109176D01*
X104635Y108953D01*
X105837Y108656D01*
X107020Y108288D01*
X108179Y107848D01*
X109308Y107340D01*
X110405Y106764D01*
X111466Y106123D01*
X112485Y105419D01*
X113460Y104655D01*
X114388Y103834D01*
X115264Y102958D01*
X116085Y102030D01*
X116849Y101055D01*
X117553Y100036D01*
X118194Y98975D01*
X118770Y97878D01*
X119278Y96749D01*
X119718Y95590D01*
X120086Y94407D01*
X120383Y93205D01*
X120606Y91986D01*
X120755Y90756D01*
X120830Y89519D01*
X120830Y88281D01*
X120330Y88296D02*
X120257Y87089D01*
X120111Y85889D01*
X119893Y84700D01*
X119604Y83527D01*
X119245Y82373D01*
X118816Y81243D01*
X118320Y80141D01*
X117758Y79070D01*
X117133Y78036D01*
X116446Y77041D01*
X115701Y76090D01*
X114899Y75185D01*
X114045Y74331D01*
X113140Y73529D01*
X112189Y72784D01*
X111194Y72097D01*
X110160Y71472D01*
X109089Y70910D01*
X107987Y70414D01*
X106857Y69985D01*
X105703Y69626D01*
X104530Y69337D01*
X103341Y69119D01*
X102141Y68973D01*
X100934Y68900D01*
X99726Y68900D01*
X98519Y68973D01*
X97319Y69119D01*
X96130Y69337D01*
X94957Y69626D01*
X93803Y69985D01*
X92673Y70414D01*
X91571Y70910D01*
X90500Y71472D01*
X89466Y72097D01*
X88471Y72784D01*
X87520Y73529D01*
X86615Y74331D01*
X85761Y75185D01*
X84959Y76090D01*
X84214Y77041D01*
X83527Y78036D01*
X82902Y79070D01*
X82340Y80141D01*
X81844Y81243D01*
X81415Y82373D01*
X81056Y83527D01*
X80767Y84700D01*
X80549Y85889D01*
X80403Y87089D01*
X80330Y88296D01*
X80330Y89504D01*
X80403Y90711D01*
X80549Y91911D01*
X80767Y93100D01*
X81056Y94273D01*
X81415Y95427D01*
X81844Y96557D01*
X82340Y97659D01*
X82902Y98730D01*
X83527Y99764D01*
X84214Y100759D01*
X84959Y101710D01*
X85761Y102615D01*
X86615Y103469D01*
X87520Y104271D01*
X88471Y105016D01*
X89466Y105703D01*
X90500Y106328D01*
X91571Y106890D01*
X92673Y107386D01*
X93803Y107815D01*
X94957Y108174D01*
X96130Y108463D01*
X97319Y108681D01*
X98519Y108827D01*
X99726Y108900D01*
X100934Y108900D01*
X102141Y108827D01*
X103341Y108681D01*
X104530Y108463D01*
X105703Y108174D01*
X106857Y107815D01*
X107987Y107386D01*
X109089Y106890D01*
X110160Y106328D01*
X111194Y105703D01*
X112189Y105016D01*
X113140Y104271D01*
X114045Y103469D01*
X114899Y102615D01*
X115701Y101710D01*
X116446Y100759D01*
X117133Y99764D01*
X117758Y98730D01*
X118320Y97659D01*
X118816Y96557D01*
X119245Y95427D01*
X119604Y94273D01*
X119893Y93100D01*
X120111Y91911D01*
X120257Y90711D01*
X120330Y89504D01*
X120330Y88296D01*
X58030Y88529D02*
X57965Y87789D01*
X57836Y87059D01*
X57644Y86342D01*
X57390Y85644D01*
X57077Y84971D01*
X56706Y84329D01*
X56280Y83721D01*
X55803Y83152D01*
X55278Y82627D01*
X54709Y82150D01*
X54101Y81724D01*
X53459Y81353D01*
X52786Y81040D01*
X52088Y80786D01*
X51372Y80594D01*
X50641Y80465D01*
X49901Y80400D01*
X49159Y80400D01*
X48419Y80465D01*
X47689Y80594D01*
X46972Y80786D01*
X46274Y81040D01*
X45601Y81353D01*
X44959Y81724D01*
X44351Y82150D01*
X43782Y82627D01*
X43257Y83152D01*
X42780Y83721D01*
X42354Y84329D01*
X41983Y84971D01*
X41670Y85644D01*
X41416Y86342D01*
X41224Y87059D01*
X41095Y87789D01*
X41030Y88529D01*
X41030Y89271D01*
X41095Y90011D01*
X41224Y90742D01*
X41416Y91458D01*
X41670Y92156D01*
X41983Y92829D01*
X42354Y93471D01*
X42780Y94079D01*
X43257Y94648D01*
X43782Y95173D01*
X44351Y95650D01*
X44959Y96076D01*
X45601Y96447D01*
X46274Y96760D01*
X46972Y97014D01*
X47689Y97206D01*
X48419Y97335D01*
X49159Y97400D01*
X49901Y97400D01*
X50641Y97335D01*
X51372Y97206D01*
X52088Y97014D01*
X52786Y96760D01*
X53459Y96447D01*
X54101Y96076D01*
X54709Y95650D01*
X55278Y95173D01*
X55803Y94648D01*
X56280Y94079D01*
X56706Y93471D01*
X57077Y92829D01*
X57390Y92156D01*
X57644Y91458D01*
X57836Y90742D01*
X57965Y90011D01*
X58030Y89271D01*
X58030Y88529D01*
X159630Y88529D02*
X159565Y87789D01*
X159436Y87059D01*
X159244Y86342D01*
X158990Y85644D01*
X158677Y84971D01*
X158306Y84329D01*
X157880Y83721D01*
X157403Y83152D01*
X156878Y82627D01*
X156309Y82150D01*
X155701Y81724D01*
X155059Y81353D01*
X154386Y81040D01*
X153688Y80786D01*
X152972Y80594D01*
X152241Y80465D01*
X151501Y80400D01*
X150759Y80400D01*
X150019Y80465D01*
X149289Y80594D01*
X148572Y80786D01*
X147874Y81040D01*
X147201Y81353D01*
X146559Y81724D01*
X145951Y82150D01*
X145382Y82627D01*
X144857Y83152D01*
X144380Y83721D01*
X143954Y84329D01*
X143583Y84971D01*
X143270Y85644D01*
X143016Y86342D01*
X142824Y87059D01*
X142695Y87789D01*
X142630Y88529D01*
X142630Y89271D01*
X142695Y90011D01*
X142824Y90742D01*
X143016Y91458D01*
X143270Y92156D01*
X143583Y92829D01*
X143954Y93471D01*
X144380Y94079D01*
X144857Y94648D01*
X145382Y95173D01*
X145951Y95650D01*
X146559Y96076D01*
X147201Y96447D01*
X147874Y96760D01*
X148572Y97014D01*
X149289Y97206D01*
X150019Y97335D01*
X150759Y97400D01*
X151501Y97400D01*
X152241Y97335D01*
X152972Y97206D01*
X153688Y97014D01*
X154386Y96760D01*
X155059Y96447D01*
X155701Y96076D01*
X156309Y95650D01*
X156878Y95173D01*
X157403Y94648D01*
X157880Y94079D01*
X158306Y93471D01*
X158677Y92829D01*
X158990Y92156D01*
X159244Y91458D01*
X159436Y90742D01*
X159565Y90011D01*
X159630Y89271D01*
X159630Y88529D01*
X140730Y139164D02*
X140654Y138096D01*
X140501Y137035D01*
X140273Y135988D01*
X139971Y134960D01*
X139597Y133956D01*
X139152Y132981D01*
X138638Y132041D01*
X138059Y131140D01*
X137417Y130282D01*
X136715Y129472D01*
X135958Y128715D01*
X135148Y128013D01*
X134290Y127371D01*
X133389Y126792D01*
X132449Y126278D01*
X131474Y125833D01*
X130470Y125459D01*
X129442Y125157D01*
X128395Y124929D01*
X127334Y124776D01*
X126266Y124700D01*
X125194Y124700D01*
X124126Y124776D01*
X123065Y124929D01*
X122018Y125157D01*
X120990Y125459D01*
X119986Y125833D01*
X119011Y126278D01*
X118071Y126792D01*
X117170Y127371D01*
X116312Y128013D01*
X115502Y128715D01*
X114745Y129472D01*
X114043Y130282D01*
X113401Y131140D01*
X112822Y132041D01*
X112308Y132981D01*
X111863Y133956D01*
X111489Y134960D01*
X111187Y135988D01*
X110959Y137035D01*
X110806Y138096D01*
X110730Y139164D01*
X110730Y140236D01*
X110806Y141304D01*
X110959Y142365D01*
X111187Y143412D01*
X111489Y144440D01*
X111863Y145444D01*
X112308Y146419D01*
X112822Y147359D01*
X113401Y148260D01*
X114043Y149118D01*
X114745Y149928D01*
X115502Y150685D01*
X116312Y151387D01*
X117170Y152029D01*
X118071Y152608D01*
X119011Y153122D01*
X119986Y153567D01*
X120990Y153941D01*
X122018Y154243D01*
X123065Y154471D01*
X124126Y154624D01*
X125194Y154700D01*
X126266Y154700D01*
X127334Y154624D01*
X128395Y154471D01*
X129442Y154243D01*
X130470Y153941D01*
X131474Y153567D01*
X132449Y153122D01*
X133389Y152608D01*
X134290Y152029D01*
X135148Y151387D01*
X135958Y150685D01*
X136715Y149928D01*
X137417Y149118D01*
X138059Y148260D01*
X138638Y147359D01*
X139152Y146419D01*
X139597Y145444D01*
X139971Y144440D01*
X140273Y143412D01*
X140501Y142365D01*
X140654Y141304D01*
X140730Y140236D01*
X140730Y139164D01*
X77230Y113764D02*
X77154Y112696D01*
X77001Y111635D01*
X76773Y110588D01*
X76471Y109560D01*
X76097Y108556D01*
X75652Y107581D01*
X75138Y106641D01*
X74559Y105740D01*
X73917Y104882D01*
X73215Y104072D01*
X72458Y103315D01*
X71648Y102613D01*
X70790Y101971D01*
X69889Y101392D01*
X68949Y100878D01*
X67974Y100433D01*
X66970Y100059D01*
X65942Y99757D01*
X64895Y99529D01*
X63834Y99376D01*
X62766Y99300D01*
X61694Y99300D01*
X60626Y99376D01*
X59565Y99529D01*
X58518Y99757D01*
X57490Y100059D01*
X56486Y100433D01*
X55511Y100878D01*
X54571Y101392D01*
X53670Y101971D01*
X52812Y102613D01*
X52002Y103315D01*
X51245Y104072D01*
X50543Y104882D01*
X49901Y105740D01*
X49322Y106641D01*
X48808Y107581D01*
X48363Y108556D01*
X47989Y109560D01*
X47687Y110588D01*
X47459Y111635D01*
X47306Y112696D01*
X47230Y113764D01*
X47230Y114836D01*
X47306Y115904D01*
X47459Y116965D01*
X47687Y118012D01*
X47989Y119040D01*
X48363Y120044D01*
X48808Y121019D01*
X49322Y121959D01*
X49901Y122860D01*
X50543Y123718D01*
X51245Y124528D01*
X52002Y125285D01*
X52812Y125987D01*
X53670Y126629D01*
X54571Y127208D01*
X55511Y127722D01*
X56486Y128167D01*
X57490Y128541D01*
X58518Y128843D01*
X59565Y129071D01*
X60626Y129224D01*
X61694Y129300D01*
X62766Y129300D01*
X63834Y129224D01*
X64895Y129071D01*
X65942Y128843D01*
X66970Y128541D01*
X67974Y128167D01*
X68949Y127722D01*
X69889Y127208D01*
X70790Y126629D01*
X71648Y125987D01*
X72458Y125285D01*
X73215Y124528D01*
X73917Y123718D01*
X74559Y122860D01*
X75138Y121959D01*
X75652Y121019D01*
X76097Y120044D01*
X76471Y119040D01*
X76773Y118012D01*
X77001Y116965D01*
X77154Y115904D01*
X77230Y114836D01*
X77230Y113764D01*
X254880Y88529D02*
X254815Y87789D01*
X254686Y87059D01*
X254494Y86342D01*
X254240Y85644D01*
X253927Y84971D01*
X253556Y84329D01*
X253130Y83721D01*
X252653Y83152D01*
X252128Y82627D01*
X251559Y82150D01*
X250951Y81724D01*
X250309Y81353D01*
X249636Y81040D01*
X248938Y80786D01*
X248222Y80594D01*
X247491Y80465D01*
X246751Y80400D01*
X246009Y80400D01*
X245269Y80465D01*
X244539Y80594D01*
X243822Y80786D01*
X243124Y81040D01*
X242451Y81353D01*
X241809Y81724D01*
X241201Y82150D01*
X240632Y82627D01*
X240107Y83152D01*
X239630Y83721D01*
X239204Y84329D01*
X238833Y84971D01*
X238520Y85644D01*
X238266Y86342D01*
X238074Y87059D01*
X237945Y87789D01*
X237880Y88529D01*
X237880Y89271D01*
X237945Y90011D01*
X238074Y90742D01*
X238266Y91458D01*
X238520Y92156D01*
X238833Y92829D01*
X239204Y93471D01*
X239630Y94079D01*
X240107Y94648D01*
X240632Y95173D01*
X241201Y95650D01*
X241809Y96076D01*
X242451Y96447D01*
X243124Y96760D01*
X243822Y97014D01*
X244539Y97206D01*
X245269Y97335D01*
X246009Y97400D01*
X246751Y97400D01*
X247491Y97335D01*
X248222Y97206D01*
X248938Y97014D01*
X249636Y96760D01*
X250309Y96447D01*
X250951Y96076D01*
X251559Y95650D01*
X252128Y95173D01*
X252653Y94648D01*
X253130Y94079D01*
X253556Y93471D01*
X253927Y92829D01*
X254240Y92156D01*
X254494Y91458D01*
X254686Y90742D01*
X254815Y90011D01*
X254880Y89271D01*
X254880Y88529D01*
X356480Y88529D02*
X356415Y87789D01*
X356286Y87059D01*
X356094Y86342D01*
X355840Y85644D01*
X355527Y84971D01*
X355156Y84329D01*
X354730Y83721D01*
X354253Y83152D01*
X353728Y82627D01*
X353159Y82150D01*
X352551Y81724D01*
X351909Y81353D01*
X351236Y81040D01*
X350538Y80786D01*
X349822Y80594D01*
X349091Y80465D01*
X348351Y80400D01*
X347609Y80400D01*
X346869Y80465D01*
X346139Y80594D01*
X345422Y80786D01*
X344724Y81040D01*
X344051Y81353D01*
X343409Y81724D01*
X342801Y82150D01*
X342232Y82627D01*
X341707Y83152D01*
X341230Y83721D01*
X340804Y84329D01*
X340433Y84971D01*
X340120Y85644D01*
X339866Y86342D01*
X339674Y87059D01*
X339545Y87789D01*
X339480Y88529D01*
X339480Y89271D01*
X339545Y90011D01*
X339674Y90742D01*
X339866Y91458D01*
X340120Y92156D01*
X340433Y92829D01*
X340804Y93471D01*
X341230Y94079D01*
X341707Y94648D01*
X342232Y95173D01*
X342801Y95650D01*
X343409Y96076D01*
X344051Y96447D01*
X344724Y96760D01*
X345422Y97014D01*
X346139Y97206D01*
X346869Y97335D01*
X347609Y97400D01*
X348351Y97400D01*
X349091Y97335D01*
X349822Y97206D01*
X350538Y97014D01*
X351236Y96760D01*
X351909Y96447D01*
X352551Y96076D01*
X353159Y95650D01*
X353728Y95173D01*
X354253Y94648D01*
X354730Y94079D01*
X355156Y93471D01*
X355527Y92829D01*
X355840Y92156D01*
X356094Y91458D01*
X356286Y90742D01*
X356415Y90011D01*
X356480Y89271D01*
X356480Y88529D01*
X317680Y88281D02*
X317605Y87044D01*
X317456Y85814D01*
X317233Y84595D01*
X316936Y83393D01*
X316568Y82210D01*
X316128Y81051D01*
X315620Y79922D01*
X315044Y78825D01*
X314403Y77764D01*
X313699Y76745D01*
X312935Y75770D01*
X312114Y74842D01*
X311238Y73966D01*
X310310Y73145D01*
X309335Y72381D01*
X308316Y71677D01*
X307255Y71036D01*
X306158Y70460D01*
X305029Y69952D01*
X303870Y69513D01*
X302687Y69144D01*
X301485Y68847D01*
X300266Y68624D01*
X299036Y68475D01*
X297799Y68400D01*
X296561Y68400D01*
X295324Y68475D01*
X294094Y68624D01*
X292875Y68847D01*
X291673Y69144D01*
X290490Y69513D01*
X289331Y69952D01*
X288202Y70460D01*
X287105Y71036D01*
X286044Y71677D01*
X285025Y72381D01*
X284050Y73145D01*
X283122Y73966D01*
X282246Y74842D01*
X281425Y75770D01*
X280661Y76745D01*
X279957Y77764D01*
X279316Y78825D01*
X278740Y79922D01*
X278232Y81051D01*
X277793Y82210D01*
X277424Y83393D01*
X277127Y84595D01*
X276904Y85814D01*
X276755Y87044D01*
X276680Y88281D01*
X276680Y89519D01*
X276755Y90756D01*
X276904Y91986D01*
X277127Y93205D01*
X277424Y94407D01*
X277793Y95590D01*
X278232Y96749D01*
X278740Y97878D01*
X279316Y98975D01*
X279957Y100036D01*
X280661Y101055D01*
X281425Y102030D01*
X282246Y102958D01*
X283122Y103834D01*
X284050Y104655D01*
X285025Y105419D01*
X286044Y106123D01*
X287105Y106764D01*
X288202Y107340D01*
X289331Y107848D01*
X290490Y108288D01*
X291673Y108656D01*
X292875Y108953D01*
X294094Y109176D01*
X295324Y109325D01*
X296561Y109400D01*
X297799Y109400D01*
X299036Y109325D01*
X300266Y109176D01*
X301485Y108953D01*
X302687Y108656D01*
X303870Y108288D01*
X305029Y107848D01*
X306158Y107340D01*
X307255Y106764D01*
X308316Y106123D01*
X309335Y105419D01*
X310310Y104655D01*
X311238Y103834D01*
X312114Y102958D01*
X312935Y102030D01*
X313699Y101055D01*
X314403Y100036D01*
X315044Y98975D01*
X315620Y97878D01*
X316128Y96749D01*
X316568Y95590D01*
X316936Y94407D01*
X317233Y93205D01*
X317456Y91986D01*
X317605Y90756D01*
X317680Y89519D01*
X317680Y88281D01*
X317180Y88296D02*
X317107Y87089D01*
X316961Y85889D01*
X316743Y84700D01*
X316454Y83527D01*
X316095Y82373D01*
X315666Y81243D01*
X315170Y80141D01*
X314608Y79070D01*
X313983Y78036D01*
X313296Y77041D01*
X312551Y76090D01*
X311749Y75185D01*
X310895Y74331D01*
X309990Y73529D01*
X309039Y72784D01*
X308044Y72097D01*
X307010Y71472D01*
X305939Y70910D01*
X304837Y70414D01*
X303707Y69985D01*
X302553Y69626D01*
X301380Y69337D01*
X300191Y69119D01*
X298991Y68973D01*
X297784Y68900D01*
X296576Y68900D01*
X295369Y68973D01*
X294169Y69119D01*
X292980Y69337D01*
X291807Y69626D01*
X290653Y69985D01*
X289523Y70414D01*
X288421Y70910D01*
X287350Y71472D01*
X286316Y72097D01*
X285321Y72784D01*
X284370Y73529D01*
X283465Y74331D01*
X282611Y75185D01*
X281809Y76090D01*
X281064Y77041D01*
X280377Y78036D01*
X279752Y79070D01*
X279190Y80141D01*
X278694Y81243D01*
X278265Y82373D01*
X277906Y83527D01*
X277617Y84700D01*
X277399Y85889D01*
X277253Y87089D01*
X277180Y88296D01*
X277180Y89504D01*
X277253Y90711D01*
X277399Y91911D01*
X277617Y93100D01*
X277906Y94273D01*
X278265Y95427D01*
X278694Y96557D01*
X279190Y97659D01*
X279752Y98730D01*
X280377Y99764D01*
X281064Y100759D01*
X281809Y101710D01*
X282611Y102615D01*
X283465Y103469D01*
X284370Y104271D01*
X285321Y105016D01*
X286316Y105703D01*
X287350Y106328D01*
X288421Y106890D01*
X289523Y107386D01*
X290653Y107815D01*
X291807Y108174D01*
X292980Y108463D01*
X294169Y108681D01*
X295369Y108827D01*
X296576Y108900D01*
X297784Y108900D01*
X298991Y108827D01*
X300191Y108681D01*
X301380Y108463D01*
X302553Y108174D01*
X303707Y107815D01*
X304837Y107386D01*
X305939Y106890D01*
X307010Y106328D01*
X308044Y105703D01*
X309039Y105016D01*
X309990Y104271D01*
X310895Y103469D01*
X311749Y102615D01*
X312551Y101710D01*
X313296Y100759D01*
X313983Y99764D01*
X314608Y98730D01*
X315170Y97659D01*
X315666Y96557D01*
X316095Y95427D01*
X316454Y94273D01*
X316743Y93100D01*
X316961Y91911D01*
X317107Y90711D01*
X317180Y89504D01*
X317180Y88296D01*
X254880Y88529D02*
X254815Y87789D01*
X254686Y87059D01*
X254494Y86342D01*
X254240Y85644D01*
X253927Y84971D01*
X253556Y84329D01*
X253130Y83721D01*
X252653Y83152D01*
X252128Y82627D01*
X251559Y82150D01*
X250951Y81724D01*
X250309Y81353D01*
X249636Y81040D01*
X248938Y80786D01*
X248222Y80594D01*
X247491Y80465D01*
X246751Y80400D01*
X246009Y80400D01*
X245269Y80465D01*
X244539Y80594D01*
X243822Y80786D01*
X243124Y81040D01*
X242451Y81353D01*
X241809Y81724D01*
X241201Y82150D01*
X240632Y82627D01*
X240107Y83152D01*
X239630Y83721D01*
X239204Y84329D01*
X238833Y84971D01*
X238520Y85644D01*
X238266Y86342D01*
X238074Y87059D01*
X237945Y87789D01*
X237880Y88529D01*
X237880Y89271D01*
X237945Y90011D01*
X238074Y90742D01*
X238266Y91458D01*
X238520Y92156D01*
X238833Y92829D01*
X239204Y93471D01*
X239630Y94079D01*
X240107Y94648D01*
X240632Y95173D01*
X241201Y95650D01*
X241809Y96076D01*
X242451Y96447D01*
X243124Y96760D01*
X243822Y97014D01*
X244539Y97206D01*
X245269Y97335D01*
X246009Y97400D01*
X246751Y97400D01*
X247491Y97335D01*
X248222Y97206D01*
X248938Y97014D01*
X249636Y96760D01*
X250309Y96447D01*
X250951Y96076D01*
X251559Y95650D01*
X252128Y95173D01*
X252653Y94648D01*
X253130Y94079D01*
X253556Y93471D01*
X253927Y92829D01*
X254240Y92156D01*
X254494Y91458D01*
X254686Y90742D01*
X254815Y90011D01*
X254880Y89271D01*
X254880Y88529D01*
X356480Y88529D02*
X356415Y87789D01*
X356286Y87059D01*
X356094Y86342D01*
X355840Y85644D01*
X355527Y84971D01*
X355156Y84329D01*
X354730Y83721D01*
X354253Y83152D01*
X353728Y82627D01*
X353159Y82150D01*
X352551Y81724D01*
X351909Y81353D01*
X351236Y81040D01*
X350538Y80786D01*
X349822Y80594D01*
X349091Y80465D01*
X348351Y80400D01*
X347609Y80400D01*
X346869Y80465D01*
X346139Y80594D01*
X345422Y80786D01*
X344724Y81040D01*
X344051Y81353D01*
X343409Y81724D01*
X342801Y82150D01*
X342232Y82627D01*
X341707Y83152D01*
X341230Y83721D01*
X340804Y84329D01*
X340433Y84971D01*
X340120Y85644D01*
X339866Y86342D01*
X339674Y87059D01*
X339545Y87789D01*
X339480Y88529D01*
X339480Y89271D01*
X339545Y90011D01*
X339674Y90742D01*
X339866Y91458D01*
X340120Y92156D01*
X340433Y92829D01*
X340804Y93471D01*
X341230Y94079D01*
X341707Y94648D01*
X342232Y95173D01*
X342801Y95650D01*
X343409Y96076D01*
X344051Y96447D01*
X344724Y96760D01*
X345422Y97014D01*
X346139Y97206D01*
X346869Y97335D01*
X347609Y97400D01*
X348351Y97400D01*
X349091Y97335D01*
X349822Y97206D01*
X350538Y97014D01*
X351236Y96760D01*
X351909Y96447D01*
X352551Y96076D01*
X353159Y95650D01*
X353728Y95173D01*
X354253Y94648D01*
X354730Y94079D01*
X355156Y93471D01*
X355527Y92829D01*
X355840Y92156D01*
X356094Y91458D01*
X356286Y90742D01*
X356415Y90011D01*
X356480Y89271D01*
X356480Y88529D01*
X337580Y139164D02*
X337504Y138096D01*
X337351Y137035D01*
X337123Y135988D01*
X336821Y134960D01*
X336447Y133956D01*
X336002Y132981D01*
X335488Y132041D01*
X334909Y131140D01*
X334267Y130282D01*
X333565Y129472D01*
X332808Y128715D01*
X331998Y128013D01*
X331140Y127371D01*
X330239Y126792D01*
X329299Y126278D01*
X328324Y125833D01*
X327320Y125459D01*
X326292Y125157D01*
X325245Y124929D01*
X324184Y124776D01*
X323116Y124700D01*
X322044Y124700D01*
X320976Y124776D01*
X319915Y124929D01*
X318868Y125157D01*
X317840Y125459D01*
X316836Y125833D01*
X315861Y126278D01*
X314921Y126792D01*
X314020Y127371D01*
X313162Y128013D01*
X312352Y128715D01*
X311595Y129472D01*
X310893Y130282D01*
X310251Y131140D01*
X309672Y132041D01*
X309158Y132981D01*
X308713Y133956D01*
X308339Y134960D01*
X308037Y135988D01*
X307809Y137035D01*
X307656Y138096D01*
X307580Y139164D01*
X307580Y140236D01*
X307656Y141304D01*
X307809Y142365D01*
X308037Y143412D01*
X308339Y144440D01*
X308713Y145444D01*
X309158Y146419D01*
X309672Y147359D01*
X310251Y148260D01*
X310893Y149118D01*
X311595Y149928D01*
X312352Y150685D01*
X313162Y151387D01*
X314020Y152029D01*
X314921Y152608D01*
X315861Y153122D01*
X316836Y153567D01*
X317840Y153941D01*
X318868Y154243D01*
X319915Y154471D01*
X320976Y154624D01*
X322044Y154700D01*
X323116Y154700D01*
X324184Y154624D01*
X325245Y154471D01*
X326292Y154243D01*
X327320Y153941D01*
X328324Y153567D01*
X329299Y153122D01*
X330239Y152608D01*
X331140Y152029D01*
X331998Y151387D01*
X332808Y150685D01*
X333565Y149928D01*
X334267Y149118D01*
X334909Y148260D01*
X335488Y147359D01*
X336002Y146419D01*
X336447Y145444D01*
X336821Y144440D01*
X337123Y143412D01*
X337351Y142365D01*
X337504Y141304D01*
X337580Y140236D01*
X337580Y139164D01*
X274080Y113764D02*
X274004Y112696D01*
X273851Y111635D01*
X273623Y110588D01*
X273321Y109560D01*
X272947Y108556D01*
X272502Y107581D01*
X271988Y106641D01*
X271409Y105740D01*
X270767Y104882D01*
X270065Y104072D01*
X269308Y103315D01*
X268498Y102613D01*
X267640Y101971D01*
X266739Y101392D01*
X265799Y100878D01*
X264824Y100433D01*
X263820Y100059D01*
X262792Y99757D01*
X261745Y99529D01*
X260684Y99376D01*
X259616Y99300D01*
X258544Y99300D01*
X257476Y99376D01*
X256415Y99529D01*
X255368Y99757D01*
X254340Y100059D01*
X253336Y100433D01*
X252361Y100878D01*
X251421Y101392D01*
X250520Y101971D01*
X249662Y102613D01*
X248852Y103315D01*
X248095Y104072D01*
X247393Y104882D01*
X246751Y105740D01*
X246172Y106641D01*
X245658Y107581D01*
X245213Y108556D01*
X244839Y109560D01*
X244537Y110588D01*
X244309Y111635D01*
X244156Y112696D01*
X244080Y113764D01*
X244080Y114836D01*
X244156Y115904D01*
X244309Y116965D01*
X244537Y118012D01*
X244839Y119040D01*
X245213Y120044D01*
X245658Y121019D01*
X246172Y121959D01*
X246751Y122860D01*
X247393Y123718D01*
X248095Y124528D01*
X248852Y125285D01*
X249662Y125987D01*
X250520Y126629D01*
X251421Y127208D01*
X252361Y127722D01*
X253336Y128167D01*
X254340Y128541D01*
X255368Y128843D01*
X256415Y129071D01*
X257476Y129224D01*
X258544Y129300D01*
X259616Y129300D01*
X260684Y129224D01*
X261745Y129071D01*
X262792Y128843D01*
X263820Y128541D01*
X264824Y128167D01*
X265799Y127722D01*
X266739Y127208D01*
X267640Y126629D01*
X268498Y125987D01*
X269308Y125285D01*
X270065Y124528D01*
X270767Y123718D01*
X271409Y122860D01*
X271988Y121959D01*
X272502Y121019D01*
X272947Y120044D01*
X273321Y119040D01*
X273623Y118012D01*
X273851Y116965D01*
X274004Y115904D01*
X274080Y114836D01*
X274080Y113764D01*
X453000Y88529D02*
X452935Y87789D01*
X452806Y87059D01*
X452614Y86342D01*
X452360Y85644D01*
X452047Y84971D01*
X451676Y84329D01*
X451250Y83721D01*
X450773Y83152D01*
X450248Y82627D01*
X449679Y82150D01*
X449071Y81724D01*
X448429Y81353D01*
X447756Y81040D01*
X447058Y80786D01*
X446342Y80594D01*
X445611Y80465D01*
X444871Y80400D01*
X444129Y80400D01*
X443389Y80465D01*
X442659Y80594D01*
X441942Y80786D01*
X441244Y81040D01*
X440571Y81353D01*
X439929Y81724D01*
X439321Y82150D01*
X438752Y82627D01*
X438227Y83152D01*
X437750Y83721D01*
X437324Y84329D01*
X436953Y84971D01*
X436640Y85644D01*
X436386Y86342D01*
X436194Y87059D01*
X436065Y87789D01*
X436000Y88529D01*
X436000Y89271D01*
X436065Y90011D01*
X436194Y90742D01*
X436386Y91458D01*
X436640Y92156D01*
X436953Y92829D01*
X437324Y93471D01*
X437750Y94079D01*
X438227Y94648D01*
X438752Y95173D01*
X439321Y95650D01*
X439929Y96076D01*
X440571Y96447D01*
X441244Y96760D01*
X441942Y97014D01*
X442659Y97206D01*
X443389Y97335D01*
X444129Y97400D01*
X444871Y97400D01*
X445611Y97335D01*
X446342Y97206D01*
X447058Y97014D01*
X447756Y96760D01*
X448429Y96447D01*
X449071Y96076D01*
X449679Y95650D01*
X450248Y95173D01*
X450773Y94648D01*
X451250Y94079D01*
X451676Y93471D01*
X452047Y92829D01*
X452360Y92156D01*
X452614Y91458D01*
X452806Y90742D01*
X452935Y90011D01*
X453000Y89271D01*
X453000Y88529D01*
X554600Y88529D02*
X554535Y87789D01*
X554406Y87059D01*
X554214Y86342D01*
X553960Y85644D01*
X553647Y84971D01*
X553276Y84329D01*
X552850Y83721D01*
X552373Y83152D01*
X551848Y82627D01*
X551279Y82150D01*
X550671Y81724D01*
X550029Y81353D01*
X549356Y81040D01*
X548658Y80786D01*
X547942Y80594D01*
X547211Y80465D01*
X546471Y80400D01*
X545729Y80400D01*
X544989Y80465D01*
X544259Y80594D01*
X543542Y80786D01*
X542844Y81040D01*
X542171Y81353D01*
X541529Y81724D01*
X540921Y82150D01*
X540352Y82627D01*
X539827Y83152D01*
X539350Y83721D01*
X538924Y84329D01*
X538553Y84971D01*
X538240Y85644D01*
X537986Y86342D01*
X537794Y87059D01*
X537665Y87789D01*
X537600Y88529D01*
X537600Y89271D01*
X537665Y90011D01*
X537794Y90742D01*
X537986Y91458D01*
X538240Y92156D01*
X538553Y92829D01*
X538924Y93471D01*
X539350Y94079D01*
X539827Y94648D01*
X540352Y95173D01*
X540921Y95650D01*
X541529Y96076D01*
X542171Y96447D01*
X542844Y96760D01*
X543542Y97014D01*
X544259Y97206D01*
X544989Y97335D01*
X545729Y97400D01*
X546471Y97400D01*
X547211Y97335D01*
X547942Y97206D01*
X548658Y97014D01*
X549356Y96760D01*
X550029Y96447D01*
X550671Y96076D01*
X551279Y95650D01*
X551848Y95173D01*
X552373Y94648D01*
X552850Y94079D01*
X553276Y93471D01*
X553647Y92829D01*
X553960Y92156D01*
X554214Y91458D01*
X554406Y90742D01*
X554535Y90011D01*
X554600Y89271D01*
X554600Y88529D01*
X515800Y88281D02*
X515725Y87044D01*
X515576Y85814D01*
X515353Y84595D01*
X515056Y83393D01*
X514688Y82210D01*
X514248Y81051D01*
X513740Y79922D01*
X513164Y78825D01*
X512523Y77764D01*
X511819Y76745D01*
X511055Y75770D01*
X510234Y74842D01*
X509358Y73966D01*
X508430Y73145D01*
X507455Y72381D01*
X506436Y71677D01*
X505375Y71036D01*
X504278Y70460D01*
X503149Y69952D01*
X501990Y69513D01*
X500807Y69144D01*
X499605Y68847D01*
X498386Y68624D01*
X497156Y68475D01*
X495919Y68400D01*
X494681Y68400D01*
X493444Y68475D01*
X492214Y68624D01*
X490995Y68847D01*
X489793Y69144D01*
X488610Y69513D01*
X487451Y69952D01*
X486322Y70460D01*
X485225Y71036D01*
X484164Y71677D01*
X483145Y72381D01*
X482170Y73145D01*
X481242Y73966D01*
X480366Y74842D01*
X479545Y75770D01*
X478781Y76745D01*
X478077Y77764D01*
X477436Y78825D01*
X476860Y79922D01*
X476352Y81051D01*
X475913Y82210D01*
X475544Y83393D01*
X475247Y84595D01*
X475024Y85814D01*
X474875Y87044D01*
X474800Y88281D01*
X474800Y89519D01*
X474875Y90756D01*
X475024Y91986D01*
X475247Y93205D01*
X475544Y94407D01*
X475913Y95590D01*
X476352Y96749D01*
X476860Y97878D01*
X477436Y98975D01*
X478077Y100036D01*
X478781Y101055D01*
X479545Y102030D01*
X480366Y102958D01*
X481242Y103834D01*
X482170Y104655D01*
X483145Y105419D01*
X484164Y106123D01*
X485225Y106764D01*
X486322Y107340D01*
X487451Y107848D01*
X488610Y108288D01*
X489793Y108656D01*
X490995Y108953D01*
X492214Y109176D01*
X493444Y109325D01*
X494681Y109400D01*
X495919Y109400D01*
X497156Y109325D01*
X498386Y109176D01*
X499605Y108953D01*
X500807Y108656D01*
X501990Y108288D01*
X503149Y107848D01*
X504278Y107340D01*
X505375Y106764D01*
X506436Y106123D01*
X507455Y105419D01*
X508430Y104655D01*
X509358Y103834D01*
X510234Y102958D01*
X511055Y102030D01*
X511819Y101055D01*
X512523Y100036D01*
X513164Y98975D01*
X513740Y97878D01*
X514248Y96749D01*
X514688Y95590D01*
X515056Y94407D01*
X515353Y93205D01*
X515576Y91986D01*
X515725Y90756D01*
X515800Y89519D01*
X515800Y88281D01*
X515300Y88296D02*
X515227Y87089D01*
X515081Y85889D01*
X514863Y84700D01*
X514574Y83527D01*
X514215Y82373D01*
X513786Y81243D01*
X513290Y80141D01*
X512728Y79070D01*
X512103Y78036D01*
X511416Y77041D01*
X510671Y76090D01*
X509869Y75185D01*
X509015Y74331D01*
X508110Y73529D01*
X507159Y72784D01*
X506164Y72097D01*
X505130Y71472D01*
X504059Y70910D01*
X502957Y70414D01*
X501827Y69985D01*
X500673Y69626D01*
X499500Y69337D01*
X498311Y69119D01*
X497111Y68973D01*
X495904Y68900D01*
X494696Y68900D01*
X493489Y68973D01*
X492289Y69119D01*
X491100Y69337D01*
X489927Y69626D01*
X488773Y69985D01*
X487643Y70414D01*
X486541Y70910D01*
X485470Y71472D01*
X484436Y72097D01*
X483441Y72784D01*
X482490Y73529D01*
X481585Y74331D01*
X480731Y75185D01*
X479929Y76090D01*
X479184Y77041D01*
X478497Y78036D01*
X477872Y79070D01*
X477310Y80141D01*
X476814Y81243D01*
X476385Y82373D01*
X476026Y83527D01*
X475737Y84700D01*
X475519Y85889D01*
X475373Y87089D01*
X475300Y88296D01*
X475300Y89504D01*
X475373Y90711D01*
X475519Y91911D01*
X475737Y93100D01*
X476026Y94273D01*
X476385Y95427D01*
X476814Y96557D01*
X477310Y97659D01*
X477872Y98730D01*
X478497Y99764D01*
X479184Y100759D01*
X479929Y101710D01*
X480731Y102615D01*
X481585Y103469D01*
X482490Y104271D01*
X483441Y105016D01*
X484436Y105703D01*
X485470Y106328D01*
X486541Y106890D01*
X487643Y107386D01*
X488773Y107815D01*
X489927Y108174D01*
X491100Y108463D01*
X492289Y108681D01*
X493489Y108827D01*
X494696Y108900D01*
X495904Y108900D01*
X497111Y108827D01*
X498311Y108681D01*
X499500Y108463D01*
X500673Y108174D01*
X501827Y107815D01*
X502957Y107386D01*
X504059Y106890D01*
X505130Y106328D01*
X506164Y105703D01*
X507159Y105016D01*
X508110Y104271D01*
X509015Y103469D01*
X509869Y102615D01*
X510671Y101710D01*
X511416Y100759D01*
X512103Y99764D01*
X512728Y98730D01*
X513290Y97659D01*
X513786Y96557D01*
X514215Y95427D01*
X514574Y94273D01*
X514863Y93100D01*
X515081Y91911D01*
X515227Y90711D01*
X515300Y89504D01*
X515300Y88296D01*
X453000Y88529D02*
X452935Y87789D01*
X452806Y87059D01*
X452614Y86342D01*
X452360Y85644D01*
X452047Y84971D01*
X451676Y84329D01*
X451250Y83721D01*
X450773Y83152D01*
X450248Y82627D01*
X449679Y82150D01*
X449071Y81724D01*
X448429Y81353D01*
X447756Y81040D01*
X447058Y80786D01*
X446342Y80594D01*
X445611Y80465D01*
X444871Y80400D01*
X444129Y80400D01*
X443389Y80465D01*
X442659Y80594D01*
X441942Y80786D01*
X441244Y81040D01*
X440571Y81353D01*
X439929Y81724D01*
X439321Y82150D01*
X438752Y82627D01*
X438227Y83152D01*
X437750Y83721D01*
X437324Y84329D01*
X436953Y84971D01*
X436640Y85644D01*
X436386Y86342D01*
X436194Y87059D01*
X436065Y87789D01*
X436000Y88529D01*
X436000Y89271D01*
X436065Y90011D01*
X436194Y90742D01*
X436386Y91458D01*
X436640Y92156D01*
X436953Y92829D01*
X437324Y93471D01*
X437750Y94079D01*
X438227Y94648D01*
X438752Y95173D01*
X439321Y95650D01*
X439929Y96076D01*
X440571Y96447D01*
X441244Y96760D01*
X441942Y97014D01*
X442659Y97206D01*
X443389Y97335D01*
X444129Y97400D01*
X444871Y97400D01*
X445611Y97335D01*
X446342Y97206D01*
X447058Y97014D01*
X447756Y96760D01*
X448429Y96447D01*
X449071Y96076D01*
X449679Y95650D01*
X450248Y95173D01*
X450773Y94648D01*
X451250Y94079D01*
X451676Y93471D01*
X452047Y92829D01*
X452360Y92156D01*
X452614Y91458D01*
X452806Y90742D01*
X452935Y90011D01*
X453000Y89271D01*
X453000Y88529D01*
X554600Y88529D02*
X554535Y87789D01*
X554406Y87059D01*
X554214Y86342D01*
X553960Y85644D01*
X553647Y84971D01*
X553276Y84329D01*
X552850Y83721D01*
X552373Y83152D01*
X551848Y82627D01*
X551279Y82150D01*
X550671Y81724D01*
X550029Y81353D01*
X549356Y81040D01*
X548658Y80786D01*
X547942Y80594D01*
X547211Y80465D01*
X546471Y80400D01*
X545729Y80400D01*
X544989Y80465D01*
X544259Y80594D01*
X543542Y80786D01*
X542844Y81040D01*
X542171Y81353D01*
X541529Y81724D01*
X540921Y82150D01*
X540352Y82627D01*
X539827Y83152D01*
X539350Y83721D01*
X538924Y84329D01*
X538553Y84971D01*
X538240Y85644D01*
X537986Y86342D01*
X537794Y87059D01*
X537665Y87789D01*
X537600Y88529D01*
X537600Y89271D01*
X537665Y90011D01*
X537794Y90742D01*
X537986Y91458D01*
X538240Y92156D01*
X538553Y92829D01*
X538924Y93471D01*
X539350Y94079D01*
X539827Y94648D01*
X540352Y95173D01*
X540921Y95650D01*
X541529Y96076D01*
X542171Y96447D01*
X542844Y96760D01*
X543542Y97014D01*
X544259Y97206D01*
X544989Y97335D01*
X545729Y97400D01*
X546471Y97400D01*
X547211Y97335D01*
X547942Y97206D01*
X548658Y97014D01*
X549356Y96760D01*
X550029Y96447D01*
X550671Y96076D01*
X551279Y95650D01*
X551848Y95173D01*
X552373Y94648D01*
X552850Y94079D01*
X553276Y93471D01*
X553647Y92829D01*
X553960Y92156D01*
X554214Y91458D01*
X554406Y90742D01*
X554535Y90011D01*
X554600Y89271D01*
X554600Y88529D01*
X535700Y139164D02*
X535624Y138096D01*
X535471Y137035D01*
X535243Y135988D01*
X534941Y134960D01*
X534567Y133956D01*
X534122Y132981D01*
X533608Y132041D01*
X533029Y131140D01*
X532387Y130282D01*
X531685Y129472D01*
X530928Y128715D01*
X530118Y128013D01*
X529260Y127371D01*
X528359Y126792D01*
X527419Y126278D01*
X526444Y125833D01*
X525440Y125459D01*
X524412Y125157D01*
X523365Y124929D01*
X522304Y124776D01*
X521236Y124700D01*
X520164Y124700D01*
X519096Y124776D01*
X518035Y124929D01*
X516988Y125157D01*
X515960Y125459D01*
X514956Y125833D01*
X513981Y126278D01*
X513041Y126792D01*
X512140Y127371D01*
X511282Y128013D01*
X510472Y128715D01*
X509715Y129472D01*
X509013Y130282D01*
X508371Y131140D01*
X507792Y132041D01*
X507278Y132981D01*
X506833Y133956D01*
X506459Y134960D01*
X506157Y135988D01*
X505929Y137035D01*
X505776Y138096D01*
X505700Y139164D01*
X505700Y140236D01*
X505776Y141304D01*
X505929Y142365D01*
X506157Y143412D01*
X506459Y144440D01*
X506833Y145444D01*
X507278Y146419D01*
X507792Y147359D01*
X508371Y148260D01*
X509013Y149118D01*
X509715Y149928D01*
X510472Y150685D01*
X511282Y151387D01*
X512140Y152029D01*
X513041Y152608D01*
X513981Y153122D01*
X514956Y153567D01*
X515960Y153941D01*
X516988Y154243D01*
X518035Y154471D01*
X519096Y154624D01*
X520164Y154700D01*
X521236Y154700D01*
X522304Y154624D01*
X523365Y154471D01*
X524412Y154243D01*
X525440Y153941D01*
X526444Y153567D01*
X527419Y153122D01*
X528359Y152608D01*
X529260Y152029D01*
X530118Y151387D01*
X530928Y150685D01*
X531685Y149928D01*
X532387Y149118D01*
X533029Y148260D01*
X533608Y147359D01*
X534122Y146419D01*
X534567Y145444D01*
X534941Y144440D01*
X535243Y143412D01*
X535471Y142365D01*
X535624Y141304D01*
X535700Y140236D01*
X535700Y139164D01*
X472200Y113764D02*
X472124Y112696D01*
X471971Y111635D01*
X471743Y110588D01*
X471441Y109560D01*
X471067Y108556D01*
X470622Y107581D01*
X470108Y106641D01*
X469529Y105740D01*
X468887Y104882D01*
X468185Y104072D01*
X467428Y103315D01*
X466618Y102613D01*
X465760Y101971D01*
X464859Y101392D01*
X463919Y100878D01*
X462944Y100433D01*
X461940Y100059D01*
X460912Y99757D01*
X459865Y99529D01*
X458804Y99376D01*
X457736Y99300D01*
X456664Y99300D01*
X455596Y99376D01*
X454535Y99529D01*
X453488Y99757D01*
X452460Y100059D01*
X451456Y100433D01*
X450481Y100878D01*
X449541Y101392D01*
X448640Y101971D01*
X447782Y102613D01*
X446972Y103315D01*
X446215Y104072D01*
X445513Y104882D01*
X444871Y105740D01*
X444292Y106641D01*
X443778Y107581D01*
X443333Y108556D01*
X442959Y109560D01*
X442657Y110588D01*
X442429Y111635D01*
X442276Y112696D01*
X442200Y113764D01*
X442200Y114836D01*
X442276Y115904D01*
X442429Y116965D01*
X442657Y118012D01*
X442959Y119040D01*
X443333Y120044D01*
X443778Y121019D01*
X444292Y121959D01*
X444871Y122860D01*
X445513Y123718D01*
X446215Y124528D01*
X446972Y125285D01*
X447782Y125987D01*
X448640Y126629D01*
X449541Y127208D01*
X450481Y127722D01*
X451456Y128167D01*
X452460Y128541D01*
X453488Y128843D01*
X454535Y129071D01*
X455596Y129224D01*
X456664Y129300D01*
X457736Y129300D01*
X458804Y129224D01*
X459865Y129071D01*
X460912Y128843D01*
X461940Y128541D01*
X462944Y128167D01*
X463919Y127722D01*
X464859Y127208D01*
X465760Y126629D01*
X466618Y125987D01*
X467428Y125285D01*
X468185Y124528D01*
X468887Y123718D01*
X469529Y122860D01*
X470108Y121959D01*
X470622Y121019D01*
X471067Y120044D01*
X471441Y119040D01*
X471743Y118012D01*
X471971Y116965D01*
X472124Y115904D01*
X472200Y114836D01*
X472200Y113764D01*
X649850Y87259D02*
X649785Y86519D01*
X649656Y85789D01*
X649464Y85072D01*
X649210Y84374D01*
X648897Y83701D01*
X648526Y83059D01*
X648100Y82451D01*
X647623Y81882D01*
X647098Y81357D01*
X646529Y80880D01*
X645921Y80454D01*
X645279Y80083D01*
X644606Y79770D01*
X643908Y79516D01*
X643192Y79324D01*
X642461Y79195D01*
X641721Y79130D01*
X640979Y79130D01*
X640239Y79195D01*
X639509Y79324D01*
X638792Y79516D01*
X638094Y79770D01*
X637421Y80083D01*
X636779Y80454D01*
X636171Y80880D01*
X635602Y81357D01*
X635077Y81882D01*
X634600Y82451D01*
X634174Y83059D01*
X633803Y83701D01*
X633490Y84374D01*
X633236Y85072D01*
X633044Y85789D01*
X632915Y86519D01*
X632850Y87259D01*
X632850Y88001D01*
X632915Y88741D01*
X633044Y89472D01*
X633236Y90188D01*
X633490Y90886D01*
X633803Y91559D01*
X634174Y92201D01*
X634600Y92809D01*
X635077Y93378D01*
X635602Y93903D01*
X636171Y94380D01*
X636779Y94806D01*
X637421Y95177D01*
X638094Y95490D01*
X638792Y95744D01*
X639509Y95936D01*
X640239Y96065D01*
X640979Y96130D01*
X641721Y96130D01*
X642461Y96065D01*
X643192Y95936D01*
X643908Y95744D01*
X644606Y95490D01*
X645279Y95177D01*
X645921Y94806D01*
X646529Y94380D01*
X647098Y93903D01*
X647623Y93378D01*
X648100Y92809D01*
X648526Y92201D01*
X648897Y91559D01*
X649210Y90886D01*
X649464Y90188D01*
X649656Y89472D01*
X649785Y88741D01*
X649850Y88001D01*
X649850Y87259D01*
X751450Y87259D02*
X751385Y86519D01*
X751256Y85789D01*
X751064Y85072D01*
X750810Y84374D01*
X750497Y83701D01*
X750126Y83059D01*
X749700Y82451D01*
X749223Y81882D01*
X748698Y81357D01*
X748129Y80880D01*
X747521Y80454D01*
X746879Y80083D01*
X746206Y79770D01*
X745508Y79516D01*
X744792Y79324D01*
X744061Y79195D01*
X743321Y79130D01*
X742579Y79130D01*
X741839Y79195D01*
X741109Y79324D01*
X740392Y79516D01*
X739694Y79770D01*
X739021Y80083D01*
X738379Y80454D01*
X737771Y80880D01*
X737202Y81357D01*
X736677Y81882D01*
X736200Y82451D01*
X735774Y83059D01*
X735403Y83701D01*
X735090Y84374D01*
X734836Y85072D01*
X734644Y85789D01*
X734515Y86519D01*
X734450Y87259D01*
X734450Y88001D01*
X734515Y88741D01*
X734644Y89472D01*
X734836Y90188D01*
X735090Y90886D01*
X735403Y91559D01*
X735774Y92201D01*
X736200Y92809D01*
X736677Y93378D01*
X737202Y93903D01*
X737771Y94380D01*
X738379Y94806D01*
X739021Y95177D01*
X739694Y95490D01*
X740392Y95744D01*
X741109Y95936D01*
X741839Y96065D01*
X742579Y96130D01*
X743321Y96130D01*
X744061Y96065D01*
X744792Y95936D01*
X745508Y95744D01*
X746206Y95490D01*
X746879Y95177D01*
X747521Y94806D01*
X748129Y94380D01*
X748698Y93903D01*
X749223Y93378D01*
X749700Y92809D01*
X750126Y92201D01*
X750497Y91559D01*
X750810Y90886D01*
X751064Y90188D01*
X751256Y89472D01*
X751385Y88741D01*
X751450Y88001D01*
X751450Y87259D01*
X712650Y87011D02*
X712575Y85774D01*
X712426Y84544D01*
X712203Y83325D01*
X711906Y82123D01*
X711538Y80940D01*
X711098Y79781D01*
X710590Y78652D01*
X710014Y77555D01*
X709373Y76494D01*
X708669Y75475D01*
X707905Y74500D01*
X707084Y73572D01*
X706208Y72696D01*
X705280Y71875D01*
X704305Y71111D01*
X703286Y70407D01*
X702225Y69766D01*
X701128Y69190D01*
X699999Y68682D01*
X698840Y68243D01*
X697657Y67874D01*
X696455Y67577D01*
X695236Y67354D01*
X694006Y67205D01*
X692769Y67130D01*
X691531Y67130D01*
X690294Y67205D01*
X689064Y67354D01*
X687845Y67577D01*
X686643Y67874D01*
X685460Y68243D01*
X684301Y68682D01*
X683172Y69190D01*
X682075Y69766D01*
X681014Y70407D01*
X679995Y71111D01*
X679020Y71875D01*
X678092Y72696D01*
X677216Y73572D01*
X676395Y74500D01*
X675631Y75475D01*
X674927Y76494D01*
X674286Y77555D01*
X673710Y78652D01*
X673202Y79781D01*
X672763Y80940D01*
X672394Y82123D01*
X672097Y83325D01*
X671874Y84544D01*
X671725Y85774D01*
X671650Y87011D01*
X671650Y88249D01*
X671725Y89486D01*
X671874Y90716D01*
X672097Y91935D01*
X672394Y93137D01*
X672763Y94320D01*
X673202Y95479D01*
X673710Y96608D01*
X674286Y97705D01*
X674927Y98766D01*
X675631Y99785D01*
X676395Y100760D01*
X677216Y101688D01*
X678092Y102564D01*
X679020Y103385D01*
X679995Y104149D01*
X681014Y104853D01*
X682075Y105494D01*
X683172Y106070D01*
X684301Y106578D01*
X685460Y107018D01*
X686643Y107386D01*
X687845Y107683D01*
X689064Y107906D01*
X690294Y108055D01*
X691531Y108130D01*
X692769Y108130D01*
X694006Y108055D01*
X695236Y107906D01*
X696455Y107683D01*
X697657Y107386D01*
X698840Y107018D01*
X699999Y106578D01*
X701128Y106070D01*
X702225Y105494D01*
X703286Y104853D01*
X704305Y104149D01*
X705280Y103385D01*
X706208Y102564D01*
X707084Y101688D01*
X707905Y100760D01*
X708669Y99785D01*
X709373Y98766D01*
X710014Y97705D01*
X710590Y96608D01*
X711098Y95479D01*
X711538Y94320D01*
X711906Y93137D01*
X712203Y91935D01*
X712426Y90716D01*
X712575Y89486D01*
X712650Y88249D01*
X712650Y87011D01*
X712150Y87026D02*
X712077Y85819D01*
X711931Y84619D01*
X711713Y83430D01*
X711424Y82257D01*
X711065Y81103D01*
X710636Y79973D01*
X710140Y78871D01*
X709578Y77800D01*
X708953Y76766D01*
X708266Y75771D01*
X707521Y74820D01*
X706719Y73915D01*
X705865Y73061D01*
X704960Y72259D01*
X704009Y71514D01*
X703014Y70827D01*
X701980Y70202D01*
X700909Y69640D01*
X699807Y69144D01*
X698677Y68715D01*
X697523Y68356D01*
X696350Y68067D01*
X695161Y67849D01*
X693961Y67703D01*
X692754Y67630D01*
X691546Y67630D01*
X690339Y67703D01*
X689139Y67849D01*
X687950Y68067D01*
X686777Y68356D01*
X685623Y68715D01*
X684493Y69144D01*
X683391Y69640D01*
X682320Y70202D01*
X681286Y70827D01*
X680291Y71514D01*
X679340Y72259D01*
X678435Y73061D01*
X677581Y73915D01*
X676779Y74820D01*
X676034Y75771D01*
X675347Y76766D01*
X674722Y77800D01*
X674160Y78871D01*
X673664Y79973D01*
X673235Y81103D01*
X672876Y82257D01*
X672587Y83430D01*
X672369Y84619D01*
X672223Y85819D01*
X672150Y87026D01*
X672150Y88234D01*
X672223Y89441D01*
X672369Y90641D01*
X672587Y91830D01*
X672876Y93003D01*
X673235Y94157D01*
X673664Y95287D01*
X674160Y96389D01*
X674722Y97460D01*
X675347Y98494D01*
X676034Y99489D01*
X676779Y100440D01*
X677581Y101345D01*
X678435Y102199D01*
X679340Y103001D01*
X680291Y103746D01*
X681286Y104433D01*
X682320Y105058D01*
X683391Y105620D01*
X684493Y106116D01*
X685623Y106545D01*
X686777Y106904D01*
X687950Y107193D01*
X689139Y107411D01*
X690339Y107557D01*
X691546Y107630D01*
X692754Y107630D01*
X693961Y107557D01*
X695161Y107411D01*
X696350Y107193D01*
X697523Y106904D01*
X698677Y106545D01*
X699807Y106116D01*
X700909Y105620D01*
X701980Y105058D01*
X703014Y104433D01*
X704009Y103746D01*
X704960Y103001D01*
X705865Y102199D01*
X706719Y101345D01*
X707521Y100440D01*
X708266Y99489D01*
X708953Y98494D01*
X709578Y97460D01*
X710140Y96389D01*
X710636Y95287D01*
X711065Y94157D01*
X711424Y93003D01*
X711713Y91830D01*
X711931Y90641D01*
X712077Y89441D01*
X712150Y88234D01*
X712150Y87026D01*
X649850Y87259D02*
X649785Y86519D01*
X649656Y85789D01*
X649464Y85072D01*
X649210Y84374D01*
X648897Y83701D01*
X648526Y83059D01*
X648100Y82451D01*
X647623Y81882D01*
X647098Y81357D01*
X646529Y80880D01*
X645921Y80454D01*
X645279Y80083D01*
X644606Y79770D01*
X643908Y79516D01*
X643192Y79324D01*
X642461Y79195D01*
X641721Y79130D01*
X640979Y79130D01*
X640239Y79195D01*
X639509Y79324D01*
X638792Y79516D01*
X638094Y79770D01*
X637421Y80083D01*
X636779Y80454D01*
X636171Y80880D01*
X635602Y81357D01*
X635077Y81882D01*
X634600Y82451D01*
X634174Y83059D01*
X633803Y83701D01*
X633490Y84374D01*
X633236Y85072D01*
X633044Y85789D01*
X632915Y86519D01*
X632850Y87259D01*
X632850Y88001D01*
X632915Y88741D01*
X633044Y89472D01*
X633236Y90188D01*
X633490Y90886D01*
X633803Y91559D01*
X634174Y92201D01*
X634600Y92809D01*
X635077Y93378D01*
X635602Y93903D01*
X636171Y94380D01*
X636779Y94806D01*
X637421Y95177D01*
X638094Y95490D01*
X638792Y95744D01*
X639509Y95936D01*
X640239Y96065D01*
X640979Y96130D01*
X641721Y96130D01*
X642461Y96065D01*
X643192Y95936D01*
X643908Y95744D01*
X644606Y95490D01*
X645279Y95177D01*
X645921Y94806D01*
X646529Y94380D01*
X647098Y93903D01*
X647623Y93378D01*
X648100Y92809D01*
X648526Y92201D01*
X648897Y91559D01*
X649210Y90886D01*
X649464Y90188D01*
X649656Y89472D01*
X649785Y88741D01*
X649850Y88001D01*
X649850Y87259D01*
X751450Y87259D02*
X751385Y86519D01*
X751256Y85789D01*
X751064Y85072D01*
X750810Y84374D01*
X750497Y83701D01*
X750126Y83059D01*
X749700Y82451D01*
X749223Y81882D01*
X748698Y81357D01*
X748129Y80880D01*
X747521Y80454D01*
X746879Y80083D01*
X746206Y79770D01*
X745508Y79516D01*
X744792Y79324D01*
X744061Y79195D01*
X743321Y79130D01*
X742579Y79130D01*
X741839Y79195D01*
X741109Y79324D01*
X740392Y79516D01*
X739694Y79770D01*
X739021Y80083D01*
X738379Y80454D01*
X737771Y80880D01*
X737202Y81357D01*
X736677Y81882D01*
X736200Y82451D01*
X735774Y83059D01*
X735403Y83701D01*
X735090Y84374D01*
X734836Y85072D01*
X734644Y85789D01*
X734515Y86519D01*
X734450Y87259D01*
X734450Y88001D01*
X734515Y88741D01*
X734644Y89472D01*
X734836Y90188D01*
X735090Y90886D01*
X735403Y91559D01*
X735774Y92201D01*
X736200Y92809D01*
X736677Y93378D01*
X737202Y93903D01*
X737771Y94380D01*
X738379Y94806D01*
X739021Y95177D01*
X739694Y95490D01*
X740392Y95744D01*
X741109Y95936D01*
X741839Y96065D01*
X742579Y96130D01*
X743321Y96130D01*
X744061Y96065D01*
X744792Y95936D01*
X745508Y95744D01*
X746206Y95490D01*
X746879Y95177D01*
X747521Y94806D01*
X748129Y94380D01*
X748698Y93903D01*
X749223Y93378D01*
X749700Y92809D01*
X750126Y92201D01*
X750497Y91559D01*
X750810Y90886D01*
X751064Y90188D01*
X751256Y89472D01*
X751385Y88741D01*
X751450Y88001D01*
X751450Y87259D01*
X732550Y137894D02*
X732474Y136826D01*
X732321Y135765D01*
X732093Y134718D01*
X731791Y133690D01*
X731417Y132686D01*
X730972Y131711D01*
X730458Y130771D01*
X729879Y129870D01*
X729237Y129012D01*
X728535Y128202D01*
X727778Y127445D01*
X726968Y126743D01*
X726110Y126101D01*
X725209Y125522D01*
X724269Y125008D01*
X723294Y124563D01*
X722290Y124189D01*
X721262Y123887D01*
X720215Y123659D01*
X719154Y123506D01*
X718086Y123430D01*
X717014Y123430D01*
X715946Y123506D01*
X714885Y123659D01*
X713838Y123887D01*
X712810Y124189D01*
X711806Y124563D01*
X710831Y125008D01*
X709891Y125522D01*
X708990Y126101D01*
X708132Y126743D01*
X707322Y127445D01*
X706565Y128202D01*
X705863Y129012D01*
X705221Y129870D01*
X704642Y130771D01*
X704128Y131711D01*
X703683Y132686D01*
X703309Y133690D01*
X703007Y134718D01*
X702779Y135765D01*
X702626Y136826D01*
X702550Y137894D01*
X702550Y138966D01*
X702626Y140034D01*
X702779Y141095D01*
X703007Y142142D01*
X703309Y143170D01*
X703683Y144174D01*
X704128Y145149D01*
X704642Y146089D01*
X705221Y146990D01*
X705863Y147848D01*
X706565Y148658D01*
X707322Y149415D01*
X708132Y150117D01*
X708990Y150759D01*
X709891Y151338D01*
X710831Y151852D01*
X711806Y152297D01*
X712810Y152671D01*
X713838Y152973D01*
X714885Y153201D01*
X715946Y153354D01*
X717014Y153430D01*
X718086Y153430D01*
X719154Y153354D01*
X720215Y153201D01*
X721262Y152973D01*
X722290Y152671D01*
X723294Y152297D01*
X724269Y151852D01*
X725209Y151338D01*
X726110Y150759D01*
X726968Y150117D01*
X727778Y149415D01*
X728535Y148658D01*
X729237Y147848D01*
X729879Y146990D01*
X730458Y146089D01*
X730972Y145149D01*
X731417Y144174D01*
X731791Y143170D01*
X732093Y142142D01*
X732321Y141095D01*
X732474Y140034D01*
X732550Y138966D01*
X732550Y137894D01*
X669050Y112494D02*
X668974Y111426D01*
X668821Y110365D01*
X668593Y109318D01*
X668291Y108290D01*
X667917Y107286D01*
X667472Y106311D01*
X666958Y105371D01*
X666379Y104470D01*
X665737Y103612D01*
X665035Y102802D01*
X664278Y102045D01*
X663468Y101343D01*
X662610Y100701D01*
X661709Y100122D01*
X660769Y99608D01*
X659794Y99163D01*
X658790Y98789D01*
X657762Y98487D01*
X656715Y98259D01*
X655654Y98106D01*
X654586Y98030D01*
X653514Y98030D01*
X652446Y98106D01*
X651385Y98259D01*
X650338Y98487D01*
X649310Y98789D01*
X648306Y99163D01*
X647331Y99608D01*
X646391Y100122D01*
X645490Y100701D01*
X644632Y101343D01*
X643822Y102045D01*
X643065Y102802D01*
X642363Y103612D01*
X641721Y104470D01*
X641142Y105371D01*
X640628Y106311D01*
X640183Y107286D01*
X639809Y108290D01*
X639507Y109318D01*
X639279Y110365D01*
X639126Y111426D01*
X639050Y112494D01*
X639050Y113566D01*
X639126Y114634D01*
X639279Y115695D01*
X639507Y116742D01*
X639809Y117770D01*
X640183Y118774D01*
X640628Y119749D01*
X641142Y120689D01*
X641721Y121590D01*
X642363Y122448D01*
X643065Y123258D01*
X643822Y124015D01*
X644632Y124717D01*
X645490Y125359D01*
X646391Y125938D01*
X647331Y126452D01*
X648306Y126897D01*
X649310Y127271D01*
X650338Y127573D01*
X651385Y127801D01*
X652446Y127954D01*
X653514Y128030D01*
X654586Y128030D01*
X655654Y127954D01*
X656715Y127801D01*
X657762Y127573D01*
X658790Y127271D01*
X659794Y126897D01*
X660769Y126452D01*
X661709Y125938D01*
X662610Y125359D01*
X663468Y124717D01*
X664278Y124015D01*
X665035Y123258D01*
X665737Y122448D01*
X666379Y121590D01*
X666958Y120689D01*
X667472Y119749D01*
X667917Y118774D01*
X668291Y117770D01*
X668593Y116742D01*
X668821Y115695D01*
X668974Y114634D01*
X669050Y113566D01*
X669050Y112494D01*
X850510Y88529D02*
X850445Y87789D01*
X850316Y87059D01*
X850124Y86342D01*
X849870Y85644D01*
X849557Y84971D01*
X849186Y84329D01*
X848760Y83721D01*
X848283Y83152D01*
X847758Y82627D01*
X847189Y82150D01*
X846581Y81724D01*
X845939Y81353D01*
X845266Y81040D01*
X844568Y80786D01*
X843852Y80594D01*
X843121Y80465D01*
X842381Y80400D01*
X841639Y80400D01*
X840899Y80465D01*
X840169Y80594D01*
X839452Y80786D01*
X838754Y81040D01*
X838081Y81353D01*
X837439Y81724D01*
X836831Y82150D01*
X836262Y82627D01*
X835737Y83152D01*
X835260Y83721D01*
X834834Y84329D01*
X834463Y84971D01*
X834150Y85644D01*
X833896Y86342D01*
X833704Y87059D01*
X833575Y87789D01*
X833510Y88529D01*
X833510Y89271D01*
X833575Y90011D01*
X833704Y90742D01*
X833896Y91458D01*
X834150Y92156D01*
X834463Y92829D01*
X834834Y93471D01*
X835260Y94079D01*
X835737Y94648D01*
X836262Y95173D01*
X836831Y95650D01*
X837439Y96076D01*
X838081Y96447D01*
X838754Y96760D01*
X839452Y97014D01*
X840169Y97206D01*
X840899Y97335D01*
X841639Y97400D01*
X842381Y97400D01*
X843121Y97335D01*
X843852Y97206D01*
X844568Y97014D01*
X845266Y96760D01*
X845939Y96447D01*
X846581Y96076D01*
X847189Y95650D01*
X847758Y95173D01*
X848283Y94648D01*
X848760Y94079D01*
X849186Y93471D01*
X849557Y92829D01*
X849870Y92156D01*
X850124Y91458D01*
X850316Y90742D01*
X850445Y90011D01*
X850510Y89271D01*
X850510Y88529D01*
X952110Y88529D02*
X952045Y87789D01*
X951916Y87059D01*
X951724Y86342D01*
X951470Y85644D01*
X951157Y84971D01*
X950786Y84329D01*
X950360Y83721D01*
X949883Y83152D01*
X949358Y82627D01*
X948789Y82150D01*
X948181Y81724D01*
X947539Y81353D01*
X946866Y81040D01*
X946168Y80786D01*
X945452Y80594D01*
X944721Y80465D01*
X943981Y80400D01*
X943239Y80400D01*
X942499Y80465D01*
X941769Y80594D01*
X941052Y80786D01*
X940354Y81040D01*
X939681Y81353D01*
X939039Y81724D01*
X938431Y82150D01*
X937862Y82627D01*
X937337Y83152D01*
X936860Y83721D01*
X936434Y84329D01*
X936063Y84971D01*
X935750Y85644D01*
X935496Y86342D01*
X935304Y87059D01*
X935175Y87789D01*
X935110Y88529D01*
X935110Y89271D01*
X935175Y90011D01*
X935304Y90742D01*
X935496Y91458D01*
X935750Y92156D01*
X936063Y92829D01*
X936434Y93471D01*
X936860Y94079D01*
X937337Y94648D01*
X937862Y95173D01*
X938431Y95650D01*
X939039Y96076D01*
X939681Y96447D01*
X940354Y96760D01*
X941052Y97014D01*
X941769Y97206D01*
X942499Y97335D01*
X943239Y97400D01*
X943981Y97400D01*
X944721Y97335D01*
X945452Y97206D01*
X946168Y97014D01*
X946866Y96760D01*
X947539Y96447D01*
X948181Y96076D01*
X948789Y95650D01*
X949358Y95173D01*
X949883Y94648D01*
X950360Y94079D01*
X950786Y93471D01*
X951157Y92829D01*
X951470Y92156D01*
X951724Y91458D01*
X951916Y90742D01*
X952045Y90011D01*
X952110Y89271D01*
X952110Y88529D01*
X913310Y88281D02*
X913235Y87044D01*
X913086Y85814D01*
X912863Y84595D01*
X912566Y83393D01*
X912198Y82210D01*
X911758Y81051D01*
X911250Y79922D01*
X910674Y78825D01*
X910033Y77764D01*
X909329Y76745D01*
X908565Y75770D01*
X907744Y74842D01*
X906868Y73966D01*
X905940Y73145D01*
X904965Y72381D01*
X903946Y71677D01*
X902885Y71036D01*
X901788Y70460D01*
X900659Y69952D01*
X899500Y69513D01*
X898317Y69144D01*
X897115Y68847D01*
X895896Y68624D01*
X894666Y68475D01*
X893429Y68400D01*
X892191Y68400D01*
X890954Y68475D01*
X889724Y68624D01*
X888505Y68847D01*
X887303Y69144D01*
X886120Y69513D01*
X884961Y69952D01*
X883832Y70460D01*
X882735Y71036D01*
X881674Y71677D01*
X880655Y72381D01*
X879680Y73145D01*
X878752Y73966D01*
X877876Y74842D01*
X877055Y75770D01*
X876291Y76745D01*
X875587Y77764D01*
X874946Y78825D01*
X874370Y79922D01*
X873862Y81051D01*
X873423Y82210D01*
X873054Y83393D01*
X872757Y84595D01*
X872534Y85814D01*
X872385Y87044D01*
X872310Y88281D01*
X872310Y89519D01*
X872385Y90756D01*
X872534Y91986D01*
X872757Y93205D01*
X873054Y94407D01*
X873423Y95590D01*
X873862Y96749D01*
X874370Y97878D01*
X874946Y98975D01*
X875587Y100036D01*
X876291Y101055D01*
X877055Y102030D01*
X877876Y102958D01*
X878752Y103834D01*
X879680Y104655D01*
X880655Y105419D01*
X881674Y106123D01*
X882735Y106764D01*
X883832Y107340D01*
X884961Y107848D01*
X886120Y108288D01*
X887303Y108656D01*
X888505Y108953D01*
X889724Y109176D01*
X890954Y109325D01*
X892191Y109400D01*
X893429Y109400D01*
X894666Y109325D01*
X895896Y109176D01*
X897115Y108953D01*
X898317Y108656D01*
X899500Y108288D01*
X900659Y107848D01*
X901788Y107340D01*
X902885Y106764D01*
X903946Y106123D01*
X904965Y105419D01*
X905940Y104655D01*
X906868Y103834D01*
X907744Y102958D01*
X908565Y102030D01*
X909329Y101055D01*
X910033Y100036D01*
X910674Y98975D01*
X911250Y97878D01*
X911758Y96749D01*
X912198Y95590D01*
X912566Y94407D01*
X912863Y93205D01*
X913086Y91986D01*
X913235Y90756D01*
X913310Y89519D01*
X913310Y88281D01*
X912810Y88296D02*
X912737Y87089D01*
X912591Y85889D01*
X912373Y84700D01*
X912084Y83527D01*
X911725Y82373D01*
X911296Y81243D01*
X910800Y80141D01*
X910238Y79070D01*
X909613Y78036D01*
X908926Y77041D01*
X908181Y76090D01*
X907379Y75185D01*
X906525Y74331D01*
X905620Y73529D01*
X904669Y72784D01*
X903674Y72097D01*
X902640Y71472D01*
X901569Y70910D01*
X900467Y70414D01*
X899337Y69985D01*
X898183Y69626D01*
X897010Y69337D01*
X895821Y69119D01*
X894621Y68973D01*
X893414Y68900D01*
X892206Y68900D01*
X890999Y68973D01*
X889799Y69119D01*
X888610Y69337D01*
X887437Y69626D01*
X886283Y69985D01*
X885153Y70414D01*
X884051Y70910D01*
X882980Y71472D01*
X881946Y72097D01*
X880951Y72784D01*
X880000Y73529D01*
X879095Y74331D01*
X878241Y75185D01*
X877439Y76090D01*
X876694Y77041D01*
X876007Y78036D01*
X875382Y79070D01*
X874820Y80141D01*
X874324Y81243D01*
X873895Y82373D01*
X873536Y83527D01*
X873247Y84700D01*
X873029Y85889D01*
X872883Y87089D01*
X872810Y88296D01*
X872810Y89504D01*
X872883Y90711D01*
X873029Y91911D01*
X873247Y93100D01*
X873536Y94273D01*
X873895Y95427D01*
X874324Y96557D01*
X874820Y97659D01*
X875382Y98730D01*
X876007Y99764D01*
X876694Y100759D01*
X877439Y101710D01*
X878241Y102615D01*
X879095Y103469D01*
X880000Y104271D01*
X880951Y105016D01*
X881946Y105703D01*
X882980Y106328D01*
X884051Y106890D01*
X885153Y107386D01*
X886283Y107815D01*
X887437Y108174D01*
X888610Y108463D01*
X889799Y108681D01*
X890999Y108827D01*
X892206Y108900D01*
X893414Y108900D01*
X894621Y108827D01*
X895821Y108681D01*
X897010Y108463D01*
X898183Y108174D01*
X899337Y107815D01*
X900467Y107386D01*
X901569Y106890D01*
X902640Y106328D01*
X903674Y105703D01*
X904669Y105016D01*
X905620Y104271D01*
X906525Y103469D01*
X907379Y102615D01*
X908181Y101710D01*
X908926Y100759D01*
X909613Y99764D01*
X910238Y98730D01*
X910800Y97659D01*
X911296Y96557D01*
X911725Y95427D01*
X912084Y94273D01*
X912373Y93100D01*
X912591Y91911D01*
X912737Y90711D01*
X912810Y89504D01*
X912810Y88296D01*
X850510Y88529D02*
X850445Y87789D01*
X850316Y87059D01*
X850124Y86342D01*
X849870Y85644D01*
X849557Y84971D01*
X849186Y84329D01*
X848760Y83721D01*
X848283Y83152D01*
X847758Y82627D01*
X847189Y82150D01*
X846581Y81724D01*
X845939Y81353D01*
X845266Y81040D01*
X844568Y80786D01*
X843852Y80594D01*
X843121Y80465D01*
X842381Y80400D01*
X841639Y80400D01*
X840899Y80465D01*
X840169Y80594D01*
X839452Y80786D01*
X838754Y81040D01*
X838081Y81353D01*
X837439Y81724D01*
X836831Y82150D01*
X836262Y82627D01*
X835737Y83152D01*
X835260Y83721D01*
X834834Y84329D01*
X834463Y84971D01*
X834150Y85644D01*
X833896Y86342D01*
X833704Y87059D01*
X833575Y87789D01*
X833510Y88529D01*
X833510Y89271D01*
X833575Y90011D01*
X833704Y90742D01*
X833896Y91458D01*
X834150Y92156D01*
X834463Y92829D01*
X834834Y93471D01*
X835260Y94079D01*
X835737Y94648D01*
X836262Y95173D01*
X836831Y95650D01*
X837439Y96076D01*
X838081Y96447D01*
X838754Y96760D01*
X839452Y97014D01*
X840169Y97206D01*
X840899Y97335D01*
X841639Y97400D01*
X842381Y97400D01*
X843121Y97335D01*
X843852Y97206D01*
X844568Y97014D01*
X845266Y96760D01*
X845939Y96447D01*
X846581Y96076D01*
X847189Y95650D01*
X847758Y95173D01*
X848283Y94648D01*
X848760Y94079D01*
X849186Y93471D01*
X849557Y92829D01*
X849870Y92156D01*
X850124Y91458D01*
X850316Y90742D01*
X850445Y90011D01*
X850510Y89271D01*
X850510Y88529D01*
X952110Y88529D02*
X952045Y87789D01*
X951916Y87059D01*
X951724Y86342D01*
X951470Y85644D01*
X951157Y84971D01*
X950786Y84329D01*
X950360Y83721D01*
X949883Y83152D01*
X949358Y82627D01*
X948789Y82150D01*
X948181Y81724D01*
X947539Y81353D01*
X946866Y81040D01*
X946168Y80786D01*
X945452Y80594D01*
X944721Y80465D01*
X943981Y80400D01*
X943239Y80400D01*
X942499Y80465D01*
X941769Y80594D01*
X941052Y80786D01*
X940354Y81040D01*
X939681Y81353D01*
X939039Y81724D01*
X938431Y82150D01*
X937862Y82627D01*
X937337Y83152D01*
X936860Y83721D01*
X936434Y84329D01*
X936063Y84971D01*
X935750Y85644D01*
X935496Y86342D01*
X935304Y87059D01*
X935175Y87789D01*
X935110Y88529D01*
X935110Y89271D01*
X935175Y90011D01*
X935304Y90742D01*
X935496Y91458D01*
X935750Y92156D01*
X936063Y92829D01*
X936434Y93471D01*
X936860Y94079D01*
X937337Y94648D01*
X937862Y95173D01*
X938431Y95650D01*
X939039Y96076D01*
X939681Y96447D01*
X940354Y96760D01*
X941052Y97014D01*
X941769Y97206D01*
X942499Y97335D01*
X943239Y97400D01*
X943981Y97400D01*
X944721Y97335D01*
X945452Y97206D01*
X946168Y97014D01*
X946866Y96760D01*
X947539Y96447D01*
X948181Y96076D01*
X948789Y95650D01*
X949358Y95173D01*
X949883Y94648D01*
X950360Y94079D01*
X950786Y93471D01*
X951157Y92829D01*
X951470Y92156D01*
X951724Y91458D01*
X951916Y90742D01*
X952045Y90011D01*
X952110Y89271D01*
X952110Y88529D01*
X933210Y139164D02*
X933134Y138096D01*
X932981Y137035D01*
X932753Y135988D01*
X932451Y134960D01*
X932077Y133956D01*
X931632Y132981D01*
X931118Y132041D01*
X930539Y131140D01*
X929897Y130282D01*
X929195Y129472D01*
X928438Y128715D01*
X927628Y128013D01*
X926770Y127371D01*
X925869Y126792D01*
X924929Y126278D01*
X923954Y125833D01*
X922950Y125459D01*
X921922Y125157D01*
X920875Y124929D01*
X919814Y124776D01*
X918746Y124700D01*
X917674Y124700D01*
X916606Y124776D01*
X915545Y124929D01*
X914498Y125157D01*
X913470Y125459D01*
X912466Y125833D01*
X911491Y126278D01*
X910551Y126792D01*
X909650Y127371D01*
X908792Y128013D01*
X907982Y128715D01*
X907225Y129472D01*
X906523Y130282D01*
X905881Y131140D01*
X905302Y132041D01*
X904788Y132981D01*
X904343Y133956D01*
X903969Y134960D01*
X903667Y135988D01*
X903439Y137035D01*
X903286Y138096D01*
X903210Y139164D01*
X903210Y140236D01*
X903286Y141304D01*
X903439Y142365D01*
X903667Y143412D01*
X903969Y144440D01*
X904343Y145444D01*
X904788Y146419D01*
X905302Y147359D01*
X905881Y148260D01*
X906523Y149118D01*
X907225Y149928D01*
X907982Y150685D01*
X908792Y151387D01*
X909650Y152029D01*
X910551Y152608D01*
X911491Y153122D01*
X912466Y153567D01*
X913470Y153941D01*
X914498Y154243D01*
X915545Y154471D01*
X916606Y154624D01*
X917674Y154700D01*
X918746Y154700D01*
X919814Y154624D01*
X920875Y154471D01*
X921922Y154243D01*
X922950Y153941D01*
X923954Y153567D01*
X924929Y153122D01*
X925869Y152608D01*
X926770Y152029D01*
X927628Y151387D01*
X928438Y150685D01*
X929195Y149928D01*
X929897Y149118D01*
X930539Y148260D01*
X931118Y147359D01*
X931632Y146419D01*
X932077Y145444D01*
X932451Y144440D01*
X932753Y143412D01*
X932981Y142365D01*
X933134Y141304D01*
X933210Y140236D01*
X933210Y139164D01*
X869710Y113764D02*
X869634Y112696D01*
X869481Y111635D01*
X869253Y110588D01*
X868951Y109560D01*
X868577Y108556D01*
X868132Y107581D01*
X867618Y106641D01*
X867039Y105740D01*
X866397Y104882D01*
X865695Y104072D01*
X864938Y103315D01*
X864128Y102613D01*
X863270Y101971D01*
X862369Y101392D01*
X861429Y100878D01*
X860454Y100433D01*
X859450Y100059D01*
X858422Y99757D01*
X857375Y99529D01*
X856314Y99376D01*
X855246Y99300D01*
X854174Y99300D01*
X853106Y99376D01*
X852045Y99529D01*
X850998Y99757D01*
X849970Y100059D01*
X848966Y100433D01*
X847991Y100878D01*
X847051Y101392D01*
X846150Y101971D01*
X845292Y102613D01*
X844482Y103315D01*
X843725Y104072D01*
X843023Y104882D01*
X842381Y105740D01*
X841802Y106641D01*
X841288Y107581D01*
X840843Y108556D01*
X840469Y109560D01*
X840167Y110588D01*
X839939Y111635D01*
X839786Y112696D01*
X839710Y113764D01*
X839710Y114836D01*
X839786Y115904D01*
X839939Y116965D01*
X840167Y118012D01*
X840469Y119040D01*
X840843Y120044D01*
X841288Y121019D01*
X841802Y121959D01*
X842381Y122860D01*
X843023Y123718D01*
X843725Y124528D01*
X844482Y125285D01*
X845292Y125987D01*
X846150Y126629D01*
X847051Y127208D01*
X847991Y127722D01*
X848966Y128167D01*
X849970Y128541D01*
X850998Y128843D01*
X852045Y129071D01*
X853106Y129224D01*
X854174Y129300D01*
X855246Y129300D01*
X856314Y129224D01*
X857375Y129071D01*
X858422Y128843D01*
X859450Y128541D01*
X860454Y128167D01*
X861429Y127722D01*
X862369Y127208D01*
X863270Y126629D01*
X864128Y125987D01*
X864938Y125285D01*
X865695Y124528D01*
X866397Y123718D01*
X867039Y122860D01*
X867618Y121959D01*
X868132Y121019D01*
X868577Y120044D01*
X868951Y119040D01*
X869253Y118012D01*
X869481Y116965D01*
X869634Y115904D01*
X869710Y114836D01*
X869710Y113764D01*
M02*
