G04 EAGLE Gerber RS-274X export*
G75*
%MOMM*%
%FSLAX34Y34*%
%LPD*%
%IN*%
%IPPOS*%
%AMOC8*
5,1,8,0,0,1.08239X$1,22.5*%
G01*
%ADD10C,0.254000*%


D10*
X692150Y20320D02*
X692305Y16778D01*
X692767Y13263D01*
X693535Y9802D01*
X694601Y6420D01*
X695958Y3145D01*
X697595Y0D01*
X699500Y-2990D01*
X701658Y-5803D01*
X704053Y-8417D01*
X706667Y-10812D01*
X709480Y-12970D01*
X712470Y-14875D01*
X715615Y-16512D01*
X718890Y-17869D01*
X722272Y-18935D01*
X725733Y-19703D01*
X729248Y-20165D01*
X732790Y-20320D01*
X1651000Y-20320D01*
X1654542Y-20165D01*
X1658057Y-19703D01*
X1661518Y-18935D01*
X1664900Y-17869D01*
X1668175Y-16512D01*
X1671320Y-14875D01*
X1674310Y-12970D01*
X1677123Y-10812D01*
X1679737Y-8417D01*
X1682132Y-5803D01*
X1684290Y-2990D01*
X1686195Y0D01*
X1687832Y3145D01*
X1689189Y6420D01*
X1690255Y9802D01*
X1691023Y13263D01*
X1691485Y16778D01*
X1691640Y20320D01*
X1691640Y938530D01*
X1691485Y942072D01*
X1691023Y945587D01*
X1690255Y949048D01*
X1689189Y952430D01*
X1687832Y955705D01*
X1686195Y958850D01*
X1684290Y961840D01*
X1682132Y964653D01*
X1679737Y967267D01*
X1677123Y969662D01*
X1674310Y971820D01*
X1671320Y973725D01*
X1668175Y975362D01*
X1664900Y976719D01*
X1661518Y977785D01*
X1658057Y978553D01*
X1654542Y979015D01*
X1651000Y979170D01*
X732790Y979170D01*
X729248Y979015D01*
X725733Y978553D01*
X722272Y977785D01*
X718890Y976719D01*
X715615Y975362D01*
X712470Y973725D01*
X709480Y971820D01*
X706667Y969662D01*
X704053Y967267D01*
X701658Y964653D01*
X699500Y961840D01*
X697595Y958850D01*
X695958Y955705D01*
X694601Y952430D01*
X693535Y949048D01*
X692767Y945587D01*
X692305Y942072D01*
X692150Y938530D01*
X692150Y20320D01*
X1567942Y66802D02*
X1604264Y66802D01*
X1604264Y99060D01*
X1567942Y99060D01*
X1567942Y66802D01*
X1366012Y65532D02*
X1402334Y65532D01*
X1402334Y97790D01*
X1366012Y97790D01*
X1366012Y65532D01*
X1169162Y66802D02*
X1205484Y66802D01*
X1205484Y99060D01*
X1169162Y99060D01*
X1169162Y66802D01*
X972312Y65532D02*
X1008634Y65532D01*
X1008634Y97790D01*
X972312Y97790D01*
X972312Y65532D01*
X774192Y68072D02*
X810514Y68072D01*
X810514Y100330D01*
X774192Y100330D01*
X774192Y68072D01*
X750180Y131709D02*
X750115Y130969D01*
X749986Y130239D01*
X749794Y129522D01*
X749540Y128824D01*
X749227Y128151D01*
X748856Y127509D01*
X748430Y126901D01*
X747953Y126332D01*
X747428Y125807D01*
X746859Y125330D01*
X746251Y124904D01*
X745609Y124533D01*
X744936Y124220D01*
X744238Y123966D01*
X743522Y123774D01*
X742791Y123645D01*
X742051Y123580D01*
X741309Y123580D01*
X740569Y123645D01*
X739839Y123774D01*
X739122Y123966D01*
X738424Y124220D01*
X737751Y124533D01*
X737109Y124904D01*
X736501Y125330D01*
X735932Y125807D01*
X735407Y126332D01*
X734930Y126901D01*
X734504Y127509D01*
X734133Y128151D01*
X733820Y128824D01*
X733566Y129522D01*
X733374Y130239D01*
X733245Y130969D01*
X733180Y131709D01*
X733180Y132451D01*
X733245Y133191D01*
X733374Y133922D01*
X733566Y134638D01*
X733820Y135336D01*
X734133Y136009D01*
X734504Y136651D01*
X734930Y137259D01*
X735407Y137828D01*
X735932Y138353D01*
X736501Y138830D01*
X737109Y139256D01*
X737751Y139627D01*
X738424Y139940D01*
X739122Y140194D01*
X739839Y140386D01*
X740569Y140515D01*
X741309Y140580D01*
X742051Y140580D01*
X742791Y140515D01*
X743522Y140386D01*
X744238Y140194D01*
X744936Y139940D01*
X745609Y139627D01*
X746251Y139256D01*
X746859Y138830D01*
X747428Y138353D01*
X747953Y137828D01*
X748430Y137259D01*
X748856Y136651D01*
X749227Y136009D01*
X749540Y135336D01*
X749794Y134638D01*
X749986Y133922D01*
X750115Y133191D01*
X750180Y132451D01*
X750180Y131709D01*
X851780Y131709D02*
X851715Y130969D01*
X851586Y130239D01*
X851394Y129522D01*
X851140Y128824D01*
X850827Y128151D01*
X850456Y127509D01*
X850030Y126901D01*
X849553Y126332D01*
X849028Y125807D01*
X848459Y125330D01*
X847851Y124904D01*
X847209Y124533D01*
X846536Y124220D01*
X845838Y123966D01*
X845122Y123774D01*
X844391Y123645D01*
X843651Y123580D01*
X842909Y123580D01*
X842169Y123645D01*
X841439Y123774D01*
X840722Y123966D01*
X840024Y124220D01*
X839351Y124533D01*
X838709Y124904D01*
X838101Y125330D01*
X837532Y125807D01*
X837007Y126332D01*
X836530Y126901D01*
X836104Y127509D01*
X835733Y128151D01*
X835420Y128824D01*
X835166Y129522D01*
X834974Y130239D01*
X834845Y130969D01*
X834780Y131709D01*
X834780Y132451D01*
X834845Y133191D01*
X834974Y133922D01*
X835166Y134638D01*
X835420Y135336D01*
X835733Y136009D01*
X836104Y136651D01*
X836530Y137259D01*
X837007Y137828D01*
X837532Y138353D01*
X838101Y138830D01*
X838709Y139256D01*
X839351Y139627D01*
X840024Y139940D01*
X840722Y140194D01*
X841439Y140386D01*
X842169Y140515D01*
X842909Y140580D01*
X843651Y140580D01*
X844391Y140515D01*
X845122Y140386D01*
X845838Y140194D01*
X846536Y139940D01*
X847209Y139627D01*
X847851Y139256D01*
X848459Y138830D01*
X849028Y138353D01*
X849553Y137828D01*
X850030Y137259D01*
X850456Y136651D01*
X850827Y136009D01*
X851140Y135336D01*
X851394Y134638D01*
X851586Y133922D01*
X851715Y133191D01*
X851780Y132451D01*
X851780Y131709D01*
X812980Y131461D02*
X812905Y130224D01*
X812756Y128994D01*
X812533Y127775D01*
X812236Y126573D01*
X811868Y125390D01*
X811428Y124231D01*
X810920Y123102D01*
X810344Y122005D01*
X809703Y120944D01*
X808999Y119925D01*
X808235Y118950D01*
X807414Y118022D01*
X806538Y117146D01*
X805610Y116325D01*
X804635Y115561D01*
X803616Y114857D01*
X802555Y114216D01*
X801458Y113640D01*
X800329Y113132D01*
X799170Y112693D01*
X797987Y112324D01*
X796785Y112027D01*
X795566Y111804D01*
X794336Y111655D01*
X793099Y111580D01*
X791861Y111580D01*
X790624Y111655D01*
X789394Y111804D01*
X788175Y112027D01*
X786973Y112324D01*
X785790Y112693D01*
X784631Y113132D01*
X783502Y113640D01*
X782405Y114216D01*
X781344Y114857D01*
X780325Y115561D01*
X779350Y116325D01*
X778422Y117146D01*
X777546Y118022D01*
X776725Y118950D01*
X775961Y119925D01*
X775257Y120944D01*
X774616Y122005D01*
X774040Y123102D01*
X773532Y124231D01*
X773093Y125390D01*
X772724Y126573D01*
X772427Y127775D01*
X772204Y128994D01*
X772055Y130224D01*
X771980Y131461D01*
X771980Y132699D01*
X772055Y133936D01*
X772204Y135166D01*
X772427Y136385D01*
X772724Y137587D01*
X773093Y138770D01*
X773532Y139929D01*
X774040Y141058D01*
X774616Y142155D01*
X775257Y143216D01*
X775961Y144235D01*
X776725Y145210D01*
X777546Y146138D01*
X778422Y147014D01*
X779350Y147835D01*
X780325Y148599D01*
X781344Y149303D01*
X782405Y149944D01*
X783502Y150520D01*
X784631Y151028D01*
X785790Y151468D01*
X786973Y151836D01*
X788175Y152133D01*
X789394Y152356D01*
X790624Y152505D01*
X791861Y152580D01*
X793099Y152580D01*
X794336Y152505D01*
X795566Y152356D01*
X796785Y152133D01*
X797987Y151836D01*
X799170Y151468D01*
X800329Y151028D01*
X801458Y150520D01*
X802555Y149944D01*
X803616Y149303D01*
X804635Y148599D01*
X805610Y147835D01*
X806538Y147014D01*
X807414Y146138D01*
X808235Y145210D01*
X808999Y144235D01*
X809703Y143216D01*
X810344Y142155D01*
X810920Y141058D01*
X811428Y139929D01*
X811868Y138770D01*
X812236Y137587D01*
X812533Y136385D01*
X812756Y135166D01*
X812905Y133936D01*
X812980Y132699D01*
X812980Y131461D01*
X812480Y131476D02*
X812407Y130269D01*
X812261Y129069D01*
X812043Y127880D01*
X811754Y126707D01*
X811395Y125553D01*
X810966Y124423D01*
X810470Y123321D01*
X809908Y122250D01*
X809283Y121216D01*
X808596Y120221D01*
X807851Y119270D01*
X807049Y118365D01*
X806195Y117511D01*
X805290Y116709D01*
X804339Y115964D01*
X803344Y115277D01*
X802310Y114652D01*
X801239Y114090D01*
X800137Y113594D01*
X799007Y113165D01*
X797853Y112806D01*
X796680Y112517D01*
X795491Y112299D01*
X794291Y112153D01*
X793084Y112080D01*
X791876Y112080D01*
X790669Y112153D01*
X789469Y112299D01*
X788280Y112517D01*
X787107Y112806D01*
X785953Y113165D01*
X784823Y113594D01*
X783721Y114090D01*
X782650Y114652D01*
X781616Y115277D01*
X780621Y115964D01*
X779670Y116709D01*
X778765Y117511D01*
X777911Y118365D01*
X777109Y119270D01*
X776364Y120221D01*
X775677Y121216D01*
X775052Y122250D01*
X774490Y123321D01*
X773994Y124423D01*
X773565Y125553D01*
X773206Y126707D01*
X772917Y127880D01*
X772699Y129069D01*
X772553Y130269D01*
X772480Y131476D01*
X772480Y132684D01*
X772553Y133891D01*
X772699Y135091D01*
X772917Y136280D01*
X773206Y137453D01*
X773565Y138607D01*
X773994Y139737D01*
X774490Y140839D01*
X775052Y141910D01*
X775677Y142944D01*
X776364Y143939D01*
X777109Y144890D01*
X777911Y145795D01*
X778765Y146649D01*
X779670Y147451D01*
X780621Y148196D01*
X781616Y148883D01*
X782650Y149508D01*
X783721Y150070D01*
X784823Y150566D01*
X785953Y150995D01*
X787107Y151354D01*
X788280Y151643D01*
X789469Y151861D01*
X790669Y152007D01*
X791876Y152080D01*
X793084Y152080D01*
X794291Y152007D01*
X795491Y151861D01*
X796680Y151643D01*
X797853Y151354D01*
X799007Y150995D01*
X800137Y150566D01*
X801239Y150070D01*
X802310Y149508D01*
X803344Y148883D01*
X804339Y148196D01*
X805290Y147451D01*
X806195Y146649D01*
X807049Y145795D01*
X807851Y144890D01*
X808596Y143939D01*
X809283Y142944D01*
X809908Y141910D01*
X810470Y140839D01*
X810966Y139737D01*
X811395Y138607D01*
X811754Y137453D01*
X812043Y136280D01*
X812261Y135091D01*
X812407Y133891D01*
X812480Y132684D01*
X812480Y131476D01*
X750180Y131709D02*
X750115Y130969D01*
X749986Y130239D01*
X749794Y129522D01*
X749540Y128824D01*
X749227Y128151D01*
X748856Y127509D01*
X748430Y126901D01*
X747953Y126332D01*
X747428Y125807D01*
X746859Y125330D01*
X746251Y124904D01*
X745609Y124533D01*
X744936Y124220D01*
X744238Y123966D01*
X743522Y123774D01*
X742791Y123645D01*
X742051Y123580D01*
X741309Y123580D01*
X740569Y123645D01*
X739839Y123774D01*
X739122Y123966D01*
X738424Y124220D01*
X737751Y124533D01*
X737109Y124904D01*
X736501Y125330D01*
X735932Y125807D01*
X735407Y126332D01*
X734930Y126901D01*
X734504Y127509D01*
X734133Y128151D01*
X733820Y128824D01*
X733566Y129522D01*
X733374Y130239D01*
X733245Y130969D01*
X733180Y131709D01*
X733180Y132451D01*
X733245Y133191D01*
X733374Y133922D01*
X733566Y134638D01*
X733820Y135336D01*
X734133Y136009D01*
X734504Y136651D01*
X734930Y137259D01*
X735407Y137828D01*
X735932Y138353D01*
X736501Y138830D01*
X737109Y139256D01*
X737751Y139627D01*
X738424Y139940D01*
X739122Y140194D01*
X739839Y140386D01*
X740569Y140515D01*
X741309Y140580D01*
X742051Y140580D01*
X742791Y140515D01*
X743522Y140386D01*
X744238Y140194D01*
X744936Y139940D01*
X745609Y139627D01*
X746251Y139256D01*
X746859Y138830D01*
X747428Y138353D01*
X747953Y137828D01*
X748430Y137259D01*
X748856Y136651D01*
X749227Y136009D01*
X749540Y135336D01*
X749794Y134638D01*
X749986Y133922D01*
X750115Y133191D01*
X750180Y132451D01*
X750180Y131709D01*
X851780Y131709D02*
X851715Y130969D01*
X851586Y130239D01*
X851394Y129522D01*
X851140Y128824D01*
X850827Y128151D01*
X850456Y127509D01*
X850030Y126901D01*
X849553Y126332D01*
X849028Y125807D01*
X848459Y125330D01*
X847851Y124904D01*
X847209Y124533D01*
X846536Y124220D01*
X845838Y123966D01*
X845122Y123774D01*
X844391Y123645D01*
X843651Y123580D01*
X842909Y123580D01*
X842169Y123645D01*
X841439Y123774D01*
X840722Y123966D01*
X840024Y124220D01*
X839351Y124533D01*
X838709Y124904D01*
X838101Y125330D01*
X837532Y125807D01*
X837007Y126332D01*
X836530Y126901D01*
X836104Y127509D01*
X835733Y128151D01*
X835420Y128824D01*
X835166Y129522D01*
X834974Y130239D01*
X834845Y130969D01*
X834780Y131709D01*
X834780Y132451D01*
X834845Y133191D01*
X834974Y133922D01*
X835166Y134638D01*
X835420Y135336D01*
X835733Y136009D01*
X836104Y136651D01*
X836530Y137259D01*
X837007Y137828D01*
X837532Y138353D01*
X838101Y138830D01*
X838709Y139256D01*
X839351Y139627D01*
X840024Y139940D01*
X840722Y140194D01*
X841439Y140386D01*
X842169Y140515D01*
X842909Y140580D01*
X843651Y140580D01*
X844391Y140515D01*
X845122Y140386D01*
X845838Y140194D01*
X846536Y139940D01*
X847209Y139627D01*
X847851Y139256D01*
X848459Y138830D01*
X849028Y138353D01*
X849553Y137828D01*
X850030Y137259D01*
X850456Y136651D01*
X850827Y136009D01*
X851140Y135336D01*
X851394Y134638D01*
X851586Y133922D01*
X851715Y133191D01*
X851780Y132451D01*
X851780Y131709D01*
X832880Y182344D02*
X832804Y181276D01*
X832651Y180215D01*
X832423Y179168D01*
X832121Y178140D01*
X831747Y177136D01*
X831302Y176161D01*
X830788Y175221D01*
X830209Y174320D01*
X829567Y173462D01*
X828865Y172652D01*
X828108Y171895D01*
X827298Y171193D01*
X826440Y170551D01*
X825539Y169972D01*
X824599Y169458D01*
X823624Y169013D01*
X822620Y168639D01*
X821592Y168337D01*
X820545Y168109D01*
X819484Y167956D01*
X818416Y167880D01*
X817344Y167880D01*
X816276Y167956D01*
X815215Y168109D01*
X814168Y168337D01*
X813140Y168639D01*
X812136Y169013D01*
X811161Y169458D01*
X810221Y169972D01*
X809320Y170551D01*
X808462Y171193D01*
X807652Y171895D01*
X806895Y172652D01*
X806193Y173462D01*
X805551Y174320D01*
X804972Y175221D01*
X804458Y176161D01*
X804013Y177136D01*
X803639Y178140D01*
X803337Y179168D01*
X803109Y180215D01*
X802956Y181276D01*
X802880Y182344D01*
X802880Y183416D01*
X802956Y184484D01*
X803109Y185545D01*
X803337Y186592D01*
X803639Y187620D01*
X804013Y188624D01*
X804458Y189599D01*
X804972Y190539D01*
X805551Y191440D01*
X806193Y192298D01*
X806895Y193108D01*
X807652Y193865D01*
X808462Y194567D01*
X809320Y195209D01*
X810221Y195788D01*
X811161Y196302D01*
X812136Y196747D01*
X813140Y197121D01*
X814168Y197423D01*
X815215Y197651D01*
X816276Y197804D01*
X817344Y197880D01*
X818416Y197880D01*
X819484Y197804D01*
X820545Y197651D01*
X821592Y197423D01*
X822620Y197121D01*
X823624Y196747D01*
X824599Y196302D01*
X825539Y195788D01*
X826440Y195209D01*
X827298Y194567D01*
X828108Y193865D01*
X828865Y193108D01*
X829567Y192298D01*
X830209Y191440D01*
X830788Y190539D01*
X831302Y189599D01*
X831747Y188624D01*
X832121Y187620D01*
X832423Y186592D01*
X832651Y185545D01*
X832804Y184484D01*
X832880Y183416D01*
X832880Y182344D01*
X769380Y156944D02*
X769304Y155876D01*
X769151Y154815D01*
X768923Y153768D01*
X768621Y152740D01*
X768247Y151736D01*
X767802Y150761D01*
X767288Y149821D01*
X766709Y148920D01*
X766067Y148062D01*
X765365Y147252D01*
X764608Y146495D01*
X763798Y145793D01*
X762940Y145151D01*
X762039Y144572D01*
X761099Y144058D01*
X760124Y143613D01*
X759120Y143239D01*
X758092Y142937D01*
X757045Y142709D01*
X755984Y142556D01*
X754916Y142480D01*
X753844Y142480D01*
X752776Y142556D01*
X751715Y142709D01*
X750668Y142937D01*
X749640Y143239D01*
X748636Y143613D01*
X747661Y144058D01*
X746721Y144572D01*
X745820Y145151D01*
X744962Y145793D01*
X744152Y146495D01*
X743395Y147252D01*
X742693Y148062D01*
X742051Y148920D01*
X741472Y149821D01*
X740958Y150761D01*
X740513Y151736D01*
X740139Y152740D01*
X739837Y153768D01*
X739609Y154815D01*
X739456Y155876D01*
X739380Y156944D01*
X739380Y158016D01*
X739456Y159084D01*
X739609Y160145D01*
X739837Y161192D01*
X740139Y162220D01*
X740513Y163224D01*
X740958Y164199D01*
X741472Y165139D01*
X742051Y166040D01*
X742693Y166898D01*
X743395Y167708D01*
X744152Y168465D01*
X744962Y169167D01*
X745820Y169809D01*
X746721Y170388D01*
X747661Y170902D01*
X748636Y171347D01*
X749640Y171721D01*
X750668Y172023D01*
X751715Y172251D01*
X752776Y172404D01*
X753844Y172480D01*
X754916Y172480D01*
X755984Y172404D01*
X757045Y172251D01*
X758092Y172023D01*
X759120Y171721D01*
X760124Y171347D01*
X761099Y170902D01*
X762039Y170388D01*
X762940Y169809D01*
X763798Y169167D01*
X764608Y168465D01*
X765365Y167708D01*
X766067Y166898D01*
X766709Y166040D01*
X767288Y165139D01*
X767802Y164199D01*
X768247Y163224D01*
X768621Y162220D01*
X768923Y161192D01*
X769151Y160145D01*
X769304Y159084D01*
X769380Y158016D01*
X769380Y156944D01*
X947030Y131709D02*
X946965Y130969D01*
X946836Y130239D01*
X946644Y129522D01*
X946390Y128824D01*
X946077Y128151D01*
X945706Y127509D01*
X945280Y126901D01*
X944803Y126332D01*
X944278Y125807D01*
X943709Y125330D01*
X943101Y124904D01*
X942459Y124533D01*
X941786Y124220D01*
X941088Y123966D01*
X940372Y123774D01*
X939641Y123645D01*
X938901Y123580D01*
X938159Y123580D01*
X937419Y123645D01*
X936689Y123774D01*
X935972Y123966D01*
X935274Y124220D01*
X934601Y124533D01*
X933959Y124904D01*
X933351Y125330D01*
X932782Y125807D01*
X932257Y126332D01*
X931780Y126901D01*
X931354Y127509D01*
X930983Y128151D01*
X930670Y128824D01*
X930416Y129522D01*
X930224Y130239D01*
X930095Y130969D01*
X930030Y131709D01*
X930030Y132451D01*
X930095Y133191D01*
X930224Y133922D01*
X930416Y134638D01*
X930670Y135336D01*
X930983Y136009D01*
X931354Y136651D01*
X931780Y137259D01*
X932257Y137828D01*
X932782Y138353D01*
X933351Y138830D01*
X933959Y139256D01*
X934601Y139627D01*
X935274Y139940D01*
X935972Y140194D01*
X936689Y140386D01*
X937419Y140515D01*
X938159Y140580D01*
X938901Y140580D01*
X939641Y140515D01*
X940372Y140386D01*
X941088Y140194D01*
X941786Y139940D01*
X942459Y139627D01*
X943101Y139256D01*
X943709Y138830D01*
X944278Y138353D01*
X944803Y137828D01*
X945280Y137259D01*
X945706Y136651D01*
X946077Y136009D01*
X946390Y135336D01*
X946644Y134638D01*
X946836Y133922D01*
X946965Y133191D01*
X947030Y132451D01*
X947030Y131709D01*
X1048630Y131709D02*
X1048565Y130969D01*
X1048436Y130239D01*
X1048244Y129522D01*
X1047990Y128824D01*
X1047677Y128151D01*
X1047306Y127509D01*
X1046880Y126901D01*
X1046403Y126332D01*
X1045878Y125807D01*
X1045309Y125330D01*
X1044701Y124904D01*
X1044059Y124533D01*
X1043386Y124220D01*
X1042688Y123966D01*
X1041972Y123774D01*
X1041241Y123645D01*
X1040501Y123580D01*
X1039759Y123580D01*
X1039019Y123645D01*
X1038289Y123774D01*
X1037572Y123966D01*
X1036874Y124220D01*
X1036201Y124533D01*
X1035559Y124904D01*
X1034951Y125330D01*
X1034382Y125807D01*
X1033857Y126332D01*
X1033380Y126901D01*
X1032954Y127509D01*
X1032583Y128151D01*
X1032270Y128824D01*
X1032016Y129522D01*
X1031824Y130239D01*
X1031695Y130969D01*
X1031630Y131709D01*
X1031630Y132451D01*
X1031695Y133191D01*
X1031824Y133922D01*
X1032016Y134638D01*
X1032270Y135336D01*
X1032583Y136009D01*
X1032954Y136651D01*
X1033380Y137259D01*
X1033857Y137828D01*
X1034382Y138353D01*
X1034951Y138830D01*
X1035559Y139256D01*
X1036201Y139627D01*
X1036874Y139940D01*
X1037572Y140194D01*
X1038289Y140386D01*
X1039019Y140515D01*
X1039759Y140580D01*
X1040501Y140580D01*
X1041241Y140515D01*
X1041972Y140386D01*
X1042688Y140194D01*
X1043386Y139940D01*
X1044059Y139627D01*
X1044701Y139256D01*
X1045309Y138830D01*
X1045878Y138353D01*
X1046403Y137828D01*
X1046880Y137259D01*
X1047306Y136651D01*
X1047677Y136009D01*
X1047990Y135336D01*
X1048244Y134638D01*
X1048436Y133922D01*
X1048565Y133191D01*
X1048630Y132451D01*
X1048630Y131709D01*
X1009830Y131461D02*
X1009755Y130224D01*
X1009606Y128994D01*
X1009383Y127775D01*
X1009086Y126573D01*
X1008718Y125390D01*
X1008278Y124231D01*
X1007770Y123102D01*
X1007194Y122005D01*
X1006553Y120944D01*
X1005849Y119925D01*
X1005085Y118950D01*
X1004264Y118022D01*
X1003388Y117146D01*
X1002460Y116325D01*
X1001485Y115561D01*
X1000466Y114857D01*
X999405Y114216D01*
X998308Y113640D01*
X997179Y113132D01*
X996020Y112693D01*
X994837Y112324D01*
X993635Y112027D01*
X992416Y111804D01*
X991186Y111655D01*
X989949Y111580D01*
X988711Y111580D01*
X987474Y111655D01*
X986244Y111804D01*
X985025Y112027D01*
X983823Y112324D01*
X982640Y112693D01*
X981481Y113132D01*
X980352Y113640D01*
X979255Y114216D01*
X978194Y114857D01*
X977175Y115561D01*
X976200Y116325D01*
X975272Y117146D01*
X974396Y118022D01*
X973575Y118950D01*
X972811Y119925D01*
X972107Y120944D01*
X971466Y122005D01*
X970890Y123102D01*
X970382Y124231D01*
X969943Y125390D01*
X969574Y126573D01*
X969277Y127775D01*
X969054Y128994D01*
X968905Y130224D01*
X968830Y131461D01*
X968830Y132699D01*
X968905Y133936D01*
X969054Y135166D01*
X969277Y136385D01*
X969574Y137587D01*
X969943Y138770D01*
X970382Y139929D01*
X970890Y141058D01*
X971466Y142155D01*
X972107Y143216D01*
X972811Y144235D01*
X973575Y145210D01*
X974396Y146138D01*
X975272Y147014D01*
X976200Y147835D01*
X977175Y148599D01*
X978194Y149303D01*
X979255Y149944D01*
X980352Y150520D01*
X981481Y151028D01*
X982640Y151468D01*
X983823Y151836D01*
X985025Y152133D01*
X986244Y152356D01*
X987474Y152505D01*
X988711Y152580D01*
X989949Y152580D01*
X991186Y152505D01*
X992416Y152356D01*
X993635Y152133D01*
X994837Y151836D01*
X996020Y151468D01*
X997179Y151028D01*
X998308Y150520D01*
X999405Y149944D01*
X1000466Y149303D01*
X1001485Y148599D01*
X1002460Y147835D01*
X1003388Y147014D01*
X1004264Y146138D01*
X1005085Y145210D01*
X1005849Y144235D01*
X1006553Y143216D01*
X1007194Y142155D01*
X1007770Y141058D01*
X1008278Y139929D01*
X1008718Y138770D01*
X1009086Y137587D01*
X1009383Y136385D01*
X1009606Y135166D01*
X1009755Y133936D01*
X1009830Y132699D01*
X1009830Y131461D01*
X1009330Y131476D02*
X1009257Y130269D01*
X1009111Y129069D01*
X1008893Y127880D01*
X1008604Y126707D01*
X1008245Y125553D01*
X1007816Y124423D01*
X1007320Y123321D01*
X1006758Y122250D01*
X1006133Y121216D01*
X1005446Y120221D01*
X1004701Y119270D01*
X1003899Y118365D01*
X1003045Y117511D01*
X1002140Y116709D01*
X1001189Y115964D01*
X1000194Y115277D01*
X999160Y114652D01*
X998089Y114090D01*
X996987Y113594D01*
X995857Y113165D01*
X994703Y112806D01*
X993530Y112517D01*
X992341Y112299D01*
X991141Y112153D01*
X989934Y112080D01*
X988726Y112080D01*
X987519Y112153D01*
X986319Y112299D01*
X985130Y112517D01*
X983957Y112806D01*
X982803Y113165D01*
X981673Y113594D01*
X980571Y114090D01*
X979500Y114652D01*
X978466Y115277D01*
X977471Y115964D01*
X976520Y116709D01*
X975615Y117511D01*
X974761Y118365D01*
X973959Y119270D01*
X973214Y120221D01*
X972527Y121216D01*
X971902Y122250D01*
X971340Y123321D01*
X970844Y124423D01*
X970415Y125553D01*
X970056Y126707D01*
X969767Y127880D01*
X969549Y129069D01*
X969403Y130269D01*
X969330Y131476D01*
X969330Y132684D01*
X969403Y133891D01*
X969549Y135091D01*
X969767Y136280D01*
X970056Y137453D01*
X970415Y138607D01*
X970844Y139737D01*
X971340Y140839D01*
X971902Y141910D01*
X972527Y142944D01*
X973214Y143939D01*
X973959Y144890D01*
X974761Y145795D01*
X975615Y146649D01*
X976520Y147451D01*
X977471Y148196D01*
X978466Y148883D01*
X979500Y149508D01*
X980571Y150070D01*
X981673Y150566D01*
X982803Y150995D01*
X983957Y151354D01*
X985130Y151643D01*
X986319Y151861D01*
X987519Y152007D01*
X988726Y152080D01*
X989934Y152080D01*
X991141Y152007D01*
X992341Y151861D01*
X993530Y151643D01*
X994703Y151354D01*
X995857Y150995D01*
X996987Y150566D01*
X998089Y150070D01*
X999160Y149508D01*
X1000194Y148883D01*
X1001189Y148196D01*
X1002140Y147451D01*
X1003045Y146649D01*
X1003899Y145795D01*
X1004701Y144890D01*
X1005446Y143939D01*
X1006133Y142944D01*
X1006758Y141910D01*
X1007320Y140839D01*
X1007816Y139737D01*
X1008245Y138607D01*
X1008604Y137453D01*
X1008893Y136280D01*
X1009111Y135091D01*
X1009257Y133891D01*
X1009330Y132684D01*
X1009330Y131476D01*
X947030Y131709D02*
X946965Y130969D01*
X946836Y130239D01*
X946644Y129522D01*
X946390Y128824D01*
X946077Y128151D01*
X945706Y127509D01*
X945280Y126901D01*
X944803Y126332D01*
X944278Y125807D01*
X943709Y125330D01*
X943101Y124904D01*
X942459Y124533D01*
X941786Y124220D01*
X941088Y123966D01*
X940372Y123774D01*
X939641Y123645D01*
X938901Y123580D01*
X938159Y123580D01*
X937419Y123645D01*
X936689Y123774D01*
X935972Y123966D01*
X935274Y124220D01*
X934601Y124533D01*
X933959Y124904D01*
X933351Y125330D01*
X932782Y125807D01*
X932257Y126332D01*
X931780Y126901D01*
X931354Y127509D01*
X930983Y128151D01*
X930670Y128824D01*
X930416Y129522D01*
X930224Y130239D01*
X930095Y130969D01*
X930030Y131709D01*
X930030Y132451D01*
X930095Y133191D01*
X930224Y133922D01*
X930416Y134638D01*
X930670Y135336D01*
X930983Y136009D01*
X931354Y136651D01*
X931780Y137259D01*
X932257Y137828D01*
X932782Y138353D01*
X933351Y138830D01*
X933959Y139256D01*
X934601Y139627D01*
X935274Y139940D01*
X935972Y140194D01*
X936689Y140386D01*
X937419Y140515D01*
X938159Y140580D01*
X938901Y140580D01*
X939641Y140515D01*
X940372Y140386D01*
X941088Y140194D01*
X941786Y139940D01*
X942459Y139627D01*
X943101Y139256D01*
X943709Y138830D01*
X944278Y138353D01*
X944803Y137828D01*
X945280Y137259D01*
X945706Y136651D01*
X946077Y136009D01*
X946390Y135336D01*
X946644Y134638D01*
X946836Y133922D01*
X946965Y133191D01*
X947030Y132451D01*
X947030Y131709D01*
X1048630Y131709D02*
X1048565Y130969D01*
X1048436Y130239D01*
X1048244Y129522D01*
X1047990Y128824D01*
X1047677Y128151D01*
X1047306Y127509D01*
X1046880Y126901D01*
X1046403Y126332D01*
X1045878Y125807D01*
X1045309Y125330D01*
X1044701Y124904D01*
X1044059Y124533D01*
X1043386Y124220D01*
X1042688Y123966D01*
X1041972Y123774D01*
X1041241Y123645D01*
X1040501Y123580D01*
X1039759Y123580D01*
X1039019Y123645D01*
X1038289Y123774D01*
X1037572Y123966D01*
X1036874Y124220D01*
X1036201Y124533D01*
X1035559Y124904D01*
X1034951Y125330D01*
X1034382Y125807D01*
X1033857Y126332D01*
X1033380Y126901D01*
X1032954Y127509D01*
X1032583Y128151D01*
X1032270Y128824D01*
X1032016Y129522D01*
X1031824Y130239D01*
X1031695Y130969D01*
X1031630Y131709D01*
X1031630Y132451D01*
X1031695Y133191D01*
X1031824Y133922D01*
X1032016Y134638D01*
X1032270Y135336D01*
X1032583Y136009D01*
X1032954Y136651D01*
X1033380Y137259D01*
X1033857Y137828D01*
X1034382Y138353D01*
X1034951Y138830D01*
X1035559Y139256D01*
X1036201Y139627D01*
X1036874Y139940D01*
X1037572Y140194D01*
X1038289Y140386D01*
X1039019Y140515D01*
X1039759Y140580D01*
X1040501Y140580D01*
X1041241Y140515D01*
X1041972Y140386D01*
X1042688Y140194D01*
X1043386Y139940D01*
X1044059Y139627D01*
X1044701Y139256D01*
X1045309Y138830D01*
X1045878Y138353D01*
X1046403Y137828D01*
X1046880Y137259D01*
X1047306Y136651D01*
X1047677Y136009D01*
X1047990Y135336D01*
X1048244Y134638D01*
X1048436Y133922D01*
X1048565Y133191D01*
X1048630Y132451D01*
X1048630Y131709D01*
X1029730Y182344D02*
X1029654Y181276D01*
X1029501Y180215D01*
X1029273Y179168D01*
X1028971Y178140D01*
X1028597Y177136D01*
X1028152Y176161D01*
X1027638Y175221D01*
X1027059Y174320D01*
X1026417Y173462D01*
X1025715Y172652D01*
X1024958Y171895D01*
X1024148Y171193D01*
X1023290Y170551D01*
X1022389Y169972D01*
X1021449Y169458D01*
X1020474Y169013D01*
X1019470Y168639D01*
X1018442Y168337D01*
X1017395Y168109D01*
X1016334Y167956D01*
X1015266Y167880D01*
X1014194Y167880D01*
X1013126Y167956D01*
X1012065Y168109D01*
X1011018Y168337D01*
X1009990Y168639D01*
X1008986Y169013D01*
X1008011Y169458D01*
X1007071Y169972D01*
X1006170Y170551D01*
X1005312Y171193D01*
X1004502Y171895D01*
X1003745Y172652D01*
X1003043Y173462D01*
X1002401Y174320D01*
X1001822Y175221D01*
X1001308Y176161D01*
X1000863Y177136D01*
X1000489Y178140D01*
X1000187Y179168D01*
X999959Y180215D01*
X999806Y181276D01*
X999730Y182344D01*
X999730Y183416D01*
X999806Y184484D01*
X999959Y185545D01*
X1000187Y186592D01*
X1000489Y187620D01*
X1000863Y188624D01*
X1001308Y189599D01*
X1001822Y190539D01*
X1002401Y191440D01*
X1003043Y192298D01*
X1003745Y193108D01*
X1004502Y193865D01*
X1005312Y194567D01*
X1006170Y195209D01*
X1007071Y195788D01*
X1008011Y196302D01*
X1008986Y196747D01*
X1009990Y197121D01*
X1011018Y197423D01*
X1012065Y197651D01*
X1013126Y197804D01*
X1014194Y197880D01*
X1015266Y197880D01*
X1016334Y197804D01*
X1017395Y197651D01*
X1018442Y197423D01*
X1019470Y197121D01*
X1020474Y196747D01*
X1021449Y196302D01*
X1022389Y195788D01*
X1023290Y195209D01*
X1024148Y194567D01*
X1024958Y193865D01*
X1025715Y193108D01*
X1026417Y192298D01*
X1027059Y191440D01*
X1027638Y190539D01*
X1028152Y189599D01*
X1028597Y188624D01*
X1028971Y187620D01*
X1029273Y186592D01*
X1029501Y185545D01*
X1029654Y184484D01*
X1029730Y183416D01*
X1029730Y182344D01*
X966230Y156944D02*
X966154Y155876D01*
X966001Y154815D01*
X965773Y153768D01*
X965471Y152740D01*
X965097Y151736D01*
X964652Y150761D01*
X964138Y149821D01*
X963559Y148920D01*
X962917Y148062D01*
X962215Y147252D01*
X961458Y146495D01*
X960648Y145793D01*
X959790Y145151D01*
X958889Y144572D01*
X957949Y144058D01*
X956974Y143613D01*
X955970Y143239D01*
X954942Y142937D01*
X953895Y142709D01*
X952834Y142556D01*
X951766Y142480D01*
X950694Y142480D01*
X949626Y142556D01*
X948565Y142709D01*
X947518Y142937D01*
X946490Y143239D01*
X945486Y143613D01*
X944511Y144058D01*
X943571Y144572D01*
X942670Y145151D01*
X941812Y145793D01*
X941002Y146495D01*
X940245Y147252D01*
X939543Y148062D01*
X938901Y148920D01*
X938322Y149821D01*
X937808Y150761D01*
X937363Y151736D01*
X936989Y152740D01*
X936687Y153768D01*
X936459Y154815D01*
X936306Y155876D01*
X936230Y156944D01*
X936230Y158016D01*
X936306Y159084D01*
X936459Y160145D01*
X936687Y161192D01*
X936989Y162220D01*
X937363Y163224D01*
X937808Y164199D01*
X938322Y165139D01*
X938901Y166040D01*
X939543Y166898D01*
X940245Y167708D01*
X941002Y168465D01*
X941812Y169167D01*
X942670Y169809D01*
X943571Y170388D01*
X944511Y170902D01*
X945486Y171347D01*
X946490Y171721D01*
X947518Y172023D01*
X948565Y172251D01*
X949626Y172404D01*
X950694Y172480D01*
X951766Y172480D01*
X952834Y172404D01*
X953895Y172251D01*
X954942Y172023D01*
X955970Y171721D01*
X956974Y171347D01*
X957949Y170902D01*
X958889Y170388D01*
X959790Y169809D01*
X960648Y169167D01*
X961458Y168465D01*
X962215Y167708D01*
X962917Y166898D01*
X963559Y166040D01*
X964138Y165139D01*
X964652Y164199D01*
X965097Y163224D01*
X965471Y162220D01*
X965773Y161192D01*
X966001Y160145D01*
X966154Y159084D01*
X966230Y158016D01*
X966230Y156944D01*
X1145150Y131709D02*
X1145085Y130969D01*
X1144956Y130239D01*
X1144764Y129522D01*
X1144510Y128824D01*
X1144197Y128151D01*
X1143826Y127509D01*
X1143400Y126901D01*
X1142923Y126332D01*
X1142398Y125807D01*
X1141829Y125330D01*
X1141221Y124904D01*
X1140579Y124533D01*
X1139906Y124220D01*
X1139208Y123966D01*
X1138492Y123774D01*
X1137761Y123645D01*
X1137021Y123580D01*
X1136279Y123580D01*
X1135539Y123645D01*
X1134809Y123774D01*
X1134092Y123966D01*
X1133394Y124220D01*
X1132721Y124533D01*
X1132079Y124904D01*
X1131471Y125330D01*
X1130902Y125807D01*
X1130377Y126332D01*
X1129900Y126901D01*
X1129474Y127509D01*
X1129103Y128151D01*
X1128790Y128824D01*
X1128536Y129522D01*
X1128344Y130239D01*
X1128215Y130969D01*
X1128150Y131709D01*
X1128150Y132451D01*
X1128215Y133191D01*
X1128344Y133922D01*
X1128536Y134638D01*
X1128790Y135336D01*
X1129103Y136009D01*
X1129474Y136651D01*
X1129900Y137259D01*
X1130377Y137828D01*
X1130902Y138353D01*
X1131471Y138830D01*
X1132079Y139256D01*
X1132721Y139627D01*
X1133394Y139940D01*
X1134092Y140194D01*
X1134809Y140386D01*
X1135539Y140515D01*
X1136279Y140580D01*
X1137021Y140580D01*
X1137761Y140515D01*
X1138492Y140386D01*
X1139208Y140194D01*
X1139906Y139940D01*
X1140579Y139627D01*
X1141221Y139256D01*
X1141829Y138830D01*
X1142398Y138353D01*
X1142923Y137828D01*
X1143400Y137259D01*
X1143826Y136651D01*
X1144197Y136009D01*
X1144510Y135336D01*
X1144764Y134638D01*
X1144956Y133922D01*
X1145085Y133191D01*
X1145150Y132451D01*
X1145150Y131709D01*
X1246750Y131709D02*
X1246685Y130969D01*
X1246556Y130239D01*
X1246364Y129522D01*
X1246110Y128824D01*
X1245797Y128151D01*
X1245426Y127509D01*
X1245000Y126901D01*
X1244523Y126332D01*
X1243998Y125807D01*
X1243429Y125330D01*
X1242821Y124904D01*
X1242179Y124533D01*
X1241506Y124220D01*
X1240808Y123966D01*
X1240092Y123774D01*
X1239361Y123645D01*
X1238621Y123580D01*
X1237879Y123580D01*
X1237139Y123645D01*
X1236409Y123774D01*
X1235692Y123966D01*
X1234994Y124220D01*
X1234321Y124533D01*
X1233679Y124904D01*
X1233071Y125330D01*
X1232502Y125807D01*
X1231977Y126332D01*
X1231500Y126901D01*
X1231074Y127509D01*
X1230703Y128151D01*
X1230390Y128824D01*
X1230136Y129522D01*
X1229944Y130239D01*
X1229815Y130969D01*
X1229750Y131709D01*
X1229750Y132451D01*
X1229815Y133191D01*
X1229944Y133922D01*
X1230136Y134638D01*
X1230390Y135336D01*
X1230703Y136009D01*
X1231074Y136651D01*
X1231500Y137259D01*
X1231977Y137828D01*
X1232502Y138353D01*
X1233071Y138830D01*
X1233679Y139256D01*
X1234321Y139627D01*
X1234994Y139940D01*
X1235692Y140194D01*
X1236409Y140386D01*
X1237139Y140515D01*
X1237879Y140580D01*
X1238621Y140580D01*
X1239361Y140515D01*
X1240092Y140386D01*
X1240808Y140194D01*
X1241506Y139940D01*
X1242179Y139627D01*
X1242821Y139256D01*
X1243429Y138830D01*
X1243998Y138353D01*
X1244523Y137828D01*
X1245000Y137259D01*
X1245426Y136651D01*
X1245797Y136009D01*
X1246110Y135336D01*
X1246364Y134638D01*
X1246556Y133922D01*
X1246685Y133191D01*
X1246750Y132451D01*
X1246750Y131709D01*
X1207950Y131461D02*
X1207875Y130224D01*
X1207726Y128994D01*
X1207503Y127775D01*
X1207206Y126573D01*
X1206838Y125390D01*
X1206398Y124231D01*
X1205890Y123102D01*
X1205314Y122005D01*
X1204673Y120944D01*
X1203969Y119925D01*
X1203205Y118950D01*
X1202384Y118022D01*
X1201508Y117146D01*
X1200580Y116325D01*
X1199605Y115561D01*
X1198586Y114857D01*
X1197525Y114216D01*
X1196428Y113640D01*
X1195299Y113132D01*
X1194140Y112693D01*
X1192957Y112324D01*
X1191755Y112027D01*
X1190536Y111804D01*
X1189306Y111655D01*
X1188069Y111580D01*
X1186831Y111580D01*
X1185594Y111655D01*
X1184364Y111804D01*
X1183145Y112027D01*
X1181943Y112324D01*
X1180760Y112693D01*
X1179601Y113132D01*
X1178472Y113640D01*
X1177375Y114216D01*
X1176314Y114857D01*
X1175295Y115561D01*
X1174320Y116325D01*
X1173392Y117146D01*
X1172516Y118022D01*
X1171695Y118950D01*
X1170931Y119925D01*
X1170227Y120944D01*
X1169586Y122005D01*
X1169010Y123102D01*
X1168502Y124231D01*
X1168063Y125390D01*
X1167694Y126573D01*
X1167397Y127775D01*
X1167174Y128994D01*
X1167025Y130224D01*
X1166950Y131461D01*
X1166950Y132699D01*
X1167025Y133936D01*
X1167174Y135166D01*
X1167397Y136385D01*
X1167694Y137587D01*
X1168063Y138770D01*
X1168502Y139929D01*
X1169010Y141058D01*
X1169586Y142155D01*
X1170227Y143216D01*
X1170931Y144235D01*
X1171695Y145210D01*
X1172516Y146138D01*
X1173392Y147014D01*
X1174320Y147835D01*
X1175295Y148599D01*
X1176314Y149303D01*
X1177375Y149944D01*
X1178472Y150520D01*
X1179601Y151028D01*
X1180760Y151468D01*
X1181943Y151836D01*
X1183145Y152133D01*
X1184364Y152356D01*
X1185594Y152505D01*
X1186831Y152580D01*
X1188069Y152580D01*
X1189306Y152505D01*
X1190536Y152356D01*
X1191755Y152133D01*
X1192957Y151836D01*
X1194140Y151468D01*
X1195299Y151028D01*
X1196428Y150520D01*
X1197525Y149944D01*
X1198586Y149303D01*
X1199605Y148599D01*
X1200580Y147835D01*
X1201508Y147014D01*
X1202384Y146138D01*
X1203205Y145210D01*
X1203969Y144235D01*
X1204673Y143216D01*
X1205314Y142155D01*
X1205890Y141058D01*
X1206398Y139929D01*
X1206838Y138770D01*
X1207206Y137587D01*
X1207503Y136385D01*
X1207726Y135166D01*
X1207875Y133936D01*
X1207950Y132699D01*
X1207950Y131461D01*
X1207450Y131476D02*
X1207377Y130269D01*
X1207231Y129069D01*
X1207013Y127880D01*
X1206724Y126707D01*
X1206365Y125553D01*
X1205936Y124423D01*
X1205440Y123321D01*
X1204878Y122250D01*
X1204253Y121216D01*
X1203566Y120221D01*
X1202821Y119270D01*
X1202019Y118365D01*
X1201165Y117511D01*
X1200260Y116709D01*
X1199309Y115964D01*
X1198314Y115277D01*
X1197280Y114652D01*
X1196209Y114090D01*
X1195107Y113594D01*
X1193977Y113165D01*
X1192823Y112806D01*
X1191650Y112517D01*
X1190461Y112299D01*
X1189261Y112153D01*
X1188054Y112080D01*
X1186846Y112080D01*
X1185639Y112153D01*
X1184439Y112299D01*
X1183250Y112517D01*
X1182077Y112806D01*
X1180923Y113165D01*
X1179793Y113594D01*
X1178691Y114090D01*
X1177620Y114652D01*
X1176586Y115277D01*
X1175591Y115964D01*
X1174640Y116709D01*
X1173735Y117511D01*
X1172881Y118365D01*
X1172079Y119270D01*
X1171334Y120221D01*
X1170647Y121216D01*
X1170022Y122250D01*
X1169460Y123321D01*
X1168964Y124423D01*
X1168535Y125553D01*
X1168176Y126707D01*
X1167887Y127880D01*
X1167669Y129069D01*
X1167523Y130269D01*
X1167450Y131476D01*
X1167450Y132684D01*
X1167523Y133891D01*
X1167669Y135091D01*
X1167887Y136280D01*
X1168176Y137453D01*
X1168535Y138607D01*
X1168964Y139737D01*
X1169460Y140839D01*
X1170022Y141910D01*
X1170647Y142944D01*
X1171334Y143939D01*
X1172079Y144890D01*
X1172881Y145795D01*
X1173735Y146649D01*
X1174640Y147451D01*
X1175591Y148196D01*
X1176586Y148883D01*
X1177620Y149508D01*
X1178691Y150070D01*
X1179793Y150566D01*
X1180923Y150995D01*
X1182077Y151354D01*
X1183250Y151643D01*
X1184439Y151861D01*
X1185639Y152007D01*
X1186846Y152080D01*
X1188054Y152080D01*
X1189261Y152007D01*
X1190461Y151861D01*
X1191650Y151643D01*
X1192823Y151354D01*
X1193977Y150995D01*
X1195107Y150566D01*
X1196209Y150070D01*
X1197280Y149508D01*
X1198314Y148883D01*
X1199309Y148196D01*
X1200260Y147451D01*
X1201165Y146649D01*
X1202019Y145795D01*
X1202821Y144890D01*
X1203566Y143939D01*
X1204253Y142944D01*
X1204878Y141910D01*
X1205440Y140839D01*
X1205936Y139737D01*
X1206365Y138607D01*
X1206724Y137453D01*
X1207013Y136280D01*
X1207231Y135091D01*
X1207377Y133891D01*
X1207450Y132684D01*
X1207450Y131476D01*
X1145150Y131709D02*
X1145085Y130969D01*
X1144956Y130239D01*
X1144764Y129522D01*
X1144510Y128824D01*
X1144197Y128151D01*
X1143826Y127509D01*
X1143400Y126901D01*
X1142923Y126332D01*
X1142398Y125807D01*
X1141829Y125330D01*
X1141221Y124904D01*
X1140579Y124533D01*
X1139906Y124220D01*
X1139208Y123966D01*
X1138492Y123774D01*
X1137761Y123645D01*
X1137021Y123580D01*
X1136279Y123580D01*
X1135539Y123645D01*
X1134809Y123774D01*
X1134092Y123966D01*
X1133394Y124220D01*
X1132721Y124533D01*
X1132079Y124904D01*
X1131471Y125330D01*
X1130902Y125807D01*
X1130377Y126332D01*
X1129900Y126901D01*
X1129474Y127509D01*
X1129103Y128151D01*
X1128790Y128824D01*
X1128536Y129522D01*
X1128344Y130239D01*
X1128215Y130969D01*
X1128150Y131709D01*
X1128150Y132451D01*
X1128215Y133191D01*
X1128344Y133922D01*
X1128536Y134638D01*
X1128790Y135336D01*
X1129103Y136009D01*
X1129474Y136651D01*
X1129900Y137259D01*
X1130377Y137828D01*
X1130902Y138353D01*
X1131471Y138830D01*
X1132079Y139256D01*
X1132721Y139627D01*
X1133394Y139940D01*
X1134092Y140194D01*
X1134809Y140386D01*
X1135539Y140515D01*
X1136279Y140580D01*
X1137021Y140580D01*
X1137761Y140515D01*
X1138492Y140386D01*
X1139208Y140194D01*
X1139906Y139940D01*
X1140579Y139627D01*
X1141221Y139256D01*
X1141829Y138830D01*
X1142398Y138353D01*
X1142923Y137828D01*
X1143400Y137259D01*
X1143826Y136651D01*
X1144197Y136009D01*
X1144510Y135336D01*
X1144764Y134638D01*
X1144956Y133922D01*
X1145085Y133191D01*
X1145150Y132451D01*
X1145150Y131709D01*
X1246750Y131709D02*
X1246685Y130969D01*
X1246556Y130239D01*
X1246364Y129522D01*
X1246110Y128824D01*
X1245797Y128151D01*
X1245426Y127509D01*
X1245000Y126901D01*
X1244523Y126332D01*
X1243998Y125807D01*
X1243429Y125330D01*
X1242821Y124904D01*
X1242179Y124533D01*
X1241506Y124220D01*
X1240808Y123966D01*
X1240092Y123774D01*
X1239361Y123645D01*
X1238621Y123580D01*
X1237879Y123580D01*
X1237139Y123645D01*
X1236409Y123774D01*
X1235692Y123966D01*
X1234994Y124220D01*
X1234321Y124533D01*
X1233679Y124904D01*
X1233071Y125330D01*
X1232502Y125807D01*
X1231977Y126332D01*
X1231500Y126901D01*
X1231074Y127509D01*
X1230703Y128151D01*
X1230390Y128824D01*
X1230136Y129522D01*
X1229944Y130239D01*
X1229815Y130969D01*
X1229750Y131709D01*
X1229750Y132451D01*
X1229815Y133191D01*
X1229944Y133922D01*
X1230136Y134638D01*
X1230390Y135336D01*
X1230703Y136009D01*
X1231074Y136651D01*
X1231500Y137259D01*
X1231977Y137828D01*
X1232502Y138353D01*
X1233071Y138830D01*
X1233679Y139256D01*
X1234321Y139627D01*
X1234994Y139940D01*
X1235692Y140194D01*
X1236409Y140386D01*
X1237139Y140515D01*
X1237879Y140580D01*
X1238621Y140580D01*
X1239361Y140515D01*
X1240092Y140386D01*
X1240808Y140194D01*
X1241506Y139940D01*
X1242179Y139627D01*
X1242821Y139256D01*
X1243429Y138830D01*
X1243998Y138353D01*
X1244523Y137828D01*
X1245000Y137259D01*
X1245426Y136651D01*
X1245797Y136009D01*
X1246110Y135336D01*
X1246364Y134638D01*
X1246556Y133922D01*
X1246685Y133191D01*
X1246750Y132451D01*
X1246750Y131709D01*
X1227850Y182344D02*
X1227774Y181276D01*
X1227621Y180215D01*
X1227393Y179168D01*
X1227091Y178140D01*
X1226717Y177136D01*
X1226272Y176161D01*
X1225758Y175221D01*
X1225179Y174320D01*
X1224537Y173462D01*
X1223835Y172652D01*
X1223078Y171895D01*
X1222268Y171193D01*
X1221410Y170551D01*
X1220509Y169972D01*
X1219569Y169458D01*
X1218594Y169013D01*
X1217590Y168639D01*
X1216562Y168337D01*
X1215515Y168109D01*
X1214454Y167956D01*
X1213386Y167880D01*
X1212314Y167880D01*
X1211246Y167956D01*
X1210185Y168109D01*
X1209138Y168337D01*
X1208110Y168639D01*
X1207106Y169013D01*
X1206131Y169458D01*
X1205191Y169972D01*
X1204290Y170551D01*
X1203432Y171193D01*
X1202622Y171895D01*
X1201865Y172652D01*
X1201163Y173462D01*
X1200521Y174320D01*
X1199942Y175221D01*
X1199428Y176161D01*
X1198983Y177136D01*
X1198609Y178140D01*
X1198307Y179168D01*
X1198079Y180215D01*
X1197926Y181276D01*
X1197850Y182344D01*
X1197850Y183416D01*
X1197926Y184484D01*
X1198079Y185545D01*
X1198307Y186592D01*
X1198609Y187620D01*
X1198983Y188624D01*
X1199428Y189599D01*
X1199942Y190539D01*
X1200521Y191440D01*
X1201163Y192298D01*
X1201865Y193108D01*
X1202622Y193865D01*
X1203432Y194567D01*
X1204290Y195209D01*
X1205191Y195788D01*
X1206131Y196302D01*
X1207106Y196747D01*
X1208110Y197121D01*
X1209138Y197423D01*
X1210185Y197651D01*
X1211246Y197804D01*
X1212314Y197880D01*
X1213386Y197880D01*
X1214454Y197804D01*
X1215515Y197651D01*
X1216562Y197423D01*
X1217590Y197121D01*
X1218594Y196747D01*
X1219569Y196302D01*
X1220509Y195788D01*
X1221410Y195209D01*
X1222268Y194567D01*
X1223078Y193865D01*
X1223835Y193108D01*
X1224537Y192298D01*
X1225179Y191440D01*
X1225758Y190539D01*
X1226272Y189599D01*
X1226717Y188624D01*
X1227091Y187620D01*
X1227393Y186592D01*
X1227621Y185545D01*
X1227774Y184484D01*
X1227850Y183416D01*
X1227850Y182344D01*
X1164350Y156944D02*
X1164274Y155876D01*
X1164121Y154815D01*
X1163893Y153768D01*
X1163591Y152740D01*
X1163217Y151736D01*
X1162772Y150761D01*
X1162258Y149821D01*
X1161679Y148920D01*
X1161037Y148062D01*
X1160335Y147252D01*
X1159578Y146495D01*
X1158768Y145793D01*
X1157910Y145151D01*
X1157009Y144572D01*
X1156069Y144058D01*
X1155094Y143613D01*
X1154090Y143239D01*
X1153062Y142937D01*
X1152015Y142709D01*
X1150954Y142556D01*
X1149886Y142480D01*
X1148814Y142480D01*
X1147746Y142556D01*
X1146685Y142709D01*
X1145638Y142937D01*
X1144610Y143239D01*
X1143606Y143613D01*
X1142631Y144058D01*
X1141691Y144572D01*
X1140790Y145151D01*
X1139932Y145793D01*
X1139122Y146495D01*
X1138365Y147252D01*
X1137663Y148062D01*
X1137021Y148920D01*
X1136442Y149821D01*
X1135928Y150761D01*
X1135483Y151736D01*
X1135109Y152740D01*
X1134807Y153768D01*
X1134579Y154815D01*
X1134426Y155876D01*
X1134350Y156944D01*
X1134350Y158016D01*
X1134426Y159084D01*
X1134579Y160145D01*
X1134807Y161192D01*
X1135109Y162220D01*
X1135483Y163224D01*
X1135928Y164199D01*
X1136442Y165139D01*
X1137021Y166040D01*
X1137663Y166898D01*
X1138365Y167708D01*
X1139122Y168465D01*
X1139932Y169167D01*
X1140790Y169809D01*
X1141691Y170388D01*
X1142631Y170902D01*
X1143606Y171347D01*
X1144610Y171721D01*
X1145638Y172023D01*
X1146685Y172251D01*
X1147746Y172404D01*
X1148814Y172480D01*
X1149886Y172480D01*
X1150954Y172404D01*
X1152015Y172251D01*
X1153062Y172023D01*
X1154090Y171721D01*
X1155094Y171347D01*
X1156069Y170902D01*
X1157009Y170388D01*
X1157910Y169809D01*
X1158768Y169167D01*
X1159578Y168465D01*
X1160335Y167708D01*
X1161037Y166898D01*
X1161679Y166040D01*
X1162258Y165139D01*
X1162772Y164199D01*
X1163217Y163224D01*
X1163591Y162220D01*
X1163893Y161192D01*
X1164121Y160145D01*
X1164274Y159084D01*
X1164350Y158016D01*
X1164350Y156944D01*
X1342000Y130439D02*
X1341935Y129699D01*
X1341806Y128969D01*
X1341614Y128252D01*
X1341360Y127554D01*
X1341047Y126881D01*
X1340676Y126239D01*
X1340250Y125631D01*
X1339773Y125062D01*
X1339248Y124537D01*
X1338679Y124060D01*
X1338071Y123634D01*
X1337429Y123263D01*
X1336756Y122950D01*
X1336058Y122696D01*
X1335342Y122504D01*
X1334611Y122375D01*
X1333871Y122310D01*
X1333129Y122310D01*
X1332389Y122375D01*
X1331659Y122504D01*
X1330942Y122696D01*
X1330244Y122950D01*
X1329571Y123263D01*
X1328929Y123634D01*
X1328321Y124060D01*
X1327752Y124537D01*
X1327227Y125062D01*
X1326750Y125631D01*
X1326324Y126239D01*
X1325953Y126881D01*
X1325640Y127554D01*
X1325386Y128252D01*
X1325194Y128969D01*
X1325065Y129699D01*
X1325000Y130439D01*
X1325000Y131181D01*
X1325065Y131921D01*
X1325194Y132652D01*
X1325386Y133368D01*
X1325640Y134066D01*
X1325953Y134739D01*
X1326324Y135381D01*
X1326750Y135989D01*
X1327227Y136558D01*
X1327752Y137083D01*
X1328321Y137560D01*
X1328929Y137986D01*
X1329571Y138357D01*
X1330244Y138670D01*
X1330942Y138924D01*
X1331659Y139116D01*
X1332389Y139245D01*
X1333129Y139310D01*
X1333871Y139310D01*
X1334611Y139245D01*
X1335342Y139116D01*
X1336058Y138924D01*
X1336756Y138670D01*
X1337429Y138357D01*
X1338071Y137986D01*
X1338679Y137560D01*
X1339248Y137083D01*
X1339773Y136558D01*
X1340250Y135989D01*
X1340676Y135381D01*
X1341047Y134739D01*
X1341360Y134066D01*
X1341614Y133368D01*
X1341806Y132652D01*
X1341935Y131921D01*
X1342000Y131181D01*
X1342000Y130439D01*
X1443600Y130439D02*
X1443535Y129699D01*
X1443406Y128969D01*
X1443214Y128252D01*
X1442960Y127554D01*
X1442647Y126881D01*
X1442276Y126239D01*
X1441850Y125631D01*
X1441373Y125062D01*
X1440848Y124537D01*
X1440279Y124060D01*
X1439671Y123634D01*
X1439029Y123263D01*
X1438356Y122950D01*
X1437658Y122696D01*
X1436942Y122504D01*
X1436211Y122375D01*
X1435471Y122310D01*
X1434729Y122310D01*
X1433989Y122375D01*
X1433259Y122504D01*
X1432542Y122696D01*
X1431844Y122950D01*
X1431171Y123263D01*
X1430529Y123634D01*
X1429921Y124060D01*
X1429352Y124537D01*
X1428827Y125062D01*
X1428350Y125631D01*
X1427924Y126239D01*
X1427553Y126881D01*
X1427240Y127554D01*
X1426986Y128252D01*
X1426794Y128969D01*
X1426665Y129699D01*
X1426600Y130439D01*
X1426600Y131181D01*
X1426665Y131921D01*
X1426794Y132652D01*
X1426986Y133368D01*
X1427240Y134066D01*
X1427553Y134739D01*
X1427924Y135381D01*
X1428350Y135989D01*
X1428827Y136558D01*
X1429352Y137083D01*
X1429921Y137560D01*
X1430529Y137986D01*
X1431171Y138357D01*
X1431844Y138670D01*
X1432542Y138924D01*
X1433259Y139116D01*
X1433989Y139245D01*
X1434729Y139310D01*
X1435471Y139310D01*
X1436211Y139245D01*
X1436942Y139116D01*
X1437658Y138924D01*
X1438356Y138670D01*
X1439029Y138357D01*
X1439671Y137986D01*
X1440279Y137560D01*
X1440848Y137083D01*
X1441373Y136558D01*
X1441850Y135989D01*
X1442276Y135381D01*
X1442647Y134739D01*
X1442960Y134066D01*
X1443214Y133368D01*
X1443406Y132652D01*
X1443535Y131921D01*
X1443600Y131181D01*
X1443600Y130439D01*
X1404800Y130191D02*
X1404725Y128954D01*
X1404576Y127724D01*
X1404353Y126505D01*
X1404056Y125303D01*
X1403688Y124120D01*
X1403248Y122961D01*
X1402740Y121832D01*
X1402164Y120735D01*
X1401523Y119674D01*
X1400819Y118655D01*
X1400055Y117680D01*
X1399234Y116752D01*
X1398358Y115876D01*
X1397430Y115055D01*
X1396455Y114291D01*
X1395436Y113587D01*
X1394375Y112946D01*
X1393278Y112370D01*
X1392149Y111862D01*
X1390990Y111423D01*
X1389807Y111054D01*
X1388605Y110757D01*
X1387386Y110534D01*
X1386156Y110385D01*
X1384919Y110310D01*
X1383681Y110310D01*
X1382444Y110385D01*
X1381214Y110534D01*
X1379995Y110757D01*
X1378793Y111054D01*
X1377610Y111423D01*
X1376451Y111862D01*
X1375322Y112370D01*
X1374225Y112946D01*
X1373164Y113587D01*
X1372145Y114291D01*
X1371170Y115055D01*
X1370242Y115876D01*
X1369366Y116752D01*
X1368545Y117680D01*
X1367781Y118655D01*
X1367077Y119674D01*
X1366436Y120735D01*
X1365860Y121832D01*
X1365352Y122961D01*
X1364913Y124120D01*
X1364544Y125303D01*
X1364247Y126505D01*
X1364024Y127724D01*
X1363875Y128954D01*
X1363800Y130191D01*
X1363800Y131429D01*
X1363875Y132666D01*
X1364024Y133896D01*
X1364247Y135115D01*
X1364544Y136317D01*
X1364913Y137500D01*
X1365352Y138659D01*
X1365860Y139788D01*
X1366436Y140885D01*
X1367077Y141946D01*
X1367781Y142965D01*
X1368545Y143940D01*
X1369366Y144868D01*
X1370242Y145744D01*
X1371170Y146565D01*
X1372145Y147329D01*
X1373164Y148033D01*
X1374225Y148674D01*
X1375322Y149250D01*
X1376451Y149758D01*
X1377610Y150198D01*
X1378793Y150566D01*
X1379995Y150863D01*
X1381214Y151086D01*
X1382444Y151235D01*
X1383681Y151310D01*
X1384919Y151310D01*
X1386156Y151235D01*
X1387386Y151086D01*
X1388605Y150863D01*
X1389807Y150566D01*
X1390990Y150198D01*
X1392149Y149758D01*
X1393278Y149250D01*
X1394375Y148674D01*
X1395436Y148033D01*
X1396455Y147329D01*
X1397430Y146565D01*
X1398358Y145744D01*
X1399234Y144868D01*
X1400055Y143940D01*
X1400819Y142965D01*
X1401523Y141946D01*
X1402164Y140885D01*
X1402740Y139788D01*
X1403248Y138659D01*
X1403688Y137500D01*
X1404056Y136317D01*
X1404353Y135115D01*
X1404576Y133896D01*
X1404725Y132666D01*
X1404800Y131429D01*
X1404800Y130191D01*
X1404300Y130206D02*
X1404227Y128999D01*
X1404081Y127799D01*
X1403863Y126610D01*
X1403574Y125437D01*
X1403215Y124283D01*
X1402786Y123153D01*
X1402290Y122051D01*
X1401728Y120980D01*
X1401103Y119946D01*
X1400416Y118951D01*
X1399671Y118000D01*
X1398869Y117095D01*
X1398015Y116241D01*
X1397110Y115439D01*
X1396159Y114694D01*
X1395164Y114007D01*
X1394130Y113382D01*
X1393059Y112820D01*
X1391957Y112324D01*
X1390827Y111895D01*
X1389673Y111536D01*
X1388500Y111247D01*
X1387311Y111029D01*
X1386111Y110883D01*
X1384904Y110810D01*
X1383696Y110810D01*
X1382489Y110883D01*
X1381289Y111029D01*
X1380100Y111247D01*
X1378927Y111536D01*
X1377773Y111895D01*
X1376643Y112324D01*
X1375541Y112820D01*
X1374470Y113382D01*
X1373436Y114007D01*
X1372441Y114694D01*
X1371490Y115439D01*
X1370585Y116241D01*
X1369731Y117095D01*
X1368929Y118000D01*
X1368184Y118951D01*
X1367497Y119946D01*
X1366872Y120980D01*
X1366310Y122051D01*
X1365814Y123153D01*
X1365385Y124283D01*
X1365026Y125437D01*
X1364737Y126610D01*
X1364519Y127799D01*
X1364373Y128999D01*
X1364300Y130206D01*
X1364300Y131414D01*
X1364373Y132621D01*
X1364519Y133821D01*
X1364737Y135010D01*
X1365026Y136183D01*
X1365385Y137337D01*
X1365814Y138467D01*
X1366310Y139569D01*
X1366872Y140640D01*
X1367497Y141674D01*
X1368184Y142669D01*
X1368929Y143620D01*
X1369731Y144525D01*
X1370585Y145379D01*
X1371490Y146181D01*
X1372441Y146926D01*
X1373436Y147613D01*
X1374470Y148238D01*
X1375541Y148800D01*
X1376643Y149296D01*
X1377773Y149725D01*
X1378927Y150084D01*
X1380100Y150373D01*
X1381289Y150591D01*
X1382489Y150737D01*
X1383696Y150810D01*
X1384904Y150810D01*
X1386111Y150737D01*
X1387311Y150591D01*
X1388500Y150373D01*
X1389673Y150084D01*
X1390827Y149725D01*
X1391957Y149296D01*
X1393059Y148800D01*
X1394130Y148238D01*
X1395164Y147613D01*
X1396159Y146926D01*
X1397110Y146181D01*
X1398015Y145379D01*
X1398869Y144525D01*
X1399671Y143620D01*
X1400416Y142669D01*
X1401103Y141674D01*
X1401728Y140640D01*
X1402290Y139569D01*
X1402786Y138467D01*
X1403215Y137337D01*
X1403574Y136183D01*
X1403863Y135010D01*
X1404081Y133821D01*
X1404227Y132621D01*
X1404300Y131414D01*
X1404300Y130206D01*
X1342000Y130439D02*
X1341935Y129699D01*
X1341806Y128969D01*
X1341614Y128252D01*
X1341360Y127554D01*
X1341047Y126881D01*
X1340676Y126239D01*
X1340250Y125631D01*
X1339773Y125062D01*
X1339248Y124537D01*
X1338679Y124060D01*
X1338071Y123634D01*
X1337429Y123263D01*
X1336756Y122950D01*
X1336058Y122696D01*
X1335342Y122504D01*
X1334611Y122375D01*
X1333871Y122310D01*
X1333129Y122310D01*
X1332389Y122375D01*
X1331659Y122504D01*
X1330942Y122696D01*
X1330244Y122950D01*
X1329571Y123263D01*
X1328929Y123634D01*
X1328321Y124060D01*
X1327752Y124537D01*
X1327227Y125062D01*
X1326750Y125631D01*
X1326324Y126239D01*
X1325953Y126881D01*
X1325640Y127554D01*
X1325386Y128252D01*
X1325194Y128969D01*
X1325065Y129699D01*
X1325000Y130439D01*
X1325000Y131181D01*
X1325065Y131921D01*
X1325194Y132652D01*
X1325386Y133368D01*
X1325640Y134066D01*
X1325953Y134739D01*
X1326324Y135381D01*
X1326750Y135989D01*
X1327227Y136558D01*
X1327752Y137083D01*
X1328321Y137560D01*
X1328929Y137986D01*
X1329571Y138357D01*
X1330244Y138670D01*
X1330942Y138924D01*
X1331659Y139116D01*
X1332389Y139245D01*
X1333129Y139310D01*
X1333871Y139310D01*
X1334611Y139245D01*
X1335342Y139116D01*
X1336058Y138924D01*
X1336756Y138670D01*
X1337429Y138357D01*
X1338071Y137986D01*
X1338679Y137560D01*
X1339248Y137083D01*
X1339773Y136558D01*
X1340250Y135989D01*
X1340676Y135381D01*
X1341047Y134739D01*
X1341360Y134066D01*
X1341614Y133368D01*
X1341806Y132652D01*
X1341935Y131921D01*
X1342000Y131181D01*
X1342000Y130439D01*
X1443600Y130439D02*
X1443535Y129699D01*
X1443406Y128969D01*
X1443214Y128252D01*
X1442960Y127554D01*
X1442647Y126881D01*
X1442276Y126239D01*
X1441850Y125631D01*
X1441373Y125062D01*
X1440848Y124537D01*
X1440279Y124060D01*
X1439671Y123634D01*
X1439029Y123263D01*
X1438356Y122950D01*
X1437658Y122696D01*
X1436942Y122504D01*
X1436211Y122375D01*
X1435471Y122310D01*
X1434729Y122310D01*
X1433989Y122375D01*
X1433259Y122504D01*
X1432542Y122696D01*
X1431844Y122950D01*
X1431171Y123263D01*
X1430529Y123634D01*
X1429921Y124060D01*
X1429352Y124537D01*
X1428827Y125062D01*
X1428350Y125631D01*
X1427924Y126239D01*
X1427553Y126881D01*
X1427240Y127554D01*
X1426986Y128252D01*
X1426794Y128969D01*
X1426665Y129699D01*
X1426600Y130439D01*
X1426600Y131181D01*
X1426665Y131921D01*
X1426794Y132652D01*
X1426986Y133368D01*
X1427240Y134066D01*
X1427553Y134739D01*
X1427924Y135381D01*
X1428350Y135989D01*
X1428827Y136558D01*
X1429352Y137083D01*
X1429921Y137560D01*
X1430529Y137986D01*
X1431171Y138357D01*
X1431844Y138670D01*
X1432542Y138924D01*
X1433259Y139116D01*
X1433989Y139245D01*
X1434729Y139310D01*
X1435471Y139310D01*
X1436211Y139245D01*
X1436942Y139116D01*
X1437658Y138924D01*
X1438356Y138670D01*
X1439029Y138357D01*
X1439671Y137986D01*
X1440279Y137560D01*
X1440848Y137083D01*
X1441373Y136558D01*
X1441850Y135989D01*
X1442276Y135381D01*
X1442647Y134739D01*
X1442960Y134066D01*
X1443214Y133368D01*
X1443406Y132652D01*
X1443535Y131921D01*
X1443600Y131181D01*
X1443600Y130439D01*
X1424700Y181074D02*
X1424624Y180006D01*
X1424471Y178945D01*
X1424243Y177898D01*
X1423941Y176870D01*
X1423567Y175866D01*
X1423122Y174891D01*
X1422608Y173951D01*
X1422029Y173050D01*
X1421387Y172192D01*
X1420685Y171382D01*
X1419928Y170625D01*
X1419118Y169923D01*
X1418260Y169281D01*
X1417359Y168702D01*
X1416419Y168188D01*
X1415444Y167743D01*
X1414440Y167369D01*
X1413412Y167067D01*
X1412365Y166839D01*
X1411304Y166686D01*
X1410236Y166610D01*
X1409164Y166610D01*
X1408096Y166686D01*
X1407035Y166839D01*
X1405988Y167067D01*
X1404960Y167369D01*
X1403956Y167743D01*
X1402981Y168188D01*
X1402041Y168702D01*
X1401140Y169281D01*
X1400282Y169923D01*
X1399472Y170625D01*
X1398715Y171382D01*
X1398013Y172192D01*
X1397371Y173050D01*
X1396792Y173951D01*
X1396278Y174891D01*
X1395833Y175866D01*
X1395459Y176870D01*
X1395157Y177898D01*
X1394929Y178945D01*
X1394776Y180006D01*
X1394700Y181074D01*
X1394700Y182146D01*
X1394776Y183214D01*
X1394929Y184275D01*
X1395157Y185322D01*
X1395459Y186350D01*
X1395833Y187354D01*
X1396278Y188329D01*
X1396792Y189269D01*
X1397371Y190170D01*
X1398013Y191028D01*
X1398715Y191838D01*
X1399472Y192595D01*
X1400282Y193297D01*
X1401140Y193939D01*
X1402041Y194518D01*
X1402981Y195032D01*
X1403956Y195477D01*
X1404960Y195851D01*
X1405988Y196153D01*
X1407035Y196381D01*
X1408096Y196534D01*
X1409164Y196610D01*
X1410236Y196610D01*
X1411304Y196534D01*
X1412365Y196381D01*
X1413412Y196153D01*
X1414440Y195851D01*
X1415444Y195477D01*
X1416419Y195032D01*
X1417359Y194518D01*
X1418260Y193939D01*
X1419118Y193297D01*
X1419928Y192595D01*
X1420685Y191838D01*
X1421387Y191028D01*
X1422029Y190170D01*
X1422608Y189269D01*
X1423122Y188329D01*
X1423567Y187354D01*
X1423941Y186350D01*
X1424243Y185322D01*
X1424471Y184275D01*
X1424624Y183214D01*
X1424700Y182146D01*
X1424700Y181074D01*
X1361200Y155674D02*
X1361124Y154606D01*
X1360971Y153545D01*
X1360743Y152498D01*
X1360441Y151470D01*
X1360067Y150466D01*
X1359622Y149491D01*
X1359108Y148551D01*
X1358529Y147650D01*
X1357887Y146792D01*
X1357185Y145982D01*
X1356428Y145225D01*
X1355618Y144523D01*
X1354760Y143881D01*
X1353859Y143302D01*
X1352919Y142788D01*
X1351944Y142343D01*
X1350940Y141969D01*
X1349912Y141667D01*
X1348865Y141439D01*
X1347804Y141286D01*
X1346736Y141210D01*
X1345664Y141210D01*
X1344596Y141286D01*
X1343535Y141439D01*
X1342488Y141667D01*
X1341460Y141969D01*
X1340456Y142343D01*
X1339481Y142788D01*
X1338541Y143302D01*
X1337640Y143881D01*
X1336782Y144523D01*
X1335972Y145225D01*
X1335215Y145982D01*
X1334513Y146792D01*
X1333871Y147650D01*
X1333292Y148551D01*
X1332778Y149491D01*
X1332333Y150466D01*
X1331959Y151470D01*
X1331657Y152498D01*
X1331429Y153545D01*
X1331276Y154606D01*
X1331200Y155674D01*
X1331200Y156746D01*
X1331276Y157814D01*
X1331429Y158875D01*
X1331657Y159922D01*
X1331959Y160950D01*
X1332333Y161954D01*
X1332778Y162929D01*
X1333292Y163869D01*
X1333871Y164770D01*
X1334513Y165628D01*
X1335215Y166438D01*
X1335972Y167195D01*
X1336782Y167897D01*
X1337640Y168539D01*
X1338541Y169118D01*
X1339481Y169632D01*
X1340456Y170077D01*
X1341460Y170451D01*
X1342488Y170753D01*
X1343535Y170981D01*
X1344596Y171134D01*
X1345664Y171210D01*
X1346736Y171210D01*
X1347804Y171134D01*
X1348865Y170981D01*
X1349912Y170753D01*
X1350940Y170451D01*
X1351944Y170077D01*
X1352919Y169632D01*
X1353859Y169118D01*
X1354760Y168539D01*
X1355618Y167897D01*
X1356428Y167195D01*
X1357185Y166438D01*
X1357887Y165628D01*
X1358529Y164770D01*
X1359108Y163869D01*
X1359622Y162929D01*
X1360067Y161954D01*
X1360441Y160950D01*
X1360743Y159922D01*
X1360971Y158875D01*
X1361124Y157814D01*
X1361200Y156746D01*
X1361200Y155674D01*
X1542660Y131709D02*
X1542595Y130969D01*
X1542466Y130239D01*
X1542274Y129522D01*
X1542020Y128824D01*
X1541707Y128151D01*
X1541336Y127509D01*
X1540910Y126901D01*
X1540433Y126332D01*
X1539908Y125807D01*
X1539339Y125330D01*
X1538731Y124904D01*
X1538089Y124533D01*
X1537416Y124220D01*
X1536718Y123966D01*
X1536002Y123774D01*
X1535271Y123645D01*
X1534531Y123580D01*
X1533789Y123580D01*
X1533049Y123645D01*
X1532319Y123774D01*
X1531602Y123966D01*
X1530904Y124220D01*
X1530231Y124533D01*
X1529589Y124904D01*
X1528981Y125330D01*
X1528412Y125807D01*
X1527887Y126332D01*
X1527410Y126901D01*
X1526984Y127509D01*
X1526613Y128151D01*
X1526300Y128824D01*
X1526046Y129522D01*
X1525854Y130239D01*
X1525725Y130969D01*
X1525660Y131709D01*
X1525660Y132451D01*
X1525725Y133191D01*
X1525854Y133922D01*
X1526046Y134638D01*
X1526300Y135336D01*
X1526613Y136009D01*
X1526984Y136651D01*
X1527410Y137259D01*
X1527887Y137828D01*
X1528412Y138353D01*
X1528981Y138830D01*
X1529589Y139256D01*
X1530231Y139627D01*
X1530904Y139940D01*
X1531602Y140194D01*
X1532319Y140386D01*
X1533049Y140515D01*
X1533789Y140580D01*
X1534531Y140580D01*
X1535271Y140515D01*
X1536002Y140386D01*
X1536718Y140194D01*
X1537416Y139940D01*
X1538089Y139627D01*
X1538731Y139256D01*
X1539339Y138830D01*
X1539908Y138353D01*
X1540433Y137828D01*
X1540910Y137259D01*
X1541336Y136651D01*
X1541707Y136009D01*
X1542020Y135336D01*
X1542274Y134638D01*
X1542466Y133922D01*
X1542595Y133191D01*
X1542660Y132451D01*
X1542660Y131709D01*
X1644260Y131709D02*
X1644195Y130969D01*
X1644066Y130239D01*
X1643874Y129522D01*
X1643620Y128824D01*
X1643307Y128151D01*
X1642936Y127509D01*
X1642510Y126901D01*
X1642033Y126332D01*
X1641508Y125807D01*
X1640939Y125330D01*
X1640331Y124904D01*
X1639689Y124533D01*
X1639016Y124220D01*
X1638318Y123966D01*
X1637602Y123774D01*
X1636871Y123645D01*
X1636131Y123580D01*
X1635389Y123580D01*
X1634649Y123645D01*
X1633919Y123774D01*
X1633202Y123966D01*
X1632504Y124220D01*
X1631831Y124533D01*
X1631189Y124904D01*
X1630581Y125330D01*
X1630012Y125807D01*
X1629487Y126332D01*
X1629010Y126901D01*
X1628584Y127509D01*
X1628213Y128151D01*
X1627900Y128824D01*
X1627646Y129522D01*
X1627454Y130239D01*
X1627325Y130969D01*
X1627260Y131709D01*
X1627260Y132451D01*
X1627325Y133191D01*
X1627454Y133922D01*
X1627646Y134638D01*
X1627900Y135336D01*
X1628213Y136009D01*
X1628584Y136651D01*
X1629010Y137259D01*
X1629487Y137828D01*
X1630012Y138353D01*
X1630581Y138830D01*
X1631189Y139256D01*
X1631831Y139627D01*
X1632504Y139940D01*
X1633202Y140194D01*
X1633919Y140386D01*
X1634649Y140515D01*
X1635389Y140580D01*
X1636131Y140580D01*
X1636871Y140515D01*
X1637602Y140386D01*
X1638318Y140194D01*
X1639016Y139940D01*
X1639689Y139627D01*
X1640331Y139256D01*
X1640939Y138830D01*
X1641508Y138353D01*
X1642033Y137828D01*
X1642510Y137259D01*
X1642936Y136651D01*
X1643307Y136009D01*
X1643620Y135336D01*
X1643874Y134638D01*
X1644066Y133922D01*
X1644195Y133191D01*
X1644260Y132451D01*
X1644260Y131709D01*
X1605460Y131461D02*
X1605385Y130224D01*
X1605236Y128994D01*
X1605013Y127775D01*
X1604716Y126573D01*
X1604348Y125390D01*
X1603908Y124231D01*
X1603400Y123102D01*
X1602824Y122005D01*
X1602183Y120944D01*
X1601479Y119925D01*
X1600715Y118950D01*
X1599894Y118022D01*
X1599018Y117146D01*
X1598090Y116325D01*
X1597115Y115561D01*
X1596096Y114857D01*
X1595035Y114216D01*
X1593938Y113640D01*
X1592809Y113132D01*
X1591650Y112693D01*
X1590467Y112324D01*
X1589265Y112027D01*
X1588046Y111804D01*
X1586816Y111655D01*
X1585579Y111580D01*
X1584341Y111580D01*
X1583104Y111655D01*
X1581874Y111804D01*
X1580655Y112027D01*
X1579453Y112324D01*
X1578270Y112693D01*
X1577111Y113132D01*
X1575982Y113640D01*
X1574885Y114216D01*
X1573824Y114857D01*
X1572805Y115561D01*
X1571830Y116325D01*
X1570902Y117146D01*
X1570026Y118022D01*
X1569205Y118950D01*
X1568441Y119925D01*
X1567737Y120944D01*
X1567096Y122005D01*
X1566520Y123102D01*
X1566012Y124231D01*
X1565573Y125390D01*
X1565204Y126573D01*
X1564907Y127775D01*
X1564684Y128994D01*
X1564535Y130224D01*
X1564460Y131461D01*
X1564460Y132699D01*
X1564535Y133936D01*
X1564684Y135166D01*
X1564907Y136385D01*
X1565204Y137587D01*
X1565573Y138770D01*
X1566012Y139929D01*
X1566520Y141058D01*
X1567096Y142155D01*
X1567737Y143216D01*
X1568441Y144235D01*
X1569205Y145210D01*
X1570026Y146138D01*
X1570902Y147014D01*
X1571830Y147835D01*
X1572805Y148599D01*
X1573824Y149303D01*
X1574885Y149944D01*
X1575982Y150520D01*
X1577111Y151028D01*
X1578270Y151468D01*
X1579453Y151836D01*
X1580655Y152133D01*
X1581874Y152356D01*
X1583104Y152505D01*
X1584341Y152580D01*
X1585579Y152580D01*
X1586816Y152505D01*
X1588046Y152356D01*
X1589265Y152133D01*
X1590467Y151836D01*
X1591650Y151468D01*
X1592809Y151028D01*
X1593938Y150520D01*
X1595035Y149944D01*
X1596096Y149303D01*
X1597115Y148599D01*
X1598090Y147835D01*
X1599018Y147014D01*
X1599894Y146138D01*
X1600715Y145210D01*
X1601479Y144235D01*
X1602183Y143216D01*
X1602824Y142155D01*
X1603400Y141058D01*
X1603908Y139929D01*
X1604348Y138770D01*
X1604716Y137587D01*
X1605013Y136385D01*
X1605236Y135166D01*
X1605385Y133936D01*
X1605460Y132699D01*
X1605460Y131461D01*
X1604960Y131476D02*
X1604887Y130269D01*
X1604741Y129069D01*
X1604523Y127880D01*
X1604234Y126707D01*
X1603875Y125553D01*
X1603446Y124423D01*
X1602950Y123321D01*
X1602388Y122250D01*
X1601763Y121216D01*
X1601076Y120221D01*
X1600331Y119270D01*
X1599529Y118365D01*
X1598675Y117511D01*
X1597770Y116709D01*
X1596819Y115964D01*
X1595824Y115277D01*
X1594790Y114652D01*
X1593719Y114090D01*
X1592617Y113594D01*
X1591487Y113165D01*
X1590333Y112806D01*
X1589160Y112517D01*
X1587971Y112299D01*
X1586771Y112153D01*
X1585564Y112080D01*
X1584356Y112080D01*
X1583149Y112153D01*
X1581949Y112299D01*
X1580760Y112517D01*
X1579587Y112806D01*
X1578433Y113165D01*
X1577303Y113594D01*
X1576201Y114090D01*
X1575130Y114652D01*
X1574096Y115277D01*
X1573101Y115964D01*
X1572150Y116709D01*
X1571245Y117511D01*
X1570391Y118365D01*
X1569589Y119270D01*
X1568844Y120221D01*
X1568157Y121216D01*
X1567532Y122250D01*
X1566970Y123321D01*
X1566474Y124423D01*
X1566045Y125553D01*
X1565686Y126707D01*
X1565397Y127880D01*
X1565179Y129069D01*
X1565033Y130269D01*
X1564960Y131476D01*
X1564960Y132684D01*
X1565033Y133891D01*
X1565179Y135091D01*
X1565397Y136280D01*
X1565686Y137453D01*
X1566045Y138607D01*
X1566474Y139737D01*
X1566970Y140839D01*
X1567532Y141910D01*
X1568157Y142944D01*
X1568844Y143939D01*
X1569589Y144890D01*
X1570391Y145795D01*
X1571245Y146649D01*
X1572150Y147451D01*
X1573101Y148196D01*
X1574096Y148883D01*
X1575130Y149508D01*
X1576201Y150070D01*
X1577303Y150566D01*
X1578433Y150995D01*
X1579587Y151354D01*
X1580760Y151643D01*
X1581949Y151861D01*
X1583149Y152007D01*
X1584356Y152080D01*
X1585564Y152080D01*
X1586771Y152007D01*
X1587971Y151861D01*
X1589160Y151643D01*
X1590333Y151354D01*
X1591487Y150995D01*
X1592617Y150566D01*
X1593719Y150070D01*
X1594790Y149508D01*
X1595824Y148883D01*
X1596819Y148196D01*
X1597770Y147451D01*
X1598675Y146649D01*
X1599529Y145795D01*
X1600331Y144890D01*
X1601076Y143939D01*
X1601763Y142944D01*
X1602388Y141910D01*
X1602950Y140839D01*
X1603446Y139737D01*
X1603875Y138607D01*
X1604234Y137453D01*
X1604523Y136280D01*
X1604741Y135091D01*
X1604887Y133891D01*
X1604960Y132684D01*
X1604960Y131476D01*
X1542660Y131709D02*
X1542595Y130969D01*
X1542466Y130239D01*
X1542274Y129522D01*
X1542020Y128824D01*
X1541707Y128151D01*
X1541336Y127509D01*
X1540910Y126901D01*
X1540433Y126332D01*
X1539908Y125807D01*
X1539339Y125330D01*
X1538731Y124904D01*
X1538089Y124533D01*
X1537416Y124220D01*
X1536718Y123966D01*
X1536002Y123774D01*
X1535271Y123645D01*
X1534531Y123580D01*
X1533789Y123580D01*
X1533049Y123645D01*
X1532319Y123774D01*
X1531602Y123966D01*
X1530904Y124220D01*
X1530231Y124533D01*
X1529589Y124904D01*
X1528981Y125330D01*
X1528412Y125807D01*
X1527887Y126332D01*
X1527410Y126901D01*
X1526984Y127509D01*
X1526613Y128151D01*
X1526300Y128824D01*
X1526046Y129522D01*
X1525854Y130239D01*
X1525725Y130969D01*
X1525660Y131709D01*
X1525660Y132451D01*
X1525725Y133191D01*
X1525854Y133922D01*
X1526046Y134638D01*
X1526300Y135336D01*
X1526613Y136009D01*
X1526984Y136651D01*
X1527410Y137259D01*
X1527887Y137828D01*
X1528412Y138353D01*
X1528981Y138830D01*
X1529589Y139256D01*
X1530231Y139627D01*
X1530904Y139940D01*
X1531602Y140194D01*
X1532319Y140386D01*
X1533049Y140515D01*
X1533789Y140580D01*
X1534531Y140580D01*
X1535271Y140515D01*
X1536002Y140386D01*
X1536718Y140194D01*
X1537416Y139940D01*
X1538089Y139627D01*
X1538731Y139256D01*
X1539339Y138830D01*
X1539908Y138353D01*
X1540433Y137828D01*
X1540910Y137259D01*
X1541336Y136651D01*
X1541707Y136009D01*
X1542020Y135336D01*
X1542274Y134638D01*
X1542466Y133922D01*
X1542595Y133191D01*
X1542660Y132451D01*
X1542660Y131709D01*
X1644260Y131709D02*
X1644195Y130969D01*
X1644066Y130239D01*
X1643874Y129522D01*
X1643620Y128824D01*
X1643307Y128151D01*
X1642936Y127509D01*
X1642510Y126901D01*
X1642033Y126332D01*
X1641508Y125807D01*
X1640939Y125330D01*
X1640331Y124904D01*
X1639689Y124533D01*
X1639016Y124220D01*
X1638318Y123966D01*
X1637602Y123774D01*
X1636871Y123645D01*
X1636131Y123580D01*
X1635389Y123580D01*
X1634649Y123645D01*
X1633919Y123774D01*
X1633202Y123966D01*
X1632504Y124220D01*
X1631831Y124533D01*
X1631189Y124904D01*
X1630581Y125330D01*
X1630012Y125807D01*
X1629487Y126332D01*
X1629010Y126901D01*
X1628584Y127509D01*
X1628213Y128151D01*
X1627900Y128824D01*
X1627646Y129522D01*
X1627454Y130239D01*
X1627325Y130969D01*
X1627260Y131709D01*
X1627260Y132451D01*
X1627325Y133191D01*
X1627454Y133922D01*
X1627646Y134638D01*
X1627900Y135336D01*
X1628213Y136009D01*
X1628584Y136651D01*
X1629010Y137259D01*
X1629487Y137828D01*
X1630012Y138353D01*
X1630581Y138830D01*
X1631189Y139256D01*
X1631831Y139627D01*
X1632504Y139940D01*
X1633202Y140194D01*
X1633919Y140386D01*
X1634649Y140515D01*
X1635389Y140580D01*
X1636131Y140580D01*
X1636871Y140515D01*
X1637602Y140386D01*
X1638318Y140194D01*
X1639016Y139940D01*
X1639689Y139627D01*
X1640331Y139256D01*
X1640939Y138830D01*
X1641508Y138353D01*
X1642033Y137828D01*
X1642510Y137259D01*
X1642936Y136651D01*
X1643307Y136009D01*
X1643620Y135336D01*
X1643874Y134638D01*
X1644066Y133922D01*
X1644195Y133191D01*
X1644260Y132451D01*
X1644260Y131709D01*
X1625360Y182344D02*
X1625284Y181276D01*
X1625131Y180215D01*
X1624903Y179168D01*
X1624601Y178140D01*
X1624227Y177136D01*
X1623782Y176161D01*
X1623268Y175221D01*
X1622689Y174320D01*
X1622047Y173462D01*
X1621345Y172652D01*
X1620588Y171895D01*
X1619778Y171193D01*
X1618920Y170551D01*
X1618019Y169972D01*
X1617079Y169458D01*
X1616104Y169013D01*
X1615100Y168639D01*
X1614072Y168337D01*
X1613025Y168109D01*
X1611964Y167956D01*
X1610896Y167880D01*
X1609824Y167880D01*
X1608756Y167956D01*
X1607695Y168109D01*
X1606648Y168337D01*
X1605620Y168639D01*
X1604616Y169013D01*
X1603641Y169458D01*
X1602701Y169972D01*
X1601800Y170551D01*
X1600942Y171193D01*
X1600132Y171895D01*
X1599375Y172652D01*
X1598673Y173462D01*
X1598031Y174320D01*
X1597452Y175221D01*
X1596938Y176161D01*
X1596493Y177136D01*
X1596119Y178140D01*
X1595817Y179168D01*
X1595589Y180215D01*
X1595436Y181276D01*
X1595360Y182344D01*
X1595360Y183416D01*
X1595436Y184484D01*
X1595589Y185545D01*
X1595817Y186592D01*
X1596119Y187620D01*
X1596493Y188624D01*
X1596938Y189599D01*
X1597452Y190539D01*
X1598031Y191440D01*
X1598673Y192298D01*
X1599375Y193108D01*
X1600132Y193865D01*
X1600942Y194567D01*
X1601800Y195209D01*
X1602701Y195788D01*
X1603641Y196302D01*
X1604616Y196747D01*
X1605620Y197121D01*
X1606648Y197423D01*
X1607695Y197651D01*
X1608756Y197804D01*
X1609824Y197880D01*
X1610896Y197880D01*
X1611964Y197804D01*
X1613025Y197651D01*
X1614072Y197423D01*
X1615100Y197121D01*
X1616104Y196747D01*
X1617079Y196302D01*
X1618019Y195788D01*
X1618920Y195209D01*
X1619778Y194567D01*
X1620588Y193865D01*
X1621345Y193108D01*
X1622047Y192298D01*
X1622689Y191440D01*
X1623268Y190539D01*
X1623782Y189599D01*
X1624227Y188624D01*
X1624601Y187620D01*
X1624903Y186592D01*
X1625131Y185545D01*
X1625284Y184484D01*
X1625360Y183416D01*
X1625360Y182344D01*
X1561860Y156944D02*
X1561784Y155876D01*
X1561631Y154815D01*
X1561403Y153768D01*
X1561101Y152740D01*
X1560727Y151736D01*
X1560282Y150761D01*
X1559768Y149821D01*
X1559189Y148920D01*
X1558547Y148062D01*
X1557845Y147252D01*
X1557088Y146495D01*
X1556278Y145793D01*
X1555420Y145151D01*
X1554519Y144572D01*
X1553579Y144058D01*
X1552604Y143613D01*
X1551600Y143239D01*
X1550572Y142937D01*
X1549525Y142709D01*
X1548464Y142556D01*
X1547396Y142480D01*
X1546324Y142480D01*
X1545256Y142556D01*
X1544195Y142709D01*
X1543148Y142937D01*
X1542120Y143239D01*
X1541116Y143613D01*
X1540141Y144058D01*
X1539201Y144572D01*
X1538300Y145151D01*
X1537442Y145793D01*
X1536632Y146495D01*
X1535875Y147252D01*
X1535173Y148062D01*
X1534531Y148920D01*
X1533952Y149821D01*
X1533438Y150761D01*
X1532993Y151736D01*
X1532619Y152740D01*
X1532317Y153768D01*
X1532089Y154815D01*
X1531936Y155876D01*
X1531860Y156944D01*
X1531860Y158016D01*
X1531936Y159084D01*
X1532089Y160145D01*
X1532317Y161192D01*
X1532619Y162220D01*
X1532993Y163224D01*
X1533438Y164199D01*
X1533952Y165139D01*
X1534531Y166040D01*
X1535173Y166898D01*
X1535875Y167708D01*
X1536632Y168465D01*
X1537442Y169167D01*
X1538300Y169809D01*
X1539201Y170388D01*
X1540141Y170902D01*
X1541116Y171347D01*
X1542120Y171721D01*
X1543148Y172023D01*
X1544195Y172251D01*
X1545256Y172404D01*
X1546324Y172480D01*
X1547396Y172480D01*
X1548464Y172404D01*
X1549525Y172251D01*
X1550572Y172023D01*
X1551600Y171721D01*
X1552604Y171347D01*
X1553579Y170902D01*
X1554519Y170388D01*
X1555420Y169809D01*
X1556278Y169167D01*
X1557088Y168465D01*
X1557845Y167708D01*
X1558547Y166898D01*
X1559189Y166040D01*
X1559768Y165139D01*
X1560282Y164199D01*
X1560727Y163224D01*
X1561101Y162220D01*
X1561403Y161192D01*
X1561631Y160145D01*
X1561784Y159084D01*
X1561860Y158016D01*
X1561860Y156944D01*
M02*
