G04 EAGLE Gerber RS-274X export*
G75*
%MOMM*%
%FSLAX34Y34*%
%LPD*%
%INSilkscreen Bottom*%
%IPPOS*%
%AMOC8*
5,1,8,0,0,1.08239X$1,22.5*%
G01*
%ADD10C,0.150000*%
%ADD11C,0.100000*%
%ADD12C,0.200000*%
%ADD13C,0.050800*%


D10*
X113030Y159700D02*
X149630Y159700D01*
X149630Y119700D02*
X100730Y119700D01*
X38330Y110500D02*
X38330Y94300D01*
X75330Y94300D01*
X75337Y94914D01*
X75360Y95527D01*
X75397Y96140D01*
X75449Y96751D01*
X75515Y97362D01*
X75597Y97970D01*
X75693Y98576D01*
X75803Y99180D01*
X75928Y99781D01*
X76068Y100379D01*
X76222Y100973D01*
X76391Y101563D01*
X76573Y102149D01*
X76770Y102730D01*
X76981Y103307D01*
X77205Y103878D01*
X77443Y104444D01*
X77695Y105004D01*
X77961Y105557D01*
X78239Y106104D01*
X78531Y106644D01*
X78836Y107177D01*
X79154Y107702D01*
X79484Y108220D01*
X79826Y108729D01*
X80181Y109230D01*
X80548Y109722D01*
X80926Y110205D01*
X81316Y110679D01*
X81718Y111143D01*
X82130Y111598D01*
X82554Y112042D01*
X82988Y112476D01*
X83432Y112900D01*
X83887Y113312D01*
X84351Y113714D01*
X84825Y114104D01*
X85308Y114482D01*
X85800Y114849D01*
X86301Y115204D01*
X86810Y115546D01*
X87328Y115876D01*
X87853Y116194D01*
X88386Y116499D01*
X88926Y116791D01*
X89473Y117069D01*
X90026Y117335D01*
X90586Y117587D01*
X91152Y117825D01*
X91723Y118049D01*
X92300Y118260D01*
X92881Y118457D01*
X93467Y118639D01*
X94057Y118808D01*
X94651Y118962D01*
X95249Y119102D01*
X95850Y119227D01*
X96454Y119337D01*
X97060Y119433D01*
X97668Y119515D01*
X98279Y119581D01*
X98890Y119633D01*
X99503Y119670D01*
X100116Y119693D01*
X100730Y119700D01*
X149630Y119700D02*
X149630Y159700D01*
X113180Y159700D02*
X63730Y159700D01*
X63116Y159693D01*
X62503Y159670D01*
X61890Y159633D01*
X61279Y159581D01*
X60668Y159515D01*
X60060Y159433D01*
X59454Y159337D01*
X58850Y159227D01*
X58249Y159102D01*
X57651Y158962D01*
X57057Y158808D01*
X56467Y158639D01*
X55881Y158457D01*
X55300Y158260D01*
X54723Y158049D01*
X54152Y157825D01*
X53586Y157587D01*
X53026Y157335D01*
X52473Y157069D01*
X51926Y156791D01*
X51386Y156499D01*
X50853Y156194D01*
X50328Y155876D01*
X49810Y155546D01*
X49301Y155204D01*
X48800Y154849D01*
X48308Y154482D01*
X47825Y154104D01*
X47351Y153714D01*
X46887Y153312D01*
X46432Y152900D01*
X45988Y152476D01*
X45554Y152042D01*
X45130Y151598D01*
X44718Y151143D01*
X44316Y150679D01*
X43926Y150205D01*
X43548Y149722D01*
X43181Y149230D01*
X42826Y148729D01*
X42484Y148220D01*
X42154Y147702D01*
X41836Y147177D01*
X41531Y146644D01*
X41239Y146104D01*
X40961Y145557D01*
X40695Y145004D01*
X40443Y144444D01*
X40205Y143878D01*
X39981Y143307D01*
X39770Y142730D01*
X39573Y142149D01*
X39391Y141563D01*
X39222Y140973D01*
X39068Y140379D01*
X38928Y139781D01*
X38803Y139180D01*
X38693Y138576D01*
X38597Y137970D01*
X38515Y137362D01*
X38449Y136751D01*
X38397Y136140D01*
X38360Y135527D01*
X38337Y134914D01*
X38330Y134300D01*
X38330Y110000D01*
X309880Y159700D02*
X346480Y159700D01*
X346480Y119700D02*
X297580Y119700D01*
X235180Y110500D02*
X235180Y94300D01*
X272180Y94300D01*
X272187Y94914D01*
X272210Y95527D01*
X272247Y96140D01*
X272299Y96751D01*
X272365Y97362D01*
X272447Y97970D01*
X272543Y98576D01*
X272653Y99180D01*
X272778Y99781D01*
X272918Y100379D01*
X273072Y100973D01*
X273241Y101563D01*
X273423Y102149D01*
X273620Y102730D01*
X273831Y103307D01*
X274055Y103878D01*
X274293Y104444D01*
X274545Y105004D01*
X274811Y105557D01*
X275089Y106104D01*
X275381Y106644D01*
X275686Y107177D01*
X276004Y107702D01*
X276334Y108220D01*
X276676Y108729D01*
X277031Y109230D01*
X277398Y109722D01*
X277776Y110205D01*
X278166Y110679D01*
X278568Y111143D01*
X278980Y111598D01*
X279404Y112042D01*
X279838Y112476D01*
X280282Y112900D01*
X280737Y113312D01*
X281201Y113714D01*
X281675Y114104D01*
X282158Y114482D01*
X282650Y114849D01*
X283151Y115204D01*
X283660Y115546D01*
X284178Y115876D01*
X284703Y116194D01*
X285236Y116499D01*
X285776Y116791D01*
X286323Y117069D01*
X286876Y117335D01*
X287436Y117587D01*
X288002Y117825D01*
X288573Y118049D01*
X289150Y118260D01*
X289731Y118457D01*
X290317Y118639D01*
X290907Y118808D01*
X291501Y118962D01*
X292099Y119102D01*
X292700Y119227D01*
X293304Y119337D01*
X293910Y119433D01*
X294518Y119515D01*
X295129Y119581D01*
X295740Y119633D01*
X296353Y119670D01*
X296966Y119693D01*
X297580Y119700D01*
X346480Y119700D02*
X346480Y159700D01*
X310030Y159700D02*
X260580Y159700D01*
X259966Y159693D01*
X259353Y159670D01*
X258740Y159633D01*
X258129Y159581D01*
X257518Y159515D01*
X256910Y159433D01*
X256304Y159337D01*
X255700Y159227D01*
X255099Y159102D01*
X254501Y158962D01*
X253907Y158808D01*
X253317Y158639D01*
X252731Y158457D01*
X252150Y158260D01*
X251573Y158049D01*
X251002Y157825D01*
X250436Y157587D01*
X249876Y157335D01*
X249323Y157069D01*
X248776Y156791D01*
X248236Y156499D01*
X247703Y156194D01*
X247178Y155876D01*
X246660Y155546D01*
X246151Y155204D01*
X245650Y154849D01*
X245158Y154482D01*
X244675Y154104D01*
X244201Y153714D01*
X243737Y153312D01*
X243282Y152900D01*
X242838Y152476D01*
X242404Y152042D01*
X241980Y151598D01*
X241568Y151143D01*
X241166Y150679D01*
X240776Y150205D01*
X240398Y149722D01*
X240031Y149230D01*
X239676Y148729D01*
X239334Y148220D01*
X239004Y147702D01*
X238686Y147177D01*
X238381Y146644D01*
X238089Y146104D01*
X237811Y145557D01*
X237545Y145004D01*
X237293Y144444D01*
X237055Y143878D01*
X236831Y143307D01*
X236620Y142730D01*
X236423Y142149D01*
X236241Y141563D01*
X236072Y140973D01*
X235918Y140379D01*
X235778Y139781D01*
X235653Y139180D01*
X235543Y138576D01*
X235447Y137970D01*
X235365Y137362D01*
X235299Y136751D01*
X235247Y136140D01*
X235210Y135527D01*
X235187Y134914D01*
X235180Y134300D01*
X235180Y110000D01*
X508000Y159700D02*
X544600Y159700D01*
X544600Y119700D02*
X495700Y119700D01*
X433300Y110500D02*
X433300Y94300D01*
X470300Y94300D01*
X470307Y94914D01*
X470330Y95527D01*
X470367Y96140D01*
X470419Y96751D01*
X470485Y97362D01*
X470567Y97970D01*
X470663Y98576D01*
X470773Y99180D01*
X470898Y99781D01*
X471038Y100379D01*
X471192Y100973D01*
X471361Y101563D01*
X471543Y102149D01*
X471740Y102730D01*
X471951Y103307D01*
X472175Y103878D01*
X472413Y104444D01*
X472665Y105004D01*
X472931Y105557D01*
X473209Y106104D01*
X473501Y106644D01*
X473806Y107177D01*
X474124Y107702D01*
X474454Y108220D01*
X474796Y108729D01*
X475151Y109230D01*
X475518Y109722D01*
X475896Y110205D01*
X476286Y110679D01*
X476688Y111143D01*
X477100Y111598D01*
X477524Y112042D01*
X477958Y112476D01*
X478402Y112900D01*
X478857Y113312D01*
X479321Y113714D01*
X479795Y114104D01*
X480278Y114482D01*
X480770Y114849D01*
X481271Y115204D01*
X481780Y115546D01*
X482298Y115876D01*
X482823Y116194D01*
X483356Y116499D01*
X483896Y116791D01*
X484443Y117069D01*
X484996Y117335D01*
X485556Y117587D01*
X486122Y117825D01*
X486693Y118049D01*
X487270Y118260D01*
X487851Y118457D01*
X488437Y118639D01*
X489027Y118808D01*
X489621Y118962D01*
X490219Y119102D01*
X490820Y119227D01*
X491424Y119337D01*
X492030Y119433D01*
X492638Y119515D01*
X493249Y119581D01*
X493860Y119633D01*
X494473Y119670D01*
X495086Y119693D01*
X495700Y119700D01*
X544600Y119700D02*
X544600Y159700D01*
X508150Y159700D02*
X458700Y159700D01*
X458086Y159693D01*
X457473Y159670D01*
X456860Y159633D01*
X456249Y159581D01*
X455638Y159515D01*
X455030Y159433D01*
X454424Y159337D01*
X453820Y159227D01*
X453219Y159102D01*
X452621Y158962D01*
X452027Y158808D01*
X451437Y158639D01*
X450851Y158457D01*
X450270Y158260D01*
X449693Y158049D01*
X449122Y157825D01*
X448556Y157587D01*
X447996Y157335D01*
X447443Y157069D01*
X446896Y156791D01*
X446356Y156499D01*
X445823Y156194D01*
X445298Y155876D01*
X444780Y155546D01*
X444271Y155204D01*
X443770Y154849D01*
X443278Y154482D01*
X442795Y154104D01*
X442321Y153714D01*
X441857Y153312D01*
X441402Y152900D01*
X440958Y152476D01*
X440524Y152042D01*
X440100Y151598D01*
X439688Y151143D01*
X439286Y150679D01*
X438896Y150205D01*
X438518Y149722D01*
X438151Y149230D01*
X437796Y148729D01*
X437454Y148220D01*
X437124Y147702D01*
X436806Y147177D01*
X436501Y146644D01*
X436209Y146104D01*
X435931Y145557D01*
X435665Y145004D01*
X435413Y144444D01*
X435175Y143878D01*
X434951Y143307D01*
X434740Y142730D01*
X434543Y142149D01*
X434361Y141563D01*
X434192Y140973D01*
X434038Y140379D01*
X433898Y139781D01*
X433773Y139180D01*
X433663Y138576D01*
X433567Y137970D01*
X433485Y137362D01*
X433419Y136751D01*
X433367Y136140D01*
X433330Y135527D01*
X433307Y134914D01*
X433300Y134300D01*
X433300Y110000D01*
X704850Y158430D02*
X741450Y158430D01*
X741450Y118430D02*
X692550Y118430D01*
X630150Y109230D02*
X630150Y93030D01*
X667150Y93030D01*
X667157Y93644D01*
X667180Y94257D01*
X667217Y94870D01*
X667269Y95481D01*
X667335Y96092D01*
X667417Y96700D01*
X667513Y97306D01*
X667623Y97910D01*
X667748Y98511D01*
X667888Y99109D01*
X668042Y99703D01*
X668211Y100293D01*
X668393Y100879D01*
X668590Y101460D01*
X668801Y102037D01*
X669025Y102608D01*
X669263Y103174D01*
X669515Y103734D01*
X669781Y104287D01*
X670059Y104834D01*
X670351Y105374D01*
X670656Y105907D01*
X670974Y106432D01*
X671304Y106950D01*
X671646Y107459D01*
X672001Y107960D01*
X672368Y108452D01*
X672746Y108935D01*
X673136Y109409D01*
X673538Y109873D01*
X673950Y110328D01*
X674374Y110772D01*
X674808Y111206D01*
X675252Y111630D01*
X675707Y112042D01*
X676171Y112444D01*
X676645Y112834D01*
X677128Y113212D01*
X677620Y113579D01*
X678121Y113934D01*
X678630Y114276D01*
X679148Y114606D01*
X679673Y114924D01*
X680206Y115229D01*
X680746Y115521D01*
X681293Y115799D01*
X681846Y116065D01*
X682406Y116317D01*
X682972Y116555D01*
X683543Y116779D01*
X684120Y116990D01*
X684701Y117187D01*
X685287Y117369D01*
X685877Y117538D01*
X686471Y117692D01*
X687069Y117832D01*
X687670Y117957D01*
X688274Y118067D01*
X688880Y118163D01*
X689488Y118245D01*
X690099Y118311D01*
X690710Y118363D01*
X691323Y118400D01*
X691936Y118423D01*
X692550Y118430D01*
X741450Y118430D02*
X741450Y158430D01*
X705000Y158430D02*
X655550Y158430D01*
X654936Y158423D01*
X654323Y158400D01*
X653710Y158363D01*
X653099Y158311D01*
X652488Y158245D01*
X651880Y158163D01*
X651274Y158067D01*
X650670Y157957D01*
X650069Y157832D01*
X649471Y157692D01*
X648877Y157538D01*
X648287Y157369D01*
X647701Y157187D01*
X647120Y156990D01*
X646543Y156779D01*
X645972Y156555D01*
X645406Y156317D01*
X644846Y156065D01*
X644293Y155799D01*
X643746Y155521D01*
X643206Y155229D01*
X642673Y154924D01*
X642148Y154606D01*
X641630Y154276D01*
X641121Y153934D01*
X640620Y153579D01*
X640128Y153212D01*
X639645Y152834D01*
X639171Y152444D01*
X638707Y152042D01*
X638252Y151630D01*
X637808Y151206D01*
X637374Y150772D01*
X636950Y150328D01*
X636538Y149873D01*
X636136Y149409D01*
X635746Y148935D01*
X635368Y148452D01*
X635001Y147960D01*
X634646Y147459D01*
X634304Y146950D01*
X633974Y146432D01*
X633656Y145907D01*
X633351Y145374D01*
X633059Y144834D01*
X632781Y144287D01*
X632515Y143734D01*
X632263Y143174D01*
X632025Y142608D01*
X631801Y142037D01*
X631590Y141460D01*
X631393Y140879D01*
X631211Y140293D01*
X631042Y139703D01*
X630888Y139109D01*
X630748Y138511D01*
X630623Y137910D01*
X630513Y137306D01*
X630417Y136700D01*
X630335Y136092D01*
X630269Y135481D01*
X630217Y134870D01*
X630180Y134257D01*
X630157Y133644D01*
X630150Y133030D01*
X630150Y108730D01*
X905510Y159700D02*
X942110Y159700D01*
X942110Y119700D02*
X893210Y119700D01*
X830810Y110500D02*
X830810Y94300D01*
X867810Y94300D01*
X867817Y94914D01*
X867840Y95527D01*
X867877Y96140D01*
X867929Y96751D01*
X867995Y97362D01*
X868077Y97970D01*
X868173Y98576D01*
X868283Y99180D01*
X868408Y99781D01*
X868548Y100379D01*
X868702Y100973D01*
X868871Y101563D01*
X869053Y102149D01*
X869250Y102730D01*
X869461Y103307D01*
X869685Y103878D01*
X869923Y104444D01*
X870175Y105004D01*
X870441Y105557D01*
X870719Y106104D01*
X871011Y106644D01*
X871316Y107177D01*
X871634Y107702D01*
X871964Y108220D01*
X872306Y108729D01*
X872661Y109230D01*
X873028Y109722D01*
X873406Y110205D01*
X873796Y110679D01*
X874198Y111143D01*
X874610Y111598D01*
X875034Y112042D01*
X875468Y112476D01*
X875912Y112900D01*
X876367Y113312D01*
X876831Y113714D01*
X877305Y114104D01*
X877788Y114482D01*
X878280Y114849D01*
X878781Y115204D01*
X879290Y115546D01*
X879808Y115876D01*
X880333Y116194D01*
X880866Y116499D01*
X881406Y116791D01*
X881953Y117069D01*
X882506Y117335D01*
X883066Y117587D01*
X883632Y117825D01*
X884203Y118049D01*
X884780Y118260D01*
X885361Y118457D01*
X885947Y118639D01*
X886537Y118808D01*
X887131Y118962D01*
X887729Y119102D01*
X888330Y119227D01*
X888934Y119337D01*
X889540Y119433D01*
X890148Y119515D01*
X890759Y119581D01*
X891370Y119633D01*
X891983Y119670D01*
X892596Y119693D01*
X893210Y119700D01*
X942110Y119700D02*
X942110Y159700D01*
X905660Y159700D02*
X856210Y159700D01*
X855596Y159693D01*
X854983Y159670D01*
X854370Y159633D01*
X853759Y159581D01*
X853148Y159515D01*
X852540Y159433D01*
X851934Y159337D01*
X851330Y159227D01*
X850729Y159102D01*
X850131Y158962D01*
X849537Y158808D01*
X848947Y158639D01*
X848361Y158457D01*
X847780Y158260D01*
X847203Y158049D01*
X846632Y157825D01*
X846066Y157587D01*
X845506Y157335D01*
X844953Y157069D01*
X844406Y156791D01*
X843866Y156499D01*
X843333Y156194D01*
X842808Y155876D01*
X842290Y155546D01*
X841781Y155204D01*
X841280Y154849D01*
X840788Y154482D01*
X840305Y154104D01*
X839831Y153714D01*
X839367Y153312D01*
X838912Y152900D01*
X838468Y152476D01*
X838034Y152042D01*
X837610Y151598D01*
X837198Y151143D01*
X836796Y150679D01*
X836406Y150205D01*
X836028Y149722D01*
X835661Y149230D01*
X835306Y148729D01*
X834964Y148220D01*
X834634Y147702D01*
X834316Y147177D01*
X834011Y146644D01*
X833719Y146104D01*
X833441Y145557D01*
X833175Y145004D01*
X832923Y144444D01*
X832685Y143878D01*
X832461Y143307D01*
X832250Y142730D01*
X832053Y142149D01*
X831871Y141563D01*
X831702Y140973D01*
X831548Y140379D01*
X831408Y139781D01*
X831283Y139180D01*
X831173Y138576D01*
X831077Y137970D01*
X830995Y137362D01*
X830929Y136751D01*
X830877Y136140D01*
X830840Y135527D01*
X830817Y134914D01*
X830810Y134300D01*
X830810Y110000D01*
D11*
X112830Y54640D02*
X87830Y54640D01*
X87830Y26640D02*
X112830Y26640D01*
D12*
X141330Y47640D02*
X141286Y47642D01*
X141243Y47648D01*
X141201Y47657D01*
X141159Y47670D01*
X141119Y47687D01*
X141080Y47707D01*
X141043Y47730D01*
X141009Y47757D01*
X140976Y47786D01*
X140947Y47819D01*
X140920Y47853D01*
X140897Y47890D01*
X140877Y47929D01*
X140860Y47969D01*
X140847Y48011D01*
X140838Y48053D01*
X140832Y48096D01*
X140830Y48140D01*
X140832Y48184D01*
X140838Y48227D01*
X140847Y48269D01*
X140860Y48311D01*
X140877Y48351D01*
X140897Y48390D01*
X140920Y48427D01*
X140947Y48461D01*
X140976Y48494D01*
X141009Y48523D01*
X141043Y48550D01*
X141080Y48573D01*
X141119Y48593D01*
X141159Y48610D01*
X141201Y48623D01*
X141243Y48632D01*
X141286Y48638D01*
X141330Y48640D01*
X141374Y48638D01*
X141417Y48632D01*
X141459Y48623D01*
X141501Y48610D01*
X141541Y48593D01*
X141580Y48573D01*
X141617Y48550D01*
X141651Y48523D01*
X141684Y48494D01*
X141713Y48461D01*
X141740Y48427D01*
X141763Y48390D01*
X141783Y48351D01*
X141800Y48311D01*
X141813Y48269D01*
X141822Y48227D01*
X141828Y48184D01*
X141830Y48140D01*
X141828Y48096D01*
X141822Y48053D01*
X141813Y48011D01*
X141800Y47969D01*
X141783Y47929D01*
X141763Y47890D01*
X141740Y47853D01*
X141713Y47819D01*
X141684Y47786D01*
X141651Y47757D01*
X141617Y47730D01*
X141580Y47707D01*
X141541Y47687D01*
X141501Y47670D01*
X141459Y47657D01*
X141417Y47648D01*
X141374Y47642D01*
X141330Y47640D01*
X141286Y47642D01*
X141243Y47648D01*
X141201Y47657D01*
X141159Y47670D01*
X141119Y47687D01*
X141080Y47707D01*
X141043Y47730D01*
X141009Y47757D01*
X140976Y47786D01*
X140947Y47819D01*
X140920Y47853D01*
X140897Y47890D01*
X140877Y47929D01*
X140860Y47969D01*
X140847Y48011D01*
X140838Y48053D01*
X140832Y48096D01*
X140830Y48140D01*
X140832Y48184D01*
X140838Y48227D01*
X140847Y48269D01*
X140860Y48311D01*
X140877Y48351D01*
X140897Y48390D01*
X140920Y48427D01*
X140947Y48461D01*
X140976Y48494D01*
X141009Y48523D01*
X141043Y48550D01*
X141080Y48573D01*
X141119Y48593D01*
X141159Y48610D01*
X141201Y48623D01*
X141243Y48632D01*
X141286Y48638D01*
X141330Y48640D01*
D13*
X109406Y4064D02*
X109406Y-1524D01*
X106923Y-1524D01*
X104651Y-1524D02*
X102168Y-1524D01*
X104651Y-1524D02*
X104651Y4064D01*
X102168Y4064D01*
X102789Y1580D02*
X104651Y1580D01*
X99908Y4064D02*
X99908Y-1524D01*
X99908Y4064D02*
X98355Y4064D01*
X98279Y4062D01*
X98203Y4057D01*
X98127Y4047D01*
X98052Y4034D01*
X97978Y4017D01*
X97904Y3997D01*
X97832Y3973D01*
X97761Y3946D01*
X97691Y3915D01*
X97623Y3881D01*
X97557Y3843D01*
X97493Y3802D01*
X97430Y3759D01*
X97370Y3712D01*
X97313Y3662D01*
X97258Y3609D01*
X97205Y3554D01*
X97155Y3497D01*
X97108Y3437D01*
X97065Y3374D01*
X97024Y3310D01*
X96986Y3244D01*
X96952Y3176D01*
X96921Y3106D01*
X96894Y3035D01*
X96870Y2963D01*
X96850Y2889D01*
X96833Y2815D01*
X96820Y2740D01*
X96810Y2664D01*
X96805Y2588D01*
X96803Y2512D01*
X96803Y28D01*
X96805Y-48D01*
X96810Y-124D01*
X96820Y-200D01*
X96833Y-275D01*
X96850Y-349D01*
X96870Y-423D01*
X96894Y-495D01*
X96921Y-566D01*
X96952Y-636D01*
X96986Y-704D01*
X97024Y-770D01*
X97065Y-834D01*
X97108Y-897D01*
X97155Y-957D01*
X97205Y-1014D01*
X97258Y-1069D01*
X97313Y-1122D01*
X97370Y-1172D01*
X97430Y-1219D01*
X97493Y-1262D01*
X97557Y-1303D01*
X97623Y-1341D01*
X97691Y-1375D01*
X97761Y-1406D01*
X97832Y-1433D01*
X97905Y-1457D01*
X97978Y-1477D01*
X98052Y-1494D01*
X98127Y-1507D01*
X98203Y-1517D01*
X98279Y-1522D01*
X98355Y-1524D01*
X99908Y-1524D01*
X94238Y2822D02*
X92686Y4064D01*
X92686Y-1524D01*
X94238Y-1524D02*
X91134Y-1524D01*
D11*
X285950Y52100D02*
X310950Y52100D01*
X310950Y24100D02*
X285950Y24100D01*
D12*
X339450Y45100D02*
X339406Y45102D01*
X339363Y45108D01*
X339321Y45117D01*
X339279Y45130D01*
X339239Y45147D01*
X339200Y45167D01*
X339163Y45190D01*
X339129Y45217D01*
X339096Y45246D01*
X339067Y45279D01*
X339040Y45313D01*
X339017Y45350D01*
X338997Y45389D01*
X338980Y45429D01*
X338967Y45471D01*
X338958Y45513D01*
X338952Y45556D01*
X338950Y45600D01*
X338952Y45644D01*
X338958Y45687D01*
X338967Y45729D01*
X338980Y45771D01*
X338997Y45811D01*
X339017Y45850D01*
X339040Y45887D01*
X339067Y45921D01*
X339096Y45954D01*
X339129Y45983D01*
X339163Y46010D01*
X339200Y46033D01*
X339239Y46053D01*
X339279Y46070D01*
X339321Y46083D01*
X339363Y46092D01*
X339406Y46098D01*
X339450Y46100D01*
X339494Y46098D01*
X339537Y46092D01*
X339579Y46083D01*
X339621Y46070D01*
X339661Y46053D01*
X339700Y46033D01*
X339737Y46010D01*
X339771Y45983D01*
X339804Y45954D01*
X339833Y45921D01*
X339860Y45887D01*
X339883Y45850D01*
X339903Y45811D01*
X339920Y45771D01*
X339933Y45729D01*
X339942Y45687D01*
X339948Y45644D01*
X339950Y45600D01*
X339948Y45556D01*
X339942Y45513D01*
X339933Y45471D01*
X339920Y45429D01*
X339903Y45389D01*
X339883Y45350D01*
X339860Y45313D01*
X339833Y45279D01*
X339804Y45246D01*
X339771Y45217D01*
X339737Y45190D01*
X339700Y45167D01*
X339661Y45147D01*
X339621Y45130D01*
X339579Y45117D01*
X339537Y45108D01*
X339494Y45102D01*
X339450Y45100D01*
X339406Y45102D01*
X339363Y45108D01*
X339321Y45117D01*
X339279Y45130D01*
X339239Y45147D01*
X339200Y45167D01*
X339163Y45190D01*
X339129Y45217D01*
X339096Y45246D01*
X339067Y45279D01*
X339040Y45313D01*
X339017Y45350D01*
X338997Y45389D01*
X338980Y45429D01*
X338967Y45471D01*
X338958Y45513D01*
X338952Y45556D01*
X338950Y45600D01*
X338952Y45644D01*
X338958Y45687D01*
X338967Y45729D01*
X338980Y45771D01*
X338997Y45811D01*
X339017Y45850D01*
X339040Y45887D01*
X339067Y45921D01*
X339096Y45954D01*
X339129Y45983D01*
X339163Y46010D01*
X339200Y46033D01*
X339239Y46053D01*
X339279Y46070D01*
X339321Y46083D01*
X339363Y46092D01*
X339406Y46098D01*
X339450Y46100D01*
D13*
X307526Y4064D02*
X307526Y-1524D01*
X305043Y-1524D01*
X302771Y-1524D02*
X300288Y-1524D01*
X302771Y-1524D02*
X302771Y4064D01*
X300288Y4064D01*
X300909Y1580D02*
X302771Y1580D01*
X298028Y4064D02*
X298028Y-1524D01*
X298028Y4064D02*
X296475Y4064D01*
X296399Y4062D01*
X296323Y4057D01*
X296247Y4047D01*
X296172Y4034D01*
X296098Y4017D01*
X296024Y3997D01*
X295952Y3973D01*
X295881Y3946D01*
X295811Y3915D01*
X295743Y3881D01*
X295677Y3843D01*
X295613Y3802D01*
X295550Y3759D01*
X295490Y3712D01*
X295433Y3662D01*
X295378Y3609D01*
X295325Y3554D01*
X295275Y3497D01*
X295228Y3437D01*
X295185Y3374D01*
X295144Y3310D01*
X295106Y3244D01*
X295072Y3176D01*
X295041Y3106D01*
X295014Y3035D01*
X294990Y2963D01*
X294970Y2889D01*
X294953Y2815D01*
X294940Y2740D01*
X294930Y2664D01*
X294925Y2588D01*
X294923Y2512D01*
X294923Y28D01*
X294925Y-48D01*
X294930Y-124D01*
X294940Y-200D01*
X294953Y-275D01*
X294970Y-349D01*
X294990Y-423D01*
X295014Y-495D01*
X295041Y-566D01*
X295072Y-636D01*
X295106Y-704D01*
X295144Y-770D01*
X295185Y-834D01*
X295228Y-897D01*
X295275Y-957D01*
X295325Y-1014D01*
X295378Y-1069D01*
X295433Y-1122D01*
X295490Y-1172D01*
X295550Y-1219D01*
X295613Y-1262D01*
X295677Y-1303D01*
X295743Y-1341D01*
X295811Y-1375D01*
X295881Y-1406D01*
X295952Y-1433D01*
X296025Y-1457D01*
X296098Y-1477D01*
X296172Y-1494D01*
X296247Y-1507D01*
X296323Y-1517D01*
X296399Y-1522D01*
X296475Y-1524D01*
X298028Y-1524D01*
X290651Y4064D02*
X290578Y4062D01*
X290505Y4056D01*
X290432Y4047D01*
X290361Y4033D01*
X290289Y4016D01*
X290219Y3996D01*
X290150Y3971D01*
X290083Y3943D01*
X290017Y3912D01*
X289953Y3877D01*
X289890Y3839D01*
X289830Y3797D01*
X289772Y3753D01*
X289716Y3705D01*
X289663Y3655D01*
X289613Y3602D01*
X289565Y3546D01*
X289521Y3488D01*
X289479Y3428D01*
X289441Y3366D01*
X289406Y3301D01*
X289375Y3235D01*
X289347Y3168D01*
X289322Y3099D01*
X289302Y3029D01*
X289285Y2957D01*
X289271Y2886D01*
X289262Y2813D01*
X289256Y2740D01*
X289254Y2667D01*
X290651Y4064D02*
X290735Y4062D01*
X290818Y4056D01*
X290901Y4047D01*
X290983Y4033D01*
X291065Y4016D01*
X291146Y3994D01*
X291226Y3969D01*
X291304Y3941D01*
X291382Y3909D01*
X291457Y3873D01*
X291531Y3834D01*
X291603Y3791D01*
X291673Y3745D01*
X291740Y3696D01*
X291806Y3643D01*
X291868Y3588D01*
X291928Y3530D01*
X291986Y3469D01*
X292040Y3406D01*
X292092Y3340D01*
X292140Y3272D01*
X292185Y3201D01*
X292227Y3129D01*
X292265Y3054D01*
X292300Y2978D01*
X292331Y2901D01*
X292359Y2822D01*
X289720Y1581D02*
X289666Y1634D01*
X289615Y1691D01*
X289567Y1750D01*
X289522Y1811D01*
X289481Y1874D01*
X289442Y1940D01*
X289407Y2007D01*
X289375Y2076D01*
X289347Y2147D01*
X289323Y2218D01*
X289302Y2291D01*
X289285Y2365D01*
X289271Y2440D01*
X289262Y2515D01*
X289256Y2591D01*
X289254Y2667D01*
X289720Y1580D02*
X292358Y-1524D01*
X289254Y-1524D01*
D11*
X482800Y53370D02*
X507800Y53370D01*
X507800Y25370D02*
X482800Y25370D01*
D12*
X536300Y46370D02*
X536256Y46372D01*
X536213Y46378D01*
X536171Y46387D01*
X536129Y46400D01*
X536089Y46417D01*
X536050Y46437D01*
X536013Y46460D01*
X535979Y46487D01*
X535946Y46516D01*
X535917Y46549D01*
X535890Y46583D01*
X535867Y46620D01*
X535847Y46659D01*
X535830Y46699D01*
X535817Y46741D01*
X535808Y46783D01*
X535802Y46826D01*
X535800Y46870D01*
X535802Y46914D01*
X535808Y46957D01*
X535817Y46999D01*
X535830Y47041D01*
X535847Y47081D01*
X535867Y47120D01*
X535890Y47157D01*
X535917Y47191D01*
X535946Y47224D01*
X535979Y47253D01*
X536013Y47280D01*
X536050Y47303D01*
X536089Y47323D01*
X536129Y47340D01*
X536171Y47353D01*
X536213Y47362D01*
X536256Y47368D01*
X536300Y47370D01*
X536344Y47368D01*
X536387Y47362D01*
X536429Y47353D01*
X536471Y47340D01*
X536511Y47323D01*
X536550Y47303D01*
X536587Y47280D01*
X536621Y47253D01*
X536654Y47224D01*
X536683Y47191D01*
X536710Y47157D01*
X536733Y47120D01*
X536753Y47081D01*
X536770Y47041D01*
X536783Y46999D01*
X536792Y46957D01*
X536798Y46914D01*
X536800Y46870D01*
X536798Y46826D01*
X536792Y46783D01*
X536783Y46741D01*
X536770Y46699D01*
X536753Y46659D01*
X536733Y46620D01*
X536710Y46583D01*
X536683Y46549D01*
X536654Y46516D01*
X536621Y46487D01*
X536587Y46460D01*
X536550Y46437D01*
X536511Y46417D01*
X536471Y46400D01*
X536429Y46387D01*
X536387Y46378D01*
X536344Y46372D01*
X536300Y46370D01*
X536256Y46372D01*
X536213Y46378D01*
X536171Y46387D01*
X536129Y46400D01*
X536089Y46417D01*
X536050Y46437D01*
X536013Y46460D01*
X535979Y46487D01*
X535946Y46516D01*
X535917Y46549D01*
X535890Y46583D01*
X535867Y46620D01*
X535847Y46659D01*
X535830Y46699D01*
X535817Y46741D01*
X535808Y46783D01*
X535802Y46826D01*
X535800Y46870D01*
X535802Y46914D01*
X535808Y46957D01*
X535817Y46999D01*
X535830Y47041D01*
X535847Y47081D01*
X535867Y47120D01*
X535890Y47157D01*
X535917Y47191D01*
X535946Y47224D01*
X535979Y47253D01*
X536013Y47280D01*
X536050Y47303D01*
X536089Y47323D01*
X536129Y47340D01*
X536171Y47353D01*
X536213Y47362D01*
X536256Y47368D01*
X536300Y47370D01*
D13*
X504376Y5334D02*
X504376Y-254D01*
X501893Y-254D01*
X499621Y-254D02*
X497138Y-254D01*
X499621Y-254D02*
X499621Y5334D01*
X497138Y5334D01*
X497759Y2850D02*
X499621Y2850D01*
X494878Y5334D02*
X494878Y-254D01*
X494878Y5334D02*
X493325Y5334D01*
X493249Y5332D01*
X493173Y5327D01*
X493097Y5317D01*
X493022Y5304D01*
X492948Y5287D01*
X492874Y5267D01*
X492802Y5243D01*
X492731Y5216D01*
X492661Y5185D01*
X492593Y5151D01*
X492527Y5113D01*
X492463Y5072D01*
X492400Y5029D01*
X492340Y4982D01*
X492283Y4932D01*
X492228Y4879D01*
X492175Y4824D01*
X492125Y4767D01*
X492078Y4707D01*
X492035Y4644D01*
X491994Y4580D01*
X491956Y4514D01*
X491922Y4446D01*
X491891Y4376D01*
X491864Y4305D01*
X491840Y4233D01*
X491820Y4159D01*
X491803Y4085D01*
X491790Y4010D01*
X491780Y3934D01*
X491775Y3858D01*
X491773Y3782D01*
X491773Y1298D01*
X491775Y1222D01*
X491780Y1146D01*
X491790Y1070D01*
X491803Y995D01*
X491820Y921D01*
X491840Y847D01*
X491864Y775D01*
X491891Y704D01*
X491922Y634D01*
X491956Y566D01*
X491994Y500D01*
X492035Y436D01*
X492078Y373D01*
X492125Y313D01*
X492175Y256D01*
X492228Y201D01*
X492283Y148D01*
X492340Y98D01*
X492400Y51D01*
X492463Y8D01*
X492527Y-33D01*
X492593Y-71D01*
X492661Y-105D01*
X492731Y-136D01*
X492802Y-163D01*
X492874Y-187D01*
X492948Y-207D01*
X493022Y-224D01*
X493097Y-237D01*
X493173Y-247D01*
X493249Y-252D01*
X493325Y-254D01*
X494878Y-254D01*
X489208Y-254D02*
X487656Y-254D01*
X487579Y-252D01*
X487501Y-246D01*
X487425Y-237D01*
X487348Y-223D01*
X487273Y-206D01*
X487199Y-185D01*
X487125Y-160D01*
X487053Y-132D01*
X486983Y-100D01*
X486914Y-65D01*
X486847Y-26D01*
X486782Y16D01*
X486719Y61D01*
X486658Y109D01*
X486600Y160D01*
X486545Y214D01*
X486492Y271D01*
X486443Y330D01*
X486396Y392D01*
X486352Y456D01*
X486312Y522D01*
X486275Y590D01*
X486241Y660D01*
X486211Y731D01*
X486185Y804D01*
X486162Y878D01*
X486143Y953D01*
X486128Y1028D01*
X486116Y1105D01*
X486108Y1182D01*
X486104Y1259D01*
X486104Y1337D01*
X486108Y1414D01*
X486116Y1491D01*
X486128Y1568D01*
X486143Y1643D01*
X486162Y1718D01*
X486185Y1792D01*
X486211Y1865D01*
X486241Y1936D01*
X486275Y2006D01*
X486312Y2074D01*
X486352Y2140D01*
X486396Y2204D01*
X486443Y2266D01*
X486492Y2325D01*
X486545Y2382D01*
X486600Y2436D01*
X486658Y2487D01*
X486719Y2535D01*
X486782Y2580D01*
X486847Y2622D01*
X486914Y2661D01*
X486983Y2696D01*
X487053Y2728D01*
X487125Y2756D01*
X487199Y2781D01*
X487273Y2802D01*
X487348Y2819D01*
X487425Y2833D01*
X487501Y2842D01*
X487579Y2848D01*
X487656Y2850D01*
X487346Y5334D02*
X489208Y5334D01*
X487346Y5334D02*
X487276Y5332D01*
X487207Y5326D01*
X487138Y5316D01*
X487070Y5303D01*
X487002Y5285D01*
X486936Y5264D01*
X486871Y5239D01*
X486807Y5211D01*
X486745Y5179D01*
X486685Y5144D01*
X486627Y5105D01*
X486572Y5063D01*
X486518Y5018D01*
X486468Y4970D01*
X486420Y4920D01*
X486375Y4866D01*
X486333Y4811D01*
X486294Y4753D01*
X486259Y4693D01*
X486227Y4631D01*
X486199Y4567D01*
X486174Y4502D01*
X486153Y4436D01*
X486135Y4368D01*
X486122Y4300D01*
X486112Y4231D01*
X486106Y4162D01*
X486104Y4092D01*
X486106Y4022D01*
X486112Y3953D01*
X486122Y3884D01*
X486135Y3816D01*
X486153Y3748D01*
X486174Y3682D01*
X486199Y3617D01*
X486227Y3553D01*
X486259Y3491D01*
X486294Y3431D01*
X486333Y3373D01*
X486375Y3318D01*
X486420Y3264D01*
X486468Y3214D01*
X486518Y3166D01*
X486572Y3121D01*
X486627Y3079D01*
X486685Y3040D01*
X486745Y3005D01*
X486807Y2973D01*
X486871Y2945D01*
X486936Y2920D01*
X487002Y2899D01*
X487070Y2881D01*
X487138Y2868D01*
X487207Y2858D01*
X487276Y2852D01*
X487346Y2850D01*
X488587Y2850D01*
D11*
X679650Y52100D02*
X704650Y52100D01*
X704650Y24100D02*
X679650Y24100D01*
D12*
X733150Y45100D02*
X733106Y45102D01*
X733063Y45108D01*
X733021Y45117D01*
X732979Y45130D01*
X732939Y45147D01*
X732900Y45167D01*
X732863Y45190D01*
X732829Y45217D01*
X732796Y45246D01*
X732767Y45279D01*
X732740Y45313D01*
X732717Y45350D01*
X732697Y45389D01*
X732680Y45429D01*
X732667Y45471D01*
X732658Y45513D01*
X732652Y45556D01*
X732650Y45600D01*
X732652Y45644D01*
X732658Y45687D01*
X732667Y45729D01*
X732680Y45771D01*
X732697Y45811D01*
X732717Y45850D01*
X732740Y45887D01*
X732767Y45921D01*
X732796Y45954D01*
X732829Y45983D01*
X732863Y46010D01*
X732900Y46033D01*
X732939Y46053D01*
X732979Y46070D01*
X733021Y46083D01*
X733063Y46092D01*
X733106Y46098D01*
X733150Y46100D01*
X733194Y46098D01*
X733237Y46092D01*
X733279Y46083D01*
X733321Y46070D01*
X733361Y46053D01*
X733400Y46033D01*
X733437Y46010D01*
X733471Y45983D01*
X733504Y45954D01*
X733533Y45921D01*
X733560Y45887D01*
X733583Y45850D01*
X733603Y45811D01*
X733620Y45771D01*
X733633Y45729D01*
X733642Y45687D01*
X733648Y45644D01*
X733650Y45600D01*
X733648Y45556D01*
X733642Y45513D01*
X733633Y45471D01*
X733620Y45429D01*
X733603Y45389D01*
X733583Y45350D01*
X733560Y45313D01*
X733533Y45279D01*
X733504Y45246D01*
X733471Y45217D01*
X733437Y45190D01*
X733400Y45167D01*
X733361Y45147D01*
X733321Y45130D01*
X733279Y45117D01*
X733237Y45108D01*
X733194Y45102D01*
X733150Y45100D01*
X733106Y45102D01*
X733063Y45108D01*
X733021Y45117D01*
X732979Y45130D01*
X732939Y45147D01*
X732900Y45167D01*
X732863Y45190D01*
X732829Y45217D01*
X732796Y45246D01*
X732767Y45279D01*
X732740Y45313D01*
X732717Y45350D01*
X732697Y45389D01*
X732680Y45429D01*
X732667Y45471D01*
X732658Y45513D01*
X732652Y45556D01*
X732650Y45600D01*
X732652Y45644D01*
X732658Y45687D01*
X732667Y45729D01*
X732680Y45771D01*
X732697Y45811D01*
X732717Y45850D01*
X732740Y45887D01*
X732767Y45921D01*
X732796Y45954D01*
X732829Y45983D01*
X732863Y46010D01*
X732900Y46033D01*
X732939Y46053D01*
X732979Y46070D01*
X733021Y46083D01*
X733063Y46092D01*
X733106Y46098D01*
X733150Y46100D01*
D13*
X702496Y4064D02*
X702496Y-1524D01*
X700013Y-1524D01*
X697741Y-1524D02*
X695258Y-1524D01*
X697741Y-1524D02*
X697741Y4064D01*
X695258Y4064D01*
X695879Y1580D02*
X697741Y1580D01*
X692998Y4064D02*
X692998Y-1524D01*
X692998Y4064D02*
X691445Y4064D01*
X691369Y4062D01*
X691293Y4057D01*
X691217Y4047D01*
X691142Y4034D01*
X691068Y4017D01*
X690994Y3997D01*
X690922Y3973D01*
X690851Y3946D01*
X690781Y3915D01*
X690713Y3881D01*
X690647Y3843D01*
X690583Y3802D01*
X690520Y3759D01*
X690460Y3712D01*
X690403Y3662D01*
X690348Y3609D01*
X690295Y3554D01*
X690245Y3497D01*
X690198Y3437D01*
X690155Y3374D01*
X690114Y3310D01*
X690076Y3244D01*
X690042Y3176D01*
X690011Y3106D01*
X689984Y3035D01*
X689960Y2963D01*
X689940Y2889D01*
X689923Y2815D01*
X689910Y2740D01*
X689900Y2664D01*
X689895Y2588D01*
X689893Y2512D01*
X689893Y28D01*
X689895Y-48D01*
X689900Y-124D01*
X689910Y-200D01*
X689923Y-275D01*
X689940Y-349D01*
X689960Y-423D01*
X689984Y-495D01*
X690011Y-566D01*
X690042Y-636D01*
X690076Y-704D01*
X690114Y-770D01*
X690155Y-834D01*
X690198Y-897D01*
X690245Y-957D01*
X690295Y-1014D01*
X690348Y-1069D01*
X690403Y-1122D01*
X690460Y-1172D01*
X690520Y-1219D01*
X690583Y-1262D01*
X690647Y-1303D01*
X690713Y-1341D01*
X690781Y-1375D01*
X690851Y-1406D01*
X690922Y-1433D01*
X690995Y-1457D01*
X691068Y-1477D01*
X691142Y-1494D01*
X691217Y-1507D01*
X691293Y-1517D01*
X691369Y-1522D01*
X691445Y-1524D01*
X692998Y-1524D01*
X687328Y-282D02*
X686087Y4064D01*
X687328Y-282D02*
X684224Y-282D01*
X685155Y960D02*
X685155Y-1524D01*
D11*
X881580Y53370D02*
X906580Y53370D01*
X906580Y25370D02*
X881580Y25370D01*
D12*
X935080Y46370D02*
X935036Y46372D01*
X934993Y46378D01*
X934951Y46387D01*
X934909Y46400D01*
X934869Y46417D01*
X934830Y46437D01*
X934793Y46460D01*
X934759Y46487D01*
X934726Y46516D01*
X934697Y46549D01*
X934670Y46583D01*
X934647Y46620D01*
X934627Y46659D01*
X934610Y46699D01*
X934597Y46741D01*
X934588Y46783D01*
X934582Y46826D01*
X934580Y46870D01*
X934582Y46914D01*
X934588Y46957D01*
X934597Y46999D01*
X934610Y47041D01*
X934627Y47081D01*
X934647Y47120D01*
X934670Y47157D01*
X934697Y47191D01*
X934726Y47224D01*
X934759Y47253D01*
X934793Y47280D01*
X934830Y47303D01*
X934869Y47323D01*
X934909Y47340D01*
X934951Y47353D01*
X934993Y47362D01*
X935036Y47368D01*
X935080Y47370D01*
X935124Y47368D01*
X935167Y47362D01*
X935209Y47353D01*
X935251Y47340D01*
X935291Y47323D01*
X935330Y47303D01*
X935367Y47280D01*
X935401Y47253D01*
X935434Y47224D01*
X935463Y47191D01*
X935490Y47157D01*
X935513Y47120D01*
X935533Y47081D01*
X935550Y47041D01*
X935563Y46999D01*
X935572Y46957D01*
X935578Y46914D01*
X935580Y46870D01*
X935578Y46826D01*
X935572Y46783D01*
X935563Y46741D01*
X935550Y46699D01*
X935533Y46659D01*
X935513Y46620D01*
X935490Y46583D01*
X935463Y46549D01*
X935434Y46516D01*
X935401Y46487D01*
X935367Y46460D01*
X935330Y46437D01*
X935291Y46417D01*
X935251Y46400D01*
X935209Y46387D01*
X935167Y46378D01*
X935124Y46372D01*
X935080Y46370D01*
X935036Y46372D01*
X934993Y46378D01*
X934951Y46387D01*
X934909Y46400D01*
X934869Y46417D01*
X934830Y46437D01*
X934793Y46460D01*
X934759Y46487D01*
X934726Y46516D01*
X934697Y46549D01*
X934670Y46583D01*
X934647Y46620D01*
X934627Y46659D01*
X934610Y46699D01*
X934597Y46741D01*
X934588Y46783D01*
X934582Y46826D01*
X934580Y46870D01*
X934582Y46914D01*
X934588Y46957D01*
X934597Y46999D01*
X934610Y47041D01*
X934627Y47081D01*
X934647Y47120D01*
X934670Y47157D01*
X934697Y47191D01*
X934726Y47224D01*
X934759Y47253D01*
X934793Y47280D01*
X934830Y47303D01*
X934869Y47323D01*
X934909Y47340D01*
X934951Y47353D01*
X934993Y47362D01*
X935036Y47368D01*
X935080Y47370D01*
D13*
X901886Y4064D02*
X901886Y-1524D01*
X899403Y-1524D01*
X897131Y-1524D02*
X894648Y-1524D01*
X897131Y-1524D02*
X897131Y4064D01*
X894648Y4064D01*
X895269Y1580D02*
X897131Y1580D01*
X892388Y4064D02*
X892388Y-1524D01*
X892388Y4064D02*
X890835Y4064D01*
X890759Y4062D01*
X890683Y4057D01*
X890607Y4047D01*
X890532Y4034D01*
X890458Y4017D01*
X890384Y3997D01*
X890312Y3973D01*
X890241Y3946D01*
X890171Y3915D01*
X890103Y3881D01*
X890037Y3843D01*
X889973Y3802D01*
X889910Y3759D01*
X889850Y3712D01*
X889793Y3662D01*
X889738Y3609D01*
X889685Y3554D01*
X889635Y3497D01*
X889588Y3437D01*
X889545Y3374D01*
X889504Y3310D01*
X889466Y3244D01*
X889432Y3176D01*
X889401Y3106D01*
X889374Y3035D01*
X889350Y2963D01*
X889330Y2889D01*
X889313Y2815D01*
X889300Y2740D01*
X889290Y2664D01*
X889285Y2588D01*
X889283Y2512D01*
X889283Y28D01*
X889285Y-48D01*
X889290Y-124D01*
X889300Y-200D01*
X889313Y-275D01*
X889330Y-349D01*
X889350Y-423D01*
X889374Y-495D01*
X889401Y-566D01*
X889432Y-636D01*
X889466Y-704D01*
X889504Y-770D01*
X889545Y-834D01*
X889588Y-897D01*
X889635Y-957D01*
X889685Y-1014D01*
X889738Y-1069D01*
X889793Y-1122D01*
X889850Y-1172D01*
X889910Y-1219D01*
X889973Y-1262D01*
X890037Y-1303D01*
X890103Y-1341D01*
X890171Y-1375D01*
X890241Y-1406D01*
X890312Y-1433D01*
X890385Y-1457D01*
X890458Y-1477D01*
X890532Y-1494D01*
X890607Y-1507D01*
X890683Y-1517D01*
X890759Y-1522D01*
X890835Y-1524D01*
X892388Y-1524D01*
X886718Y-1524D02*
X884856Y-1524D01*
X884786Y-1522D01*
X884717Y-1516D01*
X884648Y-1506D01*
X884580Y-1493D01*
X884512Y-1475D01*
X884446Y-1454D01*
X884381Y-1429D01*
X884317Y-1401D01*
X884255Y-1369D01*
X884195Y-1334D01*
X884137Y-1295D01*
X884082Y-1253D01*
X884028Y-1208D01*
X883978Y-1160D01*
X883930Y-1110D01*
X883885Y-1056D01*
X883843Y-1001D01*
X883804Y-943D01*
X883769Y-883D01*
X883737Y-821D01*
X883709Y-757D01*
X883684Y-692D01*
X883663Y-626D01*
X883645Y-558D01*
X883632Y-490D01*
X883622Y-421D01*
X883616Y-352D01*
X883614Y-282D01*
X883614Y339D01*
X883616Y409D01*
X883622Y478D01*
X883632Y547D01*
X883645Y615D01*
X883663Y683D01*
X883684Y749D01*
X883709Y814D01*
X883737Y878D01*
X883769Y940D01*
X883804Y1000D01*
X883843Y1058D01*
X883885Y1113D01*
X883930Y1167D01*
X883978Y1217D01*
X884028Y1265D01*
X884082Y1310D01*
X884137Y1352D01*
X884195Y1391D01*
X884255Y1426D01*
X884317Y1458D01*
X884381Y1486D01*
X884446Y1511D01*
X884512Y1532D01*
X884580Y1550D01*
X884648Y1563D01*
X884717Y1573D01*
X884786Y1579D01*
X884856Y1581D01*
X884856Y1580D02*
X886718Y1580D01*
X886718Y4064D01*
X883614Y4064D01*
M02*
