G04 EAGLE Gerber RS-274X export*
G75*
%MOMM*%
%FSLAX34Y34*%
%LPD*%
%INSoldermask Top*%
%IPPOS*%
%AMOC8*
5,1,8,0,0,1.08239X$1,22.5*%
G01*
%ADD10C,2.003200*%
%ADD11C,4.663200*%
%ADD12C,1.511200*%
%ADD13C,1.903200*%
%ADD14C,4.303200*%
%ADD15C,4.203200*%
%ADD16C,3.203200*%
%ADD17C,1.711200*%
%ADD18C,6.203200*%


D10*
X51650Y724810D03*
X76650Y724810D03*
X101650Y724810D03*
D11*
X32650Y794810D03*
X120650Y794810D03*
D10*
X261200Y724570D03*
X286200Y724570D03*
X311200Y724570D03*
D11*
X242200Y794570D03*
X330200Y794570D03*
D10*
X470750Y725600D03*
X495750Y725600D03*
X520750Y725600D03*
D11*
X451750Y795600D03*
X539750Y795600D03*
D10*
X680300Y725360D03*
X705300Y725360D03*
X730300Y725360D03*
D11*
X661300Y795360D03*
X749300Y795360D03*
D10*
X889850Y725120D03*
X914850Y725120D03*
X939850Y725120D03*
D11*
X870850Y795120D03*
X958850Y795120D03*
D12*
X280035Y518350D02*
X280035Y505270D01*
X305435Y505270D02*
X305435Y518350D01*
X330835Y518350D02*
X330835Y505270D01*
X356235Y505270D02*
X356235Y518350D01*
X381635Y518350D02*
X381635Y505270D01*
X407035Y505270D02*
X407035Y518350D01*
X432435Y518350D02*
X432435Y505270D01*
X457835Y505270D02*
X457835Y518350D01*
X483235Y518350D02*
X483235Y505270D01*
X508635Y505270D02*
X508635Y518350D01*
X534035Y518350D02*
X534035Y505270D01*
X559435Y505270D02*
X559435Y518350D01*
X584835Y518350D02*
X584835Y505270D01*
X610235Y505270D02*
X610235Y518350D01*
X635635Y518350D02*
X635635Y505270D01*
X661035Y505270D02*
X661035Y518350D01*
X686435Y518350D02*
X686435Y505270D01*
X711835Y505270D02*
X711835Y518350D01*
X737235Y518350D02*
X737235Y505270D01*
X762635Y505270D02*
X762635Y518350D01*
X280035Y657670D02*
X280035Y670750D01*
X305435Y670750D02*
X305435Y657670D01*
X330835Y657670D02*
X330835Y670750D01*
X356235Y670750D02*
X356235Y657670D01*
X381635Y657670D02*
X381635Y670750D01*
X407035Y670750D02*
X407035Y657670D01*
X432435Y657670D02*
X432435Y670750D01*
X457835Y670750D02*
X457835Y657670D01*
X483235Y657670D02*
X483235Y670750D01*
X508635Y670750D02*
X508635Y657670D01*
X534035Y657670D02*
X534035Y670750D01*
X559435Y670750D02*
X559435Y657670D01*
X584835Y657670D02*
X584835Y670750D01*
X610235Y670750D02*
X610235Y657670D01*
X635635Y657670D02*
X635635Y670750D01*
X661035Y670750D02*
X661035Y657670D01*
X686435Y657670D02*
X686435Y670750D01*
X711835Y670750D02*
X711835Y657670D01*
X737235Y657670D02*
X737235Y670750D01*
X762635Y670750D02*
X762635Y657670D01*
X731075Y575310D02*
X717995Y575310D01*
X717995Y549910D02*
X731075Y549910D01*
X731075Y600710D02*
X717995Y600710D01*
X717995Y626110D02*
X731075Y626110D01*
D10*
X52470Y344050D03*
X77470Y344050D03*
X102470Y344050D03*
D11*
X33470Y414050D03*
X121470Y414050D03*
D10*
X260750Y344050D03*
X285750Y344050D03*
X310750Y344050D03*
D11*
X241750Y414050D03*
X329750Y414050D03*
D10*
X470300Y345320D03*
X495300Y345320D03*
X520300Y345320D03*
D11*
X451300Y415320D03*
X539300Y415320D03*
D10*
X679850Y344050D03*
X704850Y344050D03*
X729850Y344050D03*
D11*
X660850Y414050D03*
X748850Y414050D03*
D10*
X898290Y344050D03*
X923290Y344050D03*
X948290Y344050D03*
D11*
X879290Y414050D03*
X967290Y414050D03*
D13*
X49530Y88900D03*
X151130Y88900D03*
D14*
X100330Y88900D03*
D15*
X100330Y88900D03*
D13*
X49530Y88900D03*
X151130Y88900D03*
D16*
X125730Y139700D03*
X62230Y114300D03*
D13*
X246380Y88900D03*
X347980Y88900D03*
D14*
X297180Y88900D03*
D15*
X297180Y88900D03*
D13*
X246380Y88900D03*
X347980Y88900D03*
D16*
X322580Y139700D03*
X259080Y114300D03*
D13*
X444500Y88900D03*
X546100Y88900D03*
D14*
X495300Y88900D03*
D15*
X495300Y88900D03*
D13*
X444500Y88900D03*
X546100Y88900D03*
D16*
X520700Y139700D03*
X457200Y114300D03*
D13*
X641350Y87630D03*
X742950Y87630D03*
D14*
X692150Y87630D03*
D15*
X692150Y87630D03*
D13*
X641350Y87630D03*
X742950Y87630D03*
D16*
X717550Y138430D03*
X654050Y113030D03*
D13*
X842010Y88900D03*
X943610Y88900D03*
D14*
X892810Y88900D03*
D15*
X892810Y88900D03*
D13*
X842010Y88900D03*
X943610Y88900D03*
D16*
X918210Y139700D03*
X854710Y114300D03*
D17*
X53260Y544830D02*
X38180Y544830D01*
X38180Y570230D02*
X53260Y570230D01*
X53260Y595630D02*
X38180Y595630D01*
X38180Y621030D02*
X53260Y621030D01*
D18*
X40640Y-22860D03*
X958850Y-22860D03*
X40640Y895350D03*
X958850Y895350D03*
M02*
