G04 EAGLE Gerber RS-274X export*
G75*
%MOMM*%
%FSLAX34Y34*%
%LPD*%
%INSoldermask Top*%
%IPPOS*%
%AMOC8*
5,1,8,0,0,1.08239X$1,22.5*%
G01*
%ADD10C,0.431800*%
%ADD11C,2.003200*%
%ADD12C,4.663200*%
%ADD13C,1.511200*%
%ADD14C,1.903200*%
%ADD15C,4.303200*%
%ADD16C,4.203200*%
%ADD17C,3.203200*%
%ADD18C,1.711200*%
%ADD19C,6.203200*%


D10*
X787644Y938403D02*
X787644Y955929D01*
X792512Y955929D01*
X792649Y955927D01*
X792785Y955921D01*
X792921Y955912D01*
X793057Y955898D01*
X793192Y955881D01*
X793327Y955860D01*
X793462Y955835D01*
X793595Y955807D01*
X793728Y955775D01*
X793860Y955739D01*
X793990Y955699D01*
X794120Y955656D01*
X794248Y955609D01*
X794375Y955558D01*
X794500Y955504D01*
X794624Y955447D01*
X794746Y955386D01*
X794867Y955322D01*
X794985Y955254D01*
X795102Y955183D01*
X795217Y955109D01*
X795329Y955031D01*
X795439Y954951D01*
X795547Y954867D01*
X795653Y954780D01*
X795756Y954691D01*
X795856Y954598D01*
X795954Y954503D01*
X796049Y954405D01*
X796142Y954305D01*
X796231Y954202D01*
X796318Y954096D01*
X796402Y953988D01*
X796482Y953878D01*
X796560Y953766D01*
X796634Y953651D01*
X796705Y953534D01*
X796773Y953416D01*
X796837Y953295D01*
X796898Y953173D01*
X796955Y953049D01*
X797009Y952924D01*
X797060Y952797D01*
X797107Y952669D01*
X797150Y952539D01*
X797190Y952409D01*
X797226Y952277D01*
X797258Y952144D01*
X797286Y952011D01*
X797311Y951876D01*
X797332Y951741D01*
X797349Y951606D01*
X797363Y951470D01*
X797372Y951334D01*
X797378Y951198D01*
X797380Y951061D01*
X797381Y951061D02*
X797381Y943271D01*
X797380Y943271D02*
X797378Y943134D01*
X797372Y942998D01*
X797363Y942862D01*
X797349Y942726D01*
X797332Y942591D01*
X797311Y942456D01*
X797286Y942321D01*
X797258Y942188D01*
X797226Y942055D01*
X797190Y941923D01*
X797150Y941793D01*
X797107Y941663D01*
X797060Y941535D01*
X797009Y941408D01*
X796955Y941283D01*
X796898Y941159D01*
X796837Y941037D01*
X796773Y940916D01*
X796705Y940798D01*
X796634Y940681D01*
X796560Y940566D01*
X796482Y940454D01*
X796402Y940344D01*
X796318Y940236D01*
X796231Y940130D01*
X796142Y940027D01*
X796049Y939927D01*
X795954Y939829D01*
X795856Y939734D01*
X795756Y939641D01*
X795653Y939552D01*
X795547Y939465D01*
X795439Y939381D01*
X795329Y939301D01*
X795217Y939223D01*
X795102Y939149D01*
X794985Y939078D01*
X794867Y939010D01*
X794746Y938946D01*
X794624Y938885D01*
X794500Y938828D01*
X794375Y938774D01*
X794248Y938723D01*
X794120Y938676D01*
X793990Y938633D01*
X793860Y938593D01*
X793728Y938557D01*
X793595Y938525D01*
X793462Y938497D01*
X793327Y938472D01*
X793192Y938451D01*
X793057Y938434D01*
X792921Y938420D01*
X792785Y938411D01*
X792649Y938405D01*
X792512Y938403D01*
X787644Y938403D01*
X809459Y938403D02*
X814327Y938403D01*
X809459Y938403D02*
X809352Y938405D01*
X809246Y938411D01*
X809140Y938421D01*
X809034Y938434D01*
X808928Y938452D01*
X808824Y938473D01*
X808720Y938498D01*
X808617Y938527D01*
X808516Y938559D01*
X808416Y938596D01*
X808317Y938636D01*
X808219Y938679D01*
X808123Y938726D01*
X808029Y938777D01*
X807937Y938831D01*
X807847Y938888D01*
X807759Y938948D01*
X807674Y939012D01*
X807591Y939079D01*
X807510Y939149D01*
X807432Y939221D01*
X807356Y939297D01*
X807284Y939375D01*
X807214Y939456D01*
X807147Y939539D01*
X807083Y939624D01*
X807023Y939712D01*
X806966Y939802D01*
X806912Y939894D01*
X806861Y939988D01*
X806814Y940084D01*
X806771Y940182D01*
X806731Y940281D01*
X806694Y940381D01*
X806662Y940482D01*
X806633Y940585D01*
X806608Y940689D01*
X806587Y940793D01*
X806569Y940899D01*
X806556Y941005D01*
X806546Y941111D01*
X806540Y941217D01*
X806538Y941324D01*
X806538Y946192D01*
X806540Y946316D01*
X806546Y946439D01*
X806556Y946562D01*
X806569Y946685D01*
X806587Y946807D01*
X806608Y946929D01*
X806634Y947050D01*
X806663Y947170D01*
X806696Y947289D01*
X806732Y947407D01*
X806773Y947524D01*
X806817Y947640D01*
X806865Y947754D01*
X806916Y947866D01*
X806971Y947977D01*
X807029Y948086D01*
X807091Y948193D01*
X807156Y948298D01*
X807225Y948401D01*
X807296Y948501D01*
X807371Y948600D01*
X807449Y948696D01*
X807530Y948789D01*
X807614Y948880D01*
X807701Y948968D01*
X807790Y949053D01*
X807882Y949136D01*
X807977Y949215D01*
X808074Y949291D01*
X808174Y949365D01*
X808275Y949435D01*
X808379Y949502D01*
X808486Y949565D01*
X808594Y949625D01*
X808703Y949682D01*
X808815Y949735D01*
X808928Y949785D01*
X809043Y949831D01*
X809159Y949873D01*
X809276Y949911D01*
X809395Y949946D01*
X809515Y949977D01*
X809635Y950004D01*
X809757Y950028D01*
X809879Y950047D01*
X810001Y950063D01*
X810124Y950075D01*
X810248Y950083D01*
X810371Y950087D01*
X810495Y950087D01*
X810618Y950083D01*
X810742Y950075D01*
X810865Y950063D01*
X810987Y950047D01*
X811109Y950028D01*
X811231Y950004D01*
X811351Y949977D01*
X811471Y949946D01*
X811590Y949911D01*
X811707Y949873D01*
X811823Y949831D01*
X811938Y949785D01*
X812051Y949735D01*
X812163Y949682D01*
X812272Y949625D01*
X812381Y949565D01*
X812487Y949502D01*
X812591Y949435D01*
X812692Y949365D01*
X812792Y949291D01*
X812889Y949215D01*
X812984Y949136D01*
X813076Y949053D01*
X813165Y948968D01*
X813252Y948880D01*
X813336Y948789D01*
X813417Y948696D01*
X813495Y948600D01*
X813570Y948501D01*
X813641Y948401D01*
X813710Y948298D01*
X813775Y948193D01*
X813837Y948086D01*
X813895Y947977D01*
X813950Y947866D01*
X814001Y947754D01*
X814049Y947640D01*
X814093Y947524D01*
X814134Y947407D01*
X814170Y947289D01*
X814203Y947170D01*
X814232Y947050D01*
X814258Y946929D01*
X814279Y946807D01*
X814297Y946685D01*
X814310Y946562D01*
X814320Y946439D01*
X814326Y946316D01*
X814328Y946192D01*
X814327Y946192D02*
X814327Y944245D01*
X806538Y944245D01*
X824065Y945219D02*
X828933Y943271D01*
X824065Y945219D02*
X823973Y945258D01*
X823882Y945300D01*
X823794Y945346D01*
X823707Y945396D01*
X823622Y945449D01*
X823539Y945506D01*
X823459Y945565D01*
X823381Y945628D01*
X823305Y945694D01*
X823233Y945763D01*
X823163Y945834D01*
X823096Y945908D01*
X823031Y945985D01*
X822971Y946065D01*
X822913Y946147D01*
X822858Y946230D01*
X822807Y946317D01*
X822759Y946405D01*
X822715Y946494D01*
X822675Y946586D01*
X822638Y946679D01*
X822605Y946773D01*
X822575Y946869D01*
X822550Y946966D01*
X822528Y947064D01*
X822510Y947162D01*
X822496Y947261D01*
X822486Y947361D01*
X822480Y947461D01*
X822478Y947561D01*
X822480Y947661D01*
X822486Y947761D01*
X822496Y947861D01*
X822509Y947960D01*
X822527Y948058D01*
X822549Y948156D01*
X822574Y948253D01*
X822603Y948349D01*
X822636Y948443D01*
X822673Y948536D01*
X822713Y948628D01*
X822757Y948718D01*
X822805Y948806D01*
X822856Y948892D01*
X822910Y948976D01*
X822968Y949058D01*
X823029Y949137D01*
X823093Y949214D01*
X823160Y949289D01*
X823230Y949360D01*
X823302Y949429D01*
X823378Y949495D01*
X823455Y949558D01*
X823536Y949618D01*
X823618Y949674D01*
X823703Y949728D01*
X823790Y949778D01*
X823879Y949824D01*
X823969Y949867D01*
X824061Y949906D01*
X824155Y949941D01*
X824250Y949973D01*
X824346Y950001D01*
X824443Y950025D01*
X824541Y950045D01*
X824640Y950062D01*
X824739Y950074D01*
X824839Y950083D01*
X824939Y950087D01*
X825039Y950088D01*
X825305Y950081D01*
X825570Y950067D01*
X825836Y950048D01*
X826100Y950022D01*
X826364Y949989D01*
X826627Y949950D01*
X826889Y949905D01*
X827150Y949854D01*
X827409Y949796D01*
X827668Y949732D01*
X827924Y949662D01*
X828179Y949586D01*
X828432Y949503D01*
X828682Y949415D01*
X828931Y949321D01*
X829177Y949220D01*
X829421Y949114D01*
X828934Y943271D02*
X829026Y943232D01*
X829117Y943190D01*
X829205Y943144D01*
X829292Y943094D01*
X829377Y943041D01*
X829460Y942984D01*
X829540Y942925D01*
X829618Y942862D01*
X829694Y942796D01*
X829766Y942727D01*
X829836Y942656D01*
X829903Y942582D01*
X829967Y942505D01*
X830028Y942425D01*
X830086Y942343D01*
X830141Y942260D01*
X830192Y942173D01*
X830240Y942085D01*
X830284Y941996D01*
X830324Y941904D01*
X830361Y941811D01*
X830394Y941717D01*
X830424Y941621D01*
X830449Y941524D01*
X830471Y941426D01*
X830489Y941328D01*
X830503Y941229D01*
X830513Y941129D01*
X830519Y941029D01*
X830521Y940929D01*
X830519Y940829D01*
X830513Y940729D01*
X830503Y940629D01*
X830490Y940530D01*
X830472Y940432D01*
X830450Y940334D01*
X830425Y940237D01*
X830396Y940141D01*
X830363Y940047D01*
X830326Y939954D01*
X830286Y939862D01*
X830242Y939772D01*
X830194Y939684D01*
X830143Y939598D01*
X830089Y939514D01*
X830031Y939432D01*
X829970Y939353D01*
X829906Y939276D01*
X829839Y939201D01*
X829769Y939130D01*
X829697Y939061D01*
X829621Y938995D01*
X829544Y938932D01*
X829463Y938872D01*
X829381Y938816D01*
X829296Y938762D01*
X829209Y938712D01*
X829120Y938666D01*
X829030Y938623D01*
X828938Y938584D01*
X828844Y938549D01*
X828749Y938517D01*
X828653Y938489D01*
X828556Y938465D01*
X828458Y938445D01*
X828359Y938428D01*
X828260Y938416D01*
X828160Y938407D01*
X828060Y938403D01*
X827960Y938402D01*
X827960Y938403D02*
X827570Y938413D01*
X827180Y938432D01*
X826790Y938461D01*
X826401Y938499D01*
X826014Y938546D01*
X825627Y938602D01*
X825242Y938667D01*
X824859Y938742D01*
X824477Y938825D01*
X824098Y938918D01*
X823721Y939019D01*
X823346Y939129D01*
X822974Y939248D01*
X822605Y939376D01*
X838240Y938403D02*
X838240Y950087D01*
X837753Y954955D02*
X837753Y955929D01*
X838727Y955929D01*
X838727Y954955D01*
X837753Y954955D01*
X848867Y938403D02*
X853735Y938403D01*
X848867Y938403D02*
X848760Y938405D01*
X848654Y938411D01*
X848548Y938421D01*
X848442Y938434D01*
X848336Y938452D01*
X848232Y938473D01*
X848128Y938498D01*
X848025Y938527D01*
X847924Y938559D01*
X847824Y938596D01*
X847725Y938636D01*
X847627Y938679D01*
X847531Y938726D01*
X847437Y938777D01*
X847345Y938831D01*
X847255Y938888D01*
X847167Y938948D01*
X847082Y939012D01*
X846999Y939079D01*
X846918Y939149D01*
X846840Y939221D01*
X846764Y939297D01*
X846692Y939375D01*
X846622Y939456D01*
X846555Y939539D01*
X846491Y939624D01*
X846431Y939712D01*
X846374Y939802D01*
X846320Y939894D01*
X846269Y939988D01*
X846222Y940084D01*
X846179Y940182D01*
X846139Y940281D01*
X846102Y940381D01*
X846070Y940482D01*
X846041Y940585D01*
X846016Y940689D01*
X845995Y940793D01*
X845977Y940899D01*
X845964Y941005D01*
X845954Y941111D01*
X845948Y941217D01*
X845946Y941324D01*
X845946Y947166D01*
X845948Y947273D01*
X845954Y947379D01*
X845964Y947485D01*
X845977Y947591D01*
X845995Y947697D01*
X846016Y947801D01*
X846041Y947905D01*
X846070Y948008D01*
X846102Y948109D01*
X846139Y948209D01*
X846179Y948308D01*
X846222Y948406D01*
X846269Y948502D01*
X846320Y948596D01*
X846374Y948688D01*
X846431Y948778D01*
X846491Y948866D01*
X846555Y948951D01*
X846622Y949034D01*
X846692Y949115D01*
X846764Y949193D01*
X846840Y949269D01*
X846918Y949341D01*
X846999Y949411D01*
X847082Y949478D01*
X847167Y949542D01*
X847255Y949602D01*
X847345Y949659D01*
X847437Y949713D01*
X847531Y949764D01*
X847627Y949811D01*
X847725Y949854D01*
X847824Y949894D01*
X847924Y949931D01*
X848025Y949963D01*
X848128Y949992D01*
X848232Y950017D01*
X848336Y950038D01*
X848442Y950056D01*
X848548Y950069D01*
X848654Y950079D01*
X848760Y950085D01*
X848867Y950087D01*
X853735Y950087D01*
X853735Y935482D01*
X853733Y935375D01*
X853727Y935269D01*
X853717Y935163D01*
X853704Y935057D01*
X853686Y934951D01*
X853665Y934847D01*
X853640Y934743D01*
X853611Y934640D01*
X853579Y934539D01*
X853542Y934439D01*
X853502Y934340D01*
X853459Y934242D01*
X853412Y934146D01*
X853361Y934052D01*
X853307Y933960D01*
X853250Y933870D01*
X853190Y933782D01*
X853126Y933697D01*
X853059Y933614D01*
X852989Y933533D01*
X852917Y933455D01*
X852841Y933379D01*
X852763Y933307D01*
X852682Y933237D01*
X852599Y933170D01*
X852514Y933106D01*
X852426Y933046D01*
X852336Y932989D01*
X852244Y932935D01*
X852150Y932884D01*
X852054Y932837D01*
X851956Y932794D01*
X851857Y932754D01*
X851757Y932717D01*
X851656Y932685D01*
X851553Y932656D01*
X851449Y932631D01*
X851345Y932610D01*
X851239Y932592D01*
X851133Y932579D01*
X851027Y932569D01*
X850921Y932563D01*
X850814Y932561D01*
X846920Y932561D01*
X863389Y938403D02*
X863389Y950087D01*
X868257Y950087D01*
X868364Y950085D01*
X868470Y950079D01*
X868576Y950069D01*
X868682Y950056D01*
X868788Y950038D01*
X868892Y950017D01*
X868996Y949992D01*
X869099Y949963D01*
X869200Y949931D01*
X869300Y949894D01*
X869399Y949854D01*
X869497Y949811D01*
X869593Y949764D01*
X869687Y949713D01*
X869779Y949659D01*
X869869Y949602D01*
X869957Y949542D01*
X870042Y949478D01*
X870125Y949411D01*
X870206Y949341D01*
X870284Y949269D01*
X870360Y949193D01*
X870432Y949115D01*
X870502Y949034D01*
X870569Y948951D01*
X870633Y948866D01*
X870693Y948778D01*
X870750Y948688D01*
X870804Y948596D01*
X870855Y948502D01*
X870902Y948406D01*
X870945Y948308D01*
X870985Y948209D01*
X871022Y948109D01*
X871054Y948008D01*
X871083Y947905D01*
X871108Y947801D01*
X871129Y947697D01*
X871147Y947591D01*
X871160Y947485D01*
X871170Y947379D01*
X871176Y947273D01*
X871178Y947166D01*
X871178Y938403D01*
X891246Y948140D02*
X896115Y948140D01*
X896115Y948139D02*
X896253Y948137D01*
X896390Y948131D01*
X896528Y948121D01*
X896665Y948108D01*
X896802Y948090D01*
X896938Y948069D01*
X897073Y948044D01*
X897208Y948015D01*
X897342Y947982D01*
X897474Y947945D01*
X897606Y947905D01*
X897737Y947861D01*
X897866Y947813D01*
X897994Y947762D01*
X898120Y947707D01*
X898245Y947648D01*
X898368Y947586D01*
X898489Y947521D01*
X898608Y947452D01*
X898726Y947380D01*
X898841Y947304D01*
X898954Y947225D01*
X899065Y947144D01*
X899173Y947058D01*
X899279Y946970D01*
X899383Y946879D01*
X899483Y946785D01*
X899581Y946689D01*
X899677Y946589D01*
X899769Y946487D01*
X899859Y946382D01*
X899945Y946275D01*
X900029Y946166D01*
X900109Y946054D01*
X900186Y945940D01*
X900260Y945823D01*
X900331Y945705D01*
X900398Y945585D01*
X900462Y945463D01*
X900522Y945339D01*
X900579Y945213D01*
X900632Y945086D01*
X900682Y944958D01*
X900727Y944828D01*
X900770Y944696D01*
X900808Y944564D01*
X900843Y944431D01*
X900874Y944297D01*
X900901Y944162D01*
X900924Y944026D01*
X900944Y943889D01*
X900959Y943752D01*
X900971Y943615D01*
X900979Y943478D01*
X900983Y943340D01*
X900983Y943202D01*
X900979Y943064D01*
X900971Y942927D01*
X900959Y942790D01*
X900944Y942653D01*
X900924Y942516D01*
X900901Y942380D01*
X900874Y942245D01*
X900843Y942111D01*
X900808Y941978D01*
X900770Y941846D01*
X900727Y941714D01*
X900682Y941584D01*
X900632Y941456D01*
X900579Y941329D01*
X900522Y941203D01*
X900462Y941079D01*
X900398Y940957D01*
X900331Y940837D01*
X900260Y940719D01*
X900186Y940602D01*
X900109Y940488D01*
X900029Y940376D01*
X899945Y940267D01*
X899859Y940160D01*
X899769Y940055D01*
X899677Y939953D01*
X899581Y939853D01*
X899483Y939757D01*
X899383Y939663D01*
X899279Y939572D01*
X899173Y939484D01*
X899065Y939398D01*
X898954Y939317D01*
X898841Y939238D01*
X898726Y939162D01*
X898608Y939090D01*
X898489Y939021D01*
X898368Y938956D01*
X898245Y938894D01*
X898120Y938835D01*
X897994Y938780D01*
X897866Y938729D01*
X897737Y938681D01*
X897606Y938637D01*
X897474Y938597D01*
X897342Y938560D01*
X897208Y938527D01*
X897073Y938498D01*
X896938Y938473D01*
X896802Y938452D01*
X896665Y938434D01*
X896528Y938421D01*
X896390Y938411D01*
X896253Y938405D01*
X896115Y938403D01*
X891246Y938403D01*
X891246Y955929D01*
X896115Y955929D01*
X896239Y955927D01*
X896362Y955921D01*
X896485Y955911D01*
X896608Y955898D01*
X896730Y955880D01*
X896852Y955859D01*
X896973Y955833D01*
X897093Y955804D01*
X897212Y955771D01*
X897330Y955735D01*
X897447Y955694D01*
X897563Y955650D01*
X897677Y955602D01*
X897789Y955551D01*
X897900Y955496D01*
X898009Y955438D01*
X898116Y955376D01*
X898221Y955311D01*
X898324Y955242D01*
X898424Y955171D01*
X898523Y955096D01*
X898619Y955018D01*
X898712Y954937D01*
X898803Y954853D01*
X898891Y954766D01*
X898976Y954677D01*
X899059Y954585D01*
X899138Y954490D01*
X899214Y954393D01*
X899288Y954293D01*
X899358Y954192D01*
X899425Y954088D01*
X899488Y953982D01*
X899548Y953873D01*
X899605Y953764D01*
X899658Y953652D01*
X899708Y953539D01*
X899754Y953424D01*
X899796Y953308D01*
X899834Y953191D01*
X899869Y953072D01*
X899900Y952952D01*
X899927Y952832D01*
X899951Y952710D01*
X899970Y952588D01*
X899986Y952466D01*
X899998Y952343D01*
X900006Y952219D01*
X900010Y952096D01*
X900010Y951972D01*
X900006Y951849D01*
X899998Y951725D01*
X899986Y951602D01*
X899970Y951480D01*
X899951Y951358D01*
X899927Y951236D01*
X899900Y951116D01*
X899869Y950996D01*
X899834Y950877D01*
X899796Y950760D01*
X899754Y950644D01*
X899708Y950529D01*
X899658Y950416D01*
X899605Y950304D01*
X899548Y950195D01*
X899488Y950087D01*
X899425Y949980D01*
X899358Y949876D01*
X899288Y949775D01*
X899214Y949675D01*
X899138Y949578D01*
X899059Y949483D01*
X898976Y949391D01*
X898891Y949302D01*
X898803Y949215D01*
X898712Y949131D01*
X898619Y949050D01*
X898523Y948972D01*
X898424Y948897D01*
X898324Y948826D01*
X898221Y948757D01*
X898116Y948692D01*
X898009Y948630D01*
X897900Y948572D01*
X897789Y948517D01*
X897677Y948466D01*
X897563Y948418D01*
X897447Y948374D01*
X897330Y948333D01*
X897212Y948297D01*
X897093Y948264D01*
X896973Y948235D01*
X896852Y948209D01*
X896730Y948188D01*
X896608Y948170D01*
X896485Y948157D01*
X896362Y948147D01*
X896239Y948141D01*
X896115Y948139D01*
X907881Y932561D02*
X909828Y932561D01*
X915670Y950087D01*
X907881Y950087D02*
X911776Y938403D01*
X937129Y942298D02*
X937129Y955929D01*
X937129Y942298D02*
X937127Y942176D01*
X937121Y942053D01*
X937112Y941931D01*
X937098Y941810D01*
X937081Y941689D01*
X937060Y941568D01*
X937035Y941448D01*
X937007Y941329D01*
X936974Y941211D01*
X936938Y941094D01*
X936899Y940979D01*
X936855Y940864D01*
X936809Y940751D01*
X936758Y940640D01*
X936704Y940530D01*
X936647Y940422D01*
X936587Y940315D01*
X936523Y940211D01*
X936455Y940109D01*
X936385Y940009D01*
X936312Y939911D01*
X936235Y939815D01*
X936156Y939722D01*
X936073Y939632D01*
X935988Y939544D01*
X935900Y939459D01*
X935810Y939376D01*
X935717Y939297D01*
X935621Y939220D01*
X935523Y939147D01*
X935423Y939077D01*
X935321Y939009D01*
X935217Y938945D01*
X935110Y938885D01*
X935002Y938828D01*
X934892Y938774D01*
X934781Y938723D01*
X934668Y938677D01*
X934553Y938633D01*
X934438Y938594D01*
X934321Y938558D01*
X934203Y938525D01*
X934084Y938497D01*
X933964Y938472D01*
X933843Y938451D01*
X933722Y938434D01*
X933601Y938420D01*
X933479Y938411D01*
X933356Y938405D01*
X933234Y938403D01*
X931287Y938403D01*
X946811Y941324D02*
X946811Y950087D01*
X946811Y941324D02*
X946813Y941217D01*
X946819Y941111D01*
X946829Y941005D01*
X946842Y940899D01*
X946860Y940793D01*
X946881Y940689D01*
X946906Y940585D01*
X946935Y940482D01*
X946967Y940381D01*
X947004Y940281D01*
X947044Y940182D01*
X947087Y940084D01*
X947134Y939988D01*
X947185Y939894D01*
X947239Y939802D01*
X947296Y939712D01*
X947356Y939624D01*
X947420Y939539D01*
X947487Y939456D01*
X947557Y939375D01*
X947629Y939297D01*
X947705Y939221D01*
X947783Y939149D01*
X947864Y939079D01*
X947947Y939012D01*
X948032Y938948D01*
X948120Y938888D01*
X948210Y938831D01*
X948302Y938777D01*
X948396Y938726D01*
X948492Y938679D01*
X948590Y938636D01*
X948689Y938596D01*
X948789Y938559D01*
X948890Y938527D01*
X948993Y938498D01*
X949097Y938473D01*
X949201Y938452D01*
X949307Y938434D01*
X949413Y938421D01*
X949519Y938411D01*
X949625Y938405D01*
X949732Y938403D01*
X954601Y938403D01*
X954601Y950087D01*
X966763Y945219D02*
X971145Y945219D01*
X966763Y945219D02*
X966648Y945217D01*
X966533Y945211D01*
X966418Y945202D01*
X966304Y945188D01*
X966190Y945171D01*
X966077Y945149D01*
X965965Y945124D01*
X965853Y945095D01*
X965743Y945063D01*
X965634Y945026D01*
X965526Y944986D01*
X965419Y944943D01*
X965314Y944896D01*
X965211Y944845D01*
X965109Y944791D01*
X965009Y944733D01*
X964912Y944672D01*
X964816Y944608D01*
X964723Y944541D01*
X964632Y944470D01*
X964543Y944397D01*
X964457Y944320D01*
X964374Y944241D01*
X964293Y944159D01*
X964215Y944074D01*
X964140Y943987D01*
X964068Y943897D01*
X963999Y943805D01*
X963933Y943710D01*
X963871Y943614D01*
X963812Y943515D01*
X963756Y943414D01*
X963703Y943312D01*
X963654Y943208D01*
X963609Y943102D01*
X963567Y942995D01*
X963529Y942886D01*
X963495Y942776D01*
X963464Y942665D01*
X963437Y942553D01*
X963414Y942441D01*
X963394Y942327D01*
X963379Y942213D01*
X963367Y942098D01*
X963359Y941984D01*
X963355Y941869D01*
X963355Y941753D01*
X963359Y941638D01*
X963367Y941524D01*
X963379Y941409D01*
X963394Y941295D01*
X963414Y941181D01*
X963437Y941069D01*
X963464Y940957D01*
X963495Y940846D01*
X963529Y940736D01*
X963567Y940627D01*
X963609Y940520D01*
X963654Y940414D01*
X963703Y940310D01*
X963756Y940208D01*
X963812Y940107D01*
X963871Y940008D01*
X963933Y939912D01*
X963999Y939817D01*
X964068Y939725D01*
X964140Y939635D01*
X964215Y939548D01*
X964293Y939463D01*
X964374Y939381D01*
X964457Y939302D01*
X964543Y939225D01*
X964632Y939152D01*
X964723Y939081D01*
X964816Y939014D01*
X964912Y938950D01*
X965009Y938889D01*
X965109Y938831D01*
X965211Y938777D01*
X965314Y938726D01*
X965419Y938679D01*
X965526Y938636D01*
X965634Y938596D01*
X965743Y938559D01*
X965853Y938527D01*
X965965Y938498D01*
X966077Y938473D01*
X966190Y938451D01*
X966304Y938434D01*
X966418Y938420D01*
X966533Y938411D01*
X966648Y938405D01*
X966763Y938403D01*
X971145Y938403D01*
X971145Y947166D01*
X971143Y947273D01*
X971137Y947379D01*
X971127Y947485D01*
X971114Y947591D01*
X971096Y947697D01*
X971075Y947801D01*
X971050Y947905D01*
X971021Y948008D01*
X970989Y948109D01*
X970952Y948209D01*
X970912Y948308D01*
X970869Y948406D01*
X970822Y948502D01*
X970771Y948596D01*
X970717Y948688D01*
X970660Y948778D01*
X970600Y948866D01*
X970536Y948951D01*
X970469Y949034D01*
X970399Y949115D01*
X970327Y949193D01*
X970251Y949269D01*
X970173Y949341D01*
X970092Y949411D01*
X970009Y949478D01*
X969924Y949542D01*
X969836Y949602D01*
X969746Y949659D01*
X969654Y949713D01*
X969560Y949764D01*
X969464Y949811D01*
X969366Y949854D01*
X969267Y949894D01*
X969167Y949931D01*
X969066Y949963D01*
X968963Y949992D01*
X968859Y950017D01*
X968755Y950038D01*
X968649Y950056D01*
X968543Y950069D01*
X968437Y950079D01*
X968331Y950085D01*
X968224Y950087D01*
X964329Y950087D01*
X980968Y950087D02*
X980968Y938403D01*
X980968Y950087D02*
X986810Y950087D01*
X986810Y948140D01*
X996078Y938403D02*
X1000946Y938403D01*
X996078Y938403D02*
X995971Y938405D01*
X995865Y938411D01*
X995759Y938421D01*
X995653Y938434D01*
X995547Y938452D01*
X995443Y938473D01*
X995339Y938498D01*
X995236Y938527D01*
X995135Y938559D01*
X995035Y938596D01*
X994936Y938636D01*
X994838Y938679D01*
X994742Y938726D01*
X994648Y938777D01*
X994556Y938831D01*
X994466Y938888D01*
X994378Y938948D01*
X994293Y939012D01*
X994210Y939079D01*
X994129Y939149D01*
X994051Y939221D01*
X993975Y939297D01*
X993903Y939375D01*
X993833Y939456D01*
X993766Y939539D01*
X993702Y939624D01*
X993642Y939712D01*
X993585Y939802D01*
X993531Y939894D01*
X993480Y939988D01*
X993433Y940084D01*
X993390Y940182D01*
X993350Y940281D01*
X993313Y940381D01*
X993281Y940482D01*
X993252Y940585D01*
X993227Y940689D01*
X993206Y940793D01*
X993188Y940899D01*
X993175Y941005D01*
X993165Y941111D01*
X993159Y941217D01*
X993157Y941324D01*
X993157Y946192D01*
X993159Y946316D01*
X993165Y946439D01*
X993175Y946562D01*
X993188Y946685D01*
X993206Y946807D01*
X993227Y946929D01*
X993253Y947050D01*
X993282Y947170D01*
X993315Y947289D01*
X993351Y947407D01*
X993392Y947524D01*
X993436Y947640D01*
X993484Y947754D01*
X993535Y947866D01*
X993590Y947977D01*
X993648Y948086D01*
X993710Y948193D01*
X993775Y948298D01*
X993844Y948401D01*
X993915Y948501D01*
X993990Y948600D01*
X994068Y948696D01*
X994149Y948789D01*
X994233Y948880D01*
X994320Y948968D01*
X994409Y949053D01*
X994501Y949136D01*
X994596Y949215D01*
X994693Y949291D01*
X994793Y949365D01*
X994894Y949435D01*
X994998Y949502D01*
X995105Y949565D01*
X995213Y949625D01*
X995322Y949682D01*
X995434Y949735D01*
X995547Y949785D01*
X995662Y949831D01*
X995778Y949873D01*
X995895Y949911D01*
X996014Y949946D01*
X996134Y949977D01*
X996254Y950004D01*
X996376Y950028D01*
X996498Y950047D01*
X996620Y950063D01*
X996743Y950075D01*
X996867Y950083D01*
X996990Y950087D01*
X997114Y950087D01*
X997237Y950083D01*
X997361Y950075D01*
X997484Y950063D01*
X997606Y950047D01*
X997728Y950028D01*
X997850Y950004D01*
X997970Y949977D01*
X998090Y949946D01*
X998209Y949911D01*
X998326Y949873D01*
X998442Y949831D01*
X998557Y949785D01*
X998670Y949735D01*
X998782Y949682D01*
X998891Y949625D01*
X999000Y949565D01*
X999106Y949502D01*
X999210Y949435D01*
X999311Y949365D01*
X999411Y949291D01*
X999508Y949215D01*
X999603Y949136D01*
X999695Y949053D01*
X999784Y948968D01*
X999871Y948880D01*
X999955Y948789D01*
X1000036Y948696D01*
X1000114Y948600D01*
X1000189Y948501D01*
X1000260Y948401D01*
X1000329Y948298D01*
X1000394Y948193D01*
X1000456Y948086D01*
X1000514Y947977D01*
X1000569Y947866D01*
X1000620Y947754D01*
X1000668Y947640D01*
X1000712Y947524D01*
X1000753Y947407D01*
X1000789Y947289D01*
X1000822Y947170D01*
X1000851Y947050D01*
X1000877Y946929D01*
X1000898Y946807D01*
X1000916Y946685D01*
X1000929Y946562D01*
X1000939Y946439D01*
X1000945Y946316D01*
X1000947Y946192D01*
X1000946Y946192D02*
X1000946Y944245D01*
X993157Y944245D01*
X1009842Y938403D02*
X1009842Y950087D01*
X1014710Y950087D01*
X1014817Y950085D01*
X1014923Y950079D01*
X1015029Y950069D01*
X1015135Y950056D01*
X1015241Y950038D01*
X1015345Y950017D01*
X1015449Y949992D01*
X1015552Y949963D01*
X1015653Y949931D01*
X1015753Y949894D01*
X1015852Y949854D01*
X1015950Y949811D01*
X1016046Y949764D01*
X1016140Y949713D01*
X1016232Y949659D01*
X1016322Y949602D01*
X1016410Y949542D01*
X1016495Y949478D01*
X1016578Y949411D01*
X1016659Y949341D01*
X1016737Y949269D01*
X1016813Y949193D01*
X1016885Y949115D01*
X1016955Y949034D01*
X1017022Y948951D01*
X1017086Y948866D01*
X1017146Y948778D01*
X1017203Y948688D01*
X1017257Y948596D01*
X1017308Y948502D01*
X1017355Y948406D01*
X1017398Y948308D01*
X1017438Y948209D01*
X1017475Y948109D01*
X1017507Y948008D01*
X1017536Y947905D01*
X1017561Y947801D01*
X1017582Y947697D01*
X1017600Y947591D01*
X1017613Y947485D01*
X1017623Y947379D01*
X1017629Y947273D01*
X1017631Y947166D01*
X1017631Y938403D01*
X1034175Y938403D02*
X1034175Y955929D01*
X1034175Y938403D02*
X1029307Y938403D01*
X1029200Y938405D01*
X1029094Y938411D01*
X1028988Y938421D01*
X1028882Y938434D01*
X1028776Y938452D01*
X1028672Y938473D01*
X1028568Y938498D01*
X1028465Y938527D01*
X1028364Y938559D01*
X1028264Y938596D01*
X1028165Y938636D01*
X1028067Y938679D01*
X1027971Y938726D01*
X1027877Y938777D01*
X1027785Y938831D01*
X1027695Y938888D01*
X1027607Y938948D01*
X1027522Y939012D01*
X1027439Y939079D01*
X1027358Y939149D01*
X1027280Y939221D01*
X1027204Y939297D01*
X1027132Y939375D01*
X1027062Y939456D01*
X1026995Y939539D01*
X1026931Y939624D01*
X1026871Y939712D01*
X1026814Y939802D01*
X1026760Y939894D01*
X1026709Y939988D01*
X1026662Y940084D01*
X1026619Y940182D01*
X1026579Y940281D01*
X1026542Y940381D01*
X1026510Y940482D01*
X1026481Y940585D01*
X1026456Y940689D01*
X1026435Y940793D01*
X1026417Y940899D01*
X1026404Y941005D01*
X1026394Y941111D01*
X1026388Y941217D01*
X1026386Y941324D01*
X1026386Y947166D01*
X1026388Y947273D01*
X1026394Y947379D01*
X1026404Y947485D01*
X1026417Y947591D01*
X1026435Y947697D01*
X1026456Y947801D01*
X1026481Y947905D01*
X1026510Y948008D01*
X1026542Y948109D01*
X1026579Y948209D01*
X1026619Y948308D01*
X1026662Y948406D01*
X1026709Y948502D01*
X1026760Y948596D01*
X1026814Y948688D01*
X1026871Y948778D01*
X1026931Y948866D01*
X1026995Y948951D01*
X1027062Y949034D01*
X1027132Y949115D01*
X1027204Y949193D01*
X1027280Y949269D01*
X1027358Y949341D01*
X1027439Y949411D01*
X1027522Y949478D01*
X1027607Y949542D01*
X1027695Y949602D01*
X1027785Y949659D01*
X1027877Y949713D01*
X1027971Y949764D01*
X1028067Y949811D01*
X1028165Y949854D01*
X1028264Y949894D01*
X1028364Y949931D01*
X1028465Y949963D01*
X1028568Y949992D01*
X1028672Y950017D01*
X1028776Y950038D01*
X1028882Y950056D01*
X1028988Y950069D01*
X1029094Y950079D01*
X1029200Y950085D01*
X1029307Y950087D01*
X1034175Y950087D01*
X1043998Y950087D02*
X1043998Y938403D01*
X1043998Y950087D02*
X1049840Y950087D01*
X1049840Y948140D01*
X1059455Y945219D02*
X1063836Y945219D01*
X1059455Y945219D02*
X1059340Y945217D01*
X1059225Y945211D01*
X1059110Y945202D01*
X1058996Y945188D01*
X1058882Y945171D01*
X1058769Y945149D01*
X1058657Y945124D01*
X1058545Y945095D01*
X1058435Y945063D01*
X1058326Y945026D01*
X1058218Y944986D01*
X1058111Y944943D01*
X1058006Y944896D01*
X1057903Y944845D01*
X1057801Y944791D01*
X1057701Y944733D01*
X1057604Y944672D01*
X1057508Y944608D01*
X1057415Y944541D01*
X1057324Y944470D01*
X1057235Y944397D01*
X1057149Y944320D01*
X1057066Y944241D01*
X1056985Y944159D01*
X1056907Y944074D01*
X1056832Y943987D01*
X1056760Y943897D01*
X1056691Y943805D01*
X1056625Y943710D01*
X1056563Y943614D01*
X1056504Y943515D01*
X1056448Y943414D01*
X1056395Y943312D01*
X1056346Y943208D01*
X1056301Y943102D01*
X1056259Y942995D01*
X1056221Y942886D01*
X1056187Y942776D01*
X1056156Y942665D01*
X1056129Y942553D01*
X1056106Y942441D01*
X1056086Y942327D01*
X1056071Y942213D01*
X1056059Y942098D01*
X1056051Y941984D01*
X1056047Y941869D01*
X1056047Y941753D01*
X1056051Y941638D01*
X1056059Y941524D01*
X1056071Y941409D01*
X1056086Y941295D01*
X1056106Y941181D01*
X1056129Y941069D01*
X1056156Y940957D01*
X1056187Y940846D01*
X1056221Y940736D01*
X1056259Y940627D01*
X1056301Y940520D01*
X1056346Y940414D01*
X1056395Y940310D01*
X1056448Y940208D01*
X1056504Y940107D01*
X1056563Y940008D01*
X1056625Y939912D01*
X1056691Y939817D01*
X1056760Y939725D01*
X1056832Y939635D01*
X1056907Y939548D01*
X1056985Y939463D01*
X1057066Y939381D01*
X1057149Y939302D01*
X1057235Y939225D01*
X1057324Y939152D01*
X1057415Y939081D01*
X1057508Y939014D01*
X1057604Y938950D01*
X1057701Y938889D01*
X1057801Y938831D01*
X1057903Y938777D01*
X1058006Y938726D01*
X1058111Y938679D01*
X1058218Y938636D01*
X1058326Y938596D01*
X1058435Y938559D01*
X1058545Y938527D01*
X1058657Y938498D01*
X1058769Y938473D01*
X1058882Y938451D01*
X1058996Y938434D01*
X1059110Y938420D01*
X1059225Y938411D01*
X1059340Y938405D01*
X1059455Y938403D01*
X1063836Y938403D01*
X1063836Y947166D01*
X1063834Y947273D01*
X1063828Y947379D01*
X1063818Y947485D01*
X1063805Y947591D01*
X1063787Y947697D01*
X1063766Y947801D01*
X1063741Y947905D01*
X1063712Y948008D01*
X1063680Y948109D01*
X1063643Y948209D01*
X1063603Y948308D01*
X1063560Y948406D01*
X1063513Y948502D01*
X1063462Y948596D01*
X1063408Y948688D01*
X1063351Y948778D01*
X1063291Y948866D01*
X1063227Y948951D01*
X1063160Y949034D01*
X1063090Y949115D01*
X1063018Y949193D01*
X1062942Y949269D01*
X1062864Y949341D01*
X1062783Y949411D01*
X1062700Y949478D01*
X1062615Y949542D01*
X1062527Y949602D01*
X1062437Y949659D01*
X1062345Y949713D01*
X1062251Y949764D01*
X1062155Y949811D01*
X1062057Y949854D01*
X1061958Y949894D01*
X1061858Y949931D01*
X1061757Y949963D01*
X1061654Y949992D01*
X1061550Y950017D01*
X1061446Y950038D01*
X1061340Y950056D01*
X1061234Y950069D01*
X1061128Y950079D01*
X1061022Y950085D01*
X1060915Y950087D01*
X1057021Y950087D01*
X1083815Y955929D02*
X1083815Y938403D01*
X1083815Y955929D02*
X1088683Y955929D01*
X1088821Y955927D01*
X1088958Y955921D01*
X1089096Y955911D01*
X1089233Y955898D01*
X1089370Y955880D01*
X1089506Y955859D01*
X1089641Y955834D01*
X1089776Y955805D01*
X1089910Y955772D01*
X1090042Y955735D01*
X1090174Y955695D01*
X1090305Y955651D01*
X1090434Y955603D01*
X1090562Y955552D01*
X1090688Y955497D01*
X1090813Y955438D01*
X1090936Y955376D01*
X1091057Y955311D01*
X1091176Y955242D01*
X1091294Y955170D01*
X1091409Y955094D01*
X1091522Y955015D01*
X1091633Y954934D01*
X1091741Y954848D01*
X1091847Y954760D01*
X1091951Y954669D01*
X1092051Y954575D01*
X1092149Y954479D01*
X1092245Y954379D01*
X1092337Y954277D01*
X1092427Y954172D01*
X1092513Y954065D01*
X1092597Y953956D01*
X1092677Y953844D01*
X1092754Y953730D01*
X1092828Y953613D01*
X1092899Y953495D01*
X1092966Y953375D01*
X1093030Y953253D01*
X1093090Y953129D01*
X1093147Y953003D01*
X1093200Y952876D01*
X1093250Y952748D01*
X1093295Y952618D01*
X1093338Y952486D01*
X1093376Y952354D01*
X1093411Y952221D01*
X1093442Y952087D01*
X1093469Y951952D01*
X1093492Y951816D01*
X1093512Y951679D01*
X1093527Y951542D01*
X1093539Y951405D01*
X1093547Y951268D01*
X1093551Y951130D01*
X1093551Y950992D01*
X1093547Y950854D01*
X1093539Y950717D01*
X1093527Y950580D01*
X1093512Y950443D01*
X1093492Y950306D01*
X1093469Y950170D01*
X1093442Y950035D01*
X1093411Y949901D01*
X1093376Y949768D01*
X1093338Y949636D01*
X1093295Y949504D01*
X1093250Y949374D01*
X1093200Y949246D01*
X1093147Y949119D01*
X1093090Y948993D01*
X1093030Y948869D01*
X1092966Y948747D01*
X1092899Y948627D01*
X1092828Y948509D01*
X1092754Y948392D01*
X1092677Y948278D01*
X1092597Y948166D01*
X1092513Y948057D01*
X1092427Y947950D01*
X1092337Y947845D01*
X1092245Y947743D01*
X1092149Y947643D01*
X1092051Y947547D01*
X1091951Y947453D01*
X1091847Y947362D01*
X1091741Y947274D01*
X1091633Y947188D01*
X1091522Y947107D01*
X1091409Y947028D01*
X1091294Y946952D01*
X1091176Y946880D01*
X1091057Y946811D01*
X1090936Y946746D01*
X1090813Y946684D01*
X1090688Y946625D01*
X1090562Y946570D01*
X1090434Y946519D01*
X1090305Y946471D01*
X1090174Y946427D01*
X1090042Y946387D01*
X1089910Y946350D01*
X1089776Y946317D01*
X1089641Y946288D01*
X1089506Y946263D01*
X1089370Y946242D01*
X1089233Y946224D01*
X1089096Y946211D01*
X1088958Y946201D01*
X1088821Y946195D01*
X1088683Y946193D01*
X1088683Y946192D02*
X1083815Y946192D01*
X1089657Y946192D02*
X1093552Y938403D01*
X1105183Y945219D02*
X1109564Y945219D01*
X1105183Y945219D02*
X1105068Y945217D01*
X1104953Y945211D01*
X1104838Y945202D01*
X1104724Y945188D01*
X1104610Y945171D01*
X1104497Y945149D01*
X1104385Y945124D01*
X1104273Y945095D01*
X1104163Y945063D01*
X1104054Y945026D01*
X1103946Y944986D01*
X1103839Y944943D01*
X1103734Y944896D01*
X1103631Y944845D01*
X1103529Y944791D01*
X1103429Y944733D01*
X1103332Y944672D01*
X1103236Y944608D01*
X1103143Y944541D01*
X1103052Y944470D01*
X1102963Y944397D01*
X1102877Y944320D01*
X1102794Y944241D01*
X1102713Y944159D01*
X1102635Y944074D01*
X1102560Y943987D01*
X1102488Y943897D01*
X1102419Y943805D01*
X1102353Y943710D01*
X1102291Y943614D01*
X1102232Y943515D01*
X1102176Y943414D01*
X1102123Y943312D01*
X1102074Y943208D01*
X1102029Y943102D01*
X1101987Y942995D01*
X1101949Y942886D01*
X1101915Y942776D01*
X1101884Y942665D01*
X1101857Y942553D01*
X1101834Y942441D01*
X1101814Y942327D01*
X1101799Y942213D01*
X1101787Y942098D01*
X1101779Y941984D01*
X1101775Y941869D01*
X1101775Y941753D01*
X1101779Y941638D01*
X1101787Y941524D01*
X1101799Y941409D01*
X1101814Y941295D01*
X1101834Y941181D01*
X1101857Y941069D01*
X1101884Y940957D01*
X1101915Y940846D01*
X1101949Y940736D01*
X1101987Y940627D01*
X1102029Y940520D01*
X1102074Y940414D01*
X1102123Y940310D01*
X1102176Y940208D01*
X1102232Y940107D01*
X1102291Y940008D01*
X1102353Y939912D01*
X1102419Y939817D01*
X1102488Y939725D01*
X1102560Y939635D01*
X1102635Y939548D01*
X1102713Y939463D01*
X1102794Y939381D01*
X1102877Y939302D01*
X1102963Y939225D01*
X1103052Y939152D01*
X1103143Y939081D01*
X1103236Y939014D01*
X1103332Y938950D01*
X1103429Y938889D01*
X1103529Y938831D01*
X1103631Y938777D01*
X1103734Y938726D01*
X1103839Y938679D01*
X1103946Y938636D01*
X1104054Y938596D01*
X1104163Y938559D01*
X1104273Y938527D01*
X1104385Y938498D01*
X1104497Y938473D01*
X1104610Y938451D01*
X1104724Y938434D01*
X1104838Y938420D01*
X1104953Y938411D01*
X1105068Y938405D01*
X1105183Y938403D01*
X1109564Y938403D01*
X1109564Y947166D01*
X1109562Y947273D01*
X1109556Y947379D01*
X1109546Y947485D01*
X1109533Y947591D01*
X1109515Y947697D01*
X1109494Y947801D01*
X1109469Y947905D01*
X1109440Y948008D01*
X1109408Y948109D01*
X1109371Y948209D01*
X1109331Y948308D01*
X1109288Y948406D01*
X1109241Y948502D01*
X1109190Y948596D01*
X1109136Y948688D01*
X1109079Y948778D01*
X1109019Y948866D01*
X1108955Y948951D01*
X1108888Y949034D01*
X1108818Y949115D01*
X1108746Y949193D01*
X1108670Y949269D01*
X1108592Y949341D01*
X1108511Y949411D01*
X1108428Y949478D01*
X1108343Y949542D01*
X1108255Y949602D01*
X1108165Y949659D01*
X1108073Y949713D01*
X1107979Y949764D01*
X1107883Y949811D01*
X1107785Y949854D01*
X1107686Y949894D01*
X1107586Y949931D01*
X1107485Y949963D01*
X1107382Y949992D01*
X1107278Y950017D01*
X1107174Y950038D01*
X1107068Y950056D01*
X1106962Y950069D01*
X1106856Y950079D01*
X1106750Y950085D01*
X1106643Y950087D01*
X1102749Y950087D01*
X1119742Y950087D02*
X1119742Y938403D01*
X1119742Y950087D02*
X1128505Y950087D01*
X1128612Y950085D01*
X1128718Y950079D01*
X1128824Y950069D01*
X1128930Y950056D01*
X1129036Y950038D01*
X1129140Y950017D01*
X1129244Y949992D01*
X1129347Y949963D01*
X1129448Y949931D01*
X1129548Y949894D01*
X1129647Y949854D01*
X1129745Y949811D01*
X1129841Y949764D01*
X1129935Y949713D01*
X1130027Y949659D01*
X1130117Y949602D01*
X1130205Y949542D01*
X1130290Y949478D01*
X1130373Y949411D01*
X1130454Y949341D01*
X1130532Y949269D01*
X1130608Y949193D01*
X1130680Y949115D01*
X1130750Y949034D01*
X1130817Y948951D01*
X1130881Y948866D01*
X1130941Y948778D01*
X1130998Y948688D01*
X1131052Y948596D01*
X1131103Y948502D01*
X1131150Y948406D01*
X1131193Y948308D01*
X1131233Y948209D01*
X1131270Y948109D01*
X1131302Y948008D01*
X1131331Y947905D01*
X1131356Y947801D01*
X1131377Y947697D01*
X1131395Y947591D01*
X1131408Y947485D01*
X1131418Y947379D01*
X1131424Y947273D01*
X1131426Y947166D01*
X1131426Y938403D01*
X1125584Y938403D02*
X1125584Y950087D01*
X1144113Y945219D02*
X1148495Y945219D01*
X1144113Y945219D02*
X1143998Y945217D01*
X1143883Y945211D01*
X1143768Y945202D01*
X1143654Y945188D01*
X1143540Y945171D01*
X1143427Y945149D01*
X1143315Y945124D01*
X1143203Y945095D01*
X1143093Y945063D01*
X1142984Y945026D01*
X1142876Y944986D01*
X1142769Y944943D01*
X1142664Y944896D01*
X1142561Y944845D01*
X1142459Y944791D01*
X1142359Y944733D01*
X1142262Y944672D01*
X1142166Y944608D01*
X1142073Y944541D01*
X1141982Y944470D01*
X1141893Y944397D01*
X1141807Y944320D01*
X1141724Y944241D01*
X1141643Y944159D01*
X1141565Y944074D01*
X1141490Y943987D01*
X1141418Y943897D01*
X1141349Y943805D01*
X1141283Y943710D01*
X1141221Y943614D01*
X1141162Y943515D01*
X1141106Y943414D01*
X1141053Y943312D01*
X1141004Y943208D01*
X1140959Y943102D01*
X1140917Y942995D01*
X1140879Y942886D01*
X1140845Y942776D01*
X1140814Y942665D01*
X1140787Y942553D01*
X1140764Y942441D01*
X1140744Y942327D01*
X1140729Y942213D01*
X1140717Y942098D01*
X1140709Y941984D01*
X1140705Y941869D01*
X1140705Y941753D01*
X1140709Y941638D01*
X1140717Y941524D01*
X1140729Y941409D01*
X1140744Y941295D01*
X1140764Y941181D01*
X1140787Y941069D01*
X1140814Y940957D01*
X1140845Y940846D01*
X1140879Y940736D01*
X1140917Y940627D01*
X1140959Y940520D01*
X1141004Y940414D01*
X1141053Y940310D01*
X1141106Y940208D01*
X1141162Y940107D01*
X1141221Y940008D01*
X1141283Y939912D01*
X1141349Y939817D01*
X1141418Y939725D01*
X1141490Y939635D01*
X1141565Y939548D01*
X1141643Y939463D01*
X1141724Y939381D01*
X1141807Y939302D01*
X1141893Y939225D01*
X1141982Y939152D01*
X1142073Y939081D01*
X1142166Y939014D01*
X1142262Y938950D01*
X1142359Y938889D01*
X1142459Y938831D01*
X1142561Y938777D01*
X1142664Y938726D01*
X1142769Y938679D01*
X1142876Y938636D01*
X1142984Y938596D01*
X1143093Y938559D01*
X1143203Y938527D01*
X1143315Y938498D01*
X1143427Y938473D01*
X1143540Y938451D01*
X1143654Y938434D01*
X1143768Y938420D01*
X1143883Y938411D01*
X1143998Y938405D01*
X1144113Y938403D01*
X1148495Y938403D01*
X1148495Y947166D01*
X1148493Y947273D01*
X1148487Y947379D01*
X1148477Y947485D01*
X1148464Y947591D01*
X1148446Y947697D01*
X1148425Y947801D01*
X1148400Y947905D01*
X1148371Y948008D01*
X1148339Y948109D01*
X1148302Y948209D01*
X1148262Y948308D01*
X1148219Y948406D01*
X1148172Y948502D01*
X1148121Y948596D01*
X1148067Y948688D01*
X1148010Y948778D01*
X1147950Y948866D01*
X1147886Y948951D01*
X1147819Y949034D01*
X1147749Y949115D01*
X1147677Y949193D01*
X1147601Y949269D01*
X1147523Y949341D01*
X1147442Y949411D01*
X1147359Y949478D01*
X1147274Y949542D01*
X1147186Y949602D01*
X1147096Y949659D01*
X1147004Y949713D01*
X1146910Y949764D01*
X1146814Y949811D01*
X1146716Y949854D01*
X1146617Y949894D01*
X1146517Y949931D01*
X1146416Y949963D01*
X1146313Y949992D01*
X1146209Y950017D01*
X1146105Y950038D01*
X1145999Y950056D01*
X1145893Y950069D01*
X1145787Y950079D01*
X1145681Y950085D01*
X1145574Y950087D01*
X1141679Y950087D01*
X1165179Y955929D02*
X1165179Y938403D01*
X1160311Y938403D01*
X1160204Y938405D01*
X1160098Y938411D01*
X1159992Y938421D01*
X1159886Y938434D01*
X1159780Y938452D01*
X1159676Y938473D01*
X1159572Y938498D01*
X1159469Y938527D01*
X1159368Y938559D01*
X1159268Y938596D01*
X1159169Y938636D01*
X1159071Y938679D01*
X1158975Y938726D01*
X1158881Y938777D01*
X1158789Y938831D01*
X1158699Y938888D01*
X1158611Y938948D01*
X1158526Y939012D01*
X1158443Y939079D01*
X1158362Y939149D01*
X1158284Y939221D01*
X1158208Y939297D01*
X1158136Y939375D01*
X1158066Y939456D01*
X1157999Y939539D01*
X1157935Y939624D01*
X1157875Y939712D01*
X1157818Y939802D01*
X1157764Y939894D01*
X1157713Y939988D01*
X1157666Y940084D01*
X1157623Y940182D01*
X1157583Y940281D01*
X1157546Y940381D01*
X1157514Y940482D01*
X1157485Y940585D01*
X1157460Y940689D01*
X1157439Y940793D01*
X1157421Y940899D01*
X1157408Y941005D01*
X1157398Y941111D01*
X1157392Y941217D01*
X1157390Y941324D01*
X1157390Y947166D01*
X1157392Y947273D01*
X1157398Y947379D01*
X1157408Y947485D01*
X1157421Y947591D01*
X1157439Y947697D01*
X1157460Y947801D01*
X1157485Y947905D01*
X1157514Y948008D01*
X1157546Y948109D01*
X1157583Y948209D01*
X1157623Y948308D01*
X1157666Y948406D01*
X1157713Y948502D01*
X1157764Y948596D01*
X1157818Y948688D01*
X1157875Y948778D01*
X1157935Y948866D01*
X1157999Y948951D01*
X1158066Y949034D01*
X1158136Y949115D01*
X1158208Y949193D01*
X1158284Y949269D01*
X1158362Y949341D01*
X1158443Y949411D01*
X1158526Y949478D01*
X1158611Y949542D01*
X1158699Y949602D01*
X1158789Y949659D01*
X1158881Y949713D01*
X1158975Y949764D01*
X1159071Y949811D01*
X1159169Y949854D01*
X1159268Y949894D01*
X1159368Y949931D01*
X1159469Y949963D01*
X1159572Y949992D01*
X1159676Y950017D01*
X1159780Y950038D01*
X1159886Y950056D01*
X1159992Y950069D01*
X1160098Y950079D01*
X1160204Y950085D01*
X1160311Y950087D01*
X1165179Y950087D01*
X1174833Y955929D02*
X1174833Y938403D01*
X1174833Y950087D02*
X1179701Y950087D01*
X1179808Y950085D01*
X1179914Y950079D01*
X1180020Y950069D01*
X1180126Y950056D01*
X1180232Y950038D01*
X1180336Y950017D01*
X1180440Y949992D01*
X1180543Y949963D01*
X1180644Y949931D01*
X1180744Y949894D01*
X1180843Y949854D01*
X1180941Y949811D01*
X1181037Y949764D01*
X1181131Y949713D01*
X1181223Y949659D01*
X1181313Y949602D01*
X1181401Y949542D01*
X1181486Y949478D01*
X1181569Y949411D01*
X1181650Y949341D01*
X1181728Y949269D01*
X1181804Y949193D01*
X1181876Y949115D01*
X1181946Y949034D01*
X1182013Y948951D01*
X1182077Y948866D01*
X1182137Y948778D01*
X1182194Y948688D01*
X1182248Y948596D01*
X1182299Y948502D01*
X1182346Y948406D01*
X1182389Y948308D01*
X1182429Y948209D01*
X1182466Y948109D01*
X1182498Y948008D01*
X1182527Y947905D01*
X1182552Y947801D01*
X1182573Y947697D01*
X1182591Y947591D01*
X1182604Y947485D01*
X1182614Y947379D01*
X1182620Y947273D01*
X1182622Y947166D01*
X1182622Y938403D01*
X1194785Y945219D02*
X1199166Y945219D01*
X1194785Y945219D02*
X1194670Y945217D01*
X1194555Y945211D01*
X1194440Y945202D01*
X1194326Y945188D01*
X1194212Y945171D01*
X1194099Y945149D01*
X1193987Y945124D01*
X1193875Y945095D01*
X1193765Y945063D01*
X1193656Y945026D01*
X1193548Y944986D01*
X1193441Y944943D01*
X1193336Y944896D01*
X1193233Y944845D01*
X1193131Y944791D01*
X1193031Y944733D01*
X1192934Y944672D01*
X1192838Y944608D01*
X1192745Y944541D01*
X1192654Y944470D01*
X1192565Y944397D01*
X1192479Y944320D01*
X1192396Y944241D01*
X1192315Y944159D01*
X1192237Y944074D01*
X1192162Y943987D01*
X1192090Y943897D01*
X1192021Y943805D01*
X1191955Y943710D01*
X1191893Y943614D01*
X1191834Y943515D01*
X1191778Y943414D01*
X1191725Y943312D01*
X1191676Y943208D01*
X1191631Y943102D01*
X1191589Y942995D01*
X1191551Y942886D01*
X1191517Y942776D01*
X1191486Y942665D01*
X1191459Y942553D01*
X1191436Y942441D01*
X1191416Y942327D01*
X1191401Y942213D01*
X1191389Y942098D01*
X1191381Y941984D01*
X1191377Y941869D01*
X1191377Y941753D01*
X1191381Y941638D01*
X1191389Y941524D01*
X1191401Y941409D01*
X1191416Y941295D01*
X1191436Y941181D01*
X1191459Y941069D01*
X1191486Y940957D01*
X1191517Y940846D01*
X1191551Y940736D01*
X1191589Y940627D01*
X1191631Y940520D01*
X1191676Y940414D01*
X1191725Y940310D01*
X1191778Y940208D01*
X1191834Y940107D01*
X1191893Y940008D01*
X1191955Y939912D01*
X1192021Y939817D01*
X1192090Y939725D01*
X1192162Y939635D01*
X1192237Y939548D01*
X1192315Y939463D01*
X1192396Y939381D01*
X1192479Y939302D01*
X1192565Y939225D01*
X1192654Y939152D01*
X1192745Y939081D01*
X1192838Y939014D01*
X1192934Y938950D01*
X1193031Y938889D01*
X1193131Y938831D01*
X1193233Y938777D01*
X1193336Y938726D01*
X1193441Y938679D01*
X1193548Y938636D01*
X1193656Y938596D01*
X1193765Y938559D01*
X1193875Y938527D01*
X1193987Y938498D01*
X1194099Y938473D01*
X1194212Y938451D01*
X1194326Y938434D01*
X1194440Y938420D01*
X1194555Y938411D01*
X1194670Y938405D01*
X1194785Y938403D01*
X1199166Y938403D01*
X1199166Y947166D01*
X1199164Y947273D01*
X1199158Y947379D01*
X1199148Y947485D01*
X1199135Y947591D01*
X1199117Y947697D01*
X1199096Y947801D01*
X1199071Y947905D01*
X1199042Y948008D01*
X1199010Y948109D01*
X1198973Y948209D01*
X1198933Y948308D01*
X1198890Y948406D01*
X1198843Y948502D01*
X1198792Y948596D01*
X1198738Y948688D01*
X1198681Y948778D01*
X1198621Y948866D01*
X1198557Y948951D01*
X1198490Y949034D01*
X1198420Y949115D01*
X1198348Y949193D01*
X1198272Y949269D01*
X1198194Y949341D01*
X1198113Y949411D01*
X1198030Y949478D01*
X1197945Y949542D01*
X1197857Y949602D01*
X1197767Y949659D01*
X1197675Y949713D01*
X1197581Y949764D01*
X1197485Y949811D01*
X1197387Y949854D01*
X1197288Y949894D01*
X1197188Y949931D01*
X1197087Y949963D01*
X1196984Y949992D01*
X1196880Y950017D01*
X1196776Y950038D01*
X1196670Y950056D01*
X1196564Y950069D01*
X1196458Y950079D01*
X1196352Y950085D01*
X1196245Y950087D01*
X1192350Y950087D01*
X1208820Y950087D02*
X1208820Y938403D01*
X1208820Y950087D02*
X1213688Y950087D01*
X1213795Y950085D01*
X1213901Y950079D01*
X1214007Y950069D01*
X1214113Y950056D01*
X1214219Y950038D01*
X1214323Y950017D01*
X1214427Y949992D01*
X1214530Y949963D01*
X1214631Y949931D01*
X1214731Y949894D01*
X1214830Y949854D01*
X1214928Y949811D01*
X1215024Y949764D01*
X1215118Y949713D01*
X1215210Y949659D01*
X1215300Y949602D01*
X1215388Y949542D01*
X1215473Y949478D01*
X1215556Y949411D01*
X1215637Y949341D01*
X1215715Y949269D01*
X1215791Y949193D01*
X1215863Y949115D01*
X1215933Y949034D01*
X1216000Y948951D01*
X1216064Y948866D01*
X1216124Y948778D01*
X1216181Y948688D01*
X1216235Y948596D01*
X1216286Y948502D01*
X1216333Y948406D01*
X1216376Y948308D01*
X1216416Y948209D01*
X1216453Y948109D01*
X1216485Y948008D01*
X1216514Y947905D01*
X1216539Y947801D01*
X1216560Y947697D01*
X1216578Y947591D01*
X1216591Y947485D01*
X1216601Y947379D01*
X1216607Y947273D01*
X1216609Y947166D01*
X1216609Y938403D01*
X1225073Y938403D02*
X1225073Y950087D01*
X1224586Y954955D02*
X1224586Y955929D01*
X1225560Y955929D01*
X1225560Y954955D01*
X1224586Y954955D01*
D11*
X743800Y767990D03*
X768800Y767990D03*
X793800Y767990D03*
D12*
X724800Y837990D03*
X812800Y837990D03*
D11*
X953350Y767750D03*
X978350Y767750D03*
X1003350Y767750D03*
D12*
X934350Y837750D03*
X1022350Y837750D03*
D11*
X1162900Y768780D03*
X1187900Y768780D03*
X1212900Y768780D03*
D12*
X1143900Y838780D03*
X1231900Y838780D03*
D11*
X1372450Y768540D03*
X1397450Y768540D03*
X1422450Y768540D03*
D12*
X1353450Y838540D03*
X1441450Y838540D03*
D11*
X1582000Y768300D03*
X1607000Y768300D03*
X1632000Y768300D03*
D12*
X1563000Y838300D03*
X1651000Y838300D03*
D13*
X1453261Y556704D02*
X1453261Y543624D01*
X1427861Y543624D02*
X1427861Y556704D01*
X1402461Y556704D02*
X1402461Y543624D01*
X1377061Y543624D02*
X1377061Y556704D01*
X1351661Y556704D02*
X1351661Y543624D01*
X1326261Y543624D02*
X1326261Y556704D01*
X1300861Y556704D02*
X1300861Y543624D01*
X1275461Y543624D02*
X1275461Y556704D01*
X1250061Y556704D02*
X1250061Y543624D01*
X1224661Y543624D02*
X1224661Y556704D01*
X1199261Y556704D02*
X1199261Y543624D01*
X1173861Y543624D02*
X1173861Y556704D01*
X1148461Y556704D02*
X1148461Y543624D01*
X1123061Y543624D02*
X1123061Y556704D01*
X1097661Y556704D02*
X1097661Y543624D01*
X1072261Y543624D02*
X1072261Y556704D01*
X1046861Y556704D02*
X1046861Y543624D01*
X1021461Y543624D02*
X1021461Y556704D01*
X996061Y556704D02*
X996061Y543624D01*
X970661Y543624D02*
X970661Y556704D01*
X1453261Y696024D02*
X1453261Y709104D01*
X1427861Y709104D02*
X1427861Y696024D01*
X1402461Y696024D02*
X1402461Y709104D01*
X1377061Y709104D02*
X1377061Y696024D01*
X1351661Y696024D02*
X1351661Y709104D01*
X1326261Y709104D02*
X1326261Y696024D01*
X1300861Y696024D02*
X1300861Y709104D01*
X1275461Y709104D02*
X1275461Y696024D01*
X1250061Y696024D02*
X1250061Y709104D01*
X1224661Y709104D02*
X1224661Y696024D01*
X1199261Y696024D02*
X1199261Y709104D01*
X1173861Y709104D02*
X1173861Y696024D01*
X1148461Y696024D02*
X1148461Y709104D01*
X1123061Y709104D02*
X1123061Y696024D01*
X1097661Y696024D02*
X1097661Y709104D01*
X1072261Y709104D02*
X1072261Y696024D01*
X1046861Y696024D02*
X1046861Y709104D01*
X1021461Y709104D02*
X1021461Y696024D01*
X996061Y696024D02*
X996061Y709104D01*
X970661Y709104D02*
X970661Y696024D01*
X1002221Y613664D02*
X1015301Y613664D01*
X1015301Y588264D02*
X1002221Y588264D01*
X1002221Y639064D02*
X1015301Y639064D01*
X1015301Y664464D02*
X1002221Y664464D01*
D11*
X744620Y387230D03*
X769620Y387230D03*
X794620Y387230D03*
D12*
X725620Y457230D03*
X813620Y457230D03*
D11*
X952900Y387230D03*
X977900Y387230D03*
X1002900Y387230D03*
D12*
X933900Y457230D03*
X1021900Y457230D03*
D11*
X1162450Y388500D03*
X1187450Y388500D03*
X1212450Y388500D03*
D12*
X1143450Y458500D03*
X1231450Y458500D03*
D11*
X1372000Y387230D03*
X1397000Y387230D03*
X1422000Y387230D03*
D12*
X1353000Y457230D03*
X1441000Y457230D03*
D11*
X1590440Y387230D03*
X1615440Y387230D03*
X1640440Y387230D03*
D12*
X1571440Y457230D03*
X1659440Y457230D03*
D14*
X741680Y132080D03*
X843280Y132080D03*
D15*
X792480Y132080D03*
D16*
X792480Y132080D03*
D14*
X741680Y132080D03*
X843280Y132080D03*
D17*
X817880Y182880D03*
X754380Y157480D03*
D14*
X938530Y132080D03*
X1040130Y132080D03*
D15*
X989330Y132080D03*
D16*
X989330Y132080D03*
D14*
X938530Y132080D03*
X1040130Y132080D03*
D17*
X1014730Y182880D03*
X951230Y157480D03*
D14*
X1136650Y132080D03*
X1238250Y132080D03*
D15*
X1187450Y132080D03*
D16*
X1187450Y132080D03*
D14*
X1136650Y132080D03*
X1238250Y132080D03*
D17*
X1212850Y182880D03*
X1149350Y157480D03*
D14*
X1333500Y130810D03*
X1435100Y130810D03*
D15*
X1384300Y130810D03*
D16*
X1384300Y130810D03*
D14*
X1333500Y130810D03*
X1435100Y130810D03*
D17*
X1409700Y181610D03*
X1346200Y156210D03*
D14*
X1534160Y132080D03*
X1635760Y132080D03*
D15*
X1584960Y132080D03*
D16*
X1584960Y132080D03*
D14*
X1534160Y132080D03*
X1635760Y132080D03*
D17*
X1610360Y182880D03*
X1546860Y157480D03*
D18*
X745410Y587756D02*
X730330Y587756D01*
X730330Y613156D02*
X745410Y613156D01*
X745410Y638556D02*
X730330Y638556D01*
X730330Y663956D02*
X745410Y663956D01*
D19*
X732790Y20320D03*
X1651000Y20320D03*
X732790Y938530D03*
X1651000Y938530D03*
M02*
